<?xml version="1.0" standalone="no"?>
<!DOCTYPE svg PUBLIC "-//W3C//DTD SVG 1.1//EN" "http://www.w3.org/Graphics/SVG/1.1/DTD/svg11.dtd" >
<svg xmlns="http://www.w3.org/2000/svg">
<metadata>
Created by FontPrep 20130207 at Tue Jun 16 17:15:46 2015
 By Michael Lefebvre
Copyright (c) 2012 by Process Type Foundry, LLC. All rights reserved.
</metadata>
<defs>
<font id="baf2864d4cfcbabd96e0926e27a56f1f" horiz-adv-x='1024' >
  <font-face 
    font-family="Colfax-Regular"
    font-weight="400"
    font-stretch="normal"
    units-per-em="2048"
    panose-1="2 11 3 4 0 0 0 1 0 2"
    ascent="1536"
    descent="-512"
    x-height="1049"
    cap-height="1434"
    bbox="-106 -512 2406 1972"
    underline-thickness="73"
    underline-position="-131"
    unicode-range="U+0020-FB02"
  />
<missing-glyph horiz-adv-x="1462" 
d="M541 475l-52 51l191 191l-191 192l50 52l192 -193l195 193l49 -52l-193 -192l193 -191l-51 -51l-193 191zM240 25h983v1384h-983v-1384zM213 0v1434h1036v-1434h-1036z" />
    <glyph glyph-name=".notdef" horiz-adv-x="1462" 
d="M541 475l-52 51l191 191l-191 192l50 52l192 -193l195 193l49 -52l-193 -192l193 -191l-51 -51l-193 191zM240 25h983v1384h-983v-1384zM213 0v1434h1036v-1434h-1036z" />
    <glyph glyph-name=".null" horiz-adv-x="0" 
 />
    <glyph glyph-name="nonmarkingreturn" horiz-adv-x="681" 
 />
    <glyph glyph-name="space" unicode=" " horiz-adv-x="491" 
 />
    <glyph glyph-name="exclam" unicode="!" horiz-adv-x="536" 
d="M164 88q0 45 29 73q29 27 75 27t76 -28q29 -28 29 -72q0 -45 -30 -73q-30 -27 -75 -27q-44 0 -74 28t-30 72zM186 1434h164v-543l-41 -514h-82l-41 514v543z" />
    <glyph glyph-name="quotedbl" unicode="&#x22;" horiz-adv-x="913" 
d="M176 893v541h133v-541h-133zM604 893v541h133v-541h-133z" />
    <glyph glyph-name="numbersign" unicode="#" horiz-adv-x="1390" 
d="M514 911l-41 -366h422l41 366h-422zM162 911v111h241l48 412h122l-47 -412h422l47 412h123l-47 -412h211v-111h-223l-41 -366h221v-111h-233l-50 -434h-122l49 434h-422l-49 -434h-123l49 434h-219v111h231l41 366h-229z" />
    <glyph glyph-name="dollar" unicode="$" horiz-adv-x="1218" 
d="M545 -225v229q-184 18 -293 122t-109 271v37h144v-37q0 -131 85 -205t242 -73q158 -1 242 71t84 191q0 160 -180 227l-318 121q-139 53 -212 130q-72 77 -72 219t103 239q103 96 274 113v229h153v-232q166 -20 265 -117t100 -253v-53h-144v49q0 121 -81 191t-221 71
t-221 -63t-81 -164t46 -147q46 -48 138 -83l314 -121q143 -55 214 -138t70 -210q1 -158 -109 -261t-280 -124v-229h-153z" />
    <glyph glyph-name="percent" unicode="%" horiz-adv-x="1738" 
d="M444 0l744 1434h119l-744 -1434h-119zM1315 82q92 0 142 54t50 147v194q0 93 -50 147t-142 54q-93 0 -143 -54t-50 -147v-194q0 -92 50 -147q51 -54 143 -54zM1315 -16q-141 0 -225 85t-84 222v178q0 137 84 222t225 85t225 -85t84 -222v-178q0 -137 -84 -222t-225 -85z
M434 756q92 0 143 54q50 54 50 146v195q0 92 -50 146q-51 55 -143 55t-142 -54t-50 -147v-195q0 -92 50 -146t142 -54zM434 657q-141 0 -225 85t-84 223v178q0 137 84 222t225 85t225 -85t84 -222v-178q0 -137 -84 -223t-225 -85z" />
    <glyph glyph-name="ampersand" unicode="&#x26;" horiz-adv-x="1419" 
d="M706 84q204 0 322 133l-520 539q-233 -100 -234 -328q0 -158 114 -251t318 -93zM283 1136q0 152 102 239t268 87q167 0 273 -90t106 -233v-80h-129v78q0 92 -68 153q-69 62 -177 62t-174 -52q-67 -52 -66 -147q0 -119 114 -238l566 -585q37 94 37 207v145h131v-150
q0 -172 -74 -301l166 -170l-92 -90l-152 156q-160 -156 -455 -156q-219 0 -373 127t-153 330q0 276 297 410q-147 146 -147 298z" />
    <glyph glyph-name="quotesingle" unicode="'" horiz-adv-x="485" 
d="M176 893v541h133v-541h-133z" />
    <glyph glyph-name="parenleft" unicode="(" horiz-adv-x="632" 
d="M403 1602h152q-129 -268 -186 -490q-116 -452 0 -897q57 -221 186 -489h-152q-248 475 -247 938q-1 463 247 938z" />
    <glyph glyph-name="parenright" unicode=")" horiz-adv-x="632" 
d="M477 664q0 -463 -248 -938h-151q129 268 186 489q117 452 0 897q-57 222 -186 490h151q248 -475 248 -938z" />
    <glyph glyph-name="asterisk" unicode="*" horiz-adv-x="870" 
d="M475 760h-78v268l-235 -133l-39 68l233 133l-233 133l39 67l235 -135v273h78v-271l234 133l39 -67l-234 -133l234 -133l-39 -68l-234 133v-268z" />
    <glyph glyph-name="plus" unicode="+" horiz-adv-x="1241" 
d="M551 258v418h-387v123h387v418h139v-418h387v-123h-387v-418h-139z" />
    <glyph glyph-name="comma" unicode="," horiz-adv-x="487" 
d="M72 -233l98 458h174l-141 -458h-131z" />
    <glyph glyph-name="hyphen" unicode="-" horiz-adv-x="845" 
d="M137 571v138h572v-138h-572z" />
    <glyph glyph-name="period" unicode="." horiz-adv-x="487" 
d="M139 88q0 45 29 73q29 27 76 27q48 0 76 -28t28 -72q0 -45 -30 -73q-30 -27 -74 -27t-75 28q-30 28 -30 72z" />
    <glyph glyph-name="slash" unicode="/" horiz-adv-x="866" 
d="M72 -215l577 1751h146l-578 -1751h-145z" />
    <glyph glyph-name="zero" unicode="0" horiz-adv-x="1290" 
d="M645 100q164 0 254 94t90 248v549q0 156 -90 249t-254 93t-254 -93t-90 -249v-549q0 -156 90 -249t254 -93zM645 -29q-231 0 -366 134t-136 344v536q-1 209 135 343t367 134t367 -134t135 -343v-536q0 -209 -135 -344q-136 -134 -367 -134z" />
    <glyph glyph-name="one" unicode="1" horiz-adv-x="716" 
d="M362 0v1272l-299 -142v144l326 160h131v-1434h-158z" />
    <glyph glyph-name="two" unicode="2" horiz-adv-x="1222" 
d="M143 0v123l607 637q160 166 159 309q0 119 -83 192t-216 73t-214 -77q-81 -76 -81 -213v-32h-149v39q0 193 124 303t324 108q200 0 327 -108q126 -108 126 -285q0 -117 -62 -214t-174 -210l-505 -516h743v-129h-926z" />
    <glyph glyph-name="three" unicode="3" horiz-adv-x="1245" 
d="M225 1307v127h836v-129l-459 -502h55q199 0 325 -111t126 -294t-145 -305t-347 -122t-341 113q-140 113 -148 307h145q10 -135 104 -214t242 -79t242 84t94 214t-90 210t-241 80h-195v123l442 498h-645z" />
    <glyph glyph-name="four" unicode="4" horiz-adv-x="1253" 
d="M805 0v342h-680v117l477 975h143l-466 -973h526v340h145v-340h199v-119h-199v-342h-145z" />
    <glyph glyph-name="five" unicode="5" horiz-adv-x="1277" 
d="M635 -29q-181 -1 -317 101t-168 280h149q33 -116 119 -184t234 -68t246 100q99 100 99 250t-96 250t-246 101q-203 0 -325 -168h-150l135 801h715v-129h-590l-90 -514q52 61 142 100t194 39q201 0 333 -136t132 -340q-1 -204 -147 -344t-369 -139z" />
    <glyph glyph-name="six" unicode="6" horiz-adv-x="1228" 
d="M274 446q0 -154 94 -252t250 -98t252 100t97 255q-1 154 -93 254t-246 100q-154 -1 -254 -103t-100 -256zM675 926q189 0 317 -133t128 -334t-142 -344t-359 -143t-358 134q-140 135 -140 330t151 434l357 564h168l-416 -633v-2q104 127 294 127z" />
    <glyph glyph-name="seven" unicode="7" horiz-adv-x="1144" 
d="M133 1305v129h899v-111l-633 -1323h-157l628 1305h-737z" />
    <glyph glyph-name="eight" unicode="8" horiz-adv-x="1290" 
d="M354 1075q0 -119 83 -199t208 -79q125 0 208 80q83 81 83 199t-79 193t-212 75t-212 -76q-79 -74 -79 -193zM645 90q150 0 248 81t98 214t-95 213t-251 80t-251 -80t-95 -213t98 -214t248 -81zM645 -29q-219 0 -358 114t-139 281t85 260q86 93 203 119q-229 102 -229 334
q0 175 122 279q123 104 317 104t316 -103t121 -280q0 -231 -229 -334q117 -27 203 -119t86 -260q1 -167 -139 -281t-359 -114z" />
    <glyph glyph-name="nine" unicode="9" horiz-adv-x="1228" 
d="M954 986q0 153 -97 252t-250 99t-249 -101t-96 -259t90 -253t244 -95t256 102t102 255zM559 508q-195 0 -323 134t-127 339q0 205 139 343t359 138q221 0 361 -134t140 -330t-102 -359l-406 -639h-170l404 618v3q-37 -47 -114 -80t-161 -33z" />
    <glyph glyph-name="colon" unicode=":" horiz-adv-x="487" 
d="M139 766q0 45 29 73q29 27 76 27q48 0 76 -28t28 -72q0 -45 -30 -73q-30 -27 -74 -27t-75 28q-30 28 -30 72zM139 88q0 45 29 73q29 27 76 27q48 0 76 -28t28 -72q0 -45 -30 -73q-30 -27 -74 -27t-75 28q-30 28 -30 72z" />
    <glyph glyph-name="semicolon" unicode=";" horiz-adv-x="487" 
d="M160 766q0 45 28 73q29 27 76 27t76 -28t29 -72q0 -45 -30 -73q-30 -27 -75 -27t-75 27q-29 28 -29 73zM61 -233l99 458h174l-141 -458h-132z" />
    <glyph glyph-name="less" unicode="&#x3c;" horiz-adv-x="1210" 
d="M1036 238l-913 450v98l913 451v-137l-743 -363l743 -362v-137z" />
    <glyph glyph-name="equal" unicode="=" horiz-adv-x="1257" 
d="M184 432v123h889v-123h-889zM184 920v122h889v-122h-889z" />
    <glyph glyph-name="greater" unicode="&#x3e;" horiz-adv-x="1210" 
d="M1087 688l-913 -450v137l744 362l-744 363v137l913 -451v-98z" />
    <glyph glyph-name="question" unicode="?" horiz-adv-x="1038" 
d="M365 88q0 45 28 73q29 27 76 27t76 -28t29 -72q0 -45 -30 -73q-30 -27 -75 -27t-75 27q-29 28 -29 73zM399 358v97q0 133 31 210t109 138l102 80q72 55 104 106q33 51 33 123q0 104 -73 164q-74 59 -200 59q-126 -1 -197 -65t-70 -183v-38h-144v41q0 180 111 276t302 96
t309 -97t118 -265t-162 -291l-108 -84q-76 -59 -102 -113t-25 -168v-86h-138z" />
    <glyph glyph-name="at" unicode="@" horiz-adv-x="1945" 
d="M717 549q0 -97 51 -151t140 -54t154 65t81 160l12 72q4 20 4 45q0 92 -58 158t-149 65q-180 0 -219 -233l-8 -47q-8 -45 -8 -80zM960 -236q-248 0 -434 109t-282 289t-96 414t104 437q104 205 309 327t471 122q354 0 564 -210t210 -501t-164 -448q-92 -88 -208 -88
t-181 58q-66 58 -77 139q-41 -72 -117 -120t-174 -48q-133 0 -211 86t-78 219q0 37 6 78l10 59q27 160 117 242t225 82q92 0 157 -46t89 -108l25 137h116l-75 -424q-6 -37 -6 -67q0 -88 43 -142t129 -55q124 0 198 130t74 315q0 262 -182 441t-510 179t-543 -224t-215 -585
q0 -303 190 -504t523 -200q193 0 430 63l-13 -90q-176 -66 -424 -66z" />
    <glyph glyph-name="A" unicode="A" horiz-adv-x="1392" 
d="M696 1288l-286 -796h571zM776 1434l539 -1434h-158l-131 365h-661l-129 -365h-158l538 1434h160z" />
    <glyph glyph-name="B" unicode="B" horiz-adv-x="1357" 
d="M340 795h403q127 -1 199 75t72 188t-72 182t-199 69h-403v-514zM340 125h440q154 0 236 71q82 72 82 198t-84 201t-232 75h-442v-545zM186 0v1434h592q186 0 288 -98t103 -259q0 -121 -57 -207t-154 -129q129 -29 212 -117t83 -251q0 -165 -124 -269t-336 -104h-607z" />
    <glyph glyph-name="C" unicode="C" horiz-adv-x="1435" 
d="M739 -29q-287 0 -441 173t-155 452v242q0 280 155 452t441 172q240 0 394 -145t172 -356h-154q-19 160 -125 264t-304 104t-308 -133t-111 -352v-254q0 -219 111 -352q111 -134 308 -134q196 0 302 104t127 265h154q-18 -211 -172 -357t-394 -145z" />
    <glyph glyph-name="D" unicode="D" horiz-adv-x="1431" 
d="M702 131q207 0 319 114t112 306v332q0 193 -112 307t-319 113h-358v-1172h358zM186 1434h539q266 0 416 -153t149 -398v-332q0 -247 -150 -399t-415 -152h-539v1434z" />
    <glyph glyph-name="E" unicode="E" horiz-adv-x="1247" 
d="M186 0v1434h947v-134h-787v-507h727v-134h-727v-526h789v-133h-949z" />
    <glyph glyph-name="F" unicode="F" horiz-adv-x="1198" 
d="M186 0v1434h928v-134h-768v-528h709v-133h-709v-639h-160z" />
    <glyph glyph-name="G" unicode="G" horiz-adv-x="1452" 
d="M718 1329q-200 0 -308 -132t-107 -357v-238q0 -225 108 -363q109 -139 317 -139t318 109t109 313v37h-401v133h555v-151q0 -254 -151 -412q-150 -158 -428 -158q-278 -1 -432 179t-155 456v228q0 284 154 456t421 172q268 0 420 -141t156 -358h-151q-4 158 -115 262
q-110 104 -310 104z" />
    <glyph glyph-name="H" unicode="H" horiz-adv-x="1449" 
d="M186 0v1434h160v-643h758v643h160v-1434h-160v647h-758v-647h-160z" />
    <glyph glyph-name="I" unicode="I" horiz-adv-x="552" 
d="M197 0v1434h159v-1434h-159z" />
    <glyph glyph-name="J" unicode="J" horiz-adv-x="1206" 
d="M559 -29q-211 0 -339 115t-128 301v12h152v-12q0 -129 81 -206t230 -77t231 75t82 210v1045h160v-1045q0 -184 -129 -301t-340 -117z" />
    <glyph glyph-name="K" unicode="K" horiz-adv-x="1253" 
d="M186 0v1434h160v-699l647 699h193l-666 -709l688 -725h-192l-670 713v-713h-160z" />
    <glyph glyph-name="L" unicode="L" 
d="M186 0v1434h160v-1301h735v-133h-895z" />
    <glyph glyph-name="M" unicode="M" horiz-adv-x="1617" 
d="M1432 1434v-1434h-152v1126l-395 -780h-152l-395 780v-1126h-152v1434h150l473 -947l473 947h150z" />
    <glyph glyph-name="N" unicode="N" horiz-adv-x="1466" 
d="M186 0v1434h150l788 -1178v1178h156v-1434h-150l-788 1178v-1178h-156z" />
    <glyph glyph-name="O" unicode="O" horiz-adv-x="1490" 
d="M745 104q219 0 331 138t112 352v246q0 215 -112 352t-331 137t-331 -137t-111 -352v-246q-1 -214 111 -352t331 -138zM1348 602q0 -274 -157 -452t-446 -178t-445 178t-157 452v229q0 275 157 453q158 178 446 178t445 -178t157 -453v-229z" />
    <glyph glyph-name="P" unicode="P" horiz-adv-x="1308" 
d="M346 653h387q168 0 255 93q87 92 87 232t-87 231t-255 91h-387v-647zM186 0v1434h562q221 0 354 -128t133 -327t-133 -329t-354 -130h-402v-520h-160z" />
    <glyph glyph-name="Q" unicode="Q" horiz-adv-x="1490" 
d="M1188 594v246q0 215 -112 352t-331 137t-331 -137t-111 -352v-246q0 -215 112 -352t330 -138q106 0 164 25l-98 184l121 66l98 -182q158 131 158 397zM1348 602q0 -170 -64 -309t-186 -223l102 -189l-123 -63l-102 190q-111 -37 -230 -37q-289 1 -445 179t-157 452v229
q0 275 157 453q158 178 446 178t445 -178t157 -453v-229z" />
    <glyph glyph-name="R" unicode="R" horiz-adv-x="1384" 
d="M346 651h412q166 0 254 90q88 89 88 235t-90 237t-252 92h-412v-654zM186 0v1434h592q226 0 354 -129t128 -328q0 -151 -83 -267t-227 -161l312 -549h-183l-291 524h-442v-524h-160z" />
    <glyph glyph-name="S" unicode="S" horiz-adv-x="1333" 
d="M676 -29q-233 0 -384 117t-151 309v37h152v-33q0 -137 103 -220q102 -83 280 -83t278 75t101 210q0 180 -205 233l-406 107q-285 74 -284 338q0 189 135 295t358 106t364 -113q140 -114 140 -296v-35h-149v31q0 129 -94 207t-254 79q-158 -1 -252 -69t-95 -193
q0 -172 179 -219l415 -111q137 -37 219 -126t82 -222q0 -193 -150 -309t-382 -115z" />
    <glyph glyph-name="T" unicode="T" horiz-adv-x="1150" 
d="M496 0v1300h-439v134h1037v-134h-439v-1300h-159z" />
    <glyph glyph-name="U" unicode="U" horiz-adv-x="1449" 
d="M725 -29q-251 -1 -401 143t-150 369v951h160v-965q0 -168 105 -266q105 -99 285 -99t286 98t106 267v965h160v-951q0 -225 -150 -369t-401 -143z" />
    <glyph glyph-name="V" unicode="V" horiz-adv-x="1277" 
d="M551 0l-498 1434h156l430 -1280l430 1280h156l-498 -1434h-176z" />
    <glyph glyph-name="W" unicode="W" horiz-adv-x="1888" 
d="M1817 1434l-340 -1434h-154l-379 1260l-379 -1260h-153l-340 1434h153l271 -1221l368 1221h160l369 -1221l270 1221h154z" />
    <glyph glyph-name="X" unicode="X" horiz-adv-x="1286" 
d="M725 729l496 -729h-168l-410 606l-410 -606h-167l495 729l-477 705h164l395 -582l395 582h164z" />
    <glyph glyph-name="Y" unicode="Y" horiz-adv-x="1236" 
d="M539 0v543l-510 891h168l421 -746l422 746h168l-510 -891v-543h-159z" />
    <glyph glyph-name="Z" unicode="Z" horiz-adv-x="1275" 
d="M135 0v133l817 1167h-780v134h950v-134l-817 -1167h840v-133h-1010z" />
    <glyph glyph-name="bracketleft" unicode="[" horiz-adv-x="743" 
d="M176 -274v1876h486v-127h-330v-1622h330v-127h-486z" />
    <glyph glyph-name="backslash" unicode="\" horiz-adv-x="866" 
d="M217 1536l578 -1751h-146l-577 1751h145z" />
    <glyph glyph-name="bracketright" unicode="]" horiz-adv-x="743" 
d="M565 1602v-1876h-485v127h330v1622h-330v127h485z" />
    <glyph glyph-name="asciicircum" unicode="^" horiz-adv-x="1019" 
d="M578 1434l329 -570h-153l-244 439l-244 -439h-153l329 570h136z" />
    <glyph glyph-name="underscore" unicode="_" horiz-adv-x="1017" 
d="M-2 -242v74h1022v-74h-1022z" />
    <glyph glyph-name="grave" unicode="`" horiz-adv-x="727" 
d="M387 1192l-201 291h191l164 -291h-154z" />
    <glyph glyph-name="a" unicode="a" horiz-adv-x="1179" 
d="M266 304q0 -106 79 -168q79 -60 205 -60t223 66t97 163q0 96 -95 161q-95 64 -223 64t-207 -60t-79 -166zM1026 0h-149v131q-37 -61 -137 -108t-224 -48q-182 1 -290 93t-108 240t114 237q114 88 313 88t325 -131v194q0 111 -69 183q-70 72 -193 71q-193 0 -262 -157
h-143q41 131 147 205t278 75q172 -1 285 -109t113 -268v-696z" />
    <glyph glyph-name="b" unicode="b" horiz-adv-x="1220" 
d="M950 451v147q0 150 -82 249t-221 99t-232 -95t-93 -253v-135q0 -158 85 -259q85 -102 237 -102t230 98q76 98 76 251zM166 1495h156v-602q49 82 140 131t210 49q198 0 316 -131t118 -338v-160q0 -204 -118 -336t-320 -133q-126 -1 -222 55t-133 134v-164h-147v1495z" />
    <glyph glyph-name="c" unicode="c" horiz-adv-x="1146" 
d="M571 -25q-204 0 -330 129t-126 332v176q0 203 126 332t330 129q203 1 325 -111t132 -282h-139q-16 118 -92 194q-75 76 -223 76t-228 -91t-80 -245v-180q0 -154 80 -245t228 -91t223 77q76 77 92 194h139q-10 -170 -132 -282t-325 -112z" />
    <glyph glyph-name="d" unicode="d" horiz-adv-x="1220" 
d="M270 598v-147q0 -154 77 -251q77 -98 230 -98t237 102t85 259v135q0 158 -93 253t-232 95q-140 0 -222 -99t-82 -249zM899 1495h156v-1495h-148v164q-37 -78 -133 -133t-221 -56q-203 -1 -321 133t-117 336v160q0 207 118 338q119 131 316 131q119 0 210 -49t140 -131
v602z" />
    <glyph glyph-name="e" unicode="e" horiz-adv-x="1134" 
d="M264 612v-32h606v49q0 147 -75 236q-76 89 -230 89q-153 0 -227 -93t-74 -249zM578 -25q-207 0 -335 124t-128 333v168q0 217 119 345q120 128 336 128t331 -127t115 -330v-155h-752v-37q0 -146 79 -238t235 -92q114 0 188 56t100 147h140q-28 -141 -146 -231t-282 -91z
" />
    <glyph glyph-name="f" unicode="f" horiz-adv-x="720" 
d="M240 0v922h-154v127h154v139q0 154 72 230t231 77h147v-127h-135q-84 0 -122 -40t-38 -128v-151h258v-127h-258v-922h-155z" />
    <glyph glyph-name="g" unicode="g" horiz-adv-x="1216" 
d="M268 483q0 -149 78 -231t220 -82q144 0 237 86q92 86 92 231v136q0 135 -91 229q-90 94 -234 94t-223 -81t-79 -232v-150zM1051 0q0 -164 -132 -272q-133 -108 -313 -109q-180 0 -306 72t-167 196h154q84 -145 301 -145q137 0 222 72t85 190v238q-27 -78 -127 -138
t-225 -61q-197 0 -313 123t-115 305v174q0 184 114 306q115 122 316 122q135 0 227 -59t129 -140v175h150v-1049z" />
    <glyph glyph-name="h" unicode="h" horiz-adv-x="1204" 
d="M166 0v1495h156v-608q102 186 342 186q176 1 280 -111t105 -300v-662h-156v639q0 139 -66 219q-65 80 -201 80t-220 -82t-84 -240v-616h-156z" />
    <glyph glyph-name="i" unicode="i" horiz-adv-x="507" 
d="M156 1325q0 41 26 68q27 27 72 27t72 -28q26 -26 26 -67t-26 -68t-72 -27q-45 0 -72 27q-26 27 -26 68zM176 0v1049h156v-1049h-156z" />
    <glyph glyph-name="j" unicode="j" horiz-adv-x="507" 
d="M156 1325q0 41 26 68q27 27 72 27t72 -28q26 -26 26 -67t-26 -68t-72 -27q-45 0 -72 27q-26 27 -26 68zM332 1049v-1164q0 -117 -65 -179t-185 -62h-100v125h55q75 1 107 29t32 98v1153h156z" />
    <glyph glyph-name="k" unicode="k" horiz-adv-x="1050" 
d="M166 0v1495h156v-940l452 494h195l-480 -506l500 -543h-194l-473 528v-528h-156z" />
    <glyph glyph-name="l" unicode="l" horiz-adv-x="507" 
d="M176 0v1495h156v-1495h-156z" />
    <glyph glyph-name="m" unicode="m" horiz-adv-x="1906" 
d="M166 0v1049h147v-179q84 203 346 203q115 0 202 -54t132 -151q119 205 381 205q172 0 275 -112q102 -113 102 -299v-662h-156v639q0 137 -66 218q-67 81 -198 81t-213 -82t-82 -240v-616h-155v639q0 137 -67 218q-68 81 -198 81t-212 -82t-82 -240v-616h-156z" />
    <glyph glyph-name="n" unicode="n" horiz-adv-x="1204" 
d="M166 0v1049h147v-179q39 92 129 148t222 55q176 1 280 -111t105 -300v-662h-156v639q0 139 -66 219q-65 80 -201 80t-220 -82t-84 -240v-616h-156z" />
    <glyph glyph-name="o" unicode="o" 
d="M901 608q0 154 -83 247q-82 93 -234 93t-235 -93t-83 -247v-168q0 -154 83 -246t235 -94q152 0 234 94t83 246v168zM584 -25q-217 0 -343 131t-126 332v172q0 201 126 332t343 131t342 -131t125 -332v-172q0 -201 -125 -332t-342 -131z" />
    <glyph glyph-name="p" unicode="p" horiz-adv-x="1220" 
d="M950 451v147q0 154 -77 251t-229 97t-238 -101q-84 -101 -84 -259v-135q0 -158 93 -253q93 -96 232 -96t221 100t82 249zM322 -356h-156v1405h147v-164q37 78 133 133t222 55q206 0 322 -131t116 -338v-160q0 -207 -119 -338t-315 -131q-119 -1 -210 49t-140 132v-512z
" />
    <glyph glyph-name="q" unicode="q" horiz-adv-x="1220" 
d="M270 598v-147q0 -150 82 -249q82 -100 222 -100t232 96q93 96 93 253v135q0 158 -85 259q-86 101 -238 101t-229 -97t-77 -251zM1055 -356h-156v512q-49 -82 -140 -131t-210 -50q-197 0 -316 131t-118 338v160q0 205 118 337q119 132 320 132q125 0 221 -55t133 -133v164
h148v-1405z" />
    <glyph glyph-name="r" unicode="r" horiz-adv-x="722" 
d="M166 0v1049h145v-242q59 248 342 248h25v-146h-31q-153 0 -239 -100t-86 -295v-514h-156z" />
    <glyph glyph-name="s" unicode="s" horiz-adv-x="1077" 
d="M977 297q0 -139 -121 -231q-122 -92 -310 -91t-308 91t-121 239v10h141v-6q0 -98 82 -157q82 -60 211 -60t205 50t75 149q0 117 -131 145l-311 72q-117 28 -181 96t-65 170q0 143 110 221t282 78q171 0 283 -92t112 -236v-10h-142v6q0 98 -66 157q-68 58 -182 58
t-184 -46t-69 -132q0 -109 110 -135l322 -76q258 -61 258 -270z" />
    <glyph glyph-name="t" unicode="t" horiz-adv-x="763" 
d="M668 0h-131q-285 0 -285 279v643h-178v127h178v301h156v-301h268v-127h-268v-643q0 -82 34 -117t121 -35h105v-127z" />
    <glyph glyph-name="u" unicode="u" horiz-adv-x="1193" 
d="M1028 1049v-1049h-147v178q-39 -92 -129 -147t-222 -56q-172 0 -273 112t-101 300v662h155v-639q-1 -140 63 -222t197 -82t217 84t84 242v617h156z" />
    <glyph glyph-name="v" unicode="v" horiz-adv-x="1040" 
d="M987 1049l-385 -1049h-164l-385 1049h154l313 -893l314 893h153z" />
    <glyph glyph-name="w" unicode="w" horiz-adv-x="1556" 
d="M1491 1049l-287 -1049h-147l-279 885l-278 -885h-148l-286 1049h147l221 -863l271 863h147l270 -863l221 863h148z" />
    <glyph glyph-name="x" unicode="x" horiz-adv-x="1040" 
d="M600 532l369 -532h-164l-285 418l-284 -418h-164l368 532l-354 517h162l272 -400l273 400h161z" />
    <glyph glyph-name="y" unicode="y" horiz-adv-x="1040" 
d="M463 -356h-152l133 356l-391 1049h154l319 -891l308 891h153l-387 -1049z" />
    <glyph glyph-name="z" unicode="z" horiz-adv-x="1021" 
d="M117 0v117l618 809h-594v123h766v-117l-618 -809h626v-123h-798z" />
    <glyph glyph-name="braceleft" unicode="{" horiz-adv-x="870" 
d="M66 727h57q98 0 149 54t52 153v360q0 144 82 226t239 82h139v-127h-114q-102 1 -146 -47t-45 -140v-366q0 -225 -198 -258q199 -33 198 -258v-367q0 -92 44 -139t147 -47h114v-127h-139q-157 0 -239 80t-82 227v360q0 99 -52 153t-149 54h-57v127z" />
    <glyph glyph-name="bar" unicode="|" horiz-adv-x="622" 
d="M246 -307v1945h131v-1945h-131z" />
    <glyph glyph-name="braceright" unicode="}" horiz-adv-x="870" 
d="M748 727h57v-127h-57q-98 0 -150 -54t-51 -153v-360q0 -145 -82 -227t-240 -80h-139v127h115q102 0 146 47t44 139v367q0 225 199 258q-199 33 -199 258v366q0 92 -44 139t-146 48h-115v127h139q158 0 240 -81t82 -227v-360q0 -98 51 -153q52 -54 150 -54z" />
    <glyph glyph-name="asciitilde" unicode="~" horiz-adv-x="1220" 
d="M387 907q88 0 255 -100t205 -100q72 0 92 62q12 38 24 118l135 -19q-4 -127 -64 -211t-176 -84q-76 1 -242 101t-226 100t-86 -45t-36 -139l-135 10q10 307 254 307z" />
    <glyph glyph-name="uni00A0" unicode="&#xa0;" horiz-adv-x="491" 
 />
    <glyph glyph-name="exclamdown" unicode="&#xa1;" horiz-adv-x="536" 
d="M373 1346q0 -45 -29 -73t-76 -28q-48 0 -76 28t-28 73q0 44 30 72t74 28t75 -28q30 -28 30 -72zM350 0h-164v543l41 514h82l41 -514v-543z" />
    <glyph glyph-name="cent" unicode="&#xa2;" horiz-adv-x="1169" 
d="M514 0v209q-168 23 -268 137t-101 295v152q-1 179 101 293t270 137v211h154v-211q156 -23 246 -115t108 -225h-143q-16 96 -90 157q-74 62 -206 62t-210 -82t-78 -229v-148q0 -147 78 -229t210 -82t206 61t90 158h143q-16 -131 -112 -226t-244 -116v-209h-154z" />
    <glyph glyph-name="sterling" unicode="&#xa3;" horiz-adv-x="1353" 
d="M150 0v127h247v496h-219v127h219v292q0 205 110 313q111 107 307 107t306 -106t109 -281v-33h-146v31q0 119 -69 191q-70 72 -197 71q-266 0 -266 -291v-294h426v-127h-426v-496h604v-127h-1005z" />
    <glyph glyph-name="currency" unicode="&#xa4;" horiz-adv-x="1228" 
d="M614 416q115 0 177 64q61 65 61 167v135q0 102 -61 167t-177 65t-176 -65q-61 -65 -61 -167v-135q0 -103 61 -167t176 -64zM614 303q-111 0 -196 45l-113 -172h-155l167 256q-74 92 -73 221v123q0 125 73 221l-167 256h155l113 -174q84 47 196 47t195 -47l115 174h155
l-170 -256q76 -94 76 -221v-123q0 -129 -76 -221l170 -256h-155l-115 172q-84 -45 -195 -45z" />
    <glyph glyph-name="yen" unicode="&#xa5;" horiz-adv-x="1216" 
d="M164 350v119h368v100l-67 144h-301v118h244l-285 603h166l319 -713l320 713h166l-287 -603h246v-118h-301l-68 -144v-100h369v-119h-369v-350h-152v350h-368z" />
    <glyph glyph-name="brokenbar" unicode="&#xa6;" horiz-adv-x="622" 
d="M377 1638v-782h-131v782h131zM246 -307v784h131v-784h-131z" />
    <glyph glyph-name="section" unicode="&#xa7;" horiz-adv-x="1245" 
d="M293 672q0 -68 35 -111t116 -74l314 -127q92 -39 112 -49q92 102 93 203q0 125 -132 180l-331 142q-82 35 -92 41q-115 -88 -115 -205zM613 -262q-181 0 -296 92t-114 246v24h139v-20q0 -102 71 -166t197 -64t200 52q73 52 73 153q0 127 -150 183l-346 137
q-231 84 -231 287q0 168 161 276q-84 74 -84 212t109 226q110 86 296 86t296 -90t108 -248v-24h-133v24q0 104 -71 165q-72 61 -200 61t-196 -54t-68 -138q0 -85 39 -127q38 -42 111 -73l367 -153q209 -89 209 -267q0 -90 -41 -166t-101 -126q66 -72 66 -198t-115 -218
t-296 -92z" />
    <glyph glyph-name="dieresis" unicode="&#xa8;" horiz-adv-x="944" 
d="M578 1333q0 41 26 68q27 27 72 27t72 -28q26 -26 26 -67t-26 -67t-72 -27q-46 1 -72 27t-26 67zM168 1333q0 41 27 68t71 27t72 -28q27 -26 27 -67t-27 -67t-72 -27q-46 1 -72 27t-26 67z" />
    <glyph glyph-name="copyright" unicode="&#xa9;" horiz-adv-x="1765" 
d="M678 657q0 -103 51 -167t145 -64t143 46q48 46 58 120h92q-10 -104 -87 -176q-76 -72 -208 -72t-210 90t-78 223v119q0 133 78 223q78 91 210 91t208 -72t87 -176h-92q-10 74 -58 120t-142 46q-93 0 -145 -64t-52 -168v-119zM883 29q307 1 493 201t187 487
q-1 287 -187 487t-493 201q-307 0 -493 -201q-186 -202 -187 -488q0 -286 186 -487q187 -200 494 -200zM883 -25q-328 0 -534 216q-206 215 -206 525t206 526t534 216q327 0 533 -216t206 -525t-206 -525t-533 -217z" />
    <glyph glyph-name="ordfeminine" unicode="&#xaa;" horiz-adv-x="868" 
d="M410 834q80 0 137 38t57 98q0 58 -58 99t-139 41t-127 -37t-46 -102t48 -101t128 -36zM709 776h-101v82q-20 -38 -86 -68t-158 -30t-162 59t-71 155q0 96 75 151q74 57 198 57t198 -78v102q0 72 -41 117t-117 45q-129 0 -163 -100h-95q18 88 88 136t178 48t183 -71
q74 -71 74 -177v-428zM133 537v92h596v-92h-596z" />
    <glyph glyph-name="guillemotleft" unicode="&#xab;" horiz-adv-x="1257" 
d="M965 123l-353 434l353 434h178l-352 -434l352 -434h-178zM426 123l-352 434l352 434h178l-352 -434l352 -434h-178z" />
    <glyph glyph-name="logicalnot" unicode="&#xac;" horiz-adv-x="1200" 
d="M123 676v123h913v-541h-139v418h-774z" />
    <glyph glyph-name="registered" unicode="&#xae;" horiz-adv-x="1093" 
d="M473 1030h96q90 0 90 77t-90 77h-96v-154zM473 977v-133h-63v391h180q61 0 97 -37t36 -92q0 -88 -84 -121l82 -141h-74l-72 133h-102zM150 1024q0 -168 110 -281t287 -113q178 0 288 114q110 112 109 280q0 168 -109 281q-110 113 -288 113t-288 -113
q-109 -113 -109 -281zM102 1024q0 180 122 307t323 127t323 -127t121 -307q0 -180 -122 -307q-123 -127 -323 -127t-322 127t-122 307z" />
    <glyph glyph-name="macron" unicode="&#xaf;" horiz-adv-x="993" 
d="M186 1264v118h621v-118h-621z" />
    <glyph glyph-name="degree" unicode="&#xb0;" horiz-adv-x="811" 
d="M406 1376q-102 0 -158 -65q-55 -66 -55 -160t55 -160q56 -65 158 -65t157 66t55 159t-55 159t-157 66zM102 1151q0 127 80 215t224 88t223 -88q80 -88 80 -215t-80 -215t-223 -88t-224 88q-80 88 -80 215z" />
    <glyph glyph-name="plusminus" unicode="&#xb1;" horiz-adv-x="1261" 
d="M174 0v123h913v-123h-913zM561 303v395h-387v123h387v396h139v-396h387v-123h-387v-395h-139z" />
    <glyph glyph-name="twosuperior" unicode="&#xb2;" horiz-adv-x="849" 
d="M154 952v88l346 318q80 72 80 137t-40 101t-112 36q-156 0 -156 -143v-14h-108v18q0 111 73 174t193 63t194 -62q72 -62 72 -170t-129 -218l-264 -231h383v-97h-532z" />
    <glyph glyph-name="threesuperior" unicode="&#xb3;" horiz-adv-x="856" 
d="M207 1624v90h465v-90l-230 -233h7q109 -1 181 -57t72 -160t-84 -170t-196 -66t-192 62q-79 62 -87 167h105q8 -67 55 -103t122 -36t120 41t45 105t-47 99q-47 36 -131 36h-103v84l223 231h-325z" />
    <glyph glyph-name="acute" unicode="&#xb4;" horiz-adv-x="727" 
d="M340 1192h-154l166 291h189z" />
    <glyph glyph-name="mu" unicode="&#xb5;" horiz-adv-x="1204" 
d="M1038 1049v-1049h-147v178q-94 -203 -350 -203q-131 0 -219 84v-415h-156v1405h156v-654q0 -133 66 -211t196 -78q131 0 215 84t84 242v617h155z" />
    <glyph glyph-name="paragraph" unicode="&#xb6;" horiz-adv-x="1179" 
d="M870 -356v1693h-215v-944q-250 0 -395 138t-145 381t141 382t399 140h328v-1790h-113z" />
    <glyph glyph-name="periodcentered" unicode="&#xb7;" horiz-adv-x="487" 
d="M139 594q0 45 29 73q29 27 76 27q48 0 76 -28t28 -72q0 -45 -30 -73q-30 -27 -74 -27t-75 28q-30 28 -30 72z" />
    <glyph glyph-name="cedilla" unicode="&#xb8;" horiz-adv-x="714" 
d="M336 -381q-82 0 -146 12v90q55 -12 113 -12q102 0 103 55q0 49 -89 56l-94 6l39 174h98l-16 -94l27 -2q158 -10 157 -133q0 -70 -55 -111t-137 -41z" />
    <glyph glyph-name="onesuperior" unicode="&#xb9;" horiz-adv-x="622" 
d="M301 952v647l-178 -69v102l196 82h99v-762h-117z" />
    <glyph glyph-name="ordmasculine" unicode="&#xba;" horiz-adv-x="901" 
d="M451 842q98 0 150 60t52 157v90q0 97 -52 157t-150 60q-99 0 -151 -60t-52 -157v-90q0 -96 52 -157q53 -60 151 -60zM756 1059q0 -133 -83 -218t-222 -85t-223 85q-83 85 -83 218v90q0 133 83 218q82 85 222 85t223 -85t83 -218v-90zM168 537v92h565v-92h-565z" />
    <glyph glyph-name="guillemotright" unicode="&#xbb;" horiz-adv-x="1257" 
d="M645 557l-352 -434h-178l352 434l-352 434h178zM1184 557l-353 -434h-178l353 434l-353 434h178z" />
    <glyph glyph-name="onequarter" unicode="&#xbc;" horiz-adv-x="1632" 
d="M342 0l743 1434h119l-743 -1434h-119zM895 172v90l258 500h111l-250 -496h272v162h109v-162h104v-94h-104v-172h-109v172h-391zM322 672v647l-179 -70v103l197 82h98v-762h-116z" />
    <glyph glyph-name="onehalf" unicode="&#xbd;" horiz-adv-x="1667" 
d="M322 672v647l-179 -70v103l197 82h98v-762h-116zM342 0l743 1434h119l-743 -1434h-119zM991 0v88l346 318q80 72 80 137t-40 101t-111 36q-156 0 -156 -143v-15h-109v19q0 111 73 174t194 63q122 0 194 -62t72 -163q0 -66 -33 -116t-96 -109l-264 -232h383v-96h-533z" />
    <glyph glyph-name="threequarters" unicode="&#xbe;" horiz-adv-x="1767" 
d="M1030 172v90l258 500h111l-250 -496h272v162h109v-162h104v-94h-104v-172h-109v172h-391zM477 0l744 1434h118l-743 -1434h-119zM217 1343v91h465v-91l-229 -233h6q109 0 181 -56t73 -161q0 -105 -84 -171t-197 -65q-114 1 -192 63t-86 167h104q8 -66 55 -103
q47 -36 122 -36t120 40t45 104t-47 100t-131 36h-103v84l224 231h-326z" />
    <glyph glyph-name="questiondown" unicode="&#xbf;" horiz-adv-x="1038" 
d="M674 1346q0 -45 -29 -73t-76 -28t-75 28t-29 73q0 44 30 72q31 28 75 28t74 -28t30 -72zM639 1075v-96q0 -133 -31 -210t-108 -138l-103 -80q-73 -55 -105 -107t-32 -122q0 -104 74 -164t200 -60t196 65q71 65 71 183v39h143v-41q0 -180 -110 -276t-302 -96t-310 96
q-118 98 -118 266t162 291l109 84q76 59 101 112q26 53 26 168v86h137z" />
    <glyph glyph-name="Agrave" unicode="&#xc0;" horiz-adv-x="1392" 
d="M600 1556l-180 259h188l148 -259h-156zM696 1288l-286 -796h571zM776 1434l539 -1434h-158l-131 365h-661l-129 -365h-158l538 1434h160z" />
    <glyph glyph-name="Aacute" unicode="&#xc1;" horiz-adv-x="1392" 
d="M799 1556h-156l148 259h188zM696 1288l-286 -796h571zM776 1434l539 -1434h-158l-131 365h-661l-129 -365h-158l538 1434h160z" />
    <glyph glyph-name="Acircumflex" unicode="&#xc2;" horiz-adv-x="1392" 
d="M383 1556l238 259h151l238 -259h-152l-162 175l-161 -175h-152zM696 1288l-286 -796h571zM776 1434l539 -1434h-158l-131 365h-661l-129 -365h-158l538 1434h160z" />
    <glyph glyph-name="Atilde" unicode="&#xc3;" horiz-adv-x="1392" 
d="M1087 1782q-53 -215 -183 -215q-70 0 -199 63q-129 64 -179 64t-72 -35t-34 -103l-107 19q35 229 209 229q70 0 202 -63t165 -64t53 29q20 29 30 64q9 36 11 42zM696 1288l-286 -796h571zM776 1434l539 -1434h-158l-131 365h-661l-129 -365h-158l538 1434h160z" />
    <glyph glyph-name="Adieresis" unicode="&#xc4;" horiz-adv-x="1392" 
d="M825 1696q0 42 27 68t72 26q46 0 72 -27t26 -67t-27 -68q-27 -26 -71 -26t-72 26q-27 26 -27 68zM371 1696q1 42 27 68t71 26t72 -27t27 -67t-28 -68q-26 -26 -71 -26t-72 26q-26 27 -26 68zM696 1288l-286 -796h571zM776 1434l539 -1434h-158l-131 365h-661l-129 -365
h-158l538 1434h160z" />
    <glyph glyph-name="Aring" unicode="&#xc5;" horiz-adv-x="1392" 
d="M696 1434q49 0 76 26t27 72q0 45 -27 72q-27 26 -76 26q-50 0 -76 -26t-26 -72t26 -72t76 -26zM696 1288l-286 -796h571zM508 1532q0 74 51 123t137 49t138 -49t51 -123q0 -104 -90 -150l520 -1382h-158l-131 365h-661l-129 -365h-158l518 1382q-88 45 -88 150z" />
    <glyph glyph-name="AE" unicode="&#xc6;" horiz-adv-x="2131" 
d="M1071 504v807l-539 -807h539zM1071 0v375h-625l-249 -375h-172l976 1434h1016v-134h-786v-507h727v-134h-727v-526h788v-133h-948z" />
    <glyph glyph-name="Ccedilla" unicode="&#xc7;" horiz-adv-x="1435" 
d="M762 -381q-82 0 -146 12v90q55 -12 113 -12q102 0 102 55q0 49 -88 56l-94 6l33 147q-260 19 -399 189t-140 434v242q0 280 155 452t441 172q240 0 394 -145t172 -356h-154q-19 160 -125 264t-304 104t-308 -133t-111 -352v-254q0 -219 111 -352q111 -134 308 -134
q196 0 302 104t127 265h154q-17 -203 -159 -344t-366 -156l-10 -67l27 -2q158 -10 157 -133q0 -70 -55 -111t-137 -41z" />
    <glyph glyph-name="Egrave" unicode="&#xc8;" horiz-adv-x="1247" 
d="M594 1556l-180 259h188l148 -259h-156zM186 0v1434h947v-134h-787v-507h727v-134h-727v-526h789v-133h-949z" />
    <glyph glyph-name="Eacute" unicode="&#xc9;" horiz-adv-x="1247" 
d="M723 1556h-156l148 259h188zM186 0v1434h947v-134h-787v-507h727v-134h-727v-526h789v-133h-949z" />
    <glyph glyph-name="Ecircumflex" unicode="&#xca;" horiz-adv-x="1247" 
d="M346 1556l238 259h151l238 -259h-152l-162 175l-161 -175h-152zM186 0v1434h947v-134h-787v-507h727v-134h-727v-526h789v-133h-949z" />
    <glyph glyph-name="Edieresis" unicode="&#xcb;" horiz-adv-x="1247" 
d="M788 1696q0 42 27 68t72 26t71 -27t27 -67q0 -40 -27 -68q-28 -26 -72 -26t-71 26t-27 68zM334 1696q0 42 26 68t72 26q45 0 72 -27q26 -27 26 -67t-26 -68q-26 -26 -72 -26q-45 0 -72 26q-26 27 -26 68zM186 0v1434h947v-134h-787v-507h727v-134h-727v-526h789v-133
h-949z" />
    <glyph glyph-name="Igrave" unicode="&#xcc;" horiz-adv-x="552" 
d="M197 1556l-181 259h189l147 -259h-155zM197 0v1434h159v-1434h-159z" />
    <glyph glyph-name="Iacute" unicode="&#xcd;" horiz-adv-x="552" 
d="M369 1556h-156l147 259h189zM197 0v1434h159v-1434h-159z" />
    <glyph glyph-name="Icircumflex" unicode="&#xce;" horiz-adv-x="552" 
d="M-37 1556l238 259h151l238 -259h-152l-162 175l-161 -175h-152zM197 0v1434h159v-1434h-159z" />
    <glyph glyph-name="Idieresis" unicode="&#xcf;" horiz-adv-x="552" 
d="M406 1696q0 42 26 68t72 26t72 -27t26 -67t-27 -68q-27 -26 -71 -26t-72 26q-26 27 -26 68zM-49 1696q1 42 27 68t71 26t72 -27t27 -67t-28 -68q-26 -26 -71 -26t-72 26q-26 27 -26 68zM197 0v1434h159v-1434h-159z" />
    <glyph glyph-name="Eth" unicode="&#xd0;" horiz-adv-x="1497" 
d="M768 131q206 0 318 114t112 306v332q0 193 -112 307t-318 113h-358v-521h376v-131h-376v-520h358zM80 651v131h172v652h539q265 0 415 -153t150 -398v-332q0 -247 -150 -399t-415 -152h-539v651h-172z" />
    <glyph glyph-name="Ntilde" unicode="&#xd1;" horiz-adv-x="1466" 
d="M186 0v1434h150l788 -1178v1178h156v-1434h-150l-788 1178v-1178h-156zM1130 1782q-54 -215 -184 -215q-70 0 -198 63q-128 64 -178 64t-72 -35t-35 -103l-107 19q35 229 209 229q70 0 202 -63t165 -64t53 29q20 29 30 64q9 36 11 42z" />
    <glyph glyph-name="Ograve" unicode="&#xd2;" horiz-adv-x="1490" 
d="M745 104q219 0 331 138t112 352v246q0 215 -112 352t-331 137t-331 -137t-111 -352v-246q-1 -214 111 -352t331 -138zM1348 602q0 -274 -157 -452t-446 -178t-445 178t-157 452v229q0 275 157 453q158 178 446 178t445 -178t157 -453v-229zM676 1556l-180 259h188
l147 -259h-155z" />
    <glyph glyph-name="Oacute" unicode="&#xd3;" horiz-adv-x="1490" 
d="M829 1556h-155l147 259h189zM745 104q219 0 331 138t112 352v246q0 215 -112 352t-331 137t-331 -137t-111 -352v-246q-1 -214 111 -352t331 -138zM1348 602q0 -274 -157 -452t-446 -178t-445 178t-157 452v229q0 275 157 453q158 178 446 178t445 -178t157 -453v-229z
" />
    <glyph glyph-name="Ocircumflex" unicode="&#xd4;" horiz-adv-x="1490" 
d="M432 1556l238 259h151l238 -259h-152l-162 175l-161 -175h-152zM745 104q219 0 331 138t112 352v246q0 215 -112 352t-331 137t-331 -137t-111 -352v-246q-1 -214 111 -352t331 -138zM1348 602q0 -274 -157 -452t-446 -178t-445 178t-157 452v229q0 275 157 453
q158 178 446 178t445 -178t157 -453v-229z" />
    <glyph glyph-name="Otilde" unicode="&#xd5;" horiz-adv-x="1490" 
d="M1137 1782q-55 -215 -185 -215q-70 0 -198 63q-128 64 -178 64t-72 -35t-35 -103l-107 19q35 229 209 229q70 0 202 -63t165 -64t53 29q20 29 30 64q9 36 11 42zM745 104q219 0 331 138t112 352v246q0 215 -112 352t-331 137t-331 -137t-111 -352v-246q-1 -214 111 -352
t331 -138zM1348 602q0 -274 -157 -452t-446 -178t-445 178t-157 452v229q0 275 157 453q158 178 446 178t445 -178t157 -453v-229z" />
    <glyph glyph-name="Odieresis" unicode="&#xd6;" horiz-adv-x="1490" 
d="M874 1696q0 42 27 68t72 26t71 -27t27 -67q0 -40 -27 -68q-28 -26 -72 -26t-71 26t-27 68zM420 1696q0 42 26 68t72 26q45 0 72 -27q26 -27 26 -67t-26 -68q-26 -26 -72 -26q-45 0 -72 26q-26 27 -26 68zM745 104q219 0 331 138t112 352v246q0 215 -112 352t-331 137
t-331 -137t-111 -352v-246q-1 -214 111 -352t331 -138zM1348 602q0 -274 -157 -452t-446 -178t-445 178t-157 452v229q0 275 157 453q158 178 446 178t445 -178t157 -453v-229z" />
    <glyph glyph-name="multiply" unicode="&#xd7;" horiz-adv-x="1175" 
d="M164 406l332 329l-332 332l94 92l330 -332l332 332l92 -92l-332 -332l332 -329l-92 -93l-332 330l-330 -330z" />
    <glyph glyph-name="Oslash" unicode="&#xd8;" horiz-adv-x="1490" 
d="M303 594q0 -195 86 -320l635 967q-111 88 -279 88q-219 0 -331 -137t-111 -352v-246zM745 104q219 0 331 138t112 352v246q0 193 -88 319l-635 -966q110 -89 280 -89zM1348 602q0 -274 -157 -452t-446 -179q-211 0 -358 103l-115 -176h-129l162 245q-162 174 -162 459
v229q0 275 157 453t445 178q207 0 357 -102l117 176h129l-162 -248q162 -174 162 -457v-229z" />
    <glyph glyph-name="Ugrave" unicode="&#xd9;" horiz-adv-x="1449" 
d="M725 -29q-251 -1 -401 143t-150 369v951h160v-965q0 -168 105 -266q105 -99 285 -99t286 98t106 267v965h160v-951q0 -225 -150 -369t-401 -143zM666 1556l-181 259h189l147 -259h-155z" />
    <glyph glyph-name="Uacute" unicode="&#xda;" horiz-adv-x="1449" 
d="M793 1556h-156l147 259h189zM725 -29q-251 -1 -401 143t-150 369v951h160v-965q0 -168 105 -266q105 -99 285 -99t286 98t106 267v965h160v-951q0 -225 -150 -369t-401 -143z" />
    <glyph glyph-name="Ucircumflex" unicode="&#xdb;" horiz-adv-x="1449" 
d="M725 -29q-251 -1 -401 143t-150 369v951h160v-965q0 -168 105 -266q105 -99 285 -99t286 98t106 267v965h160v-951q0 -225 -150 -369t-401 -143zM412 1556l237 259h152l237 -259h-151l-162 175l-162 -175h-151z" />
    <glyph glyph-name="Udieresis" unicode="&#xdc;" horiz-adv-x="1449" 
d="M852 1696q0 42 27 68t71 26t72 -27q27 -27 27 -67t-27 -68q-27 -26 -72 -26q-46 0 -72 26t-26 68zM397 1696q0 42 27 68t72 26q46 0 72 -27t26 -67t-27 -68q-27 -26 -71 -26t-72 26q-27 26 -27 68zM725 -29q-251 -1 -401 143t-150 369v951h160v-965q0 -168 105 -266
q105 -99 285 -99t286 98t106 267v965h160v-951q0 -225 -150 -369t-401 -143z" />
    <glyph glyph-name="Yacute" unicode="&#xdd;" horiz-adv-x="1236" 
d="M688 1556h-156l148 259h188zM539 0v543l-510 891h168l421 -746l422 746h168l-510 -891v-543h-159z" />
    <glyph glyph-name="Thorn" unicode="&#xde;" horiz-adv-x="1308" 
d="M346 418h387q168 0 255 93t87 232t-87 231t-255 91h-387v-647zM186 0v1434h160v-236h402q221 0 354 -128t133 -327t-133 -329t-354 -129h-402v-285h-160z" />
    <glyph glyph-name="germandbls" unicode="&#xdf;" horiz-adv-x="1232" 
d="M166 0v1094q0 201 119 305t319 104q200 1 322 -109q123 -110 123 -280q-1 -119 -63 -213t-165 -139q141 -29 225 -122t84 -256q0 -164 -124 -274t-324 -110h-78v127h70q139 0 221 74t82 204q0 129 -88 203t-232 74h-53v127q137 4 214 90t77 206t-79 197q-79 76 -210 76
t-208 -68t-76 -210v-1100h-156z" />
    <glyph glyph-name="agrave" unicode="&#xe0;" horiz-adv-x="1179" 
d="M547 1192l-201 291h191l163 -291h-153zM266 304q0 -106 79 -168q79 -60 205 -60t223 66t97 163q0 96 -95 161q-95 64 -223 64t-207 -60t-79 -166zM1026 0h-149v131q-37 -61 -137 -108t-224 -48q-182 1 -290 93t-108 240t114 237q114 88 313 88t325 -131v194
q0 111 -69 183q-70 72 -193 71q-193 0 -262 -157h-143q41 131 147 205t278 75q172 -1 285 -109t113 -268v-696z" />
    <glyph glyph-name="aacute" unicode="&#xe1;" horiz-adv-x="1179" 
d="M686 1192h-154l166 291h189zM266 304q0 -106 79 -168q79 -60 205 -60t223 66t97 163q0 96 -95 161q-95 64 -223 64t-207 -60t-79 -166zM1026 0h-149v131q-37 -61 -137 -108t-224 -48q-182 1 -290 93t-108 240t114 237q114 88 313 88t325 -131v194q0 111 -69 183
q-70 72 -193 71q-193 0 -262 -157h-143q41 131 147 205t278 75q172 -1 285 -109t113 -268v-696z" />
    <glyph glyph-name="acircumflex" unicode="&#xe2;" horiz-adv-x="1179" 
d="M330 1192l225 291h152l225 -291h-146l-155 203l-156 -203h-145zM266 304q0 -106 79 -168q79 -60 205 -60t223 66t97 163q0 96 -95 161q-95 64 -223 64t-207 -60t-79 -166zM1026 0h-149v131q-37 -61 -137 -108t-224 -48q-182 1 -290 93t-108 240t114 237q114 88 313 88
t325 -131v194q0 111 -69 183q-70 72 -193 71q-193 0 -262 -157h-143q41 131 147 205t278 75q172 -1 285 -109t113 -268v-696z" />
    <glyph glyph-name="atilde" unicode="&#xe3;" horiz-adv-x="1179" 
d="M788 1315q65 0 85 69q5 16 7 22t7 22q4 15 6 22l102 -23q-27 -104 -69 -163t-125 -60q-51 0 -165 64t-154 63q-40 1 -62 -23t-30 -44q-7 -20 -19 -70l-103 20q39 227 203 228q67 0 183 -64t134 -63zM266 304q0 -106 79 -168q79 -60 205 -60t223 66t97 163q0 96 -95 161
q-95 64 -223 64t-207 -60t-79 -166zM1026 0h-149v131q-37 -61 -137 -108t-224 -48q-182 1 -290 93t-108 240t114 237q114 88 313 88t325 -131v194q0 111 -69 183q-70 72 -193 71q-193 0 -262 -157h-143q41 131 147 205t278 75q172 -1 285 -109t113 -268v-696z" />
    <glyph glyph-name="adieresis" unicode="&#xe4;" horiz-adv-x="1179" 
d="M731 1333q0 41 27 68q28 27 72 27t71 -28q27 -26 27 -67t-27 -67t-72 -27q-45 1 -71 27t-27 67zM322 1333q0 41 26 68q27 27 72 27t72 -28q26 -26 26 -67t-26 -67t-72 -27q-46 1 -72 27t-26 67zM266 304q0 -106 79 -168q79 -60 205 -60t223 66t97 163q0 96 -95 161
q-95 64 -223 64t-207 -60t-79 -166zM1026 0h-149v131q-37 -61 -137 -108t-224 -48q-182 1 -290 93t-108 240t114 237q114 88 313 88t325 -131v194q0 111 -69 183q-70 72 -193 71q-193 0 -262 -157h-143q41 131 147 205t278 75q172 -1 285 -109t113 -268v-696z" />
    <glyph glyph-name="aring" unicode="&#xe5;" horiz-adv-x="1179" 
d="M639 1266q49 0 76 26t26 72q0 45 -26 72q-27 26 -76 26t-76 -26t-27 -72q0 -45 27 -72q27 -26 76 -26zM639 1192q-86 0 -137 49t-51 123t51 123t137 49t137 -49t51 -123t-51 -123t-137 -49zM266 304q0 -106 79 -168q79 -60 205 -60t223 66t97 163q0 96 -95 161
q-95 64 -223 64t-207 -60t-79 -166zM1026 0h-149v131q-37 -61 -137 -108t-224 -48q-182 1 -290 93t-108 240t114 237q114 88 313 88t325 -131v194q0 111 -69 183q-70 72 -193 71q-193 0 -262 -157h-143q41 131 147 205t278 75q172 -1 285 -109t113 -268v-696z" />
    <glyph glyph-name="ae" unicode="&#xe6;" horiz-adv-x="1896" 
d="M1026 580h606v49q0 147 -76 236t-223 89q-299 1 -307 -327v-47zM266 308q0 -102 76 -166t206 -64t226 66t96 161q0 94 -93 161q-93 66 -222 66t-209 -61t-80 -163zM1360 -25q-144 -1 -249 57t-161 148q-46 -78 -156 -141t-276 -63t-284 92q-116 92 -115 239
q0 147 115 238q116 90 301 90q113 0 201 -40t134 -87v176q0 117 -70 192q-71 75 -194 74q-201 0 -266 -162h-143q37 141 145 213q109 72 266 72q236 0 350 -178q125 178 375 178q215 0 330 -127t115 -330v-155h-752v-37q0 -146 79 -238t234 -92q115 0 189 56t100 147h139
q-27 -141 -145 -231t-262 -91z" />
    <glyph glyph-name="ccedilla" unicode="&#xe7;" horiz-adv-x="1146" 
d="M595 -381q-81 0 -146 12v90q55 -12 112 -12q102 0 103 55q0 49 -89 56l-94 6l33 154q-186 18 -293 144q-106 126 -106 312v176q0 203 126 332t330 129q203 1 325 -111t132 -282h-139q-16 118 -92 194q-75 76 -223 76t-228 -91t-80 -245v-180q0 -154 80 -245t228 -91
t223 77q76 77 92 194h139q-10 -162 -122 -272t-292 -120l-12 -71l27 -2q158 -10 157 -133q0 -70 -55 -111t-136 -41z" />
    <glyph glyph-name="egrave" unicode="&#xe8;" horiz-adv-x="1134" 
d="M496 1192l-201 291h190l164 -291h-153zM264 612v-32h606v49q0 147 -75 236q-76 89 -230 89q-153 0 -227 -93t-74 -249zM578 -25q-207 0 -335 124t-128 333v168q0 217 119 345q120 128 336 128t331 -127t115 -330v-155h-752v-37q0 -146 79 -238t235 -92q114 0 188 56
t100 147h140q-28 -141 -146 -231t-282 -91z" />
    <glyph glyph-name="eacute" unicode="&#xe9;" horiz-adv-x="1134" 
d="M264 612v-32h606v49q0 147 -75 236q-76 89 -230 89q-153 0 -227 -93t-74 -249zM578 -25q-207 0 -335 124t-128 333v168q0 217 119 345q120 128 336 128t331 -127t115 -330v-155h-752v-37q0 -146 79 -238t235 -92q114 0 188 56t100 147h140q-28 -141 -146 -231t-282 -91z
M639 1192h-154l166 291h189z" />
    <glyph glyph-name="ecircumflex" unicode="&#xea;" horiz-adv-x="1134" 
d="M264 612v-32h606v49q0 147 -75 236q-76 89 -230 89q-153 0 -227 -93t-74 -249zM578 -25q-207 0 -335 124t-128 333v168q0 217 119 345q120 128 336 128t331 -127t115 -330v-155h-752v-37q0 -146 79 -238t235 -92q114 0 188 56t100 147h140q-28 -141 -146 -231t-282 -91z
M276 1192l226 291h151l226 -291h-146l-155 203l-156 -203h-146z" />
    <glyph glyph-name="edieresis" unicode="&#xeb;" horiz-adv-x="1134" 
d="M264 612v-32h606v49q0 147 -75 236q-76 89 -230 89q-153 0 -227 -93t-74 -249zM578 -25q-207 0 -335 124t-128 333v168q0 217 119 345q120 128 336 128t331 -127t115 -330v-155h-752v-37q0 -146 79 -238t235 -92q114 0 188 56t100 147h140q-28 -141 -146 -231t-282 -91z
M688 1333q0 41 27 68t71 27t72 -28q27 -26 27 -67t-27 -67t-72 -27q-46 1 -72 27t-26 67zM279 1333q0 41 26 68q27 27 72 27t72 -28q27 -26 27 -67t-28 -67q-26 -26 -71 -27q-45 1 -71 27t-27 67z" />
    <glyph glyph-name="igrave" unicode="&#xec;" horiz-adv-x="507" 
d="M170 1192l-201 291h191l164 -291h-154zM176 0v1049h156v-1049h-156z" />
    <glyph glyph-name="iacute" unicode="&#xed;" horiz-adv-x="507" 
d="M176 0v1049h156v-1049h-156zM346 1192h-153l165 291h189z" />
    <glyph glyph-name="icircumflex" unicode="&#xee;" horiz-adv-x="507" 
d="M176 0v1049h156v-1049h-156zM-47 1192l225 291h152l225 -291h-145l-156 203l-156 -203h-145z" />
    <glyph glyph-name="idieresis" unicode="&#xef;" horiz-adv-x="507" 
d="M176 0v1049h156v-1049h-156zM360 1333q0 41 27 68t72 27t71 -28q26 -26 27 -67q0 -41 -27 -67q-28 -26 -72 -27q-44 1 -71 27t-27 67zM-49 1333q0 41 26 68q27 27 72 27t72 -28q27 -26 27 -67t-28 -67q-26 -26 -71 -27q-45 1 -71 27t-27 67z" />
    <glyph glyph-name="eth" unicode="&#xf0;" horiz-adv-x="1167" 
d="M588 96q142 0 228 92t85 240v137q0 152 -93 249q-94 97 -234 97t-224 -93t-84 -257v-145q0 -143 89 -232q91 -88 233 -88zM1053 606v-160q0 -202 -131 -338t-338 -136t-338 128q-131 129 -131 328v131q0 217 115 343q116 126 329 126t313 -156q-102 229 -254 359
l-309 -101l-37 107l246 78q-94 76 -256 180h197q106 -55 203 -133l229 74l37 -105l-172 -55q297 -307 297 -670z" />
    <glyph glyph-name="ntilde" unicode="&#xf1;" horiz-adv-x="1204" 
d="M772 1315q66 0 82 59l10 33q2 6 6 21t7 22l102 -23q-27 -104 -69 -163t-126 -60q-50 0 -164 64t-154 63q-40 1 -63 -23t-30 -44t-19 -70l-102 20q39 227 203 228q67 0 183 -64t134 -63zM166 0v1049h147v-179q39 92 129 148t222 55q176 1 280 -111t105 -300v-662h-156v639
q0 139 -66 219q-65 80 -201 80t-220 -82t-84 -240v-616h-156z" />
    <glyph glyph-name="ograve" unicode="&#xf2;" 
d="M506 1192l-201 291h191l163 -291h-153zM901 608q0 154 -83 247q-82 93 -234 93t-235 -93t-83 -247v-168q0 -154 83 -246t235 -94q152 0 234 94t83 246v168zM584 -25q-217 0 -343 131t-126 332v172q0 201 126 332t343 131t342 -131t125 -332v-172q0 -201 -125 -332
t-342 -131z" />
    <glyph glyph-name="oacute" unicode="&#xf3;" 
d="M901 608q0 154 -83 247q-82 93 -234 93t-235 -93t-83 -247v-168q0 -154 83 -246t235 -94q152 0 234 94t83 246v168zM584 -25q-217 0 -343 131t-126 332v172q0 201 126 332t343 131t342 -131t125 -332v-172q0 -201 -125 -332t-342 -131zM674 1192h-154l166 291h188z" />
    <glyph glyph-name="ocircumflex" unicode="&#xf4;" 
d="M901 608q0 154 -83 247q-82 93 -234 93t-235 -93t-83 -247v-168q0 -154 83 -246t235 -94q152 0 234 94t83 246v168zM584 -25q-217 0 -343 131t-126 332v172q0 201 126 332t343 131t342 -131t125 -332v-172q0 -201 -125 -332t-342 -131zM281 1192l225 291h151l226 -291
h-146l-155 203l-156 -203h-145z" />
    <glyph glyph-name="otilde" unicode="&#xf5;" 
d="M758 1315q50 0 69 35q6 10 10 16q3 6 7 20l6 21q2 6 6 21t6 22l103 -23q-27 -104 -69 -163t-126 -60q-51 0 -165 64t-154 63q-41 1 -63 -23t-29 -44t-19 -70l-102 20q39 227 202 228q66 0 183 -64t135 -63zM901 608q0 154 -83 247q-82 93 -234 93t-235 -93t-83 -247v-168
q0 -154 83 -246t235 -94q152 0 234 94t83 246v168zM584 -25q-217 0 -343 131t-126 332v172q0 201 126 332t343 131t342 -131t125 -332v-172q0 -201 -125 -332t-342 -131z" />
    <glyph glyph-name="odieresis" unicode="&#xf6;" 
d="M901 608q0 154 -83 247q-82 93 -234 93t-235 -93t-83 -247v-168q0 -154 83 -246t235 -94q152 0 234 94t83 246v168zM584 -25q-217 0 -343 131t-126 332v172q0 201 126 332t343 131t342 -131t125 -332v-172q0 -201 -125 -332t-342 -131zM688 1333q0 41 27 68t71 27t72 -28
q27 -26 27 -67t-27 -67t-72 -27q-46 1 -72 27t-26 67zM279 1333q0 41 26 68q27 27 72 27t72 -28q27 -26 27 -67t-28 -67q-26 -26 -71 -27q-45 1 -71 27t-27 67z" />
    <glyph glyph-name="divide" unicode="&#xf7;" horiz-adv-x="1216" 
d="M506 342q0 43 29 71q29 27 73 27t74 -28q29 -28 29 -70q0 -43 -30 -71q-30 -27 -73 -27q-42 0 -72 28t-30 70zM506 1133q0 43 29 71t73 27q44 0 74 -28q29 -29 29 -71t-30 -70t-73 -28q-42 0 -72 28t-30 71zM164 672v131h889v-131h-889z" />
    <glyph glyph-name="oslash" unicode="&#xf8;" 
d="M266 440q0 -135 60 -219l440 678q-78 49 -182 49q-152 0 -235 -93t-83 -247v-168zM901 608q0 133 -61 219l-443 -675q76 -51 187 -52q152 0 234 94t83 246v168zM584 -25q-145 0 -258 64l-93 -141h-118l131 202q-131 127 -131 338v172q0 201 126 332t343 131
q145 0 254 -63l94 143h119l-133 -205q133 -129 133 -338v-172q0 -201 -125 -332t-342 -131z" />
    <glyph glyph-name="ugrave" unicode="&#xf9;" horiz-adv-x="1196" 
d="M565 1192l-200 291h190l164 -291h-154zM1030 1049v-1049h-147v178q-39 -92 -129 -147t-222 -56q-172 0 -273 112t-101 300v662h155v-639q-1 -140 63 -222t197 -82t218 84q84 84 83 242v617h156z" />
    <glyph glyph-name="uacute" unicode="&#xfa;" horiz-adv-x="1196" 
d="M1030 1049v-1049h-147v178q-39 -92 -129 -147t-222 -56q-172 0 -273 112t-101 300v662h155v-639q-1 -140 63 -222t197 -82t218 84q84 84 83 242v617h156zM653 1192h-153l166 291h188z" />
    <glyph glyph-name="ucircumflex" unicode="&#xfb;" horiz-adv-x="1196" 
d="M1030 1049v-1049h-147v178q-39 -92 -129 -147t-222 -56q-172 0 -273 112t-101 300v662h155v-639q-1 -140 63 -222t197 -82t218 84q84 84 83 242v617h156zM315 1192l226 291h151l226 -291h-146l-156 203l-155 -203h-146z" />
    <glyph glyph-name="udieresis" unicode="&#xfc;" horiz-adv-x="1196" 
d="M1030 1049v-1049h-147v178q-39 -92 -129 -147t-222 -56q-172 0 -273 112t-101 300v662h155v-639q-1 -140 63 -222t197 -82t218 84q84 84 83 242v617h156zM721 1333q0 41 27 68q28 27 72 27t71 -28q27 -26 27 -67t-27 -67t-72 -27q-45 1 -71 27t-27 67zM311 1333
q0 41 27 68t72 27q46 0 72 -28q26 -26 26 -67t-27 -67t-71 -27q-44 1 -72 27q-27 26 -27 67z" />
    <glyph glyph-name="yacute" unicode="&#xfd;" horiz-adv-x="1040" 
d="M584 1192h-154l166 291h188zM463 -356h-152l133 356l-391 1049h154l319 -891l308 891h153l-387 -1049z" />
    <glyph glyph-name="thorn" unicode="&#xfe;" horiz-adv-x="1220" 
d="M950 451v147q0 154 -77 251t-229 97t-238 -101q-84 -101 -84 -259v-135q0 -158 93 -253q93 -96 232 -96t221 100t82 249zM322 -356h-156v1851h156v-594q41 72 135 122t211 50q206 0 322 -131t116 -338v-160q0 -207 -119 -338t-315 -131q-119 -1 -210 49t-140 132v-512z
" />
    <glyph glyph-name="ydieresis" unicode="&#xff;" horiz-adv-x="1040" 
d="M633 1333q0 41 26 68q27 27 72 27t72 -28q27 -26 27 -67t-28 -67q-26 -26 -71 -27q-45 1 -71 27t-27 67zM223 1333q0 41 27 68t72 27q46 0 72 -28q26 -26 26 -67t-27 -67t-71 -27q-44 1 -72 27q-27 26 -27 67zM463 -356h-152l133 356l-391 1049h154l319 -891l308 891h153
l-387 -1049z" />
    <glyph glyph-name="Amacron" unicode="&#x100;" horiz-adv-x="1392" 
d="M367 1630v121h659v-121h-659zM696 1288l-286 -796h571zM776 1434l539 -1434h-158l-131 365h-661l-129 -365h-158l538 1434h160z" />
    <glyph glyph-name="amacron" unicode="&#x101;" horiz-adv-x="1179" 
d="M311 1264v118h621v-118h-621zM266 304q0 -106 79 -168q79 -60 205 -60t223 66t97 163q0 96 -95 161q-95 64 -223 64t-207 -60t-79 -166zM1026 0h-149v131q-37 -61 -137 -108t-224 -48q-182 1 -290 93t-108 240t114 237q114 88 313 88t325 -131v194q0 111 -69 183
q-70 72 -193 71q-193 0 -262 -157h-143q41 131 147 205t278 75q172 -1 285 -109t113 -268v-696z" />
    <glyph glyph-name="Abreve" unicode="&#x102;" horiz-adv-x="1392" 
d="M696 1556q-152 0 -240 71t-89 188h120q1 -72 55 -116t154 -44t155 44q54 44 54 116h121q0 -117 -89 -188t-241 -71zM696 1288l-286 -796h571zM776 1434l539 -1434h-158l-131 365h-661l-129 -365h-158l538 1434h160z" />
    <glyph glyph-name="abreve" unicode="&#x103;" horiz-adv-x="1179" 
d="M633 1192q-147 0 -234 80q-86 80 -86 211h115q0 -91 51 -143t153 -52t154 52q51 52 52 143h114q0 -131 -86 -211t-233 -80zM266 304q0 -106 79 -168q79 -60 205 -60t223 66t97 163q0 96 -95 161q-95 64 -223 64t-207 -60t-79 -166zM1026 0h-149v131q-37 -61 -137 -108
t-224 -48q-182 1 -290 93t-108 240t114 237q114 88 313 88t325 -131v194q0 111 -69 183q-70 72 -193 71q-193 0 -262 -157h-143q41 131 147 205t278 75q172 -1 285 -109t113 -268v-696z" />
    <glyph glyph-name="Aogonek" unicode="&#x104;" horiz-adv-x="1392" 
d="M696 1288l-286 -796h571zM1176 -381q-70 0 -121 44t-51 122q0 137 153 215l-131 365h-661l-129 -365h-158l538 1434h160l539 -1434q-55 -35 -85 -55q-30 -19 -61 -61t-30 -83q0 -74 102 -73q37 0 66 6v-101q-61 -14 -131 -14z" />
    <glyph glyph-name="aogonek" unicode="&#x105;" horiz-adv-x="1179" 
d="M266 304q0 -106 79 -168q79 -60 205 -60t223 66t97 163q0 96 -95 161q-95 64 -223 64t-207 -60t-79 -166zM545 633q199 0 325 -131v194q0 111 -69 183q-70 72 -193 71q-193 0 -262 -157h-143q41 131 147 205t278 75q172 -1 285 -109t113 -268v-696q-170 -100 -170 -199
q0 -74 102 -73q37 0 66 6v-101q-61 -14 -133 -14t-121 43t-49 119q0 133 156 219v131q-37 -61 -137 -108t-224 -48q-182 1 -290 93t-108 240t114 237q114 88 313 88z" />
    <glyph glyph-name="Cacute" unicode="&#x106;" horiz-adv-x="1435" 
d="M813 1556h-156l148 259h188zM739 -29q-287 0 -441 173t-155 452v242q0 280 155 452t441 172q240 0 394 -145t172 -356h-154q-19 160 -125 264t-304 104t-308 -133t-111 -352v-254q0 -219 111 -352q111 -134 308 -134q196 0 302 104t127 265h154q-18 -211 -172 -357
t-394 -145z" />
    <glyph glyph-name="cacute" unicode="&#x107;" horiz-adv-x="1146" 
d="M571 -25q-204 0 -330 129t-126 332v176q0 203 126 332t330 129q203 1 325 -111t132 -282h-139q-16 118 -92 194q-75 76 -223 76t-228 -91t-80 -245v-180q0 -154 80 -245t228 -91t223 77q76 77 92 194h139q-10 -170 -132 -282t-325 -112zM651 1192h-153l166 291h188z" />
    <glyph glyph-name="Ccircumflex" unicode="&#x108;" horiz-adv-x="1435" 
d="M432 1556l238 259h151l238 -259h-152l-162 175l-161 -175h-152zM739 -29q-287 0 -441 173t-155 452v242q0 280 155 452t441 172q240 0 394 -145t172 -356h-154q-19 160 -125 264t-304 104t-308 -133t-111 -352v-254q0 -219 111 -352q111 -134 308 -134q196 0 302 104
t127 265h154q-18 -211 -172 -357t-394 -145z" />
    <glyph glyph-name="ccircumflex" unicode="&#x109;" horiz-adv-x="1146" 
d="M571 -25q-204 0 -330 129t-126 332v176q0 203 126 332t330 129q203 1 325 -111t132 -282h-139q-16 118 -92 194q-75 76 -223 76t-228 -91t-80 -245v-180q0 -154 80 -245t228 -91t223 77q76 77 92 194h139q-10 -170 -132 -282t-325 -112zM285 1192l225 291h152l225 -291
h-146l-155 203l-156 -203h-145z" />
    <glyph glyph-name="Cdotaccent" unicode="&#x10a;" horiz-adv-x="1435" 
d="M739 -29q-287 0 -441 173t-155 452v242q0 280 155 452t441 172q240 0 394 -145t172 -356h-154q-19 160 -125 264t-304 104t-308 -133t-111 -352v-254q0 -219 111 -352q111 -134 308 -134q196 0 302 104t127 265h154q-18 -211 -172 -357t-394 -145zM645 1683q0 41 27 68
q28 27 72 27t71 -27t27 -68t-27 -67t-72 -27q-45 1 -71 27t-27 67z" />
    <glyph glyph-name="cdotaccent" unicode="&#x10b;" horiz-adv-x="1146" 
d="M492 1325q0 41 26 68q27 27 72 27t72 -28q26 -26 26 -67t-26 -68t-72 -27q-45 0 -72 27q-26 27 -26 68zM571 -25q-204 0 -330 129t-126 332v176q0 203 126 332t330 129q203 1 325 -111t132 -282h-139q-16 118 -92 194q-75 76 -223 76t-228 -91t-80 -245v-180
q0 -154 80 -245t228 -91t223 77q76 77 92 194h139q-10 -170 -132 -282t-325 -112z" />
    <glyph glyph-name="Ccaron" unicode="&#x10c;" horiz-adv-x="1435" 
d="M666 1556l-238 259h152l161 -175l162 175h152l-238 -259h-151zM739 -29q-287 0 -441 173t-155 452v242q0 280 155 452t441 172q240 0 394 -145t172 -356h-154q-19 160 -125 264t-304 104t-308 -133t-111 -352v-254q0 -219 111 -352q111 -134 308 -134q196 0 302 104
t127 265h154q-18 -211 -172 -357t-394 -145z" />
    <glyph glyph-name="ccaron" unicode="&#x10d;" horiz-adv-x="1146" 
d="M571 -25q-204 0 -330 129t-126 332v176q0 203 126 332t330 129q203 1 325 -111t132 -282h-139q-16 118 -92 194q-75 76 -223 76t-228 -91t-80 -245v-180q0 -154 80 -245t228 -91t223 77q76 77 92 194h139q-10 -170 -132 -282t-325 -112zM512 1192l-225 291h145l156 -203
l155 203h146l-225 -291h-152z" />
    <glyph glyph-name="Dcaron" unicode="&#x10e;" horiz-adv-x="1431" 
d="M614 1556l-237 259h151l162 -175l162 175h152l-238 -259h-152zM702 131q207 0 319 114t112 306v332q0 193 -112 307t-319 113h-358v-1172h358zM186 1434h539q266 0 416 -153t149 -398v-332q0 -247 -150 -399t-415 -152h-539v1434z" />
    <glyph glyph-name="dcaron" unicode="&#x10f;" horiz-adv-x="1521" 
d="M270 598v-147q0 -154 77 -251q77 -98 230 -98t237 102t85 259v135q0 158 -93 253t-232 95q-140 0 -222 -99t-82 -249zM899 1495h156v-1495h-148v164q-37 -78 -133 -133t-221 -56q-203 -1 -321 133t-117 336v160q0 207 118 338q119 131 316 131q119 0 210 -49t140 -131
v602zM1270 1094l82 401h168l-123 -401h-127z" />
    <glyph glyph-name="Dcroat" unicode="&#x110;" horiz-adv-x="1497" 
d="M768 131q206 0 318 114t112 306v332q0 193 -112 307t-318 113h-358v-521h376v-131h-376v-520h358zM80 651v131h172v652h539q265 0 415 -153t150 -398v-332q0 -247 -150 -399t-415 -152h-539v651h-172z" />
    <glyph glyph-name="dcroat" unicode="&#x111;" horiz-adv-x="1265" 
d="M270 598v-147q0 -154 77 -251q77 -98 230 -98t237 102t85 259v135q0 158 -93 253t-232 95q-140 0 -222 -99t-82 -249zM629 1200v115h270v180h156v-180h157v-115h-157v-1200h-148v164q-37 -78 -133 -133t-221 -56q-203 -1 -321 133t-117 336v160q0 207 118 338
q119 131 316 131q119 0 210 -49t140 -131v307h-270z" />
    <glyph glyph-name="Emacron" unicode="&#x112;" horiz-adv-x="1247" 
d="M334 1630v121h659v-121h-659zM186 0v1434h947v-134h-787v-507h727v-134h-727v-526h789v-133h-949z" />
    <glyph glyph-name="emacron" unicode="&#x113;" horiz-adv-x="1134" 
d="M270 1264v118h621v-118h-621zM264 612v-32h606v49q0 147 -75 236q-76 89 -230 89q-153 0 -227 -93t-74 -249zM578 -25q-207 0 -335 124t-128 333v168q0 217 119 345q120 128 336 128t331 -127t115 -330v-155h-752v-37q0 -146 79 -238t235 -92q114 0 188 56t100 147h140
q-28 -141 -146 -231t-282 -91z" />
    <glyph glyph-name="Ebreve" unicode="&#x114;" horiz-adv-x="1247" 
d="M676 1556q-152 0 -241 71t-89 188h121q0 -72 54 -116q55 -44 155 -44t154 44t55 116h121q0 -117 -89 -188t-241 -71zM186 0v1434h947v-134h-787v-507h727v-134h-727v-526h789v-133h-949z" />
    <glyph glyph-name="ebreve" unicode="&#x115;" horiz-adv-x="1134" 
d="M582 1192q-147 0 -234 80q-86 80 -86 211h115q0 -91 51 -143q52 -52 154 -52t153 52t51 143h115q0 -131 -86 -211t-233 -80zM264 612v-32h606v49q0 147 -75 236q-76 89 -230 89q-153 0 -227 -93t-74 -249zM578 -25q-207 0 -335 124t-128 333v168q0 217 119 345
q120 128 336 128t331 -127t115 -330v-155h-752v-37q0 -146 79 -238t235 -92q114 0 188 56t100 147h140q-28 -141 -146 -231t-282 -91z" />
    <glyph glyph-name="Edotaccent" unicode="&#x116;" horiz-adv-x="1247" 
d="M186 0v1434h947v-134h-787v-507h727v-134h-727v-526h789v-133h-949zM569 1683q0 41 27 68t72 27q46 0 72 -27t26 -68t-27 -67t-71 -27q-44 1 -72 27q-27 26 -27 67z" />
    <glyph glyph-name="edotaccent" unicode="&#x117;" horiz-adv-x="1134" 
d="M475 1325q0 41 27 68q28 27 72 27t71 -28q27 -26 27 -67t-27 -68t-72 -27t-71 28q-26 26 -27 67zM264 612v-32h606v49q0 147 -75 236q-76 89 -230 89q-153 0 -227 -93t-74 -249zM578 -25q-207 0 -335 124t-128 333v168q0 217 119 345q120 128 336 128t331 -127t115 -330
v-155h-752v-37q0 -146 79 -238t235 -92q114 0 188 56t100 147h140q-28 -141 -146 -231t-282 -91z" />
    <glyph glyph-name="Eogonek" unicode="&#x118;" horiz-adv-x="1247" 
d="M186 0v1434h947v-134h-787v-507h727v-134h-727v-526h789v-133q-170 -100 -170 -199q0 -74 102 -73q39 0 66 6v-101q-61 -14 -133 -14t-121 43t-50 119q0 141 158 219h-801z" />
    <glyph glyph-name="eogonek" unicode="&#x119;" horiz-adv-x="1134" 
d="M264 612v-32h606v49q0 147 -75 236q-76 89 -230 89q-153 0 -227 -93t-74 -249zM578 -25q-207 0 -335 124t-128 333v168q0 217 119 345q120 128 336 128t331 -127t115 -330v-155h-752v-37q0 -146 79 -238t235 -92q114 0 188 56t100 147h140q-23 -127 -142 -229t-138 -136
q-46 -81 -46 -131q0 -74 102 -73q37 0 66 6v-101q-61 -14 -132 -14t-121 44q-50 45 -50 115t38 124t85 82q-57 -9 -90 -9z" />
    <glyph glyph-name="Ecaron" unicode="&#x11a;" horiz-adv-x="1247" 
d="M602 1556l-237 259h151l162 -175l162 175h151l-237 -259h-152zM186 0v1434h947v-134h-787v-507h727v-134h-727v-526h789v-133h-949z" />
    <glyph glyph-name="ecaron" unicode="&#x11b;" horiz-adv-x="1134" 
d="M264 612v-32h606v49q0 147 -75 236q-76 89 -230 89q-153 0 -227 -93t-74 -249zM578 -25q-207 0 -335 124t-128 333v168q0 217 119 345q120 128 336 128t331 -127t115 -330v-155h-752v-37q0 -146 79 -238t235 -92q114 0 188 56t100 147h140q-28 -141 -146 -231t-282 -91z
M506 1192l-225 291h145l156 -203l155 203h146l-226 -291h-151z" />
    <glyph glyph-name="Gcircumflex" unicode="&#x11c;" horiz-adv-x="1452" 
d="M718 1329q-200 0 -308 -132t-107 -357v-238q0 -225 108 -363q109 -139 317 -139t318 109t109 313v37h-401v133h555v-151q0 -254 -151 -412q-150 -158 -428 -158q-278 -1 -432 179t-155 456v228q0 284 154 456t421 172q268 0 420 -141t156 -358h-151q-4 158 -115 262
q-110 104 -310 104zM420 1556l237 259h152l238 -259h-152l-162 175l-162 -175h-151z" />
    <glyph glyph-name="gcircumflex" unicode="&#x11d;" horiz-adv-x="1216" 
d="M268 483q0 -149 78 -231t220 -82q144 0 237 86q92 86 92 231v136q0 135 -91 229q-90 94 -234 94t-223 -81t-79 -232v-150zM1051 0q0 -164 -132 -272q-133 -108 -313 -109q-180 0 -306 72t-167 196h154q84 -145 301 -145q137 0 222 72t85 190v238q-27 -78 -127 -138
t-225 -61q-197 0 -313 123t-115 305v174q0 184 114 306q115 122 316 122q135 0 227 -59t129 -140v175h150v-1049zM311 1192l226 291h151l225 -291h-145l-156 203l-155 -203h-146z" />
    <glyph glyph-name="Gbreve" unicode="&#x11e;" horiz-adv-x="1452" 
d="M718 1329q-200 0 -308 -132t-107 -357v-238q0 -225 108 -363q109 -139 317 -139t318 109t109 313v37h-401v133h555v-151q0 -254 -151 -412q-150 -158 -428 -158q-278 -1 -432 179t-155 456v228q0 284 154 456t421 172q268 0 420 -141t156 -358h-151q-4 158 -115 262
q-110 104 -310 104zM731 1556q-152 0 -241 71t-89 188h121q0 -72 54 -116t155 -44q100 0 155 44q54 44 54 116h121q0 -117 -89 -188t-241 -71z" />
    <glyph glyph-name="gbreve" unicode="&#x11f;" horiz-adv-x="1216" 
d="M616 1192q-147 0 -233 80t-86 211h115q0 -91 51 -143t153 -52t154 52q51 52 51 143h115q0 -131 -86 -211t-234 -80zM268 483q0 -149 78 -231t220 -82q144 0 237 86q92 86 92 231v136q0 135 -91 229q-90 94 -234 94t-223 -81t-79 -232v-150zM1051 0q0 -164 -132 -272
q-133 -108 -313 -109q-180 0 -306 72t-167 196h154q84 -145 301 -145q137 0 222 72t85 190v238q-27 -78 -127 -138t-225 -61q-197 0 -313 123t-115 305v174q0 184 114 306q115 122 316 122q135 0 227 -59t129 -140v175h150v-1049z" />
    <glyph glyph-name="Gdotaccent" unicode="&#x120;" horiz-adv-x="1452" 
d="M718 1329q-200 0 -308 -132t-107 -357v-238q0 -225 108 -363q109 -139 317 -139t318 109t109 313v37h-401v133h555v-151q0 -254 -151 -412q-150 -158 -428 -158q-278 -1 -432 179t-155 456v228q0 284 154 456t421 172q268 0 420 -141t156 -358h-151q-4 158 -115 262
q-110 104 -310 104zM627 1683q0 41 26 68q27 27 72 27t72 -27t27 -68t-28 -67q-26 -26 -71 -27q-45 1 -71 27t-27 67z" />
    <glyph glyph-name="gdotaccent" unicode="&#x121;" horiz-adv-x="1216" 
d="M506 1325q0 41 26 68q27 27 72 27t72 -28q26 -26 26 -67t-26 -68t-72 -27q-45 0 -72 27q-26 27 -26 68zM268 483q0 -149 78 -231t220 -82q144 0 237 86q92 86 92 231v136q0 135 -91 229q-90 94 -234 94t-223 -81t-79 -232v-150zM1051 0q0 -164 -132 -272
q-133 -108 -313 -109q-180 0 -306 72t-167 196h154q84 -145 301 -145q137 0 222 72t85 190v238q-27 -78 -127 -138t-225 -61q-197 0 -313 123t-115 305v174q0 184 114 306q115 122 316 122q135 0 227 -59t129 -140v175h150v-1049z" />
    <glyph glyph-name="Gcommaaccent" unicode="&#x122;" horiz-adv-x="1452" 
d="M718 1329q-200 0 -308 -132t-107 -357v-238q0 -225 108 -363q109 -139 317 -139t318 109t109 313v37h-401v133h555v-151q0 -254 -151 -412q-150 -158 -428 -158q-278 -1 -432 179t-155 456v228q0 284 154 456t421 172q268 0 420 -141t156 -358h-151q-4 158 -115 262
q-110 104 -310 104zM594 -512l78 348h174l-123 -348h-129z" />
    <glyph glyph-name="gcommaaccent" unicode="&#x123;" horiz-adv-x="1216" 
d="M268 483q0 -149 78 -231t220 -82q144 0 237 86q92 86 92 231v136q0 135 -91 229q-90 94 -234 94t-223 -81t-79 -232v-150zM1051 0q0 -164 -132 -272q-133 -108 -313 -109q-180 0 -306 72t-167 196h154q84 -145 301 -145q137 0 222 72t85 190v238q-27 -78 -127 -138
t-225 -61q-197 0 -313 123t-115 305v174q0 184 114 306q115 122 316 122q135 0 227 -59t129 -140v175h150v-1049zM510 1192l108 291h152l-72 -291h-188z" />
    <glyph glyph-name="Hcircumflex" unicode="&#x124;" horiz-adv-x="1449" 
d="M412 1556l237 259h152l237 -259h-151l-162 175l-162 -175h-151zM186 0v1434h160v-643h758v643h160v-1434h-160v647h-758v-647h-160z" />
    <glyph glyph-name="hcircumflex" unicode="&#x125;" horiz-adv-x="1204" 
d="M-68 1597l238 258h152l237 -258h-151l-162 175l-162 -175h-152zM166 0v1495h156v-608q102 186 342 186q176 1 280 -111t105 -300v-662h-156v639q0 139 -66 219q-65 80 -201 80t-220 -82t-84 -240v-616h-156z" />
    <glyph glyph-name="Hbar" unicode="&#x126;" horiz-adv-x="1579" 
d="M410 791h757v270h-757v-270zM80 1061v96h170v277h160v-277h757v277h160v-277h172v-96h-172v-1061h-160v647h-757v-647h-160v1061h-170z" />
    <glyph glyph-name="hbar" unicode="&#x127;" horiz-adv-x="1249" 
d="M53 1200v115h158v180h156v-180h270v-115h-270v-313q102 186 342 186q176 1 280 -111t105 -300v-662h-156v639q0 139 -66 219t-202 80t-219 -82q-84 -82 -84 -240v-616h-156v1200h-158z" />
    <glyph glyph-name="Itilde" unicode="&#x128;" horiz-adv-x="552" 
d="M668 1782q-54 -215 -184 -215q-70 0 -199 63q-129 64 -179 64t-72 -35t-34 -103l-106 19q35 229 208 229q70 0 202 -63t165 -64t53 29q20 29 30 64q9 36 11 42zM197 0v1434h159v-1434h-159z" />
    <glyph glyph-name="itilde" unicode="&#x129;" horiz-adv-x="507" 
d="M414 1315q50 0 69 35q6 10 10 16q3 6 7 20l6 21q2 6 6 21t6 22l103 -23q-27 -104 -69 -163t-126 -60q-51 0 -165 64t-154 63q-41 1 -63 -23t-29 -44t-19 -70l-102 20q39 227 202 228q66 0 183 -64t135 -63zM176 0v1049h156v-1049h-156z" />
    <glyph glyph-name="uni012A" unicode="&#x12a;" horiz-adv-x="552" 
d="M-53 1630v121h659v-121h-659zM197 0v1434h159v-1434h-159z" />
    <glyph glyph-name="imacron" unicode="&#x12b;" horiz-adv-x="507" 
d="M-55 1264v118h620v-118h-620zM176 0v1049h156v-1049h-156z" />
    <glyph glyph-name="Ibreve" unicode="&#x12c;" horiz-adv-x="552" 
d="M276 1556q-152 0 -240 71t-89 188h121q0 -72 54 -116t154 -44t155 44q54 44 54 116h121q0 -117 -89 -188t-241 -71zM197 0v1434h159v-1434h-159z" />
    <glyph glyph-name="uni012D" unicode="&#x12d;" horiz-adv-x="507" 
d="M254 1192q-147 0 -234 80q-86 80 -86 211h115q0 -91 51 -143q52 -52 154 -52t154 52q51 52 51 143h114q0 -131 -86 -211t-233 -80zM176 0v1049h156v-1049h-156z" />
    <glyph glyph-name="Iogonek" unicode="&#x12e;" horiz-adv-x="552" 
d="M274 -381q-86 0 -133 47t-47 127q0 109 103 207v1434h159v-1434q-45 -43 -63 -62q-18 -18 -40 -58t-22 -79q0 -74 86 -73q23 0 37 2v-103q-41 -8 -80 -8z" />
    <glyph glyph-name="iogonek" unicode="&#x12f;" horiz-adv-x="507" 
d="M156 1325q0 41 26 68q27 27 72 27t72 -28q26 -26 26 -67t-26 -68t-72 -27q-45 0 -72 27q-26 27 -26 68zM250 -381q-86 0 -133 47t-47 127q0 113 106 207v1049h156v-1049q-46 -45 -64 -63q-18 -17 -40 -57t-21 -79q0 -74 86 -73q23 0 37 2v-103q-41 -8 -80 -8z" />
    <glyph glyph-name="Idotaccent" unicode="&#x130;" horiz-adv-x="552" 
d="M178 1683q0 41 27 68t71 27t72 -27q27 -27 27 -68t-27 -67t-72 -27q-46 1 -72 27t-26 67zM197 0v1434h159v-1434h-159z" />
    <glyph glyph-name="dotlessi" unicode="&#x131;" horiz-adv-x="507" 
d="M176 0v1049h156v-1049h-156z" />
    <glyph glyph-name="IJ" unicode="&#x132;" horiz-adv-x="1759" 
d="M1112 -29q-211 0 -339 115t-128 301v12h152v-12q0 -129 81 -206t230 -77t231 75t82 210v1045h160v-1045q0 -184 -129 -301t-340 -117zM197 0v1434h159v-1434h-159z" />
    <glyph glyph-name="ij" unicode="&#x133;" horiz-adv-x="1015" 
d="M664 1325q0 41 26 68q27 27 72 27t72 -28q26 -26 26 -67t-26 -68t-72 -27q-45 0 -72 27q-26 27 -26 68zM840 1049v-1164q0 -117 -65 -179t-185 -62h-101v125h56q75 1 107 29t32 98v1153h156zM156 1325q0 41 26 68q27 27 72 27t72 -28q26 -26 26 -67t-26 -68t-72 -27
q-45 0 -72 27q-26 27 -26 68zM176 0v1049h156v-1049h-156z" />
    <glyph glyph-name="Jcircumflex" unicode="&#x134;" horiz-adv-x="1206" 
d="M633 1556l237 259h152l238 -259h-152l-162 175l-162 -175h-151zM559 -29q-211 0 -339 115t-128 301v12h152v-12q0 -129 81 -206t230 -77t231 75t82 210v1045h160v-1045q0 -184 -129 -301t-340 -117z" />
    <glyph glyph-name="jcircumflex" unicode="&#x135;" horiz-adv-x="507" 
d="M-47 1192l225 291h152l225 -291h-145l-156 203l-156 -203h-145zM332 1049v-1164q0 -117 -65 -179t-185 -62h-100v125h55q75 1 107 29t32 98v1153h156z" />
    <glyph glyph-name="Kcommaaccent" unicode="&#x136;" horiz-adv-x="1253" 
d="M524 -512l78 348h174l-123 -348h-129zM186 0v1434h160v-699l647 699h193l-666 -709l688 -725h-192l-670 713v-713h-160z" />
    <glyph glyph-name="kcommaaccent" unicode="&#x137;" horiz-adv-x="1050" 
d="M399 -512l78 348h174l-123 -348h-129zM166 0v1495h156v-940l452 494h195l-480 -506l500 -543h-194l-473 528v-528h-156z" />
    <glyph glyph-name="kgreenlandic" unicode="&#x138;" horiz-adv-x="1050" 
d="M166 0v1049h156v-494l452 494h195l-482 -506l502 -543h-194l-473 528v-528h-156z" />
    <glyph glyph-name="Lacute" unicode="&#x139;" 
d="M186 0v1434h160v-1301h735v-133h-895zM354 1556h-155l147 259h189z" />
    <glyph glyph-name="lacute" unicode="&#x13a;" horiz-adv-x="507" 
d="M176 0v1495h156v-1495h-156zM336 1620h-146l123 229h183z" />
    <glyph glyph-name="Lcommaaccent" unicode="&#x13b;" 
d="M186 0v1434h160v-1301h735v-133h-895zM483 -512l78 348h174l-123 -348h-129z" />
    <glyph glyph-name="lcommaaccent" unicode="&#x13c;" horiz-adv-x="507" 
d="M176 0v1495h156v-1495h-156zM84 -512l78 348h174l-123 -348h-129z" />
    <glyph glyph-name="Lcaron" unicode="&#x13d;" 
d="M186 0v1434h160v-1301h735v-133h-895zM676 1032l82 402h168l-123 -402h-127z" />
    <glyph glyph-name="lcaron" unicode="&#x13e;" horiz-adv-x="780" 
d="M176 0v1495h156v-1495h-156zM547 1094l82 401h168l-123 -401h-127z" />
    <glyph glyph-name="Ldot" unicode="&#x13f;" 
d="M635 711q0 45 29 73q30 28 76 27q46 0 75 -28q29 -29 29 -73t-30 -72t-75 -28t-75 28t-29 73zM186 0v1434h160v-1301h735v-133h-895z" />
    <glyph glyph-name="ldot" unicode="&#x140;" horiz-adv-x="759" 
d="M514 614q0 45 29 73t75 28t76 -28q29 -28 29 -73q0 -44 -30 -72t-75 -28q-44 0 -74 28t-30 72zM176 0v1495h156v-1495h-156z" />
    <glyph glyph-name="Lslash" unicode="&#x141;" horiz-adv-x="1196" 
d="M217 1434h160v-574l342 209v-143l-342 -209v-584h735v-133h-895v621l-176 -107v143l176 107v670z" />
    <glyph glyph-name="lslash" unicode="&#x142;" horiz-adv-x="532" 
d="M184 1495h156v-553l145 127v-147l-145 -127v-795h-156v662l-118 -103v148l118 102v686z" />
    <glyph glyph-name="Nacute" unicode="&#x143;" horiz-adv-x="1466" 
d="M186 0v1434h150l788 -1178v1178h156v-1434h-150l-788 1178v-1178h-156zM776 1556h-155l147 259h188z" />
    <glyph glyph-name="nacute" unicode="&#x144;" horiz-adv-x="1204" 
d="M166 0v1049h147v-179q39 92 129 148t222 55q176 1 280 -111t105 -300v-662h-156v639q0 139 -66 219q-65 80 -201 80t-220 -82t-84 -240v-616h-156zM674 1192h-154l166 291h188z" />
    <glyph glyph-name="Ncommaaccent" unicode="&#x145;" horiz-adv-x="1466" 
d="M186 0v1434h150l788 -1178v1178h156v-1434h-150l-788 1178v-1178h-156zM586 -512l78 348h174l-123 -348h-129z" />
    <glyph glyph-name="ncommaaccent" unicode="&#x146;" horiz-adv-x="1204" 
d="M166 0v1049h147v-179q39 92 129 148t222 55q176 1 280 -111t105 -300v-662h-156v639q0 139 -66 219q-65 80 -201 80t-220 -82t-84 -240v-616h-156zM469 -512l78 348h174l-123 -348h-129z" />
    <glyph glyph-name="Ncaron" unicode="&#x147;" horiz-adv-x="1466" 
d="M657 1556l-237 259h151l162 -175l162 175h152l-238 -259h-152zM186 0v1434h150l788 -1178v1178h156v-1434h-150l-788 1178v-1178h-156z" />
    <glyph glyph-name="ncaron" unicode="&#x148;" horiz-adv-x="1204" 
d="M166 0v1049h147v-179q39 92 129 148t222 55q176 1 280 -111t105 -300v-662h-156v639q0 139 -66 219q-65 80 -201 80t-220 -82t-84 -240v-616h-156zM528 1192l-225 291h146l155 -203l156 203h145l-225 -291h-152z" />
    <glyph glyph-name="napostrophe" unicode="&#x149;" horiz-adv-x="1445" 
d="M406 0v1049h147v-179q39 92 129 148t221 55q176 0 281 -111q104 -112 104 -300v-662h-155v639q0 139 -66 219t-202 80t-220 -82t-84 -240v-616h-155zM37 1094l82 401h168l-123 -401h-127z" />
    <glyph glyph-name="Eng" unicode="&#x14a;" horiz-adv-x="1466" 
d="M186 0v1434h150l788 -1178v1178h156v-1448q0 -162 -90 -252t-268 -90h-86v129h53q123 0 179 53t56 166v16l-782 1170v-1178h-156z" />
    <glyph glyph-name="eng" unicode="&#x14b;" horiz-adv-x="1204" 
d="M166 0v1049h147v-179q39 92 129 148t222 55q176 1 280 -111t105 -300v-689q-1 -157 -97 -243t-270 -86h-41v125h43q209 0 209 206v664q0 139 -66 219q-65 80 -201 80t-220 -82t-84 -240v-616h-156z" />
    <glyph glyph-name="Omacron" unicode="&#x14c;" horiz-adv-x="1490" 
d="M416 1630v121h659v-121h-659zM745 104q219 0 331 138t112 352v246q0 215 -112 352t-331 137t-331 -137t-111 -352v-246q-1 -214 111 -352t331 -138zM1348 602q0 -274 -157 -452t-446 -178t-445 178t-157 452v229q0 275 157 453q158 178 446 178t445 -178t157 -453v-229z
" />
    <glyph glyph-name="omacron" unicode="&#x14d;" 
d="M901 608q0 154 -83 247q-82 93 -234 93t-235 -93t-83 -247v-168q0 -154 83 -246t235 -94q152 0 234 94t83 246v168zM584 -25q-217 0 -343 131t-126 332v172q0 201 126 332t343 131t342 -131t125 -332v-172q0 -201 -125 -332t-342 -131zM272 1264v118h621v-118h-621z" />
    <glyph glyph-name="Obreve" unicode="&#x14e;" horiz-adv-x="1490" 
d="M745 1556q-153 0 -241 71t-88 188h121q0 -72 54 -116t154 -44t155 44q54 44 54 116h121q0 -117 -89 -188t-241 -71zM745 104q219 0 331 138t112 352v246q0 215 -112 352t-331 137t-331 -137t-111 -352v-246q-1 -214 111 -352t331 -138zM1348 602q0 -274 -157 -452
t-446 -178t-445 178t-157 452v229q0 275 157 453q158 178 446 178t445 -178t157 -453v-229z" />
    <glyph glyph-name="obreve" unicode="&#x14f;" 
d="M582 1192q-147 0 -234 80q-86 80 -86 211h115q0 -91 51 -143q52 -52 154 -52t153 52t51 143h115q0 -131 -86 -211t-233 -80zM901 608q0 154 -83 247q-82 93 -234 93t-235 -93t-83 -247v-168q0 -154 83 -246t235 -94q152 0 234 94t83 246v168zM584 -25q-217 0 -343 131
t-126 332v172q0 201 126 332t343 131t342 -131t125 -332v-172q0 -201 -125 -332t-342 -131z" />
    <glyph glyph-name="Ohungarumlaut" unicode="&#x150;" horiz-adv-x="1490" 
d="M745 104q219 0 331 138t112 352v246q0 215 -112 352t-331 137t-331 -137t-111 -352v-246q-1 -214 111 -352t331 -138zM1348 602q0 -274 -157 -452t-446 -178t-445 178t-157 452v229q0 275 157 453q158 178 446 178t445 -178t157 -453v-229zM1040 1556h-139l109 259h166z
M610 1556h-139l109 259h165z" />
    <glyph glyph-name="ohungarumlaut" unicode="&#x151;" 
d="M901 608q0 154 -83 247q-82 93 -234 93t-235 -93t-83 -247v-168q0 -154 83 -246t235 -94q152 0 234 94t83 246v168zM584 -25q-217 0 -343 131t-126 332v172q0 201 126 332t343 131t342 -131t125 -332v-172q0 -201 -125 -332t-342 -131zM858 1192h-141l127 291h168z
M481 1192h-141l127 291h168z" />
    <glyph glyph-name="OE" unicode="&#x152;" horiz-adv-x="2187" 
d="M303 623q0 -217 119 -353t354 -137h350v1167h-350q-236 0 -354 -136t-119 -353v-188zM776 0q-309 0 -471 174t-162 455v176q0 281 162 455t471 174h1297v-134h-787v-507h727v-134h-727v-526h789v-133h-1299z" />
    <glyph glyph-name="oe" unicode="&#x153;" horiz-adv-x="1921" 
d="M1051 612v-32h606v49q0 147 -76 236q-75 89 -229 89t-228 -93t-73 -249zM582 948q-150 0 -233 -93t-83 -247v-168q0 -154 83 -246t233 -94q150 0 232 90q83 90 87 236v195q-4 147 -87 237q-82 90 -232 90zM584 -25q-217 0 -343 131t-126 332v172q0 201 126 332t343 131
q270 0 389 -192q117 193 385 192q215 0 330 -127t114 -330v-155h-751v-43q2 -143 79 -234q78 -90 234 -90q114 0 188 56t101 147h139q-28 -141 -146 -231t-266 -90t-256 54q-109 54 -151 142q-45 -84 -151 -140t-238 -57z" />
    <glyph glyph-name="Racute" unicode="&#x154;" horiz-adv-x="1384" 
d="M721 1556h-156l148 259h188zM346 651h412q166 0 254 90q88 89 88 235t-90 237t-252 92h-412v-654zM186 0v1434h592q226 0 354 -129t128 -328q0 -151 -83 -267t-227 -161l312 -549h-183l-291 524h-442v-524h-160z" />
    <glyph glyph-name="racute" unicode="&#x155;" horiz-adv-x="722" 
d="M166 0v1049h145v-242q59 248 342 248h25v-146h-31q-153 0 -239 -100t-86 -295v-514h-156zM467 1192h-154l166 291h189z" />
    <glyph glyph-name="Rcommaaccent" unicode="&#x156;" horiz-adv-x="1384" 
d="M346 651h412q166 0 254 90q88 89 88 235t-90 237t-252 92h-412v-654zM186 0v1434h592q226 0 354 -129t128 -328q0 -151 -83 -267t-227 -161l312 -549h-183l-291 524h-442v-524h-160zM545 -512l78 348h174l-123 -348h-129z" />
    <glyph glyph-name="rcommaaccent" unicode="&#x157;" horiz-adv-x="722" 
d="M166 0v1049h145v-242q59 248 342 248h25v-146h-31q-153 0 -239 -100t-86 -295v-514h-156zM72 -512l78 348h174l-123 -348h-129z" />
    <glyph glyph-name="Rcaron" unicode="&#x158;" horiz-adv-x="1384" 
d="M614 1556l-237 259h151l162 -175l162 175h152l-238 -259h-152zM346 651h412q166 0 254 90q88 89 88 235t-90 237t-252 92h-412v-654zM186 0v1434h592q226 0 354 -129t128 -328q0 -151 -83 -267t-227 -161l312 -549h-183l-291 524h-442v-524h-160z" />
    <glyph glyph-name="rcaron" unicode="&#x159;" horiz-adv-x="722" 
d="M166 0v1049h145v-242q59 248 342 248h25v-146h-31q-153 0 -239 -100t-86 -295v-514h-156zM362 1192l-225 291h146l155 -203l156 203h145l-225 -291h-152z" />
    <glyph glyph-name="Sacute" unicode="&#x15a;" horiz-adv-x="1333" 
d="M729 1556h-156l148 259h188zM676 -29q-233 0 -384 117t-151 309v37h152v-33q0 -137 103 -220q102 -83 280 -83t278 75t101 210q0 180 -205 233l-406 107q-285 74 -284 338q0 189 135 295t358 106t364 -113q140 -114 140 -296v-35h-149v31q0 129 -94 207t-254 79
q-158 -1 -252 -69t-95 -193q0 -172 179 -219l415 -111q137 -37 219 -126t82 -222q0 -193 -150 -309t-382 -115z" />
    <glyph glyph-name="sacute" unicode="&#x15b;" horiz-adv-x="1077" 
d="M977 297q0 -139 -121 -231q-122 -92 -310 -91t-308 91t-121 239v10h141v-6q0 -98 82 -157q82 -60 211 -60t205 50t75 149q0 117 -131 145l-311 72q-117 28 -181 96t-65 170q0 143 110 221t282 78q171 0 283 -92t112 -236v-10h-142v6q0 98 -66 157q-68 58 -182 58
t-184 -46t-69 -132q0 -109 110 -135l322 -76q258 -61 258 -270zM610 1192h-153l166 291h188z" />
    <glyph glyph-name="Scircumflex" unicode="&#x15c;" horiz-adv-x="1333" 
d="M369 1556l237 259h152l237 -259h-151l-162 175l-162 -175h-151zM676 -29q-233 0 -384 117t-151 309v37h152v-33q0 -137 103 -220q102 -83 280 -83t278 75t101 210q0 180 -205 233l-406 107q-285 74 -284 338q0 189 135 295t358 106t364 -113q140 -114 140 -296v-35h-149
v31q0 129 -94 207t-254 79q-158 -1 -252 -69t-95 -193q0 -172 179 -219l415 -111q137 -37 219 -126t82 -222q0 -193 -150 -309t-382 -115z" />
    <glyph glyph-name="scircumflex" unicode="&#x15d;" horiz-adv-x="1077" 
d="M977 297q0 -139 -121 -231q-122 -92 -310 -91t-308 91t-121 239v10h141v-6q0 -98 82 -157q82 -60 211 -60t205 50t75 149q0 117 -131 145l-311 72q-117 28 -181 96t-65 170q0 143 110 221t282 78q171 0 283 -92t112 -236v-10h-142v6q0 98 -66 157q-68 58 -182 58
t-184 -46t-69 -132q0 -109 110 -135l322 -76q258 -61 258 -270zM248 1192l225 291h152l225 -291h-145l-156 203l-156 -203h-145z" />
    <glyph glyph-name="Scedilla" unicode="&#x15e;" horiz-adv-x="1333" 
d="M899 -229q1 -70 -55 -111t-137 -41t-146 12v90q55 -12 113 -12q102 0 102 55q0 49 -88 56l-94 6l33 147q-215 12 -351 127q-135 115 -135 297v37h152v-33q0 -137 103 -220q102 -83 280 -83t278 75t101 210q0 180 -205 233l-406 107q-285 74 -284 338q0 189 135 295
t358 106t364 -113q140 -114 140 -296v-35h-149v31q0 129 -94 207t-254 79q-158 -1 -252 -69t-95 -193q0 -172 179 -219l415 -111q137 -37 219 -126t82 -222q0 -182 -134 -296t-349 -126l-10 -67l26 -2q158 -10 158 -133z" />
    <glyph glyph-name="Scedilla" unicode="&#xf6c1;" horiz-adv-x="1333" 
d="M899 -229q1 -70 -55 -111t-137 -41t-146 12v90q55 -12 113 -12q102 0 102 55q0 49 -88 56l-94 6l33 147q-215 12 -351 127q-135 115 -135 297v37h152v-33q0 -137 103 -220q102 -83 280 -83t278 75t101 210q0 180 -205 233l-406 107q-285 74 -284 338q0 189 135 295
t358 106t364 -113q140 -114 140 -296v-35h-149v31q0 129 -94 207t-254 79q-158 -1 -252 -69t-95 -193q0 -172 179 -219l415 -111q137 -37 219 -126t82 -222q0 -182 -134 -296t-349 -126l-10 -67l26 -2q158 -10 158 -133z" />
    <glyph glyph-name="scedilla" unicode="&#x15f;" horiz-adv-x="1077" 
d="M766 -229q0 -70 -56 -111t-136 -41q-81 0 -146 12v90q55 -12 113 -12q102 0 102 55q0 49 -88 56l-94 6l33 151q-170 13 -274 101t-103 227v10h141v-6q0 -98 82 -157q82 -60 211 -60t205 50t75 149q0 117 -131 145l-311 72q-117 28 -181 96t-65 170q0 143 110 221t282 78
q171 0 283 -92t112 -236v-10h-142v6q0 98 -66 157q-68 58 -182 58t-184 -46t-69 -132q0 -109 110 -135l322 -76q258 -61 258 -270q0 -131 -108 -220t-275 -100l-12 -71l26 -2q158 -10 158 -133z" />
    <glyph glyph-name="scedilla" unicode="&#xf6c2;" horiz-adv-x="1077" 
d="M766 -229q0 -70 -56 -111t-136 -41q-81 0 -146 12v90q55 -12 113 -12q102 0 102 55q0 49 -88 56l-94 6l33 151q-170 13 -274 101t-103 227v10h141v-6q0 -98 82 -157q82 -60 211 -60t205 50t75 149q0 117 -131 145l-311 72q-117 28 -181 96t-65 170q0 143 110 221t282 78
q171 0 283 -92t112 -236v-10h-142v6q0 98 -66 157q-68 58 -182 58t-184 -46t-69 -132q0 -109 110 -135l322 -76q258 -61 258 -270q0 -131 -108 -220t-275 -100l-12 -71l26 -2q158 -10 158 -133z" />
    <glyph glyph-name="Scaron" unicode="&#x160;" horiz-adv-x="1333" 
d="M600 1556l-238 259h152l162 -175l162 175h151l-237 -259h-152zM676 -29q-233 0 -384 117t-151 309v37h152v-33q0 -137 103 -220q102 -83 280 -83t278 75t101 210q0 180 -205 233l-406 107q-285 74 -284 338q0 189 135 295t358 106t364 -113q140 -114 140 -296v-35h-149
v31q0 129 -94 207t-254 79q-158 -1 -252 -69t-95 -193q0 -172 179 -219l415 -111q137 -37 219 -126t82 -222q0 -193 -150 -309t-382 -115z" />
    <glyph glyph-name="scaron" unicode="&#x161;" horiz-adv-x="1077" 
d="M977 297q0 -139 -121 -231q-122 -92 -310 -91t-308 91t-121 239v10h141v-6q0 -98 82 -157q82 -60 211 -60t205 50t75 149q0 117 -131 145l-311 72q-117 28 -181 96t-65 170q0 143 110 221t282 78q171 0 283 -92t112 -236v-10h-142v6q0 98 -66 157q-68 58 -182 58
t-184 -46t-69 -132q0 -109 110 -135l322 -76q258 -61 258 -270zM467 1192l-225 291h145l156 -203l155 203h146l-226 -291h-151z" />
    <glyph glyph-name="Tcommaaccent" unicode="&#x162;" horiz-adv-x="1153" 
d="M496 0v1300h-439v134h1037v-134h-439v-1300h-159zM401 -512l78 348h174l-123 -348h-129z" />
    <glyph glyph-name="Tcommaaccent" unicode="&#x21a;" horiz-adv-x="1153" 
d="M496 0v1300h-439v134h1037v-134h-439v-1300h-159zM401 -512l78 348h174l-123 -348h-129z" />
    <glyph glyph-name="tcommaaccent" unicode="&#x163;" horiz-adv-x="763" 
d="M668 0h-131q-285 0 -285 279v643h-178v127h178v301h156v-301h268v-127h-268v-643q0 -82 34 -117t121 -35h105v-127zM295 -512l78 348h174l-123 -348h-129z" />
    <glyph glyph-name="tcommaaccent" unicode="&#x21b;" horiz-adv-x="763" 
d="M668 0h-131q-285 0 -285 279v643h-178v127h178v301h156v-301h268v-127h-268v-643q0 -82 34 -117t121 -35h105v-127zM295 -512l78 348h174l-123 -348h-129z" />
    <glyph glyph-name="Tcaron" unicode="&#x164;" horiz-adv-x="1153" 
d="M500 1556l-238 259h152l161 -175l162 175h152l-238 -259h-151zM496 0v1300h-439v134h1037v-134h-439v-1300h-159z" />
    <glyph glyph-name="tcaron" unicode="&#x165;" horiz-adv-x="763" 
d="M668 0h-131q-285 0 -285 279v643h-178v127h178v301h156v-301h268v-127h-268v-643q0 -82 34 -117t121 -35h105v-127zM557 1208l53 287h156l-84 -287h-125z" />
    <glyph glyph-name="Tbar" unicode="&#x166;" horiz-adv-x="1150" 
d="M193 623v127h303v550h-439v134h1037v-134h-439v-550h303v-127h-303v-623h-159v623h-303z" />
    <glyph glyph-name="tbar" unicode="&#x167;" horiz-adv-x="763" 
d="M74 489v115h178v318h-178v127h178v301h156v-301h268v-127h-268v-318h229v-115h-229v-210q0 -82 34 -117t121 -35h105v-127h-131q-285 0 -285 279v210h-178z" />
    <glyph glyph-name="Utilde" unicode="&#x168;" horiz-adv-x="1449" 
d="M1118 1782q-54 -215 -184 -215q-70 0 -198 63q-130 64 -179 64t-71 -35t-35 -103l-107 19q35 229 209 229q70 0 202 -63t163 -64t51 25t30 60q10 35 15 50zM725 -29q-251 -1 -401 143t-150 369v951h160v-965q0 -168 105 -266q105 -99 285 -99t286 98t106 267v965h160
v-951q0 -225 -150 -369t-401 -143z" />
    <glyph glyph-name="utilde" unicode="&#x169;" horiz-adv-x="1196" 
d="M782 1315q18 0 28 2q9 2 17 8t19 14t19 35l9 33l7 21q4 15 6 22l102 -23q-27 -104 -69 -163t-125 -60q-51 0 -165 64t-154 63q-40 1 -62 -23t-30 -44q-7 -20 -19 -70l-103 20q39 227 203 228q67 0 183 -64t134 -63zM1030 1049v-1049h-147v178q-39 -92 -129 -147t-222 -56
q-172 0 -273 112t-101 300v662h155v-639q-1 -140 63 -222t197 -82t218 84q84 84 83 242v617h156z" />
    <glyph glyph-name="Umacron" unicode="&#x16a;" horiz-adv-x="1449" 
d="M395 1630v121h660v-121h-660zM725 -29q-251 -1 -401 143t-150 369v951h160v-965q0 -168 105 -266q105 -99 285 -99t286 98t106 267v965h160v-951q0 -225 -150 -369t-401 -143z" />
    <glyph glyph-name="umacron" unicode="&#x16b;" horiz-adv-x="1196" 
d="M301 1264v118h621v-118h-621zM1030 1049v-1049h-147v178q-39 -92 -129 -147t-222 -56q-172 0 -273 112t-101 300v662h155v-639q-1 -140 63 -222t197 -82t218 84q84 84 83 242v617h156z" />
    <glyph glyph-name="Ubreve" unicode="&#x16c;" horiz-adv-x="1449" 
d="M725 1556q-152 0 -241 71t-89 188h121q0 -72 54 -116t154 -44t156 44q54 44 54 116h121q0 -117 -89 -188t-241 -71zM725 -29q-251 -1 -401 143t-150 369v951h160v-965q0 -168 105 -266q105 -99 285 -99t286 98t106 267v965h160v-951q0 -225 -150 -369t-401 -143z" />
    <glyph glyph-name="ubreve" unicode="&#x16d;" horiz-adv-x="1196" 
d="M610 1192q-147 0 -233 80t-86 211h115q0 -91 51 -143t153 -52t154 52q51 52 51 143h115q0 -131 -86 -211t-234 -80zM1030 1049v-1049h-147v178q-39 -92 -129 -147t-222 -56q-172 0 -273 112t-101 300v662h155v-639q-1 -140 63 -222t197 -82t218 84q84 84 83 242v617h156z
" />
    <glyph glyph-name="Uring" unicode="&#x16e;" horiz-adv-x="1449" 
d="M725 -29q-251 -1 -401 143t-150 369v951h160v-965q0 -168 105 -266q105 -99 285 -99t286 98t106 267v965h160v-951q0 -225 -150 -369t-401 -143zM725 1630q49 0 76 27t26 72t-27 71t-75 27q-49 0 -76 -27q-27 -28 -27 -72t28 -71q26 -27 75 -27zM725 1556q-86 0 -137 50
t-51 123q0 75 51 123t137 48t137 -48q51 -50 51 -124t-51 -122q-51 -50 -137 -50z" />
    <glyph glyph-name="uring" unicode="&#x16f;" horiz-adv-x="1196" 
d="M1030 1049v-1049h-147v178q-39 -92 -129 -147t-222 -56q-172 0 -273 112t-101 300v662h155v-639q-1 -140 63 -222t197 -82t218 84q84 84 83 242v617h156zM621 1266q47 0 75 26t27 72q0 45 -28 72q-29 26 -75 26t-74 -26t-28 -72t28 -72t75 -26zM621 1192q-86 0 -138 49
q-51 49 -51 123t51 123t137 49t138 -49q51 -49 51 -123t-51 -123t-137 -49z" />
    <glyph glyph-name="Uhungarumlaut" unicode="&#x170;" horiz-adv-x="1449" 
d="M725 -29q-251 -1 -401 143t-150 369v951h160v-965q0 -168 105 -266q105 -99 285 -99t286 98t106 267v965h160v-951q0 -225 -150 -369t-401 -143zM997 1556h-139l109 259h166zM567 1556h-139l109 259h165z" />
    <glyph glyph-name="uhungarumlaut" unicode="&#x171;" horiz-adv-x="1196" 
d="M872 1192h-141l127 291h168zM496 1192h-142l127 291h168zM1030 1049v-1049h-147v178q-39 -92 -129 -147t-222 -56q-172 0 -273 112t-101 300v662h155v-639q-1 -140 63 -222t197 -82t218 84q84 84 83 242v617h156z" />
    <glyph glyph-name="Uogonek" unicode="&#x172;" horiz-adv-x="1449" 
d="M725 -29q-251 -1 -401 143t-150 369v951h160v-965q0 -168 105 -266q105 -99 285 -99t286 98t106 267v965h160v-951q0 -291 -238 -434q-68 -41 -108 -69t-83 -79q-42 -50 -42 -100q0 -74 102 -73q37 0 66 6v-101q-61 -14 -133 -14t-121 43t-49 119q0 106 116 192
q-20 -2 -61 -2z" />
    <glyph glyph-name="uogonek" unicode="&#x173;" horiz-adv-x="1196" 
d="M1030 1049v-1049q-170 -100 -170 -199q0 -74 103 -73q37 0 65 6v-101q-61 -14 -133 -14t-121 43t-49 119q0 125 158 219v178q-39 -92 -129 -147t-222 -56q-172 0 -273 112t-101 300v662h155v-639q-1 -140 63 -222t197 -82t218 84q84 84 83 242v617h156z" />
    <glyph glyph-name="Wcircumflex" unicode="&#x174;" horiz-adv-x="1888" 
d="M1817 1434l-340 -1434h-154l-379 1260l-379 -1260h-153l-340 1434h153l271 -1221l368 1221h160l369 -1221l270 1221h154zM629 1556l237 259h152l237 -259h-151l-162 175l-162 -175h-151z" />
    <glyph glyph-name="wcircumflex" unicode="&#x175;" horiz-adv-x="1556" 
d="M1491 1049l-287 -1049h-147l-279 885l-278 -885h-148l-286 1049h147l221 -863l271 863h147l270 -863l221 863h148zM477 1192l225 291h152l225 -291h-145l-156 203l-155 -203h-146z" />
    <glyph glyph-name="Ycircumflex" unicode="&#x176;" horiz-adv-x="1236" 
d="M305 1556l238 259h151l238 -259h-152l-162 175l-161 -175h-152zM539 0v543l-510 891h168l421 -746l422 746h168l-510 -891v-543h-159z" />
    <glyph glyph-name="ycircumflex" unicode="&#x177;" horiz-adv-x="1040" 
d="M231 1192l226 291h151l226 -291h-146l-156 203l-155 -203h-146zM463 -356h-152l133 356l-391 1049h154l319 -891l308 891h153l-387 -1049z" />
    <glyph glyph-name="Ydieresis" unicode="&#x178;" horiz-adv-x="1236" 
d="M745 1696q0 42 27 68t72 26q46 0 72 -27t26 -67t-27 -68q-27 -26 -71 -26t-72 26q-27 26 -27 68zM291 1696q1 42 27 68t71 26t72 -27t27 -67t-28 -68q-26 -26 -71 -26t-72 26q-26 27 -26 68zM539 0v543l-510 891h168l421 -746l422 746h168l-510 -891v-543h-159z" />
    <glyph glyph-name="Zacute" unicode="&#x179;" horiz-adv-x="1275" 
d="M702 1556h-155l147 259h189zM135 0v133l817 1167h-780v134h950v-134l-817 -1167h840v-133h-1010z" />
    <glyph glyph-name="zacute" unicode="&#x17a;" horiz-adv-x="1021" 
d="M117 0v117l618 809h-594v123h766v-117l-618 -809h626v-123h-798zM575 1192h-153l166 291h188z" />
    <glyph glyph-name="Zdotaccent" unicode="&#x17b;" horiz-adv-x="1275" 
d="M135 0v133l817 1167h-780v134h950v-134l-817 -1167h840v-133h-1010zM553 1683q0 41 27 68q28 27 72 27t71 -27t27 -68t-27 -67t-72 -27q-45 1 -71 27t-27 67z" />
    <glyph glyph-name="zdotaccent" unicode="&#x17c;" horiz-adv-x="1021" 
d="M438 1325q0 41 27 68t72 27t71 -28q26 -26 27 -67q0 -41 -27 -68q-28 -27 -72 -27t-71 28q-27 26 -27 67zM117 0v117l618 809h-594v123h766v-117l-618 -809h626v-123h-798z" />
    <glyph glyph-name="Zcaron" unicode="&#x17d;" horiz-adv-x="1275" 
d="M586 1556l-238 259h152l162 -175l161 175h152l-238 -259h-151zM135 0v133l817 1167h-780v134h950v-134l-817 -1167h840v-133h-1010z" />
    <glyph glyph-name="zcaron" unicode="&#x17e;" horiz-adv-x="1021" 
d="M117 0v117l618 809h-594v123h766v-117l-618 -809h626v-123h-798zM463 1192l-225 291h145l156 -203l155 203h146l-226 -291h-151z" />
    <glyph glyph-name="florin" unicode="&#x192;" horiz-adv-x="952" 
d="M61 -356v127h105q80 -1 116 35t44 120l69 793h-196v127h207l28 323q23 264 268 265h168v-127h-135q-75 0 -107 -36t-40 -120l-27 -305h238v-127h-248l-72 -807q-25 -268 -284 -268h-134z" />
    <glyph glyph-name="Aringacute" unicode="&#x1fa;" horiz-adv-x="1392" 
d="M696 1434q49 0 76 26t27 70t-27 70t-76 26q-50 0 -76 -27t-26 -69t26 -70q26 -26 76 -26zM801 1763h-158l115 209h188zM696 1288l-286 -796h571zM885 1530q0 -102 -90 -148l520 -1382h-158l-131 365h-661l-129 -365h-158l518 1382q-88 45 -88 148q0 72 51 121t137 49
t138 -49t51 -121z" />
    <glyph glyph-name="aringacute" unicode="&#x1fb;" horiz-adv-x="1179" 
d="M266 304q0 -106 79 -168q79 -60 205 -60t223 66t97 163q0 96 -95 161q-95 64 -223 64t-207 -60t-79 -166zM1026 0h-149v131q-37 -61 -137 -108t-224 -48q-182 1 -290 93t-108 240t114 237q114 88 313 88t325 -131v194q0 111 -69 183q-70 72 -193 71q-193 0 -262 -157
h-143q41 131 147 205t278 75q172 -1 285 -109t113 -268v-696zM637 1235q49 0 76 27q27 28 27 70t-27 69t-76 27t-76 -28q-27 -26 -27 -69t28 -69q26 -26 75 -27zM637 1161q-86 0 -137 49t-51 121t51 121t137 49t137 -49t51 -121t-51 -121t-137 -49zM733 1571h-158l115 209
h189z" />
    <glyph glyph-name="AEacute" unicode="&#x1fc;" horiz-adv-x="2131" 
d="M1071 504v807l-539 -807h539zM1071 0v375h-625l-249 -375h-172l976 1434h1016v-134h-786v-507h727v-134h-727v-526h788v-133h-948zM1231 1556h-156l148 259h188z" />
    <glyph glyph-name="aeacute" unicode="&#x1fd;" horiz-adv-x="1904" 
d="M1026 580h606v49q0 147 -76 236t-223 89q-299 1 -307 -327v-47zM266 308q0 -102 76 -166t206 -64t226 66t96 161q0 94 -93 161q-93 66 -222 66t-209 -61t-80 -163zM1360 -25q-144 -1 -249 57t-161 148q-46 -78 -156 -141t-276 -63t-284 92q-116 92 -115 239
q0 147 115 238q116 90 301 90q113 0 201 -40t134 -87v176q0 117 -70 192q-71 75 -194 74q-201 0 -266 -162h-143q37 141 145 213q109 72 266 72q236 0 350 -178q125 178 375 178q215 0 330 -127t115 -330v-155h-752v-37q0 -146 79 -238t234 -92q115 0 189 56t100 147h139
q-27 -141 -145 -231t-262 -91zM1047 1192h-154l166 291h188z" />
    <glyph glyph-name="Oslashacute" unicode="&#x1fe;" horiz-adv-x="1490" 
d="M303 594q0 -195 86 -320l635 967q-111 88 -279 88q-219 0 -331 -137t-111 -352v-246zM745 104q219 0 331 138t112 352v246q0 193 -88 319l-635 -966q110 -89 280 -89zM1348 602q0 -274 -157 -452t-446 -179q-211 0 -358 103l-115 -176h-129l162 245q-162 174 -162 459
v229q0 275 157 453t445 178q207 0 357 -102l117 176h129l-162 -248q162 -174 162 -457v-229zM809 1556h-156l148 259h188z" />
    <glyph glyph-name="oslashacute" unicode="&#x1ff;" 
d="M266 440q0 -135 60 -219l440 678q-78 49 -182 49q-152 0 -235 -93t-83 -247v-168zM901 608q0 133 -61 219l-443 -675q76 -51 187 -52q152 0 234 94t83 246v168zM584 -25q-145 0 -258 64l-93 -141h-118l131 202q-131 127 -131 338v172q0 201 126 332t343 131
q145 0 254 -63l94 143h119l-133 -205q133 -129 133 -338v-172q0 -201 -125 -332t-342 -131zM649 1192h-153l166 291h188z" />
    <glyph glyph-name="Scommaaccent" unicode="&#x218;" horiz-adv-x="1333" 
d="M520 -512l78 348h174l-123 -348h-129zM676 -29q-233 0 -384 117t-151 309v37h152v-33q0 -137 103 -220q102 -83 280 -83t278 75t101 210q0 180 -205 233l-406 107q-285 74 -284 338q0 189 135 295t358 106t364 -113q140 -114 140 -296v-35h-149v31q0 129 -94 207t-254 79
q-158 -1 -252 -69t-95 -193q0 -172 179 -219l415 -111q137 -37 219 -126t82 -222q0 -193 -150 -309t-382 -115z" />
    <glyph glyph-name="scommaaccent" unicode="&#x219;" horiz-adv-x="1077" 
d="M389 -512l78 348h174l-123 -348h-129zM977 297q0 -139 -121 -231q-122 -92 -310 -91t-308 91t-121 239v10h141v-6q0 -98 82 -157q82 -60 211 -60t205 50t75 149q0 117 -131 145l-311 72q-117 28 -181 96t-65 170q0 143 110 221t282 78q171 0 283 -92t112 -236v-10h-142v6
q0 98 -66 157q-68 58 -182 58t-184 -46t-69 -132q0 -109 110 -135l322 -76q258 -61 258 -270z" />
    <glyph glyph-name="circumflex" unicode="&#x2c6;" horiz-adv-x="974" 
d="M186 1192l226 291h151l225 -291h-145l-156 203l-155 -203h-146z" />
    <glyph glyph-name="caron" unicode="&#x2c7;" horiz-adv-x="974" 
d="M412 1192l-226 291h146l155 -203l156 203h145l-225 -291h-151z" />
    <glyph glyph-name="breve" unicode="&#x2d8;" horiz-adv-x="1011" 
d="M506 1192q-147 0 -234 80q-86 80 -86 211h115q0 -91 51 -143q52 -52 154 -52t153 52t52 143h114q0 -131 -86 -211t-233 -80z" />
    <glyph glyph-name="dotaccent" unicode="&#x2d9;" horiz-adv-x="528" 
d="M166 1325q0 41 27 68t71 27t72 -28q26 -26 26 -67t-26 -68t-72 -27t-72 28q-26 26 -26 67z" />
    <glyph glyph-name="ring" unicode="&#x2da;" horiz-adv-x="749" 
d="M375 1266q47 0 75 26t27 72q0 45 -27 72q-28 26 -75 26t-75 -26t-28 -72t28 -72t75 -26zM375 1192q-86 0 -137 49t-52 123q0 74 52 123t137 49q86 0 137 -49t51 -123t-51 -123t-137 -49z" />
    <glyph glyph-name="ogonek" unicode="&#x2db;" horiz-adv-x="677" 
d="M356 -381q-72 0 -120 43q-49 43 -50 119q0 125 158 219h148q-170 -100 -170 -199q0 -74 102 -73q39 0 65 6v-101q-61 -14 -133 -14z" />
    <glyph glyph-name="tilde" unicode="&#x2dc;" horiz-adv-x="1099" 
d="M706 1315q50 0 68 30q17 30 26 64t11 41l102 -23q-27 -104 -69 -163t-125 -60q-51 0 -165 64t-154 63q-40 1 -62 -23t-30 -44q-7 -20 -19 -70l-103 20q39 227 203 228q67 0 183 -64t134 -63z" />
    <glyph glyph-name="hungarumlaut" unicode="&#x2dd;" horiz-adv-x="1044" 
d="M705 1192h-142l127 291h168zM328 1192h-142l127 291h168z" />
    <glyph glyph-name="uni0312" unicode="&#x312;" horiz-adv-x="632" 
d="M186 1192l109 291h151l-71 -291h-189z" />
    <glyph glyph-name="uni0315" unicode="&#x315;" horiz-adv-x="622" 
d="M186 1094l82 401h168l-123 -401h-127z" />
    <glyph glyph-name="uni0326" unicode="&#x326;" horiz-adv-x="624" 
d="M186 -512l78 348h174l-123 -348h-129z" />
    <glyph glyph-name="Omega" unicode="&#x3a9;" horiz-adv-x="1503" 
d="M1333 129v-129h-381v129q106 109 173 263t67 319v100q0 246 -111 383t-329 137t-330 -137q-111 -137 -111 -383v-100q0 -166 67 -320t173 -262v-129h-381v129h219q-98 104 -166 263t-67 325v100q0 291 153 468q154 177 443 177q288 0 442 -177t154 -468v-100
q0 -166 -68 -325t-166 -263h219z" />
    <glyph glyph-name="pi" unicode="&#x3c0;" horiz-adv-x="1497" 
d="M348 0v922h-223v127h1247v-127h-270v-633q0 -86 34 -124t117 -38h113v-127h-147q-272 0 -273 285v637h-442v-922h-156z" />
    <glyph glyph-name="Wgrave" unicode="&#x1e80;" horiz-adv-x="1888" 
d="M1817 1434l-340 -1434h-154l-379 1260l-379 -1260h-153l-340 1434h153l271 -1221l368 1221h160l369 -1221l270 1221h154zM852 1556l-180 259h188l148 -259h-156z" />
    <glyph glyph-name="wgrave" unicode="&#x1e81;" horiz-adv-x="1556" 
d="M692 1192l-200 291h190l164 -291h-154zM1491 1049l-287 -1049h-147l-279 885l-278 -885h-148l-286 1049h147l221 -863l271 863h147l270 -863l221 863h148z" />
    <glyph glyph-name="Wacute" unicode="&#x1e82;" horiz-adv-x="1888" 
d="M1817 1434l-340 -1434h-154l-379 1260l-379 -1260h-153l-340 1434h153l271 -1221l368 1221h160l369 -1221l270 1221h154zM1040 1556h-155l147 259h189z" />
    <glyph glyph-name="wacute" unicode="&#x1e83;" horiz-adv-x="1556" 
d="M1491 1049l-287 -1049h-147l-279 885l-278 -885h-148l-286 1049h147l221 -863l271 863h147l270 -863l221 863h148zM881 1192h-154l166 291h188z" />
    <glyph glyph-name="Wdieresis" unicode="&#x1e84;" horiz-adv-x="1888" 
d="M1071 1696q0 42 27 68q28 26 72 26t71 -27t27 -67t-27 -68q-27 -26 -72 -26t-71 26t-27 68zM616 1696q0 42 27 68t72 26t71 -27t27 -67q0 -40 -27 -68q-28 -26 -72 -26t-71 26t-27 68zM1817 1434l-340 -1434h-154l-379 1260l-379 -1260h-153l-340 1434h153l271 -1221
l368 1221h160l369 -1221l270 1221h154z" />
    <glyph glyph-name="wdieresis" unicode="&#x1e85;" horiz-adv-x="1556" 
d="M1491 1049l-287 -1049h-147l-279 885l-278 -885h-148l-286 1049h147l221 -863l271 863h147l270 -863l221 863h148zM885 1333q0 41 26 68q27 27 72 27t72 -28q27 -26 27 -67t-28 -67q-26 -26 -71 -27q-45 1 -71 27t-27 67zM475 1333q0 41 27 68q28 27 72 27t71 -28
q27 -26 27 -67t-27 -67t-72 -27q-45 1 -71 27t-27 67z" />
    <glyph glyph-name="Ygrave" unicode="&#x1ef2;" horiz-adv-x="1236" 
d="M537 1556l-181 259h189l147 -259h-155zM539 0v543l-510 891h168l421 -746l422 746h168l-510 -891v-543h-159z" />
    <glyph glyph-name="ygrave" unicode="&#x1ef3;" horiz-adv-x="1040" 
d="M459 1192l-201 291h191l163 -291h-153zM463 -356h-152l133 356l-391 1049h154l319 -891l308 891h153l-387 -1049z" />
    <glyph glyph-name="endash" unicode="&#x2013;" horiz-adv-x="1253" 
d="M137 571v138h979v-138h-979z" />
    <glyph glyph-name="emdash" unicode="&#x2014;" horiz-adv-x="1865" 
d="M137 571v138h1592v-138h-1592z" />
    <glyph glyph-name="quoteleft" unicode="&#x2018;" horiz-adv-x="466" 
d="M92 975l141 459h132l-99 -459h-174z" />
    <glyph glyph-name="quoteright" unicode="&#x2019;" horiz-adv-x="466" 
d="M102 975l99 459h174l-142 -459h-131z" />
    <glyph glyph-name="quotesinglbase" unicode="&#x201a;" horiz-adv-x="487" 
d="M72 -233l98 458h174l-141 -458h-131z" />
    <glyph glyph-name="quotedblleft" unicode="&#x201c;" horiz-adv-x="890" 
d="M92 975l141 459h132l-99 -459h-174zM516 975l141 459h131l-98 -459h-174z" />
    <glyph glyph-name="quotedblright" unicode="&#x201d;" horiz-adv-x="890" 
d="M526 975l99 459h174l-142 -459h-131zM102 975l99 459h174l-142 -459h-131z" />
    <glyph glyph-name="quotedblbase" unicode="&#x201e;" horiz-adv-x="911" 
d="M496 -233l98 458h174l-141 -458h-131zM72 -233l98 458h174l-141 -458h-131z" />
    <glyph glyph-name="dagger" unicode="&#x2020;" horiz-adv-x="1007" 
d="M440 -205v1166h-295v106h295v367h127v-367h295v-106h-295v-1166h-127z" />
    <glyph glyph-name="daggerdbl" unicode="&#x2021;" horiz-adv-x="1028" 
d="M451 268v693h-295v106h295v367h127v-367h294v-106h-294v-693h294v-106h-294v-367h-127v367h-295v106h295z" />
    <glyph glyph-name="bullet" unicode="&#x2022;" horiz-adv-x="856" 
d="M428 967q110 0 176 -67t66 -171t-66 -171q-66 -66 -176 -66t-176 66t-66 171q0 104 66 171t176 67z" />
    <glyph glyph-name="ellipsis" unicode="&#x2026;" horiz-adv-x="1462" 
d="M1114 88q0 45 29 73q29 27 76 27t75 -28t29 -72q0 -45 -30 -73q-31 -27 -75 -27t-74 28t-30 72zM627 88q0 45 28 73q29 27 76 27t76 -28t29 -72q0 -45 -30 -73q-30 -27 -75 -27t-75 27q-29 28 -29 73zM139 88q0 45 29 73q29 27 76 27q48 0 76 -28t28 -72q0 -45 -30 -73
q-30 -27 -74 -27t-75 28q-30 28 -30 72z" />
    <glyph glyph-name="perthousand" unicode="&#x2030;" horiz-adv-x="2521" 
d="M2097 82q92 0 142 54t51 147v194q0 93 -50 147t-143 54q-92 0 -142 -54t-50 -147v-194q0 -93 50 -147t142 -54zM2097 -16q-141 0 -225 85t-84 222v178q0 137 84 222t225 85t225 -85t84 -222v-178q0 -137 -84 -222t-225 -85zM444 0l744 1434h119l-744 -1434h-119zM1315 82
q92 0 142 54t50 147v194q0 93 -50 147t-142 54q-93 0 -143 -54t-50 -147v-194q0 -92 50 -147q51 -54 143 -54zM1315 -16q-141 0 -225 85t-84 222v178q0 137 84 222t225 85t225 -85t84 -222v-178q0 -137 -84 -222t-225 -85zM434 756q92 0 143 54q50 54 50 146v195
q0 92 -50 146q-51 55 -143 55t-142 -54t-50 -147v-195q0 -92 50 -146t142 -54zM434 657q-141 0 -225 85t-84 223v178q0 137 84 222t225 85t225 -85t84 -222v-178q0 -137 -84 -223t-225 -85z" />
    <glyph glyph-name="guilsinglleft" unicode="&#x2039;" horiz-adv-x="718" 
d="M426 123l-352 434l352 434h178l-352 -434l352 -434h-178z" />
    <glyph glyph-name="guilsinglright" unicode="&#x203a;" horiz-adv-x="718" 
d="M645 557l-352 -434h-178l352 434l-352 434h178z" />
    <glyph glyph-name="fraction" unicode="&#x2044;" horiz-adv-x="759" 
d="M-51 0l743 1434h119l-743 -1434h-119z" />
    <glyph glyph-name="Euro" unicode="&#x20ac;" horiz-adv-x="1372" 
d="M94 842v114h174v31q0 209 129 342t351 133t352 -126q129 -126 137 -318h-139q-10 141 -100 231t-248 90q-156 0 -243 -92t-87 -254v-37h409v-114h-409v-250h409v-115h-409v-37q0 -162 87 -254t243 -92t247 90q90 90 101 232h139q-8 -193 -137 -319t-351 -126t-352 133
q-129 133 -129 342v31h-174v115h174v250h-174z" />
    <glyph glyph-name="published" unicode="&#x2117;" horiz-adv-x="1765" 
d="M883 29q307 1 493 201t187 487q-1 287 -187 487t-493 201q-307 0 -493 -201q-186 -202 -187 -488q0 -286 186 -487q187 -200 494 -200zM883 -25q-328 0 -534 216q-206 215 -206 525t206 526t534 216q327 0 533 -216t206 -525t-206 -525t-533 -217zM756 682h176
q84 0 128 44t44 112t-44 114t-128 45h-176v-315zM948 604h-192v-254h-94v725h286q114 -1 182 -67t68 -169t-68 -169t-182 -66z" />
    <glyph glyph-name="trademark" unicode="&#x2122;" horiz-adv-x="1339" 
d="M668 844v590h75l189 -371l186 371h76v-590h-78v440l-145 -287h-80l-146 287v-440h-77zM291 844v522h-182v68h446v-68h-182v-522h-82z" />
    <glyph glyph-name="partialdiff" unicode="&#x2202;" horiz-adv-x="1204" 
d="M272 424q0 -154 90 -243t235 -89q146 0 239 95q92 95 92 243v72q0 137 -95 232t-240 95t-233 -90t-88 -241v-74zM1079 467q0 -205 -135 -351t-350 -145q-215 0 -344 133t-129 328v64q0 202 122 328t324 126q131 0 227 -53t134 -123q-76 530 -647 531h-33v129h43
q487 0 678 -356q112 -213 110 -517v-94z" />
    <glyph glyph-name="Delta" unicode="&#x2206;" horiz-adv-x="1372" 
d="M268 127h836l-418 1165zM1249 0h-1126v117l489 1317h148l489 -1317v-117z" />
    <glyph glyph-name="product" unicode="&#x220f;" horiz-adv-x="1640" 
d="M387 -356v1663h-272v127h1411v-127h-273v-1663h-155v1663h-555v-1663h-156z" />
    <glyph glyph-name="summation" unicode="&#x2211;" horiz-adv-x="1249" 
d="M156 -356v127l487 768l-487 768v127h958v-127h-790l481 -768l-481 -768h790v-127h-958z" />
    <glyph glyph-name="minus" unicode="&#x2212;" horiz-adv-x="1224" 
d="M164 674v127h897v-127h-897z" />
    <glyph glyph-name="radical" unicode="&#x221a;" horiz-adv-x="1445" 
d="M133 547v135h367l258 -745l401 1599h144l-447 -1741h-186l-269 752h-268z" />
    <glyph glyph-name="infinity" unicode="&#x221e;" horiz-adv-x="1810" 
d="M518 971q-108 1 -174 -63t-66 -170t66 -171q66 -63 174 -63q207 0 318 233q-111 234 -318 234zM1292 971q-207 0 -317 -234q111 -233 317 -233q108 0 174 63t66 169t-66 171q-66 64 -174 64zM1667 737q0 -160 -99 -257q-98 -97 -246 -97t-257 71t-160 167
q-51 -96 -160 -167t-256 -71t-246 97t-100 257t99 257q100 98 248 98t256 -71t159 -167q51 96 160 167t257 71t246 -98q99 -98 99 -257z" />
    <glyph glyph-name="integral" unicode="&#x222b;" horiz-adv-x="897" 
d="M514 -55q0 -301 -295 -301h-104v127h71q96 0 137 35q40 36 39 128v1199q0 301 295 301h105v-127h-72q-96 0 -136 -36t-40 -128v-1198z" />
    <glyph glyph-name="approxequal" unicode="&#x2248;" horiz-adv-x="1253" 
d="M862 813q-84 0 -229 71q-145 70 -205 70t-101 -26q-40 -26 -89 -80l-84 78q62 74 124 112t155 37q93 0 233 -74q4 -2 14 -8q119 -57 182 -59q98 0 174 80l74 -78q-103 -123 -248 -123zM862 401q-84 0 -229 71t-205 71t-101 -27q-40 -27 -89 -80l-84 78q62 74 124 112
t155 38t228 -71t201 -71q98 0 174 80l74 -78q-103 -123 -248 -123z" />
    <glyph glyph-name="notequal" unicode="&#x2260;" horiz-adv-x="1277" 
d="M195 920v122h528l125 250h137l-125 -250h223v-122h-284l-183 -365h467v-123h-528l-125 -250h-135l125 250h-225v123h286l181 365h-467z" />
    <glyph glyph-name="lessequal" unicode="&#x2264;" horiz-adv-x="1251" 
d="M154 0v129h913v-129h-913zM1067 334l-913 381v123l913 379v-138l-735 -303l735 -305v-137z" />
    <glyph glyph-name="greaterequal" unicode="&#x2265;" horiz-adv-x="1251" 
d="M1098 129v-129h-914v129h914zM1098 715l-914 -381v137l736 305l-736 303v138l914 -379v-123z" />
    <glyph glyph-name="lozenge" unicode="&#x25ca;" horiz-adv-x="1261" 
d="M631 127l379 590l-379 590l-379 -590zM1169 717l-471 -717h-135l-471 717l471 717h135z" />
    <glyph glyph-name="apple" unicode="&#xf8ff;" horiz-adv-x="1746" 
d="M227 334v741q-1 152 103 255t256 104h717q152 0 255 -102t103 -255q0 -152 -103 -254t-255 -102h-359v-387q0 -152 -103 -255t-255 -103t-256 102q-104 104 -103 256z" />
    <glyph glyph-name="fi" unicode="&#xfb01;" horiz-adv-x="1228" 
d="M877 1325q0 41 26 68q27 27 72 27t72 -28q27 -26 27 -67t-28 -68q-26 -27 -71 -27t-72 27q-26 27 -26 68zM897 0v1049h156v-1049h-156zM240 0v922h-154v127h154v139q0 154 72 230t231 77h147v-127h-135q-84 0 -122 -40t-38 -128v-151h258v-127h-258v-922h-155z" />
    <glyph glyph-name="fl" unicode="&#xfb02;" horiz-adv-x="1228" 
d="M897 0v1495h156v-1495h-156zM240 0v922h-154v127h154v139q0 154 72 230t231 77h147v-127h-135q-84 0 -122 -40t-38 -128v-151h258v-127h-258v-922h-155z" />
    <glyph glyph-name="acute.case" horiz-adv-x="708" 
d="M342 1556h-156l148 259h188z" />
    <glyph glyph-name="breve.case" horiz-adv-x="1032" 
d="M516 1556q-152 0 -241 71t-89 188h121q0 -72 54 -116q55 -44 155 -44t155 44q54 44 54 116h121q0 -117 -89 -188t-241 -71z" />
    <glyph glyph-name="caron.case" horiz-adv-x="999" 
d="M424 1556l-238 259h152l162 -175l162 175h151l-238 -259h-151z" />
    <glyph glyph-name="circumflex.case" horiz-adv-x="999" 
d="M186 1556l238 259h151l238 -259h-151l-162 175l-162 -175h-152z" />
    <glyph glyph-name="dieresis.case" horiz-adv-x="978" 
d="M618 1696q0 42 27 68t72 26t71 -27t27 -67q0 -40 -27 -68q-28 -26 -72 -26t-71 26t-27 68zM164 1696q0 42 26 68t72 26q45 0 72 -27q26 -27 26 -67t-26 -68q-26 -26 -72 -26q-45 0 -72 26q-26 27 -26 68z" />
    <glyph glyph-name="dotaccent.case" horiz-adv-x="528" 
d="M166 1683q0 41 27 68t71 27t72 -27q26 -27 26 -68t-26 -67t-72 -27q-46 1 -72 27t-26 67z" />
    <glyph glyph-name="grave.case" horiz-adv-x="708" 
d="M367 1556l-181 259h189l147 -259h-155z" />
    <glyph glyph-name="hungarumlaut.case" horiz-adv-x="1077" 
d="M756 1556h-140l109 259h166zM326 1556h-140l109 259h166z" />
    <glyph glyph-name="macron.case" horiz-adv-x="1032" 
d="M186 1630v121h660v-121h-660z" />
    <glyph glyph-name="ring.case" horiz-adv-x="749" 
d="M375 1630q47 0 75 27t27 72q1 45 -27 71t-75 27q-47 0 -75 -27q-28 -28 -28 -72t28 -71t75 -27zM375 1556q-86 0 -137 50t-52 123q0 75 52 123t137 48q86 0 137 -48q51 -50 51 -124t-51 -122q-51 -50 -137 -50z" />
    <glyph glyph-name="tilde.case" horiz-adv-x="1146" 
d="M961 1782q-55 -215 -185 -215q-70 0 -198 63q-128 64 -178 64t-72 -35t-35 -103l-107 19q35 229 209 229q70 0 202 -63t165 -64t53 29q20 29 30 64q9 36 11 42z" />
    <glyph glyph-name="J.salt" horiz-adv-x="1241" 
d="M592 -29q-211 0 -340 113t-129 299v14h151v-16q0 -129 86 -203t234 -74t228 75t81 210v914h-674v131h834v-1049q0 -180 -130 -297t-341 -117z" />
    <glyph glyph-name="IJ.salt" horiz-adv-x="1794" 
d="M1145 -29q-211 0 -340 113t-129 299v14h151v-16q0 -129 86 -203t234 -74q149 0 229 75t80 210v914h-674v131h834v-1049q0 -180 -130 -297t-341 -117zM197 0v1434h159v-1434h-159z" />
    <glyph glyph-name="Jcircumflex.salt" horiz-adv-x="1239" 
d="M590 -29q-211 0 -340 113t-129 299v14h151v-16q0 -129 86 -203t234 -74t228 75t81 210v914h-674v131h834v-1049q0 -180 -130 -297t-341 -117zM362 1556l238 259h152l237 -259h-151l-162 175l-162 -175h-152z" />
    <glyph glyph-name="ornm01.ornm" horiz-adv-x="2138" 
d="M1096 1434h180l717 -717l-717 -717h-180l716 717zM207 653v127h1136v-127h-1136z" />
    <glyph glyph-name="ornm02.ornm" horiz-adv-x="2138" 
d="M795 780h1136v-127h-1136v127zM145 717l717 717h180l-716 -717l716 -717h-180z" />
    <glyph glyph-name="ornm03.ornm" horiz-adv-x="1767" 
d="M1077 926l-776 -776l-94 96l774 776zM1362 1307h-1012l127 127h1022v-1012l-137 -129v1014z" />
    <glyph glyph-name="ornm04.ornm" horiz-adv-x="1767" 
d="M403 1307v-1014l-135 129v1012h1020l129 -127h-1014zM1561 246l-97 -96l-776 776l98 96z" />
    <glyph glyph-name="ornm05.ornm" horiz-adv-x="1767" 
d="M1362 127v1014l137 -129v-1012h-1022l-127 127h1012zM207 1188l94 96l776 -776l-96 -96z" />
    <glyph glyph-name="ornm06.ornm" horiz-adv-x="1767" 
d="M688 508l776 776l97 -96l-775 -776zM403 127h1014l-129 -127h-1020v1012l135 129v-1014z" />
    <glyph glyph-name="ornm07.ornm" horiz-adv-x="1847" 
d="M1640 745v-180l-716 717l-717 -717v180l717 717zM993 -289h-139v1098h139v-1098z" />
    <glyph glyph-name="ornm08.ornm" horiz-adv-x="1847" 
d="M854 338v1096h139v-1096h-139zM924 -135l716 717v-181l-716 -716l-717 716v181z" />
    <glyph glyph-name="ornm09.ornm" horiz-adv-x="1871" 
d="M999 1178h181l567 -568l-567 -567h-181l568 567zM186 547v127h914v-127h-914z" />
    <glyph glyph-name="ornm10.ornm" horiz-adv-x="1871" 
d="M772 674h914v-127h-914v127zM125 610l567 568h180l-567 -568l567 -567h-180z" />
    <glyph glyph-name="ornm11.ornm" horiz-adv-x="1585" 
d="M1337 1049v-799l-131 -127v803h-803l127 123h807zM274 -96l-88 88l645 645l89 -88z" />
    <glyph glyph-name="ornm12.ornm" horiz-adv-x="1585" 
d="M754 637l645 -645l-88 -88l-645 645zM248 1049h807l127 -123h-803v-803l-131 127v799z" />
    <glyph glyph-name="ornm13.ornm" horiz-adv-x="1585" 
d="M831 412l-645 645l88 88l646 -645zM1337 0h-807l-127 121h803v805l131 -129v-797z" />
    <glyph glyph-name="ornm14.ornm" horiz-adv-x="1585" 
d="M248 0v797l131 129v-805h803l-127 -121h-807zM1311 1145l88 -88l-645 -645l-88 88z" />
    <glyph glyph-name="ornm15.ornm" horiz-adv-x="1548" 
d="M842 575v-837h-135v837h135zM774 1225l567 -570v-180l-567 569l-567 -569v180z" />
    <glyph glyph-name="ornm16.ornm" horiz-adv-x="1548" 
d="M1341 465v-180l-567 -568l-567 568v180l567 -567zM707 1204h135v-839h-135v839z" />
    <glyph glyph-name="ornm17.ornm" horiz-adv-x="1609" 
d="M266 0q0 326 13 477q-55 31 -72 84q3 3 27 21t26 36q10 39 -10 106q-20 66 -24 90t1 113q4 89 -1 124t-26 87q-22 52 -24 76t7 103q9 78 -19 117q59 2 181 -3t177 -1q10 13 7 48q-3 34 -3 42h43q29 -25 37 -88q8 -62 10 -72q18 -10 82 -24t84 -36q43 29 91 29t96 -20
q-10 -17 -7 -21t27 -4q0 -27 12 -47q3 2 15 19t33 10q14 -12 50 -36t50 -40q31 0 65 24t50 27q10 -33 76 -30t90 -21l55 4q14 0 22 -4q-31 -35 -103 -62t-103 -48q-32 -21 -68 -69q-35 -49 -51 -67q-10 -10 -72 -58t-80 -81q0 -17 6 -63t4 -74q-10 -10 -40 -28
q-59 -36 -62 -87q39 -43 41 -53q-21 -29 -21 -82t-4 -92q14 -10 94 -63t113 -109q27 24 57 8t37 -43q-10 -49 -4 -119h-985z" />
    <glyph glyph-name="ornm18.ornm" horiz-adv-x="1894" 
d="M379 792q-1 36 23 86q35 72 139 121q20 10 65 29q141 47 283 47q47 0 141 -8l123 -8q48 0 67 18t31 47q35 86 35 93q18 66 84 139q2 4 5 37t9 41q20 5 42 0q22 -4 73 -15q25 0 29 -4t9 -12t11 -12q16 -3 22 -11t25 -28q20 -20 21 -35t43 -42q43 -26 57 -35t25 -15
q35 -16 28 -37q-7 -14 -41 -26t-54 -11q-20 0 -50 6q-82 20 -113 2q-6 -3 -17 -27t-13 -34q-9 -93 -36 -182q-31 -100 -36 -145q-6 -45 -16 -75q-37 -63 -43 -73q-6 -11 -22 -109t-24 -170q-7 -72 -4 -203q0 -16 20 -41q20 -26 32 -24q42 5 40 -29q-1 -14 -8 -16l-8 -4
l-41 2l13 -21l-9 -8h-86q-18 7 -25 36q-7 30 -11 50q-3 20 -7 28t-12 13q-8 6 -8 10l6 76q0 4 -6 10q-12 12 -12 62v90q0 49 -2 69l-11 113q-4 15 1 31t4 21t-9 7t-26 0t-25 -2q-100 0 -195 70q-25 18 -55 52t-51 55q-23 20 -61 20t-68 -35q-35 -31 -35 -114
q-5 -66 -36 -151t-86 -137q-29 -29 -29 -38q-13 -18 -21 -60q-2 -111 0 -126l6 -33q7 -5 15 -11t14 -10q25 -6 27 -12q4 -25 -9 -29h-53q-14 4 -29 15l-20 18q-2 2 -8 67q-6 64 -6 66v8q-4 15 -4 37v37q0 13 1 29t-5 16t-11 -10q-6 -10 -35 -45q-4 -7 -23 -71t-22 -81v-84
l17 -16q16 -7 16 -21t-14 -24h-39q-16 0 -39 29q-6 12 0 104l4 68q0 45 4 77q-58 -41 -119 -47q-12 -3 -16 9t6 18q84 25 135 70l33 30q35 49 48 85t26 71t16 53l-4 119q-6 74 -6 110z" />
    </font>
</defs>
</svg>
