<?xml version="1.0" standalone="no"?>
<!DOCTYPE svg PUBLIC "-//W3C//DTD SVG 1.1//EN" "http://www.w3.org/Graphics/SVG/1.1/DTD/svg11.dtd" >
<svg xmlns="http://www.w3.org/2000/svg">
<metadata>
Created by FontPrep 20130207 at Mon Aug 10 11:05:23 2015
 By Michael Lefebvre
Copyright (c) 2012 by Process Type Foundry, LLC. All rights reserved.
</metadata>
<defs>
<font id="9c2d54c96f62b7a62b86ceaefb201df8" horiz-adv-x='1024' >
  <font-face 
    font-family="Colfax-Light"
    font-weight="300"
    font-stretch="normal"
    units-per-em="2048"
    panose-1="2 11 4 5 0 0 0 1 0 3"
    ascent="1536"
    descent="-512"
    x-height="1040"
    cap-height="1434"
    bbox="-102 -512 2341 1966"
    underline-thickness="47"
    underline-position="-160"
    unicode-range="U+0020-FB02"
  />
<missing-glyph horiz-adv-x="1472" 
d="M969 915l-199 -198l199 -197l-35 -35l-197 199l-196 -199l-35 35l196 197l-196 198l33 35l198 -200l199 200zM242 20h989v1393h-989v-1393zM219 0v1434h1034v-1434h-1034z" />
    <glyph glyph-name=".notdef" horiz-adv-x="1472" 
d="M969 915l-199 -198l199 -197l-35 -35l-197 199l-196 -199l-35 35l196 197l-196 198l33 35l198 -200l199 200zM242 20h989v1393h-989v-1393zM219 0v1434h1034v-1434h-1034z" />
    <glyph glyph-name=".null" horiz-adv-x="0" 
 />
    <glyph glyph-name="nonmarkingreturn" horiz-adv-x="681" 
 />
    <glyph glyph-name="space" unicode=" " horiz-adv-x="491" 
 />
    <glyph glyph-name="exclam" unicode="!" horiz-adv-x="503" 
d="M172 68q0 36 23 58t57 22t58 -24q22 -22 22 -56t-23 -58q-23 -22 -57 -22t-58 22q-22 22 -22 58zM201 1434h102v-656l-24 -467h-50l-28 467v656z" />
    <glyph glyph-name="quotedbl" unicode="&#x22;" horiz-adv-x="876" 
d="M188 907v527h82v-527h-82zM606 907v527h82v-527h-82z" />
    <glyph glyph-name="numbersign" unicode="#" horiz-adv-x="1380" 
d="M489 930l-47 -404h467l47 404h-467zM129 457v69h236l47 404h-240v69h248l49 435h78l-49 -435h467l49 435h78l-50 -435h220v-69h-228l-47 -404h232v-69h-240l-51 -457h-78l51 457h-467l-51 -457h-78l51 457h-227z" />
    <glyph glyph-name="dollar" unicode="$" horiz-adv-x="1224" 
d="M575 -225v227q-184 12 -301 114t-116 269v37h94v-35q0 -145 102 -226t266 -81t263 79q100 79 100 212q0 180 -197 254l-344 131q-136 51 -202 128t-66 197q0 156 104 248t287 103v227h94v-227q167 -14 273 -112t106 -253v-57h-92v55q0 133 -92 212t-248 79t-247 -72
t-91 -203q0 -96 52 -151t151 -92l342 -131q264 -100 264 -332q1 -160 -115 -261t-292 -114v-225h-95z" />
    <glyph glyph-name="percent" unicode="%" horiz-adv-x="1716" 
d="M1065 281q-1 -106 59 -170t163 -64q103 -1 161 63t59 171v196q0 105 -58 169q-57 64 -161 64t-164 -62q-60 -64 -59 -171v-196zM1583 473v-188q0 -135 -80 -218t-217 -83t-217 83t-80 218v188q0 135 80 218t217 83t217 -83t80 -218zM219 956q-1 -106 59 -170t163 -63
q103 0 162 63q58 63 59 170v197q0 105 -58 169t-162 64t-163 -63t-60 -170v-197zM737 1149v-188q0 -135 -80 -219t-217 -83q-137 0 -217 83t-80 219v188q0 135 80 218t217 83t217 -83t80 -218zM451 0l747 1434h80l-748 -1434h-79z" />
    <glyph glyph-name="ampersand" unicode="&#x26;" horiz-adv-x="1433" 
d="M674 47q262 0 387 172l-555 563q-270 -123 -270 -364q0 -170 122 -271q123 -100 316 -100zM1001 1092h-86v59q0 102 -72 170q-73 68 -191 68q-118 -1 -194 -61t-77 -179q0 -119 125 -248l596 -608q47 104 47 231v146h86v-152q0 -164 -72 -289l199 -200l-57 -58l-187 189
q-152 -188 -444 -189q-240 0 -385 122t-146 323q0 295 306 424l-15 16q-143 142 -143 288t100 232t257 86t255 -89t98 -220v-61z" />
    <glyph glyph-name="quotesingle" unicode="'" horiz-adv-x="458" 
d="M188 907v527h82v-527h-82z" />
    <glyph glyph-name="parenleft" unicode="(" horiz-adv-x="604" 
d="M168 664q0 242 60 459t188 479h96q-131 -276 -188 -492q-119 -450 0 -893q57 -215 188 -491h-96q-129 262 -189 479q-59 217 -59 459z" />
    <glyph glyph-name="parenright" unicode=")" horiz-adv-x="604" 
d="M436 664q0 -242 -59 -459t-189 -479h-96q131 276 189 491q57 215 57 447t-58 446q-58 216 -188 492h96q128 -262 188 -480q60 -216 60 -458z" />
    <glyph glyph-name="asterisk" unicode="*" horiz-adv-x="888" 
d="M418 1434h55v-281l240 143l28 -47l-243 -143l243 -141l-28 -47l-240 141v-281h-55v281l-242 -141l-29 47l242 141l-242 143l29 47l242 -143v281z" />
    <glyph glyph-name="plus" unicode="+" horiz-adv-x="1245" 
d="M580 266v432h-406v78h406v432h86v-432h405v-78h-405v-432h-86z" />
    <glyph glyph-name="comma" unicode="," horiz-adv-x="454" 
d="M72 -219l104 420h109l-131 -420h-82z" />
    <glyph glyph-name="hyphen" unicode="-" horiz-adv-x="849" 
d="M150 594v80h550v-80h-550z" />
    <glyph glyph-name="period" unicode="." horiz-adv-x="454" 
d="M147 68q0 36 23 58q24 22 58 22t57 -24q23 -22 23 -56t-24 -58q-22 -22 -57 -22t-57 22t-23 58z" />
    <glyph glyph-name="slash" unicode="/" horiz-adv-x="917" 
d="M127 -215l578 1751h94l-578 -1751h-94z" />
    <glyph glyph-name="zero" unicode="0" horiz-adv-x="1282" 
d="M1026 999q0 169 -101 275t-283 106t-284 -106t-102 -275v-565q0 -168 101 -274t283 -106t284 106t102 274v565zM641 -29q-225 0 -354 131t-129 336v557q0 205 129 336t354 131t354 -131t129 -336v-557q0 -205 -129 -336t-354 -131z" />
    <glyph glyph-name="one" unicode="1" horiz-adv-x="671" 
d="M362 0v1327l-294 -149v92l311 164h82v-1434h-99z" />
    <glyph glyph-name="two" unicode="2" horiz-adv-x="1218" 
d="M158 0v80l620 668q172 182 172 324t-94 225t-243 83t-243 -85t-94 -236v-33h-92v37q0 187 120 293t309 106t313 -105t123 -274q1 -113 -49 -197t-154 -198l-574 -606h785v-82h-899z" />
    <glyph glyph-name="three" unicode="3" horiz-adv-x="1239" 
d="M639 788q197 0 324 -110t127 -289q0 -180 -140 -299t-334 -119q-192 0 -328 110t-149 296h90q13 -150 119 -237t269 -87t270 93q106 93 106 242t-102 236t-268 87h-187v82l496 561h-701v80h818v-82l-504 -564h94z" />
    <glyph glyph-name="four" unicode="4" horiz-adv-x="1245" 
d="M827 0v360h-694v78l496 996h92l-490 -996h596v353h93v-353h206v-78h-206v-360h-93z" />
    <glyph glyph-name="five" unicode="5" horiz-adv-x="1275" 
d="M635 -29q-176 -1 -304 99t-167 268h94q35 -127 134 -206t261 -79t275 113q112 114 112 278t-107 278q-108 114 -276 114q-113 0 -211 -56t-149 -133h-98l133 787h688v-82h-608l-107 -594q133 160 367 160q199 0 332 -136t133 -337q1 -200 -143 -337t-359 -137z" />
    <glyph glyph-name="six" unicode="6" horiz-adv-x="1220" 
d="M229 438q-1 -170 107 -278t279 -109q171 0 279 114q108 113 108 279t-105 280q-104 114 -272 114t-282 -115t-114 -285zM1098 447q0 -196 -138 -336t-346 -140q-209 0 -345 134q-136 133 -136 321t119 377l393 631h105l-431 -668v-2q113 152 319 152t333 -137
q127 -136 127 -332z" />
    <glyph glyph-name="seven" unicode="7" horiz-adv-x="1136" 
d="M143 1352v82h871v-70l-649 -1364h-101l649 1352h-770z" />
    <glyph glyph-name="eight" unicode="8" horiz-adv-x="1290" 
d="M977 1090q0 132 -91 214t-241 82t-241 -82t-91 -214q1 -132 95 -220t237 -88t238 88q94 88 94 220zM645 47q168 0 279 90q110 90 110 239q0 148 -108 236t-281 88t-281 -88t-108 -236t110 -238t279 -91zM645 -29q-213 0 -348 112t-135 288q0 143 84 241t231 133
q-115 39 -185 127t-71 215q0 171 116 273q117 102 309 102t308 -102t115 -273q0 -127 -71 -215t-185 -127q147 -35 231 -133t84 -241q0 -176 -135 -288t-348 -112z" />
    <glyph glyph-name="nine" unicode="9" horiz-adv-x="1216" 
d="M602 1382q-170 0 -278 -114t-107 -282q0 -170 100 -280q99 -110 271 -110t286 117t115 283q0 166 -108 276q-109 110 -279 110zM603 1462q210 0 346 -133t136 -319t-118 -379l-394 -631h-104l430 668v2q-47 -68 -135 -110t-193 -42q-197 0 -323 136t-127 337
q0 201 136 336t346 135z" />
    <glyph glyph-name="colon" unicode=":" horiz-adv-x="454" 
d="M147 776q0 35 23 58q24 22 58 22t57 -22t23 -58t-24 -58q-22 -22 -57 -22t-57 22t-23 58zM147 68q0 36 23 58q24 22 58 22t57 -24q23 -22 23 -56t-24 -58q-22 -22 -57 -22t-57 22t-23 58z" />
    <glyph glyph-name="semicolon" unicode=";" horiz-adv-x="454" 
d="M147 778q0 35 23 58q24 22 58 22t57 -22t23 -58t-24 -58q-22 -22 -57 -22t-57 22t-23 58zM55 -219l105 420h108l-131 -420h-82z" />
    <glyph glyph-name="less" unicode="&#x3c;" horiz-adv-x="1214" 
d="M133 768l897 461v-84l-797 -408l797 -407v-84l-897 461v61z" />
    <glyph glyph-name="equal" unicode="=" horiz-adv-x="1255" 
d="M195 942v76h866v-76h-866zM195 457v75h866v-75h-866z" />
    <glyph glyph-name="greater" unicode="&#x3e;" horiz-adv-x="1214" 
d="M184 1229l897 -461v-61l-897 -461v84l797 407l-797 408v84z" />
    <glyph glyph-name="question" unicode="?" horiz-adv-x="1015" 
d="M371 68q1 36 23 58t57 22t57 -24q22 -22 22 -56t-22 -58q-22 -22 -58 -22q-34 0 -57 22q-22 23 -22 58zM399 326v123q0 133 34 205t130 145l88 65q154 115 154 260q0 115 -85 187q-85 71 -224 71t-220 -74q-80 -75 -79 -210v-33h-91v35q0 168 106 265t286 97t293 -95
t112 -243q0 -180 -164 -303l-98 -73q-90 -68 -121 -125t-31 -174v-123h-90z" />
    <glyph glyph-name="at" unicode="@" horiz-adv-x="1935" 
d="M686 547q0 -103 56 -163t154 -60t167 70q70 70 88 175l12 72q4 29 4 45q0 98 -62 173t-159 75q-199 0 -244 -260l-10 -58q-6 -37 -6 -69zM973 -231q-379 0 -597 231t-218 594q0 364 240 616t604 252t575 -206t211 -513q0 -205 -97 -359t-278 -153q-98 1 -168 61t-74 150
q-37 -86 -113 -136t-167 -50q-129 0 -207 82t-78 213q0 35 6 76l11 59q25 147 106 232q81 84 197 84t187 -58q71 -57 91 -135l29 174h76l-74 -414q-6 -37 -6 -67q0 -98 53 -152t139 -55q133 0 211 133t78 313q0 281 -190 466t-518 185t-547 -230q-219 -232 -219 -587
q0 -199 80 -363t252 -268q172 -106 392 -106t402 58l-10 -70q-172 -57 -379 -57z" />
    <glyph glyph-name="A" unicode="A" horiz-adv-x="1355" 
d="M678 1339l-318 -862h633zM729 1434l545 -1434h-105l-145 393h-694l-144 -393h-104l545 1434h102z" />
    <glyph glyph-name="B" unicode="B" horiz-adv-x="1343" 
d="M295 774h446q143 0 226 87q82 87 82 209t-81 203t-227 81h-446v-580zM295 80h471q178 0 272 82t94 222t-100 225t-264 85h-473v-614zM199 0v1434h565q174 0 278 -102t105 -255q0 -113 -58 -199t-167 -135q309 -78 309 -358q0 -173 -122 -279t-333 -106h-577z" />
    <glyph glyph-name="C" unicode="C" horiz-adv-x="1431" 
d="M735 -29q-276 0 -427 172t-150 445v258q0 272 150 444q151 172 427 172q235 0 385 -139t168 -346h-96q-23 174 -142 288q-120 114 -317 113q-229 0 -352 -146t-123 -384v-262q0 -238 123 -384t336 -146t333 113q120 114 142 288h96q-18 -207 -168 -347t-385 -139z" />
    <glyph glyph-name="D" unicode="D" horiz-adv-x="1427" 
d="M1174 881q0 213 -126 341t-352 128h-397v-1266h397q225 0 352 128q126 128 126 341v328zM1274 551q0 -239 -151 -395t-414 -156h-510v1434h510q265 0 415 -156t150 -395v-332z" />
    <glyph glyph-name="E" unicode="E" horiz-adv-x="1239" 
d="M199 0v1434h919v-84h-819v-580h760v-86h-760v-600h821v-84h-921z" />
    <glyph glyph-name="F" unicode="F" horiz-adv-x="1185" 
d="M199 0v1434h899v-84h-799v-598h739v-86h-739v-666h-100z" />
    <glyph glyph-name="G" unicode="G" horiz-adv-x="1449" 
d="M1303 528q0 -246 -151 -402q-152 -156 -422 -155t-422 179t-150 452v236q0 280 150 452t411 172q262 0 410 -138t159 -353h-96q-10 176 -132 292q-122 115 -341 115t-340 -147t-121 -389v-242q0 -242 123 -394t350 -151q227 0 351 127t124 338v64h-438v84h535v-140z" />
    <glyph glyph-name="H" unicode="H" horiz-adv-x="1437" 
d="M199 0v1434h100v-666h840v666h100v-1434h-100v680h-840v-680h-100z" />
    <glyph glyph-name="I" unicode="I" horiz-adv-x="518" 
d="M209 0v1434h100v-1434h-100z" />
    <glyph glyph-name="J" unicode="J" horiz-adv-x="1189" 
d="M997 375q-1 -178 -127 -291t-327 -113t-325 111t-124 287v10h99v-10q0 -141 94 -227t257 -87q163 0 258 87t95 233v1059h100v-1059z" />
    <glyph glyph-name="K" unicode="K" horiz-adv-x="1210" 
d="M199 0v1434h100v-703l715 703h127l-723 -709l749 -725h-129l-739 717v-717h-100z" />
    <glyph glyph-name="L" unicode="L" horiz-adv-x="1153" 
d="M199 0v1434h100v-1350h768v-84h-868z" />
    <glyph glyph-name="M" unicode="M" horiz-adv-x="1593" 
d="M1395 1434v-1434h-95v1253l-450 -891h-107l-450 891v-1253h-94v1434h100l498 -985l497 985h101z" />
    <glyph glyph-name="N" unicode="N" 
d="M199 0v1434h94l858 -1272v1272h96v-1434h-94l-858 1270v-1270h-96z" />
    <glyph glyph-name="O" unicode="O" horiz-adv-x="1482" 
d="M1227 590v254q0 231 -123 384q-123 152 -363 152q-241 0 -363 -152t-122 -384v-254q0 -231 123 -384t363 -153t362 153q123 153 123 384zM1325 840v-246q0 -268 -150 -446q-151 -177 -434 -177t-433 177t-150 446v246q0 268 150 445q152 177 434 177t432 -177t151 -445z
" />
    <glyph glyph-name="P" unicode="P" horiz-adv-x="1292" 
d="M299 631h434q184 0 281 103q96 103 96 257t-96 256t-281 103h-434v-719zM199 0v1434h544q213 0 340 -126t127 -316t-127 -318q-127 -127 -340 -127h-444v-547h-100z" />
    <glyph glyph-name="Q" unicode="Q" horiz-adv-x="1482" 
d="M1227 590v254q0 231 -123 384q-123 152 -363 152q-241 0 -363 -152t-122 -384v-254q0 -231 123 -384t362 -153q119 0 217 43l-110 189l70 39l110 -187q199 142 199 453zM1325 840v-246q0 -172 -63 -313t-189 -222l117 -194l-70 -41l-119 199q-115 -51 -260 -52
q-283 0 -433 177t-150 446v246q0 268 150 445q152 177 434 177t432 -177t151 -445z" />
    <glyph glyph-name="R" unicode="R" horiz-adv-x="1363" 
d="M299 637h451q184 0 282 101t98 255t-99 256t-279 103h-453v-715zM299 555v-555h-100v1434h569q213 0 338 -128t125 -298t-87 -284t-239 -153l322 -571h-111l-307 555h-510z" />
    <glyph glyph-name="S" unicode="S" horiz-adv-x="1335" 
d="M1198 381q0 -188 -148 -299t-375 -111q-226 0 -374 117q-147 117 -147 305v33h96v-31q0 -156 119 -249t307 -93t307 86t119 236q0 205 -230 264l-423 111q-270 72 -271 329q0 175 130 279t345 104t352 -112q136 -113 136 -291v-33h-92v31q0 143 -108 233t-285 90
t-279 -78t-103 -217q0 -102 50 -162t153 -89l428 -113q137 -37 215 -123t78 -217z" />
    <glyph glyph-name="T" unicode="T" horiz-adv-x="1128" 
d="M514 0v1350h-455v84h1010v-84h-455v-1350h-100z" />
    <glyph glyph-name="U" unicode="U" 
d="M723 -29q-242 -1 -387 139t-146 357v967h101v-977q0 -180 117 -291q118 -111 316 -111t314 111t117 291v977h100v-967q0 -217 -145 -357t-387 -139z" />
    <glyph glyph-name="V" unicode="V" horiz-adv-x="1249" 
d="M1192 1434l-508 -1434h-119l-508 1434h99l469 -1340l469 1340h98z" />
    <glyph glyph-name="W" unicode="W" horiz-adv-x="1847" 
d="M1769 1434l-339 -1434h-105l-401 1327l-402 -1327h-104l-340 1434h98l297 -1303l395 1303h111l395 -1303l297 1303h98z" />
    <glyph glyph-name="X" unicode="X" horiz-adv-x="1265" 
d="M686 729l502 -729h-109l-446 651l-447 -651h-108l502 729l-484 705h105l432 -627l432 627h104z" />
    <glyph glyph-name="Y" unicode="Y" horiz-adv-x="1191" 
d="M645 0h-98v555l-514 879h104l459 -787l459 787h104l-514 -879v-555z" />
    <glyph glyph-name="Z" unicode="Z" horiz-adv-x="1261" 
d="M139 0v84l856 1266h-817v84h924v-84l-856 -1266h880v-84h-987z" />
    <glyph glyph-name="bracketleft" unicode="[" horiz-adv-x="722" 
d="M188 -274v1876h443v-80h-344v-1717h344v-79h-443z" />
    <glyph glyph-name="backslash" unicode="\" horiz-adv-x="917" 
d="M213 1536l578 -1751h-95l-577 1751h94z" />
    <glyph glyph-name="bracketright" unicode="]" horiz-adv-x="722" 
d="M532 1602v-1876h-442v79h344v1717h-344v80h442z" />
    <glyph glyph-name="asciicircum" unicode="^" horiz-adv-x="1007" 
d="M545 1434l325 -562h-98l-268 480l-268 -480h-99l326 562h82z" />
    <glyph glyph-name="underscore" unicode="_" horiz-adv-x="997" 
d="M-2 -229v49h1001v-49h-1001z" />
    <glyph glyph-name="grave" unicode="`" horiz-adv-x="692" 
d="M317 1473l175 -279h-99l-192 279h116z" />
    <glyph glyph-name="a" unicode="a" horiz-adv-x="1136" 
d="M879 304q0 114 -111 182t-249 67q-138 1 -228 -63t-90 -182t86 -188t228 -69q142 0 253 69q111 70 111 184zM508 -25q-180 -1 -291 93t-111 242t116 235q116 86 302 86q113 0 210 -46t145 -110v207q0 131 -81 217t-216 86q-225 0 -306 -192h-92q38 127 144 199t267 73
q161 0 271 -108t111 -271v-686h-94v145q-45 -70 -147 -120t-228 -50z" />
    <glyph glyph-name="b" unicode="b" horiz-adv-x="1202" 
d="M979 434v172q0 168 -91 274t-250 105q-159 1 -260 -109t-102 -274v-164q0 -164 102 -274t262 -109q159 -1 249 105t90 274zM178 1495h98v-647q44 96 142 156t231 61q197 0 313 -127t115 -326v-184q1 -199 -115 -326t-313 -127q-139 -1 -237 63t-142 165v-203h-92v1495z
" />
    <glyph glyph-name="c" unicode="c" horiz-adv-x="1140" 
d="M564 -25q-194 0 -316 127t-123 326v184q0 199 123 326t316 127q193 -1 310 -107t138 -272h-90q-23 133 -111 216t-245 83t-250 -105t-93 -270v-180q0 -164 93 -269t250 -105t245 82q88 83 111 216h90q-20 -166 -138 -272q-116 -106 -310 -107z" />
    <glyph glyph-name="d" unicode="d" horiz-adv-x="1202" 
d="M223 606v-172q0 -168 90 -273t249 -105t261 109q102 110 103 273v164q0 164 -102 274t-260 110q-159 0 -250 -106t-91 -274zM926 1495h98v-1495h-92v203q-43 -99 -141 -163t-238 -65q-197 0 -313 127t-115 326v184q0 199 116 326t312 127q133 0 231 -60t142 -157v647z
" />
    <glyph glyph-name="e" unicode="e" horiz-adv-x="1132" 
d="M221 606v-49h682v64q0 162 -87 264t-253 102q-166 -1 -254 -103t-88 -278zM573 -25q-205 0 -327 123t-121 324v180q0 211 118 337q117 126 321 126t319 -129t114 -320v-139h-776v-61q0 -158 93 -260t259 -103q123 -1 207 63t117 173h86q-31 -139 -142 -227
q-112 -87 -268 -87z" />
    <glyph glyph-name="f" unicode="f" horiz-adv-x="704" 
d="M254 0v961h-162v79h162v152q0 156 73 230t222 73h125v-80h-119q-111 0 -157 -51t-46 -164v-160h285v-79h-285v-961h-98z" />
    <glyph glyph-name="g" unicode="g" horiz-adv-x="1198" 
d="M556 121q157 0 261 99t105 255v150q0 147 -104 253t-259 107q-156 0 -247 -94t-91 -256v-164q0 -164 89 -257t246 -93zM1020 -10q0 -160 -125 -266t-292 -105q-167 0 -288 65t-172 181h99q100 -168 344 -168q154 0 244 80t92 215v270q-32 -84 -136 -152t-235 -69
q-195 0 -311 120t-115 300v182q0 184 115 303t309 119q145 0 241 -66t136 -153v194h94v-1050z" />
    <glyph glyph-name="h" unicode="h" horiz-adv-x="1191" 
d="M178 0v1495h98v-655q94 225 367 225q173 0 277 -110t104 -302v-653h-98v641q0 162 -77 251t-226 89t-247 -99t-100 -276v-606h-98z" />
    <glyph glyph-name="i" unicode="i" horiz-adv-x="475" 
d="M160 1350q0 30 22 52t56 22t56 -22t22 -52t-22 -55q-22 -23 -56 -23t-57 23q-21 24 -21 55zM188 0v1040h99v-1040h-99z" />
    <glyph glyph-name="j" unicode="j" horiz-adv-x="475" 
d="M160 1350q0 30 22 52t56 22t56 -22t22 -52t-22 -55q-22 -23 -56 -23t-57 23q-21 24 -21 55zM-29 -356v80h56q86 0 124 36t37 115v1165h99v-1167q0 -229 -238 -229h-78z" />
    <glyph glyph-name="k" unicode="k" horiz-adv-x="1013" 
d="M178 0v1495h98v-946l515 491h131l-527 -499l551 -541h-131l-539 532v-532h-98z" />
    <glyph glyph-name="l" unicode="l" horiz-adv-x="475" 
d="M188 0v1495h99v-1495h-99z" />
    <glyph glyph-name="m" unicode="m" horiz-adv-x="1914" 
d="M1012 0h-99v641q0 162 -75 251q-76 89 -224 89t-242 -99q-95 -99 -96 -276v-606h-98v1040h92v-211q35 106 129 171q93 65 227 65t225 -60t130 -171q53 113 153 172t234 59q174 0 276 -110t103 -302v-653h-98v641q0 162 -76 251t-222 89q-147 0 -243 -99t-96 -276v-606z
" />
    <glyph glyph-name="n" unicode="n" horiz-adv-x="1191" 
d="M178 0v1040h92v-211q37 106 133 171t255 65q158 0 262 -110t104 -302v-653h-98v641q0 162 -77 251t-226 89t-247 -99t-100 -276v-606h-98z" />
    <glyph glyph-name="o" unicode="o" horiz-adv-x="1146" 
d="M928 608q0 166 -94 272t-260 105q-166 0 -261 -105q-94 -105 -94 -272v-176q0 -166 94 -271t260 -105q167 0 261 104q94 106 94 272v176zM573 -25q-207 0 -327 128t-121 325v184q0 197 121 325q122 128 328 128t327 -128t121 -325v-184q0 -197 -121 -325t-328 -128z" />
    <glyph glyph-name="p" unicode="p" horiz-adv-x="1202" 
d="M979 434v172q0 168 -90 274t-249 105q-159 1 -261 -109t-103 -274v-164q0 -164 102 -274t260 -109q159 -1 250 105t91 274zM276 -356h-98v1396h92v-202q44 100 142 163t237 64q197 0 313 -127t115 -326v-184q1 -199 -115 -326t-313 -127q-133 1 -231 61t-142 157v-549z
" />
    <glyph glyph-name="q" unicode="q" horiz-adv-x="1202" 
d="M223 606v-172q0 -168 91 -273t250 -105t260 109q101 110 102 273v164q0 164 -102 274t-262 110q-159 0 -249 -106t-90 -274zM1024 -356h-98v549q-44 -97 -142 -157t-231 -61q-197 0 -313 127t-115 326v184q0 199 116 326t312 127q139 1 237 -63t142 -164v202h92v-1396z
" />
    <glyph glyph-name="r" unicode="r" horiz-adv-x="700" 
d="M178 0v1040h92v-258q25 119 124 192t247 73h10v-91h-10q-164 0 -264 -112t-101 -322v-522h-98z" />
    <glyph glyph-name="s" unicode="s" horiz-adv-x="1075" 
d="M544 -25q-177 0 -297 88t-120 234v6h96v-4q0 -113 94 -179q93 -66 231 -65t228 61t90 160q0 133 -149 170l-342 84q-219 55 -219 248q0 131 103 209t271 78t274 -89t105 -233v-6h-96v6q0 109 -76 176t-206 67q-131 0 -205 -55q-74 -54 -74 -153q0 -125 141 -160l338 -83
q231 -57 232 -256q0 -135 -121 -219t-298 -85z" />
    <glyph glyph-name="t" unicode="t" horiz-adv-x="749" 
d="M651 0h-106q-274 0 -275 270v691h-190v79h190v301h99v-301h286v-79h-286v-691q0 -102 43 -146t147 -44h92v-80z" />
    <glyph glyph-name="u" unicode="u" horiz-adv-x="1183" 
d="M1006 1040v-1040h-93v211q-33 -104 -129 -170t-254 -66t-261 110q-101 110 -101 302v653h98v-641q0 -162 76 -251t224 -89q148 -1 244 99t97 276v606h99z" />
    <glyph glyph-name="v" unicode="v" horiz-adv-x="1019" 
d="M950 1040l-383 -1040h-114l-383 1040h98l342 -942l342 942h98z" />
    <glyph glyph-name="w" unicode="w" horiz-adv-x="1527" 
d="M1450 1040l-289 -1040h-98l-299 934l-299 -934h-98l-289 1040h92l248 -923l295 923h102l295 -923l248 923h92z" />
    <glyph glyph-name="x" unicode="x" horiz-adv-x="983" 
d="M545 528l364 -528h-104l-313 457l-314 -457h-104l364 528l-350 512h102l302 -438l301 438h102z" />
    <glyph glyph-name="y" unicode="y" horiz-adv-x="1009" 
d="M336 -356l123 356l-389 1040h100l338 -921l332 921h100l-508 -1396h-96z" />
    <glyph glyph-name="z" unicode="z" horiz-adv-x="1005" 
d="M123 0v78l653 880h-626v82h735v-77l-654 -881h662v-82h-770z" />
    <glyph glyph-name="braceleft" unicode="{" horiz-adv-x="866" 
d="M639 1602h135v-80h-123q-205 0 -205 -205v-412q0 -205 -180 -241q180 -37 180 -242v-412q0 -205 205 -205h123v-79h-135q-141 0 -216 76t-75 202v408q0 100 -54 155t-159 56h-63v82h63q104 0 159 55q54 55 54 155v408q0 127 75 203t216 76z" />
    <glyph glyph-name="bar" unicode="|" horiz-adv-x="606" 
d="M260 -307v1945h86v-1945h-86z" />
    <glyph glyph-name="braceright" unicode="}" horiz-adv-x="866" 
d="M92 1602h135q141 0 216 -76t75 -203v-408q0 -100 54 -155t159 -55h64v-82h-64q-105 1 -159 -55t-54 -156v-408q0 -127 -75 -203t-216 -75h-135v79h123q205 0 205 205v412q0 205 180 242q-180 37 -180 241v412q0 205 -205 205h-123v80z" />
    <glyph glyph-name="asciitilde" unicode="~" horiz-adv-x="1200" 
d="M852 596q-72 0 -247 102t-237 102t-90 -46q-28 -47 -42 -148l-84 10q10 131 62 197t161 66q78 -1 257 -103t223 -102t70 30t33 62q7 34 15 102l84 -12q-12 -260 -205 -260z" />
    <glyph glyph-name="uni00A0" unicode="&#xa0;" horiz-adv-x="491" 
 />
    <glyph glyph-name="exclamdown" unicode="&#xa1;" horiz-adv-x="503" 
d="M332 1366q0 -36 -23 -58t-57 -22t-58 23q-22 23 -22 57t23 58q23 22 57 22t58 -22q22 -22 22 -58zM303 0h-102v655l24 467h49l29 -467v-655z" />
    <glyph glyph-name="cent" unicode="&#xa2;" horiz-adv-x="1165" 
d="M543 0v207q-172 16 -279 130q-106 114 -106 296v168q0 184 107 299q108 115 280 127v207h96v-207q147 -11 247 -103t120 -221h-90q-18 106 -106 176t-230 70q-144 0 -236 -93t-92 -257v-164q0 -164 92 -257t236 -93q144 -1 230 69q87 70 106 176h90q-18 -129 -118 -220
t-251 -103v-207h-96z" />
    <glyph glyph-name="sterling" unicode="&#xa3;" horiz-adv-x="1341" 
d="M160 0v82h254v561h-224v82h224v322q0 203 103 309t291 106t294 -105t106 -270v-28h-92v28q0 129 -80 212t-221 83q-303 0 -303 -333v-324h451v-82h-451v-561h631v-82h-983z" />
    <glyph glyph-name="currency" unicode="&#xa4;" horiz-adv-x="1204" 
d="M602 381q129 0 199 75t69 191v137q0 117 -69 192q-70 75 -199 75t-199 -75t-69 -192v-137q0 -117 70 -191t198 -75zM954 649q0 -135 -77 -225l167 -248h-100l-129 193q-90 -59 -213 -59t-213 59l-129 -193h-100l166 248q-76 92 -76 225v133q0 131 76 224l-166 249h100
l129 -194q88 61 213 61t213 -61l129 194h100l-167 -249q78 -90 77 -224v-133z" />
    <glyph glyph-name="yen" unicode="&#xa5;" horiz-adv-x="1163" 
d="M164 737v74h264l-295 623h105l344 -750l344 750h104l-295 -623h262v-74h-297l-69 -147v-146h366v-73h-366v-371h-99v371h-368v73h368v146l-69 147h-299z" />
    <glyph glyph-name="brokenbar" unicode="&#xa6;" horiz-adv-x="606" 
d="M260 864v774h86v-774h-86zM260 -307v774h86v-774h-86z" />
    <glyph glyph-name="section" unicode="&#xa7;" horiz-adv-x="1232" 
d="M987 528q0 130 -137 187l-363 153q-57 23 -96 47q-137 -98 -137 -238t170 -206l334 -131q66 -27 110 -57q119 115 119 245zM607 -254q-169 0 -277 88t-109 234v24h88v-22q0 -113 81 -182q81 -68 216 -68t217 62t82 169q0 147 -164 211l-354 139q-219 86 -219 277
q0 92 50 167t116 111q-84 74 -84 204t102 216t278 86t280 -87q105 -87 106 -236v-25h-84v25q0 117 -80 183t-219 67t-217 -61t-78 -173q0 -141 166 -209l381 -160q188 -80 188 -264q0 -154 -147 -284q68 -74 68 -195t-110 -209q-108 -88 -277 -88z" />
    <glyph glyph-name="dieresis" unicode="&#xa8;" horiz-adv-x="966" 
d="M690 1249q-36 1 -56 23t-20 52t20 52t56 21q35 0 55 -22q21 -21 21 -51t-20 -52t-56 -23zM276 1397q36 0 56 -22q20 -21 20 -51t-20 -52t-56 -23q-36 1 -55 23q-20 22 -20 52t20 52t55 21z" />
    <glyph glyph-name="copyright" unicode="&#xa9;" horiz-adv-x="1785" 
d="M670 655q0 -115 58 -185t160 -71t155 51q54 52 67 132h61q-12 -100 -86 -169q-75 -69 -201 -69t-202 88t-76 221v127q0 133 76 221q76 89 203 89t201 -69t85 -169h-61q-12 80 -66 131t-156 51t-160 -70t-58 -186v-123zM893 16q313 0 502 204q188 204 188 497t-188 497
q-187 204 -501 203q-314 0 -502 -204q-188 -205 -189 -497q1 -292 189 -496t501 -204zM893 1458q327 0 531 -216t204 -525t-204 -525t-532 -217q-328 0 -531 216q-203 215 -203 525t203 526q204 216 532 216z" />
    <glyph glyph-name="ordfeminine" unicode="&#xaa;" horiz-adv-x="864" 
d="M217 978q-1 -73 55 -116t141 -43t153 43t67 113q0 69 -68 111q-69 42 -153 42t-140 -38q-55 -39 -55 -112zM386 764q-98 0 -168 60q-71 60 -71 154t72 150q71 56 167 56t157 -28t90 -66v112q0 82 -50 136t-134 55q-135 0 -185 -115h-63q23 82 88 128q67 46 169 46
t174 -70t70 -170v-432h-67v86q-27 -38 -89 -70t-160 -32zM143 559v57h570v-57h-570z" />
    <glyph glyph-name="guillemotleft" unicode="&#xab;" horiz-adv-x="1200" 
d="M963 123l-363 430l363 430h110l-360 -430l360 -430h-110zM449 123l-363 430l363 430h110l-360 -430l360 -430h-110z" />
    <glyph glyph-name="logicalnot" unicode="&#xac;" horiz-adv-x="1204" 
d="M942 266v432h-809v78h897v-510h-88z" />
    <glyph glyph-name="registered" unicode="&#xae;" horiz-adv-x="1095" 
d="M463 1022h112q49 0 74 25t25 63t-26 65q-26 26 -73 25h-112v-178zM463 987v-143h-43v391h170q59 0 93 -37t34 -88q0 -94 -92 -119l86 -147h-49l-80 143h-119zM547 625q182 -1 294 117t111 286q0 168 -111 286q-112 118 -294 118t-293 -118t-111 -286t111 -286t293 -117z
M547 598q-193 0 -314 124t-121 305t121 306t314 125t315 -125t121 -306q1 -181 -121 -305t-315 -124z" />
    <glyph glyph-name="macron" unicode="&#xaf;" horiz-adv-x="997" 
d="M201 1284v78h596v-78h-596z" />
    <glyph glyph-name="degree" unicode="&#xb0;" horiz-adv-x="815" 
d="M408 915q111 0 172 73t61 171t-61 171t-172 73t-172 -73q-62 -73 -62 -171t62 -171t172 -73zM408 1456q141 0 218 -88q76 -88 76 -209t-76 -209t-218 -88q-141 0 -219 88q-77 88 -76 209q0 121 76 209q78 88 219 88z" />
    <glyph glyph-name="plusminus" unicode="&#xb1;" horiz-adv-x="1265" 
d="M590 311v410h-406v78h406v409h86v-409h405v-78h-405v-410h-86zM184 0v76h897v-76h-897z" />
    <glyph glyph-name="twosuperior" unicode="&#xb2;" horiz-adv-x="847" 
d="M164 956v60l360 342q84 80 84 150t-48 114q-48 43 -132 43t-131 -44t-47 -124v-16h-70v18q0 105 69 167t183 62t182 -60q70 -60 70 -158t-113 -201l-313 -289h416v-64h-510z" />
    <glyph glyph-name="threesuperior" unicode="&#xb3;" horiz-adv-x="849" 
d="M686 1171q0 -97 -78 -162t-186 -65t-183 60t-85 157h67q11 -76 65 -117q54 -40 136 -40t136 47t54 119t-51 114q-51 43 -141 43h-103v59l254 269h-350v59h438v-59l-253 -269h34q106 0 176 -59t70 -156z" />
    <glyph glyph-name="acute" unicode="&#xb4;" horiz-adv-x="692" 
d="M201 1194l174 279h117l-193 -279h-98z" />
    <glyph glyph-name="mu" unicode="&#xb5;" horiz-adv-x="1193" 
d="M1016 1040v-1040h-92v211q-33 -104 -129 -170t-215 -66q-229 0 -304 146v-477h-98v1396h98v-657q0 -154 77 -239t225 -85q148 -1 243 99q96 100 97 276v606h98z" />
    <glyph glyph-name="paragraph" unicode="&#xb6;" horiz-adv-x="1163" 
d="M881 -356v1726h-230v-946q-248 0 -386 135t-138 370t135 369t387 136h305v-1790h-73z" />
    <glyph glyph-name="periodcentered" unicode="&#xb7;" horiz-adv-x="454" 
d="M147 602q0 36 23 58q24 22 58 22t57 -23t23 -57t-24 -58q-22 -22 -57 -22t-57 22t-23 58z" />
    <glyph glyph-name="cedilla" unicode="&#xb8;" horiz-adv-x="724" 
d="M524 -244q0 -64 -51 -100t-129 -37q-78 0 -143 12v66q59 -12 123 -12q123 0 122 71q0 68 -112 74l-90 6l30 164h70l-16 -106l39 -3q69 -3 113 -37t44 -98z" />
    <glyph glyph-name="onesuperior" unicode="&#xb9;" horiz-adv-x="598" 
d="M307 956v682l-174 -77v69l184 84h66v-758h-76z" />
    <glyph glyph-name="ordmasculine" unicode="&#xba;" horiz-adv-x="905" 
d="M678 1065v86q0 106 -60 175t-165 69t-165 -69t-61 -175v-86q-1 -106 59 -175t166 -69t166 69t60 175zM745 1151v-86q-1 -131 -79 -216t-213 -85t-214 85t-79 216v86q0 131 79 216t214 85t213 -85t79 -216zM180 559v57h545v-57h-545z" />
    <glyph glyph-name="guillemotright" unicode="&#xbb;" horiz-adv-x="1200" 
d="M600 553l-362 -430h-111l360 430l-360 430h111zM1114 553l-362 -430h-111l360 430l-360 430h111z" />
    <glyph glyph-name="onequarter" unicode="&#xbc;" horiz-adv-x="1597" 
d="M338 0l747 1434h80l-747 -1434h-80zM332 676v682l-174 -78v70l184 84h66v-758h-76zM1270 0v180h-391v62l264 516h74l-259 -514h312v172h71v-172h105v-64h-105v-180h-71z" />
    <glyph glyph-name="onehalf" unicode="&#xbd;" horiz-adv-x="1640" 
d="M338 0l747 1434h80l-747 -1434h-80zM332 676v682l-174 -78v70l184 84h66v-758h-76zM965 0v59l360 342q84 80 84 151t-48 114t-132 43t-131 -44t-47 -124v-17h-70v19q0 105 69 167q68 62 182 62t184 -60t69 -158q0 -98 -113 -202l-313 -289h416v-63h-510z" />
    <glyph glyph-name="threequarters" unicode="&#xbe;" horiz-adv-x="1746" 
d="M487 0l748 1434h80l-748 -1434h-80zM1419 0v180h-391v62l264 516h74l-258 -514h311v172h72v-172h104v-64h-104v-180h-72zM436 664q-108 0 -183 59t-85 158h68q10 -76 64 -117t136 -41t136 47t55 119t-51 115t-142 43h-102v59l254 268h-350v60h438v-60l-254 -268h35
q106 0 176 -59q69 -59 69 -157t-77 -162q-79 -64 -187 -64z" />
    <glyph glyph-name="questiondown" unicode="&#xbf;" horiz-adv-x="1015" 
d="M645 1366q-1 -36 -23 -58t-57 -22t-57 23t-23 57q0 34 23 58q24 22 58 22t56 -22t23 -58zM616 1108v-123q0 -133 -34 -206t-129 -144l-88 -66q-154 -115 -154 -260q0 -115 85 -187t224 -71q139 0 219 75t80 210v33h90v-35q0 -168 -106 -265q-105 -97 -285 -97t-293 94
q-113 96 -112 243q0 180 163 303l99 74q90 68 121 125t30 174v123h90z" />
    <glyph glyph-name="Agrave" unicode="&#xc0;" horiz-adv-x="1355" 
d="M616 1563l-172 243h119l152 -243h-99zM678 1339l-318 -862h633zM729 1434l545 -1434h-105l-145 393h-694l-144 -393h-104l545 1434h102z" />
    <glyph glyph-name="Aacute" unicode="&#xc1;" horiz-adv-x="1355" 
d="M649 1563l152 243h119l-172 -243h-99zM678 1339l-318 -862h633zM729 1434l545 -1434h-105l-145 393h-694l-144 -393h-104l545 1434h102z" />
    <glyph glyph-name="Acircumflex" unicode="&#xc2;" horiz-adv-x="1355" 
d="M725 1806l233 -243h-100l-180 188l-180 -188h-101l234 243h94zM678 1339l-318 -862h633zM729 1434l545 -1434h-105l-145 393h-694l-144 -393h-104l545 1434h102z" />
    <glyph glyph-name="Atilde" unicode="&#xc3;" horiz-adv-x="1355" 
d="M500 1794q76 0 200 -73t160 -72q55 0 84 71q6 16 19 58l6 22l67 -18q-47 -205 -174 -205q-51 0 -177 73q-126 72 -178 72t-77 -38t-39 -113l-69 12q18 103 60 157t118 54zM678 1339l-318 -862h633zM729 1434l545 -1434h-105l-145 393h-694l-144 -393h-104l545 1434h102z
" />
    <glyph glyph-name="Adieresis" unicode="&#xc4;" horiz-adv-x="1355" 
d="M907 1747q35 0 55 -22q20 -21 21 -51q0 -30 -20 -52q-19 -22 -55 -23q-36 1 -56 23t-21 52q1 30 21 52t55 21zM449 1599q-35 1 -55 23t-21 52q0 30 20 52q19 22 55 21q36 0 56 -22q20 -21 20 -51t-20 -52t-55 -23zM678 1339l-318 -862h633zM729 1434l545 -1434h-105
l-145 393h-694l-144 -393h-104l545 1434h102z" />
    <glyph glyph-name="Aring" unicode="&#xc5;" horiz-adv-x="1355" 
d="M678 1434q53 0 83 30t30 78q0 47 -30 78t-83 31t-83 -31t-30 -78q0 -48 30 -78t83 -30zM678 1339l-318 -862h633zM678 1706q80 0 128 -47t48 -109q0 -123 -109 -161l529 -1389h-105l-145 393h-694l-144 -393h-104l528 1389q-108 39 -108 161q0 62 48 109t128 47z" />
    <glyph glyph-name="AE" unicode="&#xc6;" horiz-adv-x="2103" 
d="M1063 489v863l-588 -863h588zM1063 0v408h-643l-277 -408h-108l983 1434h964v-84h-819v-580h760v-86h-760v-600h822v-84h-922z" />
    <glyph glyph-name="Ccedilla" unicode="&#xc7;" horiz-adv-x="1431" 
d="M932 -244q0 -64 -52 -100t-130 -37q-79 0 -142 12v66q57 -12 123 -12q123 -1 123 69t-113 76l-90 6l25 137q-250 17 -384 187t-134 428v258q0 272 150 444q151 172 427 172q235 0 385 -139t168 -346h-96q-23 174 -142 288q-120 114 -317 113q-229 0 -352 -146t-123 -384
v-262q0 -238 123 -384t336 -146t333 113q120 114 142 288h96q-18 -205 -164 -343t-376 -143l-13 -77l39 -3q70 -3 114 -37t44 -98z" />
    <glyph glyph-name="Egrave" unicode="&#xc8;" horiz-adv-x="1239" 
d="M625 1563l-172 243h118l152 -243h-98zM199 0v1434h919v-84h-819v-580h760v-86h-760v-600h821v-84h-921z" />
    <glyph glyph-name="Eacute" unicode="&#xc9;" horiz-adv-x="1239" 
d="M590 1563l151 243h119l-172 -243h-98zM199 0v1434h919v-84h-819v-580h760v-86h-760v-600h821v-84h-921z" />
    <glyph glyph-name="Ecircumflex" unicode="&#xca;" horiz-adv-x="1239" 
d="M711 1806l233 -243h-100l-180 188l-181 -188h-100l233 243h95zM199 0v1434h919v-84h-819v-580h760v-86h-760v-600h821v-84h-921z" />
    <glyph glyph-name="Edieresis" unicode="&#xcb;" horiz-adv-x="1239" 
d="M892 1599q-32 1 -54 23t-21 52t21 52t55 21q35 0 55 -22q20 -21 20 -51t-21 -52q-23 -22 -55 -23zM434 1599q-32 1 -54 23t-22 52t20 52t56 21q35 0 55 -22q21 -21 21 -51t-22 -52t-54 -23zM199 0v1434h919v-84h-819v-580h760v-86h-760v-600h821v-84h-921z" />
    <glyph glyph-name="Igrave" unicode="&#xcc;" horiz-adv-x="518" 
d="M201 1563l-172 243h118l152 -243h-98zM209 0v1434h100v-1434h-100z" />
    <glyph glyph-name="Iacute" unicode="&#xcd;" horiz-adv-x="518" 
d="M219 1563l152 243h118l-172 -243h-98zM209 0v1434h100v-1434h-100z" />
    <glyph glyph-name="Icircumflex" unicode="&#xce;" horiz-adv-x="518" 
d="M305 1806l234 -243h-101l-180 188l-180 -188h-101l234 243h94zM209 0v1434h100v-1434h-100z" />
    <glyph glyph-name="Idieresis" unicode="&#xcf;" horiz-adv-x="518" 
d="M487 1747q35 0 55 -22q20 -21 21 -51q0 -30 -20 -52q-21 -22 -55 -23q-34 1 -55 23t-21 52t20 52t55 21zM104 1674q0 -30 -20 -52t-54 -23q-34 1 -56 23t-21 52q0 30 20 52q19 22 55 21q36 0 56 -22q20 -21 20 -51zM209 0v1434h100v-1434h-100z" />
    <glyph glyph-name="Eth" unicode="&#xd0;" horiz-adv-x="1495" 
d="M1241 881q0 213 -126 341t-351 128h-397v-594h411v-78h-411v-594h397q225 0 351 128t126 341v328zM92 678v78h174v678h510q264 0 415 -156t150 -395v-332q-1 -239 -151 -395t-414 -156h-510v678h-174z" />
    <glyph glyph-name="Ntilde" unicode="&#xd1;" 
d="M551 1794q76 0 201 -73t159 -72q55 0 84 71q6 16 19 58l6 22l67 -18q-47 -205 -174 -205q-51 0 -177 73q-126 72 -178 72t-77 -38t-39 -113l-69 12q18 103 60 157t118 54zM199 0v1434h94l858 -1272v1272h96v-1434h-94l-858 1270v-1270h-96z" />
    <glyph glyph-name="Ograve" unicode="&#xd2;" horiz-adv-x="1482" 
d="M680 1563l-172 243h119l151 -243h-98zM1227 590v254q0 231 -123 384q-123 152 -363 152q-241 0 -363 -152t-122 -384v-254q0 -231 123 -384t363 -153t362 153q123 153 123 384zM1325 840v-246q0 -268 -150 -446q-151 -177 -434 -177t-433 177t-150 446v246q0 268 150 445
q152 177 434 177t432 -177t151 -445z" />
    <glyph glyph-name="Oacute" unicode="&#xd3;" horiz-adv-x="1482" 
d="M688 1563l152 243h118l-172 -243h-98zM1227 590v254q0 231 -123 384q-123 152 -363 152q-241 0 -363 -152t-122 -384v-254q0 -231 123 -384t363 -153t362 153q123 153 123 384zM1325 840v-246q0 -268 -150 -446q-151 -177 -434 -177t-433 177t-150 446v246q0 268 150 445
q152 177 434 177t432 -177t151 -445z" />
    <glyph glyph-name="Ocircumflex" unicode="&#xd4;" horiz-adv-x="1482" 
d="M788 1806l234 -243h-100l-181 188l-180 -188h-100l233 243h94zM1227 590v254q0 231 -123 384q-123 152 -363 152q-241 0 -363 -152t-122 -384v-254q0 -231 123 -384t363 -153t362 153q123 153 123 384zM1325 840v-246q0 -268 -150 -446q-151 -177 -434 -177t-433 177
t-150 446v246q0 268 150 445q152 177 434 177t432 -177t151 -445z" />
    <glyph glyph-name="Otilde" unicode="&#xd5;" horiz-adv-x="1482" 
d="M570 1794q76 0 200 -73t160 -72q55 0 84 71q6 16 18 58l6 22l68 -18q-47 -205 -174 -205q-51 0 -177 73q-126 72 -178 72t-77 -38t-39 -113l-70 12q19 103 61 157t118 54zM1227 590v254q0 231 -123 384q-123 152 -363 152q-241 0 -363 -152t-122 -384v-254
q0 -231 123 -384t363 -153t362 153q123 153 123 384zM1325 840v-246q0 -268 -150 -446q-151 -177 -434 -177t-433 177t-150 446v246q0 268 150 445q152 177 434 177t432 -177t151 -445z" />
    <glyph glyph-name="Odieresis" unicode="&#xd6;" horiz-adv-x="1482" 
d="M970 1599q-32 1 -54 23t-21 52q0 30 20 52q19 22 55 21q36 0 56 -22q20 -21 20 -51t-21 -52q-23 -22 -55 -23zM512 1599q-32 1 -54 23t-22 52t20 52t56 21q35 0 55 -22q21 -21 21 -51t-22 -52t-54 -23zM1227 590v254q0 231 -123 384q-123 152 -363 152q-241 0 -363 -152
t-122 -384v-254q0 -231 123 -384t363 -153t362 153q123 153 123 384zM1325 840v-246q0 -268 -150 -446q-151 -177 -434 -177t-433 177t-150 446v246q0 268 150 445q152 177 434 177t432 -177t151 -445z" />
    <glyph glyph-name="multiply" unicode="&#xd7;" horiz-adv-x="1148" 
d="M231 338l-57 59l342 340l-342 344l57 58l342 -342l345 342l57 -58l-344 -344l344 -340l-57 -59l-345 342z" />
    <glyph glyph-name="Oslash" unicode="&#xd8;" horiz-adv-x="1482" 
d="M256 590q0 -229 113 -371l694 1051q-127 111 -322 110q-241 0 -363 -152t-122 -384v-254zM1227 590v254q0 225 -115 370l-692 -1050q123 -111 321 -111q240 0 363 153t123 384zM1325 840v-246q0 -268 -150 -446q-151 -177 -434 -177q-225 0 -370 117l-127 -190h-86
l157 241q-158 170 -157 455v246q0 268 150 445q151 177 433 177q221 0 371 -119l127 193h86l-160 -242q160 -171 160 -454z" />
    <glyph glyph-name="Ugrave" unicode="&#xd9;" 
d="M702 1563l-172 243h119l152 -243h-99zM723 -29q-242 -1 -387 139t-146 357v967h101v-977q0 -180 117 -291q118 -111 316 -111t314 111t117 291v977h100v-967q0 -217 -145 -357t-387 -139z" />
    <glyph glyph-name="Uacute" unicode="&#xda;" 
d="M643 1563l152 243h118l-172 -243h-98zM723 -29q-242 -1 -387 139t-146 357v967h101v-977q0 -180 117 -291q118 -111 316 -111t314 111t117 291v977h100v-967q0 -217 -145 -357t-387 -139z" />
    <glyph glyph-name="Ucircumflex" unicode="&#xdb;" 
d="M770 1806l234 -243h-101l-180 188l-180 -188h-101l234 243h94zM723 -29q-242 -1 -387 139t-146 357v967h101v-977q0 -180 117 -291q118 -111 316 -111t314 111t117 291v977h100v-967q0 -217 -145 -357t-387 -139z" />
    <glyph glyph-name="Udieresis" unicode="&#xdc;" 
d="M952 1747q36 0 56 -22q20 -21 20 -51t-20 -52t-56 -23q-36 1 -55 23q-20 22 -20 52t20 52t55 21zM494 1599q-36 1 -56 23t-20 52t20 52t56 21q36 0 55 -22q20 -21 20 -51t-20 -52t-55 -23zM723 -29q-242 -1 -387 139t-146 357v967h101v-977q0 -180 117 -291
q118 -111 316 -111t314 111t117 291v977h100v-967q0 -217 -145 -357t-387 -139z" />
    <glyph glyph-name="Yacute" unicode="&#xdd;" horiz-adv-x="1191" 
d="M545 1563l151 243h119l-172 -243h-98zM645 0h-98v555l-514 879h104l459 -787l459 787h104l-514 -879v-555z" />
    <glyph glyph-name="Thorn" unicode="&#xde;" horiz-adv-x="1292" 
d="M299 369h434q184 0 281 103q96 103 96 257t-96 256t-281 102h-434v-718zM199 0v1434h100v-263h444q213 1 340 -125t127 -316t-127 -318q-127 -127 -340 -127h-444v-285h-100z" />
    <glyph glyph-name="germandbls" unicode="&#xdf;" horiz-adv-x="1210" 
d="M178 0v1110q0 186 114 290t304 103t306 -109t116 -274q0 -125 -68 -219t-184 -139q142 -18 238 -116t96 -264t-120 -274t-306 -108h-80v80h76q150 0 242 85t92 227t-100 232t-259 89h-51v80q154 10 241 102t87 223t-89 218t-235 87q-146 -1 -233 -77q-88 -76 -89 -234
v-1112h-98z" />
    <glyph glyph-name="agrave" unicode="&#xe0;" horiz-adv-x="1136" 
d="M459 1473l174 -279h-98l-193 279h117zM879 304q0 114 -111 182t-249 67q-138 1 -228 -63t-90 -182t86 -188t228 -69q142 0 253 69q111 70 111 184zM508 -25q-180 -1 -291 93t-111 242t116 235q116 86 302 86q113 0 210 -46t145 -110v207q0 131 -81 217t-216 86
q-225 0 -306 -192h-92q38 127 144 199t267 73q161 0 271 -108t111 -271v-686h-94v145q-45 -70 -147 -120t-228 -50z" />
    <glyph glyph-name="aacute" unicode="&#xe1;" horiz-adv-x="1136" 
d="M524 1194l174 279h117l-192 -279h-99zM879 304q0 114 -111 182t-249 67q-138 1 -228 -63t-90 -182t86 -188t228 -69q142 0 253 69q111 70 111 184zM508 -25q-180 -1 -291 93t-111 242t116 235q116 86 302 86q113 0 210 -46t145 -110v207q0 131 -81 217t-216 86
q-225 0 -306 -192h-92q38 127 144 199t267 73q161 0 271 -108t111 -271v-686h-94v145q-45 -70 -147 -120t-228 -50z" />
    <glyph glyph-name="acircumflex" unicode="&#xe2;" horiz-adv-x="1136" 
d="M635 1473l225 -279h-96l-176 217l-176 -217h-97l226 279h94zM879 304q0 114 -111 182t-249 67q-138 1 -228 -63t-90 -182t86 -188t228 -69q142 0 253 69q111 70 111 184zM508 -25q-180 -1 -291 93t-111 242t116 235q116 86 302 86q113 0 210 -46t145 -110v207
q0 131 -81 217t-216 86q-225 0 -306 -192h-92q38 127 144 199t267 73q161 0 271 -108t111 -271v-686h-94v145q-45 -70 -147 -120t-228 -50z" />
    <glyph glyph-name="atilde" unicode="&#xe3;" horiz-adv-x="1136" 
d="M434 1434q68 0 180 -73t141 -73q57 0 75 45t32 107l70 -15q-14 -59 -30 -99t-52 -74q-37 -34 -89 -34t-163 74q-111 72 -163 72t-75 -37t-41 -117l-69 15q33 209 184 209zM879 304q0 114 -111 182t-249 67q-138 1 -228 -63t-90 -182t86 -188t228 -69q142 0 253 69
q111 70 111 184zM508 -25q-180 -1 -291 93t-111 242t116 235q116 86 302 86q113 0 210 -46t145 -110v207q0 131 -81 217t-216 86q-225 0 -306 -192h-92q38 127 144 199t267 73q161 0 271 -108t111 -271v-686h-94v145q-45 -70 -147 -120t-228 -50z" />
    <glyph glyph-name="adieresis" unicode="&#xe4;" horiz-adv-x="1136" 
d="M874 1324q0 -30 -22 -52t-54 -23q-32 1 -54 23t-21 52q0 30 20 52q19 22 55 21q36 0 56 -22q20 -21 20 -51zM384 1249q-32 1 -54 23t-21 52t21 52t55 21q35 0 55 -22q20 -21 20 -51t-21 -52q-23 -22 -55 -23zM879 304q0 114 -111 182t-249 67q-138 1 -228 -63t-90 -182
t86 -188t228 -69q142 0 253 69q111 70 111 184zM508 -25q-180 -1 -291 93t-111 242t116 235q116 86 302 86q113 0 210 -46t145 -110v207q0 131 -81 217t-216 86q-225 0 -306 -192h-92q38 127 144 199t267 73q161 0 271 -108t111 -271v-686h-94v145q-45 -70 -147 -120
t-228 -50z" />
    <glyph glyph-name="aring" unicode="&#xe5;" horiz-adv-x="1136" 
d="M588 1194q-80 0 -128 47t-48 117t48 117t128 47t128 -47t48 -117t-48 -117t-128 -47zM588 1249q53 0 83 31t29 78q0 47 -29 78q-30 30 -83 30t-83 -30t-30 -78q0 -47 30 -78t83 -31zM879 304q0 114 -111 182t-249 67q-138 1 -228 -63t-90 -182t86 -188t228 -69
q142 0 253 69q111 70 111 184zM508 -25q-180 -1 -291 93t-111 242t116 235q116 86 302 86q113 0 210 -46t145 -110v207q0 131 -81 217t-216 86q-225 0 -306 -192h-92q38 127 144 199t267 73q161 0 271 -108t111 -271v-686h-94v145q-45 -70 -147 -120t-228 -50z" />
    <glyph glyph-name="ae" unicode="&#xe6;" horiz-adv-x="1888" 
d="M977 606v-49h682v64q0 162 -87 264t-253 102q-166 -1 -254 -103t-88 -278zM201 312q0 -120 88 -190t232 -71q144 0 251 72q106 73 106 187t-110 180q-111 66 -249 67q-138 0 -228 -63q-90 -62 -90 -182zM1338 -25q-288 0 -406 218q-41 -93 -153 -155t-255 -63
q-194 1 -306 97t-112 244t115 233q115 86 303 86q111 0 209 -43t146 -103v191q0 127 -82 216t-217 89q-225 0 -304 -194h-90q38 131 140 203t240 71q138 0 230 -58q93 -58 140 -155q111 213 387 213q201 0 315 -129t115 -320v-139h-776v-61q0 -158 93 -260t259 -103
q123 -1 207 63t117 173h86q-31 -139 -143 -227t-258 -87z" />
    <glyph glyph-name="ccedilla" unicode="&#xe7;" horiz-adv-x="1140" 
d="M770 -244q0 -64 -51 -100t-130 -37q-79 0 -143 12v66q57 -12 123 -12q123 -1 123 69t-112 76l-91 6l27 144q-178 16 -285 140q-106 124 -106 308v184q0 199 123 326t316 127q193 -1 310 -107t138 -272h-90q-23 133 -111 216t-245 83t-250 -105t-93 -270v-180
q0 -164 93 -269t250 -105t245 82q88 83 111 216h90q-20 -164 -133 -269t-293 -110l-13 -81l39 -3q70 -3 114 -37t44 -98z" />
    <glyph glyph-name="egrave" unicode="&#xe8;" horiz-adv-x="1132" 
d="M438 1473l174 -279h-98l-192 279h116zM221 606v-49h682v64q0 162 -87 264t-253 102q-166 -1 -254 -103t-88 -278zM573 -25q-205 0 -327 123t-121 324v180q0 211 118 337q117 126 321 126t319 -129t114 -320v-139h-776v-61q0 -158 93 -260t259 -103q123 -1 207 63t117 173
h86q-31 -139 -142 -227q-112 -87 -268 -87z" />
    <glyph glyph-name="eacute" unicode="&#xe9;" horiz-adv-x="1132" 
d="M504 1194l174 279h117l-193 -279h-98zM221 606v-49h682v64q0 162 -87 264t-253 102q-166 -1 -254 -103t-88 -278zM573 -25q-205 0 -327 123t-121 324v180q0 211 118 337q117 126 321 126t319 -129t114 -320v-139h-776v-61q0 -158 93 -260t259 -103q123 -1 207 63t117 173
h86q-31 -139 -142 -227q-112 -87 -268 -87z" />
    <glyph glyph-name="ecircumflex" unicode="&#xea;" horiz-adv-x="1132" 
d="M614 1473l226 -279h-97l-176 217l-176 -217h-96l225 279h94zM221 606v-49h682v64q0 162 -87 264t-253 102q-166 -1 -254 -103t-88 -278zM573 -25q-205 0 -327 123t-121 324v180q0 211 118 337q117 126 321 126t319 -129t114 -320v-139h-776v-61q0 -158 93 -260t259 -103
q123 -1 207 63t117 173h86q-31 -139 -142 -227q-112 -87 -268 -87z" />
    <glyph glyph-name="edieresis" unicode="&#xeb;" horiz-adv-x="1132" 
d="M776 1249q-36 1 -56 23t-20 52t20 52t56 21q35 0 55 -22q21 -21 21 -51t-20 -52t-56 -23zM362 1397q36 0 56 -22q20 -21 20 -51t-20 -52t-56 -23q-36 1 -55 23q-20 22 -20 52t20 52t55 21zM221 606v-49h682v64q0 162 -87 264t-253 102q-166 -1 -254 -103t-88 -278z
M573 -25q-205 0 -327 123t-121 324v180q0 211 118 337q117 126 321 126t319 -129t114 -320v-139h-776v-61q0 -158 93 -260t259 -103q123 -1 207 63t117 173h86q-31 -139 -142 -227q-112 -87 -268 -87z" />
    <glyph glyph-name="igrave" unicode="&#xec;" horiz-adv-x="475" 
d="M106 1473l175 -279h-99l-192 279h116zM188 0v1040h99v-1040h-99z" />
    <glyph glyph-name="iacute" unicode="&#xed;" horiz-adv-x="475" 
d="M197 1194l174 279h116l-192 -279h-98zM188 0v1040h99v-1040h-99z" />
    <glyph glyph-name="icircumflex" unicode="&#xee;" horiz-adv-x="475" 
d="M285 1473l225 -279h-96l-176 217l-177 -217h-96l225 279h95zM188 0v1040h99v-1040h-99z" />
    <glyph glyph-name="idieresis" unicode="&#xef;" horiz-adv-x="475" 
d="M444 1397q36 0 56 -22q20 -21 20 -51t-20 -52t-56 -23q-36 1 -55 23q-20 22 -20 52t20 52t55 21zM106 1324q0 -30 -20 -52t-54 -23q-34 1 -56 23t-21 52q0 30 20 52q19 22 55 21q36 0 56 -22q20 -21 20 -51zM188 0v1040h99v-1040h-99z" />
    <glyph glyph-name="eth" unicode="&#xf0;" horiz-adv-x="1148" 
d="M223 416q0 -166 95 -266t257 -99t256 107t95 272v125q0 163 -104 275t-260 112q-155 0 -247 -102t-92 -285v-139zM1024 600v-160q0 -203 -124 -336t-328 -133t-326 128t-121 321v133q0 217 116 343t312 126q131 0 225 -60t133 -151q-74 258 -282 449l-324 -97l-24 68
l282 84q-98 84 -262 180h125q121 -61 227 -152l232 70l22 -70l-190 -57q135 -131 221 -313t86 -373z" />
    <glyph glyph-name="ntilde" unicode="&#xf1;" horiz-adv-x="1191" 
d="M438 1434q68 0 180 -73t141 -73q57 0 75 45t32 107l70 -15q-14 -59 -30 -99t-52 -74q-37 -34 -89 -34t-163 74q-111 72 -163 72q-53 0 -75 -37t-40 -117l-70 15q33 209 184 209zM178 0v1040h92v-211q37 106 133 171t255 65q158 0 262 -110t104 -302v-653h-98v641
q0 162 -77 251t-226 89t-247 -99t-100 -276v-606h-98z" />
    <glyph glyph-name="ograve" unicode="&#xf2;" horiz-adv-x="1146" 
d="M451 1473l174 -279h-99l-192 279h117zM928 608q0 166 -94 272t-260 105q-166 0 -261 -105q-94 -105 -94 -272v-176q0 -166 94 -271t260 -105q167 0 261 104q94 106 94 272v176zM573 -25q-207 0 -327 128t-121 325v184q0 197 121 325q122 128 328 128t327 -128t121 -325
v-184q0 -197 -121 -325t-328 -128z" />
    <glyph glyph-name="oacute" unicode="&#xf3;" horiz-adv-x="1146" 
d="M522 1194l174 279h117l-192 -279h-99zM928 608q0 166 -94 272t-260 105q-166 0 -261 -105q-94 -105 -94 -272v-176q0 -166 94 -271t260 -105q167 0 261 104q94 106 94 272v176zM573 -25q-207 0 -327 128t-121 325v184q0 197 121 325q122 128 328 128t327 -128t121 -325
v-184q0 -197 -121 -325t-328 -128z" />
    <glyph glyph-name="ocircumflex" unicode="&#xf4;" horiz-adv-x="1146" 
d="M621 1473l225 -279h-96l-177 217l-176 -217h-96l225 279h95zM928 608q0 166 -94 272t-260 105q-166 0 -261 -105q-94 -105 -94 -272v-176q0 -166 94 -271t260 -105q167 0 261 104q94 106 94 272v176zM573 -25q-207 0 -327 128t-121 325v184q0 197 121 325
q122 128 328 128t327 -128t121 -325v-184q0 -197 -121 -325t-328 -128z" />
    <glyph glyph-name="otilde" unicode="&#xf5;" horiz-adv-x="1146" 
d="M420 1434q68 0 180 -73t140 -73q56 0 76 49q19 49 32 103l70 -15q-14 -59 -30 -99t-52 -74t-88 -34t-164 74q-112 72 -163 72q-52 0 -75 -37t-41 -117l-69 15q33 209 184 209zM928 608q0 166 -94 272t-260 105q-166 0 -261 -105q-94 -105 -94 -272v-176q0 -166 94 -271
t260 -105q167 0 261 104q94 106 94 272v176zM573 -25q-207 0 -327 128t-121 325v184q0 197 121 325q122 128 328 128t327 -128t121 -325v-184q0 -197 -121 -325t-328 -128z" />
    <glyph glyph-name="odieresis" unicode="&#xf6;" horiz-adv-x="1146" 
d="M780 1397q36 0 56 -22q20 -21 20 -51t-20 -52t-56 -23q-36 1 -55 23q-20 22 -20 52t20 52t55 21zM367 1249q-35 1 -55 23t-21 52q0 30 20 52q19 22 55 21q36 0 56 -22q20 -21 20 -51t-20 -52t-55 -23zM928 608q0 166 -94 272t-260 105q-166 0 -261 -105
q-94 -105 -94 -272v-176q0 -166 94 -271t260 -105q167 0 261 104q94 106 94 272v176zM573 -25q-207 0 -327 128t-121 325v184q0 197 121 325q122 128 328 128t327 -128t121 -325v-184q0 -197 -121 -325t-328 -128z" />
    <glyph glyph-name="divide" unicode="&#xf7;" horiz-adv-x="1216" 
d="M532 1122q0 33 22 55q22 21 54 21t55 -22q21 -22 21 -54t-22 -54t-54 -22t-54 22q-22 21 -22 54zM532 352q0 33 22 55q22 21 54 21t55 -22q21 -22 21 -54t-22 -54t-54 -22t-54 22t-22 54zM174 696v82h868v-82h-868z" />
    <glyph glyph-name="oslash" unicode="&#xf8;" horiz-adv-x="1146" 
d="M219 432q0 -160 84 -262l490 748q-90 68 -220 67q-166 0 -260 -105t-94 -272v-176zM928 608q0 158 -86 262l-490 -747q90 -68 238 -68q148 -1 244 105q94 106 94 272v176zM573 -25q-158 0 -268 76l-100 -153h-80l129 196q-129 125 -129 334v184q0 197 121 325t327 128
q152 0 267 -76l102 156h80l-131 -199q131 -127 131 -334v-184q0 -197 -121 -325t-328 -128z" />
    <glyph glyph-name="ugrave" unicode="&#xf9;" horiz-adv-x="1183" 
d="M487 1473l175 -279h-99l-192 279h116zM1006 1040v-1040h-93v211q-33 -104 -129 -170t-254 -66t-261 110q-101 110 -101 302v653h98v-641q0 -162 76 -251t224 -89q148 -1 244 99t97 276v606h99z" />
    <glyph glyph-name="uacute" unicode="&#xfa;" horiz-adv-x="1183" 
d="M522 1194l174 279h117l-192 -279h-99zM1006 1040v-1040h-93v211q-33 -104 -129 -170t-254 -66t-261 110q-101 110 -101 302v653h98v-641q0 -162 76 -251t224 -89q148 -1 244 99t97 276v606h99z" />
    <glyph glyph-name="ucircumflex" unicode="&#xfb;" horiz-adv-x="1183" 
d="M647 1473l225 -279h-96l-176 217l-176 -217h-96l225 279h94zM1006 1040v-1040h-93v211q-33 -104 -129 -170t-254 -66t-261 110q-101 110 -101 302v653h98v-641q0 -162 76 -251t224 -89q148 -1 244 99t97 276v606h99z" />
    <glyph glyph-name="udieresis" unicode="&#xfc;" horiz-adv-x="1183" 
d="M802 1249q-32 1 -54 23t-21 52t21 52t55 21q35 0 55 -22q20 -21 20 -51t-21 -52q-23 -22 -55 -23zM388 1249q-32 1 -54 23t-21 52t21 52t55 21q35 0 55 -22q20 -21 20 -51t-21 -52q-23 -22 -55 -23zM1006 1040v-1040h-93v211q-33 -104 -129 -170t-254 -66t-261 110
q-101 110 -101 302v653h98v-641q0 -162 76 -251t224 -89q148 -1 244 99t97 276v606h99z" />
    <glyph glyph-name="yacute" unicode="&#xfd;" horiz-adv-x="1009" 
d="M449 1194l174 279h116l-192 -279h-98zM336 -356l123 356l-389 1040h100l338 -921l332 921h100l-508 -1396h-96z" />
    <glyph glyph-name="thorn" unicode="&#xfe;" horiz-adv-x="1202" 
d="M979 434v172q0 168 -90 274t-249 105q-159 1 -261 -109t-103 -274v-164q0 -164 102 -274t260 -109q159 -1 250 105t91 274zM276 -356h-98v1851h98v-647q111 217 373 217q197 0 313 -127t115 -326v-184q1 -199 -115 -326t-313 -127q-133 1 -231 61t-142 157v-549z" />
    <glyph glyph-name="ydieresis" unicode="&#xff;" horiz-adv-x="1009" 
d="M711 1249q-35 1 -55 23t-21 52q0 30 20 52q19 22 55 21q36 0 56 -22q20 -21 20 -51t-20 -52t-55 -23zM297 1249q-35 1 -55 23t-21 52q1 30 21 52t55 21q35 0 55 -22q20 -21 20 -51t-20 -52t-55 -23zM336 -356l123 356l-389 1040h100l338 -921l332 921h100l-508 -1396h-96
z" />
    <glyph glyph-name="Amacron" unicode="&#x100;" horiz-adv-x="1355" 
d="M369 1649v77h620v-77h-620zM678 1339l-318 -862h633zM729 1434l545 -1434h-105l-145 393h-694l-144 -393h-104l545 1434h102z" />
    <glyph glyph-name="amacron" unicode="&#x101;" horiz-adv-x="1136" 
d="M293 1284v78h596v-78h-596zM879 304q0 114 -111 182t-249 67q-138 1 -228 -63t-90 -182t86 -188t228 -69q142 0 253 69q111 70 111 184zM508 -25q-180 -1 -291 93t-111 242t116 235q116 86 302 86q113 0 210 -46t145 -110v207q0 131 -81 217t-216 86q-225 0 -306 -192
h-92q38 127 144 199t267 73q161 0 271 -108t111 -271v-686h-94v145q-45 -70 -147 -120t-228 -50z" />
    <glyph glyph-name="Abreve" unicode="&#x102;" horiz-adv-x="1355" 
d="M678 1563q-143 -1 -225 67t-88 176h79q6 -80 66 -128t168 -48q106 0 167 48q60 48 66 128h80q-6 -109 -88 -176t-225 -67zM678 1339l-318 -862h633zM729 1434l545 -1434h-105l-145 393h-694l-144 -393h-104l545 1434h102z" />
    <glyph glyph-name="abreve" unicode="&#x103;" horiz-adv-x="1136" 
d="M594 1194q-143 0 -223 79t-80 200h78q0 -97 57 -155t168 -58t168 58t57 155h78q0 -121 -80 -200t-223 -79zM879 304q0 114 -111 182t-249 67q-138 1 -228 -63t-90 -182t86 -188t228 -69q142 0 253 69q111 70 111 184zM508 -25q-180 -1 -291 93t-111 242t116 235
q116 86 302 86q113 0 210 -46t145 -110v207q0 131 -81 217t-216 86q-225 0 -306 -192h-92q38 127 144 199t267 73q161 0 271 -108t111 -271v-686h-94v145q-45 -70 -147 -120t-228 -50z" />
    <glyph glyph-name="Aogonek" unicode="&#x104;" horiz-adv-x="1355" 
d="M678 1339l-318 -862h633zM1150 -381q-68 0 -113 42q-46 42 -46 118q1 76 57 135t121 86l-145 393h-694l-144 -393h-104l545 1434h102l545 -1434q-55 -30 -91 -54t-71 -69t-35 -96q0 -90 117 -90q39 0 70 6v-66q-46 -12 -114 -12z" />
    <glyph glyph-name="aogonek" unicode="&#x105;" horiz-adv-x="1136" 
d="M879 304q0 114 -111 182t-249 67q-138 1 -228 -63t-90 -182t86 -188t228 -69q142 0 253 69q111 70 111 184zM508 -25q-180 -1 -291 93t-111 242t116 235q116 86 302 86q113 0 210 -46t145 -110v207q0 131 -81 217t-216 86q-225 0 -306 -192h-92q38 127 144 199t267 73
q161 0 271 -108t111 -271v-686q-61 -38 -95 -62t-63 -66t-28 -91q0 -90 116 -90q39 0 70 6v-66q-45 -12 -113 -12t-113 42q-46 42 -46 118t51 133t127 88v145q-45 -70 -147 -120t-228 -50z" />
    <glyph glyph-name="Cacute" unicode="&#x106;" horiz-adv-x="1431" 
d="M670 1563l151 243h119l-172 -243h-98zM735 -29q-276 0 -427 172t-150 445v258q0 272 150 444q151 172 427 172q235 0 385 -139t168 -346h-96q-23 174 -142 288q-120 114 -317 113q-229 0 -352 -146t-123 -384v-262q0 -238 123 -384t336 -146t333 113q120 114 142 288h96
q-18 -207 -168 -347t-385 -139z" />
    <glyph glyph-name="cacute" unicode="&#x107;" horiz-adv-x="1140" 
d="M528 1194l174 279h117l-192 -279h-99zM564 -25q-194 0 -316 127t-123 326v184q0 199 123 326t316 127q193 -1 310 -107t138 -272h-90q-23 133 -111 216t-245 83t-250 -105t-93 -270v-180q0 -164 93 -269t250 -105t245 82q88 83 111 216h90q-20 -166 -138 -272
q-116 -106 -310 -107z" />
    <glyph glyph-name="Ccircumflex" unicode="&#x108;" horiz-adv-x="1431" 
d="M778 1806l234 -243h-101l-180 188l-180 -188h-100l233 243h94zM735 -29q-276 0 -427 172t-150 445v258q0 272 150 444q151 172 427 172q235 0 385 -139t168 -346h-96q-23 174 -142 288q-120 114 -317 113q-229 0 -352 -146t-123 -384v-262q0 -238 123 -384t336 -146
t333 113q120 114 142 288h96q-18 -207 -168 -347t-385 -139z" />
    <glyph glyph-name="ccircumflex" unicode="&#x109;" horiz-adv-x="1140" 
d="M623 1473l225 -279h-96l-177 217l-176 -217h-96l225 279h95zM564 -25q-194 0 -316 127t-123 326v184q0 199 123 326t316 127q193 -1 310 -107t138 -272h-90q-23 133 -111 216t-245 83t-250 -105t-93 -270v-180q0 -164 93 -269t250 -105t245 82q88 83 111 216h90
q-20 -166 -138 -272q-116 -106 -310 -107z" />
    <glyph glyph-name="Cdotaccent" unicode="&#x10a;" horiz-adv-x="1431" 
d="M803 1677q0 -31 -22 -55q-23 -24 -57 -23q-34 -1 -56 23t-21 55q0 31 22 53q23 22 57 22t56 -22t21 -53zM735 -29q-276 0 -427 172t-150 445v258q0 272 150 444q151 172 427 172q235 0 385 -139t168 -346h-96q-23 174 -142 288q-120 114 -317 113q-229 0 -352 -146
t-123 -384v-262q0 -238 123 -384t336 -146t333 113q120 114 142 288h96q-18 -207 -168 -347t-385 -139z" />
    <glyph glyph-name="cdotaccent" unicode="&#x10b;" horiz-adv-x="1140" 
d="M489 1350q0 30 22 52q23 22 57 22t56 -22t22 -52t-22 -55q-22 -23 -57 -23t-57 24t-21 54zM564 -25q-194 0 -316 127t-123 326v184q0 199 123 326t316 127q193 -1 310 -107t138 -272h-90q-23 133 -111 216t-245 83t-250 -105t-93 -270v-180q0 -164 93 -269t250 -105
t245 82q88 83 111 216h90q-20 -166 -138 -272q-116 -106 -310 -107z" />
    <glyph glyph-name="Ccaron" unicode="&#x10c;" horiz-adv-x="1431" 
d="M1018 1806l-234 -243h-94l-233 243h100l180 -188l181 188h100zM735 -29q-276 0 -427 172t-150 445v258q0 272 150 444q151 172 427 172q235 0 385 -139t168 -346h-96q-23 174 -142 288q-120 114 -317 113q-229 0 -352 -146t-123 -384v-262q0 -238 123 -384t336 -146
t333 113q120 114 142 288h96q-18 -207 -168 -347t-385 -139z" />
    <glyph glyph-name="ccaron" unicode="&#x10d;" horiz-adv-x="1140" 
d="M848 1473l-225 -279h-95l-225 279h96l176 -218l177 218h96zM564 -25q-194 0 -316 127t-123 326v184q0 199 123 326t316 127q193 -1 310 -107t138 -272h-90q-23 133 -111 216t-245 83t-250 -105t-93 -270v-180q0 -164 93 -269t250 -105t245 82q88 83 111 216h90
q-20 -166 -138 -272q-116 -106 -310 -107z" />
    <glyph glyph-name="Dcaron" unicode="&#x10e;" horiz-adv-x="1427" 
d="M950 1806l-233 -243h-94l-234 243h100l181 -188l180 188h100zM1174 881q0 213 -126 341t-352 128h-397v-1266h397q225 0 352 128q126 128 126 341v328zM1274 551q0 -239 -151 -395t-414 -156h-510v1434h510q265 0 415 -156t150 -395v-332z" />
    <glyph glyph-name="dcaron" unicode="&#x10f;" horiz-adv-x="1462" 
d="M223 606v-172q0 -168 90 -273t249 -105t261 109q102 110 103 273v164q0 164 -102 274t-260 110q-159 0 -250 -106t-91 -274zM926 1495h98v-1495h-92v203q-43 -99 -141 -163t-238 -65q-197 0 -313 127t-115 326v184q0 199 116 326t312 127q133 0 231 -60t142 -157v647z
M1262 1120l81 375h107l-107 -375h-81z" />
    <glyph glyph-name="Dcroat" unicode="&#x110;" horiz-adv-x="1490" 
d="M1235 881q0 213 -126 341t-351 128h-398v-594h412v-78h-412v-594h398q225 0 351 128t126 341v328zM86 678v78h174v678h510q264 0 415 -156t150 -395v-332q-1 -239 -151 -395t-414 -156h-510v678h-174z" />
    <glyph glyph-name="dcroat" unicode="&#x111;" horiz-adv-x="1245" 
d="M223 606v-172q0 -168 90 -273t249 -105t261 109q102 110 103 273v164q0 164 -102 274t-260 110q-159 0 -250 -106t-91 -274zM926 1495h98v-195h174v-75h-174v-1225h-92v203q-43 -99 -141 -163t-238 -65q-197 0 -313 127t-115 326v184q0 199 116 326t312 127
q133 0 231 -60t142 -157v377h-287v75h287v195z" />
    <glyph glyph-name="Emacron" unicode="&#x112;" horiz-adv-x="1239" 
d="M348 1649v77h621v-77h-621zM199 0v1434h919v-84h-819v-580h760v-86h-760v-600h821v-84h-921z" />
    <glyph glyph-name="emacron" unicode="&#x113;" horiz-adv-x="1132" 
d="M266 1284v78h596v-78h-596zM221 606v-49h682v64q0 162 -87 264t-253 102q-166 -1 -254 -103t-88 -278zM573 -25q-205 0 -327 123t-121 324v180q0 211 118 337q117 126 321 126t319 -129t114 -320v-139h-776v-61q0 -158 93 -260t259 -103q123 -1 207 63t117 173h86
q-31 -139 -142 -227q-112 -87 -268 -87z" />
    <glyph glyph-name="Ebreve" unicode="&#x114;" horiz-adv-x="1239" 
d="M674 1563q-143 -1 -225 67t-89 176h80q6 -80 66 -128t168 -48q106 0 167 48q60 48 66 128h80q-6 -109 -88 -176t-225 -67zM199 0v1434h919v-84h-819v-580h760v-86h-760v-600h821v-84h-921z" />
    <glyph glyph-name="ebreve" unicode="&#x115;" horiz-adv-x="1132" 
d="M571 1194q-143 0 -223 79t-80 200h78q0 -97 57 -155t168 -58t168 58t58 155h77q0 -121 -80 -200t-223 -79zM221 606v-49h682v64q0 162 -87 264t-253 102q-166 -1 -254 -103t-88 -278zM573 -25q-205 0 -327 123t-121 324v180q0 211 118 337q117 126 321 126t319 -129
t114 -320v-139h-776v-61q0 -158 93 -260t259 -103q123 -1 207 63t117 173h86q-31 -139 -142 -227q-112 -87 -268 -87z" />
    <glyph glyph-name="Edotaccent" unicode="&#x116;" horiz-adv-x="1239" 
d="M664 1599q-34 -1 -56 23t-22 55t21 53q22 22 57 22q34 0 56 -22t22 -53t-22 -55t-56 -23zM199 0v1434h919v-84h-819v-580h760v-86h-760v-600h821v-84h-921z" />
    <glyph glyph-name="edotaccent" unicode="&#x117;" horiz-adv-x="1132" 
d="M489 1350q0 30 22 52q23 22 57 22t56 -22t22 -52t-22 -55q-22 -23 -57 -23t-57 24t-21 54zM221 606v-49h682v64q0 162 -87 264t-253 102q-166 -1 -254 -103t-88 -278zM573 -25q-205 0 -327 123t-121 324v180q0 211 118 337q117 126 321 126t319 -129t114 -320v-139h-776
v-61q0 -158 93 -260t259 -103q123 -1 207 63t117 173h86q-31 -139 -142 -227q-112 -87 -268 -87z" />
    <glyph glyph-name="Eogonek" unicode="&#x118;" horiz-adv-x="1239" 
d="M199 0v1434h919v-84h-819v-580h760v-86h-760v-600h821v-84q-59 -36 -93 -60q-33 -24 -63 -67t-30 -92q0 -90 117 -90q39 0 69 6v-66q-44 -12 -112 -12t-114 42t-46 117t56 136t122 86h-827z" />
    <glyph glyph-name="eogonek" unicode="&#x119;" horiz-adv-x="1132" 
d="M221 606v-49h682v64q0 162 -87 264t-253 102q-166 -1 -254 -103t-88 -278zM573 -25q-205 0 -327 123t-121 324v180q0 211 118 337q117 126 321 126t319 -129t114 -320v-139h-776v-61q0 -158 93 -260t259 -103q123 -1 207 63t117 173h86q-35 -147 -152 -234
q-73 -55 -111 -87t-73 -84t-35 -103q0 -90 117 -90q39 0 70 6v-66q-45 -12 -113 -12t-114 43t-46 115q0 117 133 207q-35 -9 -86 -9z" />
    <glyph glyph-name="Ecaron" unicode="&#x11a;" horiz-adv-x="1239" 
d="M944 1806l-233 -243h-95l-233 243h100l181 -188l180 188h100zM199 0v1434h919v-84h-819v-580h760v-86h-760v-600h821v-84h-921z" />
    <glyph glyph-name="ecaron" unicode="&#x11b;" horiz-adv-x="1132" 
d="M840 1473l-226 -279h-94l-225 279h96l176 -218l176 218h97zM221 606v-49h682v64q0 162 -87 264t-253 102q-166 -1 -254 -103t-88 -278zM573 -25q-205 0 -327 123t-121 324v180q0 211 118 337q117 126 321 126t319 -129t114 -320v-139h-776v-61q0 -158 93 -260t259 -103
q123 -1 207 63t117 173h86q-31 -139 -142 -227q-112 -87 -268 -87z" />
    <glyph glyph-name="Gcircumflex" unicode="&#x11c;" horiz-adv-x="1449" 
d="M776 1806l234 -243h-101l-180 188l-180 -188h-100l233 243h94zM1303 528q0 -246 -151 -402q-152 -156 -422 -155t-422 179t-150 452v236q0 280 150 452t411 172q262 0 410 -138t159 -353h-96q-10 176 -132 292q-122 115 -341 115t-340 -147t-121 -389v-242
q0 -242 123 -394t350 -151q227 0 351 127t124 338v64h-438v84h535v-140z" />
    <glyph glyph-name="gcircumflex" unicode="&#x11d;" horiz-adv-x="1198" 
d="M653 1473l226 -279h-97l-176 217l-176 -217h-96l225 279h94zM556 121q157 0 261 99t105 255v150q0 147 -104 253t-259 107q-156 0 -247 -94t-91 -256v-164q0 -164 89 -257t246 -93zM1020 -10q0 -160 -125 -266t-292 -105q-167 0 -288 65t-172 181h99q100 -168 344 -168
q154 0 244 80t92 215v270q-32 -84 -136 -152t-235 -69q-195 0 -311 120t-115 300v182q0 184 115 303t309 119q145 0 241 -66t136 -153v194h94v-1050z" />
    <glyph glyph-name="Gbreve" unicode="&#x11e;" horiz-adv-x="1449" 
d="M725 1563q-143 -1 -225 67t-88 176h80q6 -80 66 -128t166 -48t168 48q60 48 66 128h80q-6 -109 -88 -176t-225 -67zM1303 528q0 -246 -151 -402q-152 -156 -422 -155t-422 179t-150 452v236q0 280 150 452t411 172q262 0 410 -138t159 -353h-96q-10 176 -132 292
q-122 115 -341 115t-340 -147t-121 -389v-242q0 -242 123 -394t350 -151q227 0 351 127t124 338v64h-438v84h535v-140z" />
    <glyph glyph-name="gbreve" unicode="&#x11f;" horiz-adv-x="1198" 
d="M604 1194q-143 0 -223 79t-80 200h78q0 -97 57 -155t168 -58t168 58t57 155h78q0 -121 -80 -200t-223 -79zM556 121q157 0 261 99t105 255v150q0 147 -104 253t-259 107q-156 0 -247 -94t-91 -256v-164q0 -164 89 -257t246 -93zM1020 -10q0 -160 -125 -266t-292 -105
q-167 0 -288 65t-172 181h99q100 -168 344 -168q154 0 244 80t92 215v270q-32 -84 -136 -152t-235 -69q-195 0 -311 120t-115 300v182q0 184 115 303t309 119q145 0 241 -66t136 -153v194h94v-1050z" />
    <glyph glyph-name="Gdotaccent" unicode="&#x120;" horiz-adv-x="1449" 
d="M809 1677q0 -31 -22 -55q-23 -24 -57 -23q-34 -1 -56 23t-21 55q0 31 22 53q23 22 57 22t56 -22t21 -53zM1303 528q0 -246 -151 -402q-152 -156 -422 -155t-422 179t-150 452v236q0 280 150 452t411 172q262 0 410 -138t159 -353h-96q-10 176 -132 292q-122 115 -341 115
t-340 -147t-121 -389v-242q0 -242 123 -394t350 -151q227 0 351 127t124 338v64h-438v84h535v-140z" />
    <glyph glyph-name="gdotaccent" unicode="&#x121;" horiz-adv-x="1198" 
d="M514 1350q0 30 22 52t56 22t56 -22t22 -52t-22 -55q-22 -23 -56 -23t-56 24t-22 54zM556 121q157 0 261 99t105 255v150q0 147 -104 253t-259 107q-156 0 -247 -94t-91 -256v-164q0 -164 89 -257t246 -93zM1020 -10q0 -160 -125 -266t-292 -105q-167 0 -288 65t-172 181
h99q100 -168 344 -168q154 0 244 80t92 215v270q-32 -84 -136 -152t-235 -69q-195 0 -311 120t-115 300v182q0 184 115 303t309 119q145 0 241 -66t136 -153v194h94v-1050z" />
    <glyph glyph-name="Gcommaaccent" unicode="&#x122;" horiz-adv-x="1449" 
d="M616 -512l86 342h107l-111 -342h-82zM1303 528q0 -246 -151 -402q-152 -156 -422 -155t-422 179t-150 452v236q0 280 150 452t411 172q262 0 410 -138t159 -353h-96q-10 176 -132 292q-122 115 -341 115t-340 -147t-121 -389v-242q0 -242 123 -394t350 -151
q227 0 351 127t124 338v64h-438v84h535v-140z" />
    <glyph glyph-name="gcommaaccent" unicode="&#x123;" horiz-adv-x="1198" 
d="M526 1194l90 279h95l-68 -279h-117zM556 121q157 0 261 99t105 255v150q0 147 -104 253t-259 107q-156 0 -247 -94t-91 -256v-164q0 -164 89 -257t246 -93zM1020 -10q0 -160 -125 -266t-292 -105q-167 0 -288 65t-172 181h99q100 -168 344 -168q154 0 244 80t92 215v270
q-32 -84 -136 -152t-235 -69q-195 0 -311 120t-115 300v182q0 184 115 303t309 119q145 0 241 -66t136 -153v194h94v-1050z" />
    <glyph glyph-name="Hcircumflex" unicode="&#x124;" horiz-adv-x="1437" 
d="M766 1806l233 -243h-100l-180 188l-180 -188h-101l234 243h94zM199 0v1434h100v-666h840v666h100v-1434h-100v680h-840v-680h-100z" />
    <glyph glyph-name="hcircumflex" unicode="&#x125;" horiz-adv-x="1191" 
d="M274 1868l234 -244h-100l-181 188l-180 -188h-100l233 244h94zM178 0v1495h98v-655q94 225 367 225q173 0 277 -110t104 -302v-653h-98v641q0 162 -77 251t-226 89t-247 -99t-100 -276v-606h-98z" />
    <glyph glyph-name="Hbar" unicode="&#x126;" horiz-adv-x="1560" 
d="M360 768h840v313h-840v-313zM86 1081v70h174v283h100v-283h840v283h100v-283h175v-70h-175v-1081h-100v680h-840v-680h-100v1081h-174z" />
    <glyph glyph-name="hbar" unicode="&#x127;" horiz-adv-x="1234" 
d="M47 1225v75h174v195h98v-195h287v-75h-287v-385q94 225 367 225q174 0 278 -110t103 -302v-653h-98v641q0 162 -77 251t-226 89q-150 0 -248 -99t-99 -276v-606h-98v1225h-174z" />
    <glyph glyph-name="Itilde" unicode="&#x128;" horiz-adv-x="518" 
d="M80 1794q76 0 201 -73t159 -72q55 0 84 71q6 16 19 58l6 22l67 -18q-47 -205 -174 -205q-51 0 -177 73q-126 72 -178 72t-77 -38t-39 -113l-69 12q18 103 60 157t118 54zM209 0v1434h100v-1434h-100z" />
    <glyph glyph-name="itilde" unicode="&#x129;" horiz-adv-x="475" 
d="M82 1434q68 0 180 -73t141 -73q58 0 76 49t31 103l70 -15q-14 -59 -30 -99t-52 -74q-37 -34 -89 -34t-163 74q-111 72 -163 72t-75 -37t-41 -117l-69 15q33 209 184 209zM188 0v1040h99v-1040h-99z" />
    <glyph glyph-name="uni012A" unicode="&#x12a;" horiz-adv-x="518" 
d="M-51 1649v77h620v-77h-620zM209 0v1434h100v-1434h-100z" />
    <glyph glyph-name="imacron" unicode="&#x12b;" horiz-adv-x="475" 
d="M-59 1284v78h596v-78h-596zM188 0v1040h99v-1040h-99z" />
    <glyph glyph-name="Ibreve" unicode="&#x12c;" horiz-adv-x="518" 
d="M258 1563q-143 -1 -225 67t-88 176h80q6 -80 66 -128q61 -48 167 -48t167 48q60 48 67 128h79q-6 -109 -88 -176t-225 -67zM209 0v1434h100v-1434h-100z" />
    <glyph glyph-name="uni012D" unicode="&#x12d;" horiz-adv-x="475" 
d="M238 1194q-143 0 -224 79q-80 79 -80 200h78q0 -97 58 -155t168 -58q111 0 168 58t57 155h78q0 -121 -80 -200t-223 -79zM188 0v1040h99v-1040h-99z" />
    <glyph glyph-name="Iogonek" unicode="&#x12e;" horiz-adv-x="518" 
d="M209 1434h100v-1434q-49 -46 -68 -66t-41 -62t-22 -89q0 -92 96 -92q20 0 35 2v-70q-25 -4 -57 -4q-72 0 -116 44t-44 118q0 135 117 219v1434z" />
    <glyph glyph-name="iogonek" unicode="&#x12f;" horiz-adv-x="475" 
d="M160 1350q0 30 22 52t56 22t56 -22t22 -52t-22 -55q-22 -23 -56 -23t-57 23q-21 24 -21 55zM229 -381q-71 0 -115 44t-44 118q0 129 118 219v1040h99v-1040q-35 -37 -65 -65q-66 -62 -66 -153t96 -91q20 0 35 2v-70q-25 -4 -58 -4z" />
    <glyph glyph-name="Idotaccent" unicode="&#x130;" horiz-adv-x="518" 
d="M336 1677q0 -31 -22 -55t-56 -23q-34 -1 -56 23t-22 55t22 53t56 22t56 -22t22 -53zM209 0v1434h100v-1434h-100z" />
    <glyph glyph-name="dotlessi" unicode="&#x131;" horiz-adv-x="475" 
d="M188 0v1040h99v-1040h-99z" />
    <glyph glyph-name="IJ" unicode="&#x132;" horiz-adv-x="1708" 
d="M1061 -29q-201 0 -325 111t-124 287v10h99v-10q0 -141 94 -227t257 -87q163 0 258 87t95 233v1059h101v-1059q0 -178 -127 -291t-328 -113zM209 0v1434h100v-1434h-100z" />
    <glyph glyph-name="ij" unicode="&#x133;" horiz-adv-x="950" 
d="M635 1350q-1 30 21 52t57 22t57 -22t21 -52q0 -30 -22 -55q-23 -23 -57 -23t-56 23q-21 24 -21 55zM446 -356v80h56q86 0 124 36t38 115v1165h98v-1167q0 -229 -238 -229h-78zM160 1350q0 30 22 52t56 22t56 -22t22 -52t-22 -55q-22 -23 -56 -23t-57 23q-21 24 -21 55z
M188 0v1040h99v-1040h-99z" />
    <glyph glyph-name="Jcircumflex" unicode="&#x134;" horiz-adv-x="1189" 
d="M993 1806l234 -243h-101l-180 188l-180 -188h-100l233 243h94zM997 375q-1 -178 -127 -291t-327 -113t-325 111t-124 287v10h99v-10q0 -141 94 -227t257 -87q163 0 258 87t95 233v1059h100v-1059z" />
    <glyph glyph-name="jcircumflex" unicode="&#x135;" horiz-adv-x="475" 
d="M285 1473l225 -279h-96l-176 217l-177 -217h-96l225 279h95zM-29 -356v80h56q86 0 124 36t37 115v1165h99v-1167q0 -229 -238 -229h-78z" />
    <glyph glyph-name="Kcommaaccent" unicode="&#x136;" horiz-adv-x="1210" 
d="M508 -512l86 342h106l-110 -342h-82zM199 0v1434h100v-703l715 703h127l-723 -709l749 -725h-129l-739 717v-717h-100z" />
    <glyph glyph-name="kcommaaccent" unicode="&#x137;" horiz-adv-x="1013" 
d="M401 -512l86 342h107l-111 -342h-82zM178 0v1495h98v-946l515 491h131l-527 -499l551 -541h-131l-539 532v-532h-98z" />
    <glyph glyph-name="kgreenlandic" unicode="&#x138;" horiz-adv-x="1013" 
d="M178 0v1040h98v-491l515 491h131l-527 -499l551 -541h-131l-539 532v-532h-98z" />
    <glyph glyph-name="Lacute" unicode="&#x139;" horiz-adv-x="1153" 
d="M213 1563l152 243h118l-172 -243h-98zM199 0v1434h100v-1350h768v-84h-868z" />
    <glyph glyph-name="lacute" unicode="&#x13a;" horiz-adv-x="475" 
d="M197 1624l151 244h119l-172 -244h-98zM188 0v1495h99v-1495h-99z" />
    <glyph glyph-name="Lcommaaccent" unicode="&#x13b;" horiz-adv-x="1153" 
d="M512 -512l86 342h107l-111 -342h-82zM199 0v1434h100v-1350h768v-84h-868z" />
    <glyph glyph-name="lcommaaccent" unicode="&#x13c;" horiz-adv-x="475" 
d="M94 -512l86 342h107l-111 -342h-82zM188 0v1495h99v-1495h-99z" />
    <glyph glyph-name="Lcaron" unicode="&#x13d;" horiz-adv-x="1153" 
d="M199 0v1434h100v-1350h768v-84h-868zM674 1059l82 375h106l-106 -375h-82z" />
    <glyph glyph-name="lcaron" unicode="&#x13e;" horiz-adv-x="727" 
d="M188 0v1495h99v-1495h-99zM526 1120l82 375h107l-107 -375h-82z" />
    <glyph glyph-name="Ldot" unicode="&#x13f;" horiz-adv-x="1155" 
d="M629 711q1 35 23 57t57 23q35 0 57 -23q22 -24 22 -58t-22 -57t-58 -23q-34 0 -57 23q-22 23 -22 58zM199 0v1434h100v-1350h768v-84h-868z" />
    <glyph glyph-name="ldot" unicode="&#x140;" horiz-adv-x="722" 
d="M492 625q0 35 22 57t58 23q34 0 57 -23q23 -24 23 -58t-24 -57q-22 -23 -57 -23t-57 24q-22 22 -22 57zM188 0v1495h99v-1495h-99z" />
    <glyph glyph-name="Lslash" unicode="&#x141;" horiz-adv-x="1193" 
d="M240 1434h100v-600l375 227v-88l-375 -228v-661h768v-84h-868v684l-189 -115v88l189 115v662z" />
    <glyph glyph-name="lslash" unicode="&#x142;" horiz-adv-x="499" 
d="M197 1495h98v-575l158 141v-94l-158 -142v-825h-98v739l-127 -112v94l127 113v661z" />
    <glyph glyph-name="Nacute" unicode="&#x143;" 
d="M668 1563l151 243h119l-172 -243h-98zM199 0v1434h94l858 -1272v1272h96v-1434h-94l-858 1270v-1270h-96z" />
    <glyph glyph-name="nacute" unicode="&#x144;" horiz-adv-x="1191" 
d="M524 1194l174 279h117l-192 -279h-99zM178 0v1040h92v-211q37 106 133 171t255 65q158 0 262 -110t104 -302v-653h-98v641q0 162 -77 251t-226 89t-247 -99t-100 -276v-606h-98z" />
    <glyph glyph-name="Ncommaaccent" unicode="&#x145;" 
d="M596 -512l86 342h106l-110 -342h-82zM199 0v1434h94l858 -1272v1272h96v-1434h-94l-858 1270v-1270h-96z" />
    <glyph glyph-name="ncommaaccent" unicode="&#x146;" horiz-adv-x="1191" 
d="M483 -512l86 342h107l-111 -342h-82zM178 0v1040h92v-211q37 106 133 171t255 65q158 0 262 -110t104 -302v-653h-98v641q0 162 -77 251t-226 89t-247 -99t-100 -276v-606h-98z" />
    <glyph glyph-name="Ncaron" unicode="&#x147;" 
d="M1008 1806l-234 -243h-94l-234 243h101l180 -188l180 188h101zM199 0v1434h94l858 -1272v1272h96v-1434h-94l-858 1270v-1270h-96z" />
    <glyph glyph-name="ncaron" unicode="&#x148;" horiz-adv-x="1191" 
d="M874 1473l-225 -279h-94l-225 279h96l176 -218l176 218h96zM178 0v1040h92v-211q37 106 133 171t255 65q158 0 262 -110t104 -302v-653h-98v641q0 162 -77 251t-226 89t-247 -99t-100 -276v-606h-98z" />
    <glyph glyph-name="napostrophe" unicode="&#x149;" horiz-adv-x="1406" 
d="M393 0v1040h92v-211q37 106 133 171t255 65t263 -110t103 -302v-653h-98v641q0 162 -77 251t-226 89q-150 0 -248 -99t-98 -276v-606h-99zM51 1120l82 375h107l-107 -375h-82z" />
    <glyph glyph-name="Eng" unicode="&#x14a;" 
d="M199 0v1434h94l858 -1272v1272h96v-1446q0 -158 -93 -251t-261 -93h-64v82h45q276 0 277 264v12l-856 1268v-1270h-96z" />
    <glyph glyph-name="eng" unicode="&#x14b;" horiz-adv-x="1191" 
d="M178 0v1040h92v-211q37 106 133 171t255 65q158 0 262 -110t104 -302v-686q0 -151 -91 -237t-251 -86h-31v82h33q242 0 242 243v672q0 162 -77 251t-226 89t-247 -99t-100 -276v-606h-98z" />
    <glyph glyph-name="Omacron" unicode="&#x14c;" horiz-adv-x="1482" 
d="M432 1649v77h621v-77h-621zM1227 590v254q0 231 -123 384q-123 152 -363 152q-241 0 -363 -152t-122 -384v-254q0 -231 123 -384t363 -153t362 153q123 153 123 384zM1325 840v-246q0 -268 -150 -446q-151 -177 -434 -177t-433 177t-150 446v246q0 268 150 445
q152 177 434 177t432 -177t151 -445z" />
    <glyph glyph-name="omacron" unicode="&#x14d;" horiz-adv-x="1146" 
d="M276 1284v78h596v-78h-596zM928 608q0 166 -94 272t-260 105q-166 0 -261 -105q-94 -105 -94 -272v-176q0 -166 94 -271t260 -105q167 0 261 104q94 106 94 272v176zM573 -25q-207 0 -327 128t-121 325v184q0 197 121 325q122 128 328 128t327 -128t121 -325v-184
q0 -197 -121 -325t-328 -128z" />
    <glyph glyph-name="Obreve" unicode="&#x14e;" horiz-adv-x="1482" 
d="M741 1563q-143 -1 -225 67t-88 176h80q6 -80 66 -128t166 -48t168 48q60 48 67 128h80q-7 -109 -89 -176t-225 -67zM1227 590v254q0 231 -123 384q-123 152 -363 152q-241 0 -363 -152t-122 -384v-254q0 -231 123 -384t363 -153t362 153q123 153 123 384zM1325 840v-246
q0 -268 -150 -446q-151 -177 -434 -177t-433 177t-150 446v246q0 268 150 445q152 177 434 177t432 -177t151 -445z" />
    <glyph glyph-name="obreve" unicode="&#x14f;" horiz-adv-x="1146" 
d="M573 1194q-143 0 -223 79t-80 200h78q0 -97 58 -155t168 -58t167 58t58 155h78q-1 -121 -81 -200t-223 -79zM928 608q0 166 -94 272t-260 105q-166 0 -261 -105q-94 -105 -94 -272v-176q0 -166 94 -271t260 -105q167 0 261 104q94 106 94 272v176zM573 -25
q-207 0 -327 128t-121 325v184q0 197 121 325q122 128 328 128t327 -128t121 -325v-184q0 -197 -121 -325t-328 -128z" />
    <glyph glyph-name="Ohungarumlaut" unicode="&#x150;" horiz-adv-x="1482" 
d="M926 1563l118 243h107l-137 -243h-88zM487 1563l121 243h105l-135 -243h-91zM1227 590v254q0 231 -123 384q-123 152 -363 152q-241 0 -363 -152t-122 -384v-254q0 -231 123 -384t363 -153t362 153q123 153 123 384zM1325 840v-246q0 -268 -150 -446q-151 -177 -434 -177
t-433 177t-150 446v246q0 268 150 445q152 177 434 177t432 -177t151 -445z" />
    <glyph glyph-name="ohungarumlaut" unicode="&#x151;" horiz-adv-x="1146" 
d="M725 1194l139 279h105l-156 -279h-88zM348 1194l139 279h105l-156 -279h-88zM928 608q0 166 -94 272t-260 105q-166 0 -261 -105q-94 -105 -94 -272v-176q0 -166 94 -271t260 -105q167 0 261 104q94 106 94 272v176zM573 -25q-207 0 -327 128t-121 325v184q0 197 121 325
q122 128 328 128t327 -128t121 -325v-184q0 -197 -121 -325t-328 -128z" />
    <glyph glyph-name="OE" unicode="&#x152;" horiz-adv-x="2197" 
d="M258 614q0 -236 136 -383t390 -147h373v1266h-373q-254 0 -390 -148t-136 -383v-205zM784 0q-305 0 -466 173t-160 445v197q0 272 160 446q161 173 466 173h1293v-84h-820v-580h760v-86h-760v-600h822v-84h-1295z" />
    <glyph glyph-name="oe" unicode="&#x153;" horiz-adv-x="1935" 
d="M1024 606v-49h682v64q0 162 -87 264t-253 102q-166 -1 -254 -103t-88 -278zM928 608q0 166 -94 272t-260 105q-166 0 -261 -105q-94 -105 -94 -272v-176q0 -166 94 -271t260 -105q167 0 261 104q94 106 94 272v176zM573 -25q-207 0 -327 128t-121 325v184q0 197 121 325
t327 128q141 1 243 -63t157 -177q47 115 149 177t248 63q201 0 316 -129t114 -320v-139h-776v-61q0 -158 93 -260t259 -103q123 -1 207 63t117 173h86q-31 -139 -142 -227q-112 -87 -262 -87t-256 65t-153 171q-47 -102 -154 -169t-246 -67z" />
    <glyph glyph-name="Racute" unicode="&#x154;" horiz-adv-x="1363" 
d="M588 1563l151 243h119l-172 -243h-98zM299 637h451q184 0 282 101t98 255t-99 256t-279 103h-453v-715zM299 555v-555h-100v1434h569q213 0 338 -128t125 -298t-87 -284t-239 -153l322 -571h-111l-307 555h-510z" />
    <glyph glyph-name="racute" unicode="&#x155;" horiz-adv-x="700" 
d="M326 1194l174 279h116l-192 -279h-98zM178 0v1040h92v-258q25 119 124 192t247 73h10v-91h-10q-164 0 -264 -112t-101 -322v-522h-98z" />
    <glyph glyph-name="Rcommaaccent" unicode="&#x156;" horiz-adv-x="1363" 
d="M561 -512l86 342h107l-111 -342h-82zM299 637h451q184 0 282 101t98 255t-99 256t-279 103h-453v-715zM299 555v-555h-100v1434h569q213 0 338 -128t125 -298t-87 -284t-239 -153l322 -571h-111l-307 555h-510z" />
    <glyph glyph-name="rcommaaccent" unicode="&#x157;" horiz-adv-x="700" 
d="M84 -512l86 342h106l-110 -342h-82zM178 0v1040h92v-258q25 119 124 192t247 73h10v-91h-10q-164 0 -264 -112t-101 -322v-522h-98z" />
    <glyph glyph-name="Rcaron" unicode="&#x158;" horiz-adv-x="1363" 
d="M926 1806l-234 -243h-94l-233 243h100l180 -188l180 188h101zM299 637h451q184 0 282 101t98 255t-99 256t-279 103h-453v-715zM299 555v-555h-100v1434h569q213 0 338 -128t125 -298t-87 -284t-239 -153l322 -571h-111l-307 555h-510z" />
    <glyph glyph-name="rcaron" unicode="&#x159;" horiz-adv-x="700" 
d="M686 1473l-225 -279h-94l-226 279h97l176 -218l176 218h96zM178 0v1040h92v-258q25 119 124 192t247 73h10v-91h-10q-164 0 -264 -112t-101 -322v-522h-98z" />
    <glyph glyph-name="Sacute" unicode="&#x15a;" horiz-adv-x="1335" 
d="M608 1563l152 243h119l-172 -243h-99zM1198 381q0 -188 -148 -299t-375 -111q-226 0 -374 117q-147 117 -147 305v33h96v-31q0 -156 119 -249t307 -93t307 86t119 236q0 205 -230 264l-423 111q-270 72 -271 329q0 175 130 279t345 104t352 -112q136 -113 136 -291v-33
h-92v31q0 143 -108 233t-285 90t-279 -78t-103 -217q0 -102 50 -162t153 -89l428 -113q137 -37 215 -123t78 -217z" />
    <glyph glyph-name="sacute" unicode="&#x15b;" horiz-adv-x="1075" 
d="M469 1194l174 279h117l-193 -279h-98zM544 -25q-177 0 -297 88t-120 234v6h96v-4q0 -113 94 -179q93 -66 231 -65t228 61t90 160q0 133 -149 170l-342 84q-219 55 -219 248q0 131 103 209t271 78t274 -89t105 -233v-6h-96v6q0 109 -76 176t-206 67q-131 0 -205 -55
q-74 -54 -74 -153q0 -125 141 -160l338 -83q231 -57 232 -256q0 -135 -121 -219t-298 -85z" />
    <glyph glyph-name="Scircumflex" unicode="&#x15c;" horiz-adv-x="1335" 
d="M713 1806l233 -243h-100l-180 188l-181 -188h-100l233 243h95zM1198 381q0 -188 -148 -299t-375 -111q-226 0 -374 117q-147 117 -147 305v33h96v-31q0 -156 119 -249t307 -93t307 86t119 236q0 205 -230 264l-423 111q-270 72 -271 329q0 175 130 279t345 104t352 -112
q136 -113 136 -291v-33h-92v31q0 143 -108 233t-285 90t-279 -78t-103 -217q0 -102 50 -162t153 -89l428 -113q137 -37 215 -123t78 -217z" />
    <glyph glyph-name="scircumflex" unicode="&#x15d;" horiz-adv-x="1075" 
d="M584 1473l225 -279h-96l-176 217l-177 -217h-96l225 279h95zM544 -25q-177 0 -297 88t-120 234v6h96v-4q0 -113 94 -179q93 -66 231 -65t228 61t90 160q0 133 -149 170l-342 84q-219 55 -219 248q0 131 103 209t271 78t274 -89t105 -233v-6h-96v6q0 109 -76 176t-206 67
q-131 0 -205 -55q-74 -54 -74 -153q0 -125 141 -160l338 -83q231 -57 232 -256q0 -135 -121 -219t-298 -85z" />
    <glyph glyph-name="Scedilla" unicode="&#x15e;" horiz-adv-x="1335" 
d="M879 -244q1 -64 -51 -100t-131 -37q-79 0 -142 12v66q59 -12 123 -12q123 -1 123 69t-113 76l-90 6l25 137q-205 14 -337 129t-132 291v33h96v-31q0 -156 119 -249t307 -93t307 86t119 236q0 205 -230 264l-423 111q-270 72 -271 329q0 175 130 279t345 104t352 -112
q136 -113 136 -291v-33h-92v31q0 143 -108 233t-285 90t-279 -78t-103 -217q0 -102 50 -162t153 -89l428 -113q137 -37 215 -123t78 -217q0 -186 -142 -296t-362 -114l-12 -77l39 -3q70 -3 114 -37t44 -98z" />
    <glyph glyph-name="Scedilla" unicode="&#xf6c1;" horiz-adv-x="1335" 
d="M879 -244q1 -64 -51 -100t-131 -37q-79 0 -142 12v66q59 -12 123 -12q123 -1 123 69t-113 76l-90 6l25 137q-205 14 -337 129t-132 291v33h96v-31q0 -156 119 -249t307 -93t307 86t119 236q0 205 -230 264l-423 111q-270 72 -271 329q0 175 130 279t345 104t352 -112
q136 -113 136 -291v-33h-92v31q0 143 -108 233t-285 90t-279 -78t-103 -217q0 -102 50 -162t153 -89l428 -113q137 -37 215 -123t78 -217q0 -186 -142 -296t-362 -114l-12 -77l39 -3q70 -3 114 -37t44 -98z" />
    <glyph glyph-name="scedilla" unicode="&#x15f;" horiz-adv-x="1075" 
d="M760 -244q0 -64 -52 -100t-130 -37q-79 0 -142 12v66q59 -12 123 -12q123 -1 123 69t-113 76l-90 6l27 141q-168 9 -274 97t-105 223v6h96v-4q0 -113 94 -179q93 -66 231 -65t228 61t90 160q0 133 -149 170l-342 84q-219 55 -219 248q0 131 103 209t271 78t274 -89
t105 -233v-6h-96v6q0 109 -76 176t-206 67q-131 0 -205 -55q-74 -54 -74 -153q0 -125 141 -160l338 -83q231 -57 232 -256q0 -129 -112 -212t-276 -90l-12 -83l39 -3q70 -3 114 -37t44 -98z" />
    <glyph glyph-name="scedilla" unicode="&#xf6c2;" horiz-adv-x="1075" 
d="M760 -244q0 -64 -52 -100t-130 -37q-79 0 -142 12v66q59 -12 123 -12q123 -1 123 69t-113 76l-90 6l27 141q-168 9 -274 97t-105 223v6h96v-4q0 -113 94 -179q93 -66 231 -65t228 61t90 160q0 133 -149 170l-342 84q-219 55 -219 248q0 131 103 209t271 78t274 -89
t105 -233v-6h-96v6q0 109 -76 176t-206 67q-131 0 -205 -55q-74 -54 -74 -153q0 -125 141 -160l338 -83q231 -57 232 -256q0 -129 -112 -212t-276 -90l-12 -83l39 -3q70 -3 114 -37t44 -98z" />
    <glyph glyph-name="Scaron" unicode="&#x160;" horiz-adv-x="1335" 
d="M946 1806l-233 -243h-95l-233 243h100l181 -188l180 188h100zM1198 381q0 -188 -148 -299t-375 -111q-226 0 -374 117q-147 117 -147 305v33h96v-31q0 -156 119 -249t307 -93t307 86t119 236q0 205 -230 264l-423 111q-270 72 -271 329q0 175 130 279t345 104t352 -112
q136 -113 136 -291v-33h-92v31q0 143 -108 233t-285 90t-279 -78t-103 -217q0 -102 50 -162t153 -89l428 -113q137 -37 215 -123t78 -217z" />
    <glyph glyph-name="scaron" unicode="&#x161;" horiz-adv-x="1075" 
d="M797 1473l-226 -279h-94l-225 279h96l176 -218l176 218h97zM544 -25q-177 0 -297 88t-120 234v6h96v-4q0 -113 94 -179q93 -66 231 -65t228 61t90 160q0 133 -149 170l-342 84q-219 55 -219 248q0 131 103 209t271 78t274 -89t105 -233v-6h-96v6q0 109 -76 176t-206 67
q-131 0 -205 -55q-74 -54 -74 -153q0 -125 141 -160l338 -83q231 -57 232 -256q0 -135 -121 -219t-298 -85z" />
    <glyph glyph-name="Tcommaaccent" unicode="&#x162;" horiz-adv-x="1128" 
d="M422 -512l86 342h106l-110 -342h-82zM514 0v1350h-455v84h1010v-84h-455v-1350h-100z" />
    <glyph glyph-name="Tcommaaccent" unicode="&#x21a;" horiz-adv-x="1128" 
d="M422 -512l86 342h106l-110 -342h-82zM514 0v1350h-455v84h1010v-84h-455v-1350h-100z" />
    <glyph glyph-name="tcommaaccent" unicode="&#x163;" horiz-adv-x="749" 
d="M334 -512l86 342h106l-110 -342h-82zM651 0h-106q-274 0 -275 270v691h-190v79h190v301h99v-301h286v-79h-286v-691q0 -102 43 -146t147 -44h92v-80z" />
    <glyph glyph-name="tcommaaccent" unicode="&#x21b;" horiz-adv-x="749" 
d="M334 -512l86 342h106l-110 -342h-82zM651 0h-106q-274 0 -275 270v691h-190v79h190v301h99v-301h286v-79h-286v-691q0 -102 43 -146t147 -44h92v-80z" />
    <glyph glyph-name="Tcaron" unicode="&#x164;" horiz-adv-x="1128" 
d="M844 1806l-234 -243h-94l-233 243h100l180 -188l180 188h101zM514 0v1350h-455v84h1010v-84h-455v-1350h-100z" />
    <glyph glyph-name="tcaron" unicode="&#x165;" horiz-adv-x="759" 
d="M651 0h-106q-274 0 -275 270v691h-190v79h190v301h99v-301h286v-79h-286v-691q0 -102 43 -146t147 -44h92v-80zM545 1221l57 274h98l-75 -274h-80z" />
    <glyph glyph-name="Tbar" unicode="&#x166;" horiz-adv-x="1128" 
d="M190 653v80h324v617h-455v84h1010v-84h-455v-617h324v-80h-324v-653h-100v653h-324z" />
    <glyph glyph-name="tbar" unicode="&#x167;" horiz-adv-x="749" 
d="M80 506v78h190v377h-190v79h190v301h99v-301h286v-79h-286v-377h247v-78h-247v-236q0 -102 43 -146t147 -44h92v-80h-106q-274 0 -275 270v236h-190z" />
    <glyph glyph-name="Utilde" unicode="&#x168;" 
d="M549 1794q76 0 201 -73t159 -72q55 0 84 71q6 16 19 58l6 22l67 -18q-47 -205 -174 -205q-51 0 -177 73q-126 72 -178 72t-77 -38t-39 -113l-69 12q18 103 60 157t118 54zM723 -29q-242 -1 -387 139t-146 357v967h101v-977q0 -180 117 -291q118 -111 316 -111t314 111
t117 291v977h100v-967q0 -217 -145 -357t-387 -139z" />
    <glyph glyph-name="utilde" unicode="&#x169;" horiz-adv-x="1183" 
d="M438 1434q68 0 180 -73t141 -73q57 0 75 45t32 107l70 -15q-14 -59 -30 -99t-52 -74q-37 -34 -89 -34t-163 74q-111 72 -163 72q-53 0 -75 -37t-40 -117l-70 15q33 209 184 209zM1006 1040v-1040h-93v211q-33 -104 -129 -170t-254 -66t-261 110q-101 110 -101 302v653h98
v-641q0 -162 76 -251t224 -89q148 -1 244 99t97 276v606h99z" />
    <glyph glyph-name="Umacron" unicode="&#x16a;" 
d="M414 1649v77h620v-77h-620zM723 -29q-242 -1 -387 139t-146 357v967h101v-977q0 -180 117 -291q118 -111 316 -111t314 111t117 291v977h100v-967q0 -217 -145 -357t-387 -139z" />
    <glyph glyph-name="umacron" unicode="&#x16b;" horiz-adv-x="1183" 
d="M305 1284v78h596v-78h-596zM1006 1040v-1040h-93v211q-33 -104 -129 -170t-254 -66t-261 110q-101 110 -101 302v653h98v-641q0 -162 76 -251t224 -89q148 -1 244 99t97 276v606h99z" />
    <glyph glyph-name="Ubreve" unicode="&#x16c;" 
d="M723 1563q-143 -1 -225 67t-88 176h79q7 -80 67 -128t166 -48t168 48q60 48 66 128h80q-6 -109 -88 -176t-225 -67zM723 -29q-242 -1 -387 139t-146 357v967h101v-977q0 -180 117 -291q118 -111 316 -111t314 111t117 291v977h100v-967q0 -217 -145 -357t-387 -139z" />
    <glyph glyph-name="ubreve" unicode="&#x16d;" horiz-adv-x="1183" 
d="M602 1194q-143 0 -223 79t-80 200h78q0 -97 57 -155t168 -58t168 58t57 155h78q0 -121 -80 -200t-223 -79zM1006 1040v-1040h-93v211q-33 -104 -129 -170t-254 -66t-261 110q-101 110 -101 302v653h98v-641q0 -162 76 -251t224 -89q148 -1 244 99t97 276v606h99z" />
    <glyph glyph-name="Uring" unicode="&#x16e;" 
d="M723 1563q-80 0 -128 47q-48 46 -48 116t48 117t128 47t128 -47t48 -117t-48 -116t-128 -47zM723 1618q53 0 83 31t30 77t-30 78q-30 31 -83 31t-83 -31t-30 -78q0 -48 30 -78t83 -30zM723 -29q-242 -1 -387 139t-146 357v967h101v-977q0 -180 117 -291
q118 -111 316 -111t314 111t117 291v977h100v-967q0 -217 -145 -357t-387 -139z" />
    <glyph glyph-name="uring" unicode="&#x16f;" horiz-adv-x="1183" 
d="M596 1194q-80 0 -128 47t-48 117t48 117t128 47t128 -47t48 -117t-48 -117t-128 -47zM596 1249q53 0 83 31t30 78t-30 78q-30 30 -83 30t-83 -30t-30 -78q0 -47 30 -78t83 -31zM1006 1040v-1040h-93v211q-33 -104 -129 -170t-254 -66t-261 110q-101 110 -101 302v653h98
v-641q0 -162 76 -251t224 -89q148 -1 244 99t97 276v606h99z" />
    <glyph glyph-name="Uhungarumlaut" unicode="&#x170;" 
d="M887 1563l119 243h106l-137 -243h-88zM449 1563l120 243h105l-135 -243h-90zM723 -29q-242 -1 -387 139t-146 357v967h101v-977q0 -180 117 -291q118 -111 316 -111t314 111t117 291v977h100v-967q0 -217 -145 -357t-387 -139z" />
    <glyph glyph-name="uhungarumlaut" unicode="&#x171;" horiz-adv-x="1183" 
d="M719 1194l139 279h105l-156 -279h-88zM342 1194l139 279h105l-156 -279h-88zM1006 1040v-1040h-93v211q-33 -104 -129 -170t-254 -66t-261 110q-101 110 -101 302v653h98v-641q0 -162 76 -251t224 -89q148 -1 244 99t97 276v606h99z" />
    <glyph glyph-name="Uogonek" unicode="&#x172;" 
d="M723 -29q-242 -1 -387 139t-146 357v967h101v-977q0 -180 117 -291q118 -111 316 -111t314 111t117 291v977h100v-967q0 -287 -247 -430q-197 -112 -231 -180q-15 -33 -15 -76q0 -90 117 -90q39 0 69 6v-66q-46 -12 -112 -12t-113 44t-47 116q0 119 110 194
q-20 -2 -63 -2z" />
    <glyph glyph-name="uogonek" unicode="&#x173;" horiz-adv-x="1183" 
d="M1006 1040v-1040q-186 -96 -187 -211q0 -98 117 -98q39 0 70 6v-66q-45 -12 -112 -11t-115 44t-46 123q2 143 180 213v211q-33 -104 -129 -170t-254 -66t-261 110q-101 110 -101 302v653h98v-641q0 -162 76 -251t224 -89q148 -1 244 99t97 276v606h99z" />
    <glyph glyph-name="Wcircumflex" unicode="&#x174;" horiz-adv-x="1847" 
d="M971 1806l233 -243h-100l-180 188l-181 -188h-100l234 243h94zM1769 1434l-339 -1434h-105l-401 1327l-402 -1327h-104l-340 1434h98l297 -1303l395 1303h111l395 -1303l297 1303h98z" />
    <glyph glyph-name="wcircumflex" unicode="&#x175;" horiz-adv-x="1527" 
d="M811 1473l225 -279h-96l-176 217l-176 -217h-96l225 279h94zM1450 1040l-289 -1040h-98l-299 934l-299 -934h-98l-289 1040h92l248 -923l295 923h102l295 -923l248 923h92z" />
    <glyph glyph-name="Ycircumflex" unicode="&#x176;" horiz-adv-x="1191" 
d="M643 1806l234 -243h-101l-180 188l-180 -188h-101l234 243h94zM645 0h-98v555l-514 879h104l459 -787l459 787h104l-514 -879v-555z" />
    <glyph glyph-name="ycircumflex" unicode="&#x177;" horiz-adv-x="1009" 
d="M567 1473l226 -279h-97l-176 217l-176 -217h-96l225 279h94zM336 -356l123 356l-389 1040h100l338 -921l332 921h100l-508 -1396h-96z" />
    <glyph glyph-name="Ydieresis" unicode="&#x178;" horiz-adv-x="1191" 
d="M825 1747q35 0 55 -22q20 -21 21 -51q0 -30 -20 -52q-19 -22 -55 -23q-36 1 -56 23t-20 52t20 52t55 21zM367 1599q-35 1 -55 23t-21 52q0 30 20 52q19 22 55 21q36 0 56 -22q20 -21 20 -51t-20 -52t-55 -23zM645 0h-98v555l-514 879h104l459 -787l459 787h104l-514 -879
v-555z" />
    <glyph glyph-name="Zacute" unicode="&#x179;" horiz-adv-x="1261" 
d="M578 1563l151 243h119l-172 -243h-98zM139 0v84l856 1266h-817v84h924v-84l-856 -1266h880v-84h-987z" />
    <glyph glyph-name="zacute" unicode="&#x17a;" horiz-adv-x="1005" 
d="M444 1194l174 279h117l-192 -279h-99zM123 0v78l653 880h-626v82h735v-77l-654 -881h662v-82h-770z" />
    <glyph glyph-name="Zdotaccent" unicode="&#x17b;" horiz-adv-x="1261" 
d="M717 1677q0 -31 -22 -55q-23 -24 -57 -23q-34 -1 -56 23t-21 55q0 31 22 53q23 22 57 22t56 -22t21 -53zM139 0v84l856 1266h-817v84h924v-84l-856 -1266h880v-84h-987z" />
    <glyph glyph-name="zdotaccent" unicode="&#x17c;" horiz-adv-x="1005" 
d="M438 1350q0 30 22 52t56 22t56 -22t22 -52t-22 -55q-22 -23 -56 -23t-56 24t-22 54zM123 0v78l653 880h-626v82h735v-77l-654 -881h662v-82h-770z" />
    <glyph glyph-name="Zcaron" unicode="&#x17d;" horiz-adv-x="1261" 
d="M932 1806l-234 -243h-94l-233 243h100l180 -188l180 188h101zM139 0v84l856 1266h-817v84h924v-84l-856 -1266h880v-84h-987z" />
    <glyph glyph-name="zcaron" unicode="&#x17e;" horiz-adv-x="1005" 
d="M801 1473l-226 -279h-94l-225 279h96l176 -218l177 218h96zM123 0v78l653 880h-626v82h735v-77l-654 -881h662v-82h-770z" />
    <glyph glyph-name="florin" unicode="&#x192;" horiz-adv-x="1034" 
d="M92 -356v80h105q90 0 132 43t50 139l74 837h-215v80h221l30 351q25 260 263 260h139v-80h-121q-88 0 -131 -41t-51 -144l-31 -346h260v-80h-266l-74 -839q-23 -260 -264 -260h-121z" />
    <glyph glyph-name="Aringacute" unicode="&#x1fa;" horiz-adv-x="1355" 
d="M651 1765l121 201h119l-141 -201h-99zM678 1434q53 0 83 28t30 74q0 47 -30 75q-30 27 -83 27t-83 -28t-30 -74t30 -74t83 -28zM678 1339l-318 -862h633zM854 1536q0 -111 -109 -147l529 -1389h-105l-145 393h-694l-144 -393h-104l526 1389q-106 35 -106 147q0 70 48 114
t128 44t128 -44t48 -114z" />
    <glyph glyph-name="aringacute" unicode="&#x1fb;" horiz-adv-x="1136" 
d="M879 304q0 114 -111 182t-249 67q-138 1 -228 -63t-90 -182t86 -188t228 -69q142 0 253 69q111 70 111 184zM508 -25q-180 -1 -291 93t-111 242t116 235q116 86 302 86q113 0 210 -46t145 -110v207q0 131 -81 217t-216 86q-225 0 -306 -192h-92q38 127 144 199t267 73
q161 0 271 -108t111 -271v-686h-94v145q-45 -70 -147 -120t-228 -50zM602 1155q-80 0 -128 45t-48 115t48 115t128 45t128 -45t48 -115t-48 -115t-128 -45zM602 1210q53 0 83 29t30 76t-30 76t-83 29t-83 -30q-30 -28 -30 -75t30 -76t83 -29zM569 1559l121 200h117
l-139 -200h-99z" />
    <glyph glyph-name="AEacute" unicode="&#x1fc;" horiz-adv-x="2103" 
d="M1063 489v863l-588 -863h588zM1063 0v408h-643l-277 -408h-108l983 1434h964v-84h-819v-580h760v-86h-760v-600h822v-84h-922zM1092 1563l151 243h119l-172 -243h-98z" />
    <glyph glyph-name="aeacute" unicode="&#x1fd;" horiz-adv-x="1888" 
d="M977 606v-49h682v64q0 162 -87 264t-253 102q-166 -1 -254 -103t-88 -278zM201 312q0 -120 88 -190t232 -71q144 0 251 72q106 73 106 187t-110 180q-111 66 -249 67q-138 0 -228 -63q-90 -62 -90 -182zM1338 -25q-288 0 -406 218q-41 -93 -153 -155t-255 -63
q-194 1 -306 97t-112 244t115 233q115 86 303 86q111 0 209 -43t146 -103v191q0 127 -82 216t-217 89q-225 0 -304 -194h-90q38 131 140 203t240 71q138 0 230 -58q93 -58 140 -155q111 213 387 213q201 0 315 -129t115 -320v-139h-776v-61q0 -158 93 -260t259 -103
q123 -1 207 63t117 173h86q-31 -139 -143 -227t-258 -87zM889 1194l174 279h117l-193 -279h-98z" />
    <glyph glyph-name="Oslashacute" unicode="&#x1fe;" horiz-adv-x="1482" 
d="M256 590q0 -229 113 -371l694 1051q-127 111 -322 110q-241 0 -363 -152t-122 -384v-254zM1227 590v254q0 225 -115 370l-692 -1050q123 -111 321 -111q240 0 363 153t123 384zM1325 840v-246q0 -268 -150 -446q-151 -177 -434 -177q-225 0 -370 117l-127 -190h-86
l157 241q-158 170 -157 455v246q0 268 150 445q151 177 433 177q221 0 371 -119l127 193h86l-160 -242q160 -171 160 -454zM684 1563l152 243h118l-172 -243h-98z" />
    <glyph glyph-name="oslashacute" unicode="&#x1ff;" horiz-adv-x="1146" 
d="M219 432q0 -160 84 -262l490 748q-90 68 -220 67q-166 0 -260 -105t-94 -272v-176zM928 608q0 158 -86 262l-490 -747q90 -68 238 -68q148 -1 244 105q94 106 94 272v176zM573 -25q-158 0 -268 76l-100 -153h-80l129 196q-129 125 -129 334v184q0 197 121 325t327 128
q152 0 267 -76l102 156h80l-131 -199q131 -127 131 -334v-184q0 -197 -121 -325t-328 -128zM514 1194l174 279h117l-193 -279h-98z" />
    <glyph glyph-name="Scommaaccent" unicode="&#x218;" horiz-adv-x="1335" 
d="M559 -512l86 342h107l-111 -342h-82zM1198 381q0 -188 -148 -299t-375 -111q-226 0 -374 117q-147 117 -147 305v33h96v-31q0 -156 119 -249t307 -93t307 86t119 236q0 205 -230 264l-423 111q-270 72 -271 329q0 175 130 279t345 104t352 -112q136 -113 136 -291v-33
h-92v31q0 143 -108 233t-285 90t-279 -78t-103 -217q0 -102 50 -162t153 -89l428 -113q137 -37 215 -123t78 -217z" />
    <glyph glyph-name="scommaaccent" unicode="&#x219;" horiz-adv-x="1075" 
d="M438 -512l86 342h107l-111 -342h-82zM544 -25q-177 0 -297 88t-120 234v6h96v-4q0 -113 94 -179q93 -66 231 -65t228 61t90 160q0 133 -149 170l-342 84q-219 55 -219 248q0 131 103 209t271 78t274 -89t105 -233v-6h-96v6q0 109 -76 176t-206 67q-131 0 -205 -55
q-74 -54 -74 -153q0 -125 141 -160l338 -83q231 -57 232 -256q0 -135 -121 -219t-298 -85z" />
    <glyph glyph-name="circumflex" unicode="&#x2c6;" horiz-adv-x="946" 
d="M520 1473l225 -279h-96l-176 217l-176 -217h-96l225 279h94z" />
    <glyph glyph-name="caron" unicode="&#x2c7;" horiz-adv-x="946" 
d="M745 1473l-225 -279h-94l-225 279h96l176 -218l176 218h96z" />
    <glyph glyph-name="breve" unicode="&#x2d8;" horiz-adv-x="1007" 
d="M504 1194q-143 0 -223 79t-80 200h78q0 -97 57 -155t168 -58t168 58t57 155h78q0 -121 -80 -200t-223 -79z" />
    <glyph glyph-name="dotaccent" unicode="&#x2d9;" horiz-adv-x="557" 
d="M201 1350q-1 30 21 52t57 22t57 -22t20 -52q0 -30 -22 -55q-22 -23 -56 -23t-56 23q-21 24 -21 55z" />
    <glyph glyph-name="ring" unicode="&#x2da;" horiz-adv-x="753" 
d="M377 1194q-80 0 -128 47t-48 117t48 117t128 47t128 -47t48 -117t-48 -117t-128 -47zM377 1249q53 0 83 31t29 78q0 47 -29 78q-30 30 -83 30t-83 -30t-30 -78q0 -47 30 -78t83 -31z" />
    <glyph glyph-name="ogonek" unicode="&#x2db;" horiz-adv-x="673" 
d="M360 -381q-68 0 -113 42q-46 42 -46 117t54 135t124 87h94q-63 -40 -94 -62t-62 -65t-30 -92q0 -90 116 -90q39 0 70 6v-66q-45 -12 -113 -12z" />
    <glyph glyph-name="tilde" unicode="&#x2dc;" horiz-adv-x="1083" 
d="M385 1434q67 0 179 -73t142 -73q58 0 76 49t31 103l70 -15q-13 -59 -29 -99t-53 -74t-89 -34t-163 74q-111 72 -163 72t-75 -37t-41 -117l-69 15q33 209 184 209z" />
    <glyph glyph-name="hungarumlaut" unicode="&#x2dd;" horiz-adv-x="1021" 
d="M578 1194l139 279h104l-155 -279h-88zM201 1194l139 279h104l-155 -279h-88z" />
    <glyph glyph-name="uni0312" unicode="&#x312;" horiz-adv-x="581" 
d="M199 1194l90 279h94l-68 -279h-116z" />
    <glyph glyph-name="uni0315" unicode="&#x315;" horiz-adv-x="587" 
d="M199 1120l82 375h106l-106 -375h-82z" />
    <glyph glyph-name="uni0326" unicode="&#x326;" horiz-adv-x="591" 
d="M199 -512l86 342h106l-110 -342h-82z" />
    <glyph glyph-name="Omega" unicode="&#x3a9;" horiz-adv-x="1470" 
d="M1286 80v-80h-342v80q260 291 260 622v117q0 258 -120 411q-120 152 -349 152t-349 -152t-120 -411v-117q0 -332 260 -622v-80h-342v80h238q-109 121 -181 287q-73 166 -73 340v114q0 293 145 467t421 174t422 -174t147 -467v-114q0 -174 -73 -340t-181 -287h237z" />
    <glyph glyph-name="pi" unicode="&#x3c0;" horiz-adv-x="1488" 
d="M371 0v961h-234v79h1215v-79h-283v-689q0 -100 40 -146t132 -46h107v-80h-125q-252 0 -252 270v691h-502v-961h-98z" />
    <glyph glyph-name="Wgrave" unicode="&#x1e80;" horiz-adv-x="1847" 
d="M856 1563l-172 243h119l151 -243h-98zM1769 1434l-339 -1434h-105l-401 1327l-402 -1327h-104l-340 1434h98l297 -1303l395 1303h111l395 -1303l297 1303h98z" />
    <glyph glyph-name="wgrave" unicode="&#x1e81;" horiz-adv-x="1527" 
d="M612 1473l174 -279h-98l-192 279h116zM1450 1040l-289 -1040h-98l-299 934l-299 -934h-98l-289 1040h92l248 -923l295 923h102l295 -923l248 923h92z" />
    <glyph glyph-name="Wacute" unicode="&#x1e82;" horiz-adv-x="1847" 
d="M895 1563l152 243h118l-172 -243h-98zM1769 1434l-339 -1434h-105l-401 1327l-402 -1327h-104l-340 1434h98l297 -1303l395 1303h111l395 -1303l297 1303h98z" />
    <glyph glyph-name="wacute" unicode="&#x1e83;" horiz-adv-x="1527" 
d="M737 1194l174 279h117l-192 -279h-99zM1450 1040l-289 -1040h-98l-299 934l-299 -934h-98l-289 1040h92l248 -923l295 923h102l295 -923l248 923h92z" />
    <glyph glyph-name="Wdieresis" unicode="&#x1e84;" horiz-adv-x="1847" 
d="M1153 1599q-35 1 -55 23t-21 52q1 30 21 52t55 21q35 0 55 -22q20 -21 20 -51t-20 -52t-55 -23zM694 1747q36 0 56 -22q20 -21 20 -51t-20 -52t-56 -23q-36 1 -56 23t-20 52t20 52t56 21zM1769 1434l-339 -1434h-105l-401 1327l-402 -1327h-104l-340 1434h98l297 -1303
l395 1303h111l395 -1303l297 1303h98z" />
    <glyph glyph-name="wdieresis" unicode="&#x1e85;" horiz-adv-x="1527" 
d="M970 1249q-32 1 -54 23t-21 52q0 30 20 52q19 22 55 21q36 0 56 -22q20 -21 20 -51t-21 -52q-23 -22 -55 -23zM556 1249q-32 1 -54 23t-21 52t21 52t55 21q35 0 55 -22q20 -21 20 -51t-21 -52q-23 -22 -55 -23zM1450 1040l-289 -1040h-98l-299 934l-299 -934h-98
l-289 1040h92l248 -923l295 923h102l295 -923l248 923h92z" />
    <glyph glyph-name="Ygrave" unicode="&#x1ef2;" horiz-adv-x="1191" 
d="M553 1563l-172 243h119l151 -243h-98zM645 0h-98v555l-514 879h104l459 -787l459 787h104l-514 -879v-555z" />
    <glyph glyph-name="ygrave" unicode="&#x1ef3;" horiz-adv-x="1009" 
d="M393 1473l174 -279h-98l-193 279h117zM336 -356l123 356l-389 1040h100l338 -921l332 921h100l-508 -1396h-96z" />
    <glyph glyph-name="endash" unicode="&#x2013;" horiz-adv-x="1253" 
d="M150 594v80h954v-80h-954z" />
    <glyph glyph-name="emdash" unicode="&#x2014;" horiz-adv-x="1865" 
d="M150 594v80h1566v-80h-1566z" />
    <glyph glyph-name="quoteleft" unicode="&#x2018;" horiz-adv-x="425" 
d="M309 1434l-94 -420h-111l123 420h82z" />
    <glyph glyph-name="quoteright" unicode="&#x2019;" horiz-adv-x="425" 
d="M117 1014l94 420h111l-123 -420h-82z" />
    <glyph glyph-name="quotesinglbase" unicode="&#x201a;" horiz-adv-x="454" 
d="M82 -219l94 420h111l-123 -420h-82z" />
    <glyph glyph-name="quotedblleft" unicode="&#x201c;" horiz-adv-x="811" 
d="M309 1434l-94 -420h-111l123 420h82zM694 1434l-94 -420h-111l123 420h82z" />
    <glyph glyph-name="quotedblright" unicode="&#x201d;" horiz-adv-x="811" 
d="M502 1014l94 420h111l-123 -420h-82zM117 1014l94 420h111l-123 -420h-82z" />
    <glyph glyph-name="quotedblbase" unicode="&#x201e;" horiz-adv-x="839" 
d="M467 -219l94 420h111l-123 -420h-82zM82 -219l94 420h111l-123 -420h-82z" />
    <glyph glyph-name="dagger" unicode="&#x2020;" horiz-adv-x="1015" 
d="M467 -205v1186h-307v70h307v383h82v-383h307v-70h-307v-1186h-82z" />
    <glyph glyph-name="daggerdbl" unicode="&#x2021;" horiz-adv-x="1036" 
d="M477 248v733h-307v70h307v383h82v-383h307v-70h-307v-733h307v-70h-307v-383h-82v383h-307v70h307z" />
    <glyph glyph-name="bullet" unicode="&#x2022;" horiz-adv-x="847" 
d="M424 510q-102 0 -164 61q-61 61 -61 157t61 158q62 62 164 62t164 -61t61 -157q0 -96 -61 -159q-62 -61 -164 -61z" />
    <glyph glyph-name="ellipsis" unicode="&#x2026;" horiz-adv-x="1363" 
d="M1057 68q1 36 23 58t57 22t57 -24q22 -22 23 -56q0 -34 -23 -58q-24 -22 -58 -22t-57 22q-22 23 -22 58zM602 68q0 36 23 58t57 22t58 -24q22 -22 22 -56t-23 -58q-23 -22 -57 -22t-58 22q-22 22 -22 58zM147 68q0 36 23 58q24 22 58 22t57 -24q23 -22 23 -56t-24 -58
q-22 -22 -57 -22t-57 22t-23 58z" />
    <glyph glyph-name="perthousand" unicode="&#x2030;" horiz-adv-x="2473" 
d="M1823 281q-1 -106 59 -170t163 -64q103 -1 161 63t59 171v196q0 105 -58 169q-57 64 -161 64t-164 -62q-60 -64 -59 -171v-196zM2341 473v-188q0 -135 -80 -218t-217 -83t-217 83t-80 218v188q0 135 80 218t217 83t217 -83t80 -218zM1065 281q-1 -106 59 -170t163 -64
q103 -1 161 63t59 171v196q0 105 -58 169q-57 64 -161 64t-164 -62q-60 -64 -59 -171v-196zM1583 473v-188q0 -135 -80 -218t-217 -83t-217 83t-80 218v188q0 135 80 218t217 83t217 -83t80 -218zM219 956q-1 -106 59 -170t163 -63q103 0 162 63q58 63 59 170v197
q0 105 -58 169t-162 64t-163 -63t-60 -170v-197zM737 1149v-188q0 -135 -80 -219t-217 -83q-137 0 -217 83t-80 219v188q0 135 80 218t217 83t217 -83t80 -218zM451 0l747 1434h80l-748 -1434h-79z" />
    <glyph glyph-name="guilsinglleft" unicode="&#x2039;" horiz-adv-x="686" 
d="M449 123l-363 430l363 430h110l-360 -430l360 -430h-110z" />
    <glyph glyph-name="guilsinglright" unicode="&#x203a;" horiz-adv-x="686" 
d="M600 553l-362 -430h-111l360 430l-360 430h111z" />
    <glyph glyph-name="fraction" unicode="&#x2044;" horiz-adv-x="745" 
d="M-41 0l748 1434h79l-747 -1434h-80z" />
    <glyph glyph-name="Euro" unicode="&#x20ac;" horiz-adv-x="1347" 
d="M102 860v80h170v55q0 205 124 336t334 131t333 -124t141 -300h-92q-20 148 -116 246t-264 98q-169 0 -265 -103t-96 -282v-57h481v-80h-481v-287h481v-79h-481v-58q0 -178 96 -281t265 -103t264 98t116 245h92q-18 -176 -141 -300t-333 -124t-334 131t-124 336v56h-170
v79h170v287h-170z" />
    <glyph glyph-name="published" unicode="&#x2117;" horiz-adv-x="1785" 
d="M893 16q313 0 502 204q188 204 188 497t-188 497q-187 204 -501 203q-314 0 -502 -204q-188 -205 -189 -497q1 -292 189 -496t501 -204zM893 1458q327 0 531 -216t204 -525t-204 -525t-532 -217q-328 0 -531 216q-203 215 -203 525t203 526q204 216 532 216zM745 672h201
q90 0 139 50t50 126t-49 127t-140 51h-201v-354zM684 352v725h272q108 1 174 -65t66 -163t-67 -163t-173 -65h-211v-269h-61z" />
    <glyph glyph-name="trademark" unicode="&#x2122;" horiz-adv-x="1325" 
d="M1167 1434v-582h-51v485l-170 -331h-57l-170 331v-485h-51v582h55l195 -381l194 381h55zM307 852v537h-188v45h430v-45h-187v-537h-55z" />
    <glyph glyph-name="partialdiff" unicode="&#x2202;" horiz-adv-x="1196" 
d="M229 424q1 -168 103 -272t264 -103q162 0 266 109t105 274v66q0 150 -110 260q-109 110 -271 108q-162 0 -259 -99t-98 -278v-65zM1063 453q0 -207 -131 -345t-337 -137q-206 0 -334 132t-128 323v61q0 207 122 332t325 125q143 0 245 -64t144 -155q-35 295 -191 462
t-487 167h-29v80h35q478 0 661 -360q105 -206 105 -511v-110z" />
    <glyph glyph-name="Delta" unicode="&#x2206;" horiz-adv-x="1359" 
d="M1130 80l-450 1259l-451 -1259h901zM1227 0h-1094v74l500 1360h94l500 -1360v-74z" />
    <glyph glyph-name="product" unicode="&#x220f;" horiz-adv-x="1613" 
d="M412 -356v1710h-285v80h1360v-80h-285v-1710h-98v1710h-594v-1710h-98z" />
    <glyph glyph-name="summation" unicode="&#x2211;" horiz-adv-x="1253" 
d="M168 1434h938v-80h-832l508 -815l-508 -815h832v-80h-938v80l512 815l-512 815v80z" />
    <glyph glyph-name="minus" unicode="&#x2212;" horiz-adv-x="1224" 
d="M174 698v78h877v-78h-877z" />
    <glyph glyph-name="radical" unicode="&#x221a;" horiz-adv-x="1406" 
d="M143 573v82h334l271 -776l419 1657h86l-442 -1741h-117l-280 778h-271z" />
    <glyph glyph-name="infinity" unicode="&#x221e;" horiz-adv-x="1789" 
d="M510 479q119 0 207 78t135 180q-47 103 -135 181t-207 78t-193 -72q-73 -70 -73 -187t74 -187t192 -71zM1280 479q119 0 193 71q73 72 73 188t-73 187q-74 71 -193 71t-207 -78t-135 -181q47 -102 135 -180t207 -78zM1630 737q0 -150 -94 -242t-235 -92q-140 0 -246 78
t-160 183q-53 -104 -159 -182t-247 -79q-141 1 -235 93t-94 242t94 241q94 92 234 92t247 -78q106 -78 160 -182q53 104 159 182t247 78t235 -92t94 -242z" />
    <glyph glyph-name="integral" unicode="&#x222b;" horiz-adv-x="903" 
d="M127 -356v80h66q106 0 153 47t47 153v1227q0 143 66 213t213 70h84v-80h-72q-108 0 -150 -46t-42 -157v-1223q0 -285 -283 -284h-82z" />
    <glyph glyph-name="approxequal" unicode="&#x2248;" horiz-adv-x="1216" 
d="M842 827q-82 0 -222 71t-197 71q-58 1 -94 -15t-58 -35t-56 -55l-51 49q117 131 246 131q86 0 229 -73q125 -68 215 -68t164 80l45 -49q-86 -107 -221 -107zM842 432q-82 0 -222 71t-216 71q-78 0 -133 -51q-22 -19 -56 -54l-51 49q117 131 246 131q86 0 220 -71
q134 -70 224 -70t164 80l45 -49q-86 -107 -221 -107z" />
    <glyph glyph-name="notequal" unicode="&#x2260;" horiz-adv-x="1275" 
d="M205 942v76h532l135 262h86l-135 -262h248v-76h-287l-211 -410h498v-75h-536l-134 -262h-84l134 262h-246v75h284l209 410h-493z" />
    <glyph glyph-name="lessequal" unicode="&#x2264;" horiz-adv-x="1265" 
d="M174 805l897 403v-88l-782 -352l782 -352v-88l-897 403v74zM174 0v80h897v-80h-897z" />
    <glyph glyph-name="greaterequal" unicode="&#x2265;" horiz-adv-x="1265" 
d="M195 1208l897 -403v-74l-897 -403v88l782 352l-782 352v88zM1092 80v-80h-897v80h897z" />
    <glyph glyph-name="lozenge" unicode="&#x25ca;" horiz-adv-x="1327" 
d="M664 80l417 637l-417 637l-418 -637zM1180 717l-473 -717h-86l-474 717l474 717h86z" />
    <glyph glyph-name="apple" unicode="&#xf8ff;" horiz-adv-x="1775" 
d="M240 334v741q0 152 103 255t255 104h717q152 0 255 -102t103 -255q0 -152 -103 -254t-255 -102h-359v-387q0 -152 -103 -255t-255 -103t-255 102q-103 104 -103 256z" />
    <glyph glyph-name="fi" unicode="&#xfb01;" horiz-adv-x="1179" 
d="M864 1350q0 30 22 52t56 22t56 -22t22 -52t-22 -55q-22 -23 -56 -23t-56 24t-22 54zM893 0v1040h98v-1040h-98zM254 0v961h-162v79h162v152q0 156 73 230t222 73h125v-80h-119q-111 0 -157 -51t-46 -164v-160h285v-79h-285v-961h-98z" />
    <glyph glyph-name="fl" unicode="&#xfb02;" horiz-adv-x="1179" 
d="M893 0v1495h98v-1495h-98zM254 0v961h-162v79h162v152q0 156 73 230t222 73h125v-80h-119q-111 0 -157 -51t-46 -164v-160h285v-79h-285v-961h-98z" />
    <glyph glyph-name="acute.case" horiz-adv-x="671" 
d="M201 1563l151 243h119l-172 -243h-98z" />
    <glyph glyph-name="breve.case" horiz-adv-x="1028" 
d="M514 1563q-143 -1 -225 67t-88 176h80q6 -80 66 -128q61 -48 167 -48t167 48q60 48 67 128h79q-6 -109 -88 -176t-225 -67z" />
    <glyph glyph-name="caron.case" horiz-adv-x="962" 
d="M762 1806l-234 -243h-94l-233 243h100l180 -188l181 188h100z" />
    <glyph glyph-name="circumflex.case" horiz-adv-x="962" 
d="M528 1806l234 -243h-100l-181 188l-180 -188h-100l233 243h94z" />
    <glyph glyph-name="dieresis.case" horiz-adv-x="1011" 
d="M735 1747q35 0 55 -22q20 -21 21 -51q0 -30 -20 -52q-19 -22 -55 -23q-36 1 -56 23t-21 52q1 30 21 52t55 21zM276 1747q36 0 56 -22q20 -21 20 -51t-20 -52t-56 -23q-36 1 -55 23q-20 22 -20 52t20 52t55 21z" />
    <glyph glyph-name="dotaccent.case" horiz-adv-x="557" 
d="M278 1599q-34 -1 -56 23t-21 55q0 31 21 53q22 22 57 22t57 -22t20 -53q0 -31 -22 -55t-56 -23z" />
    <glyph glyph-name="grave.case" horiz-adv-x="671" 
d="M373 1563l-172 243h118l152 -243h-98z" />
    <glyph glyph-name="hungarumlaut.case" horiz-adv-x="1064" 
d="M639 1563l119 243h106l-137 -243h-88zM201 1563l121 243h104l-135 -243h-90z" />
    <glyph glyph-name="macron.case" horiz-adv-x="1021" 
d="M201 1649v77h620v-77h-620z" />
    <glyph glyph-name="ring.case" horiz-adv-x="753" 
d="M377 1563q-80 0 -128 47q-48 46 -48 116t48 117t128 47t128 -47t48 -117t-48 -116t-128 -47zM377 1618q53 0 83 31t30 77t-30 78q-30 31 -83 31t-83 -31t-30 -78q0 -48 30 -78t83 -30z" />
    <glyph glyph-name="tilde.case" horiz-adv-x="1116" 
d="M379 1794q76 0 201 -73t159 -72q55 0 84 71q6 16 19 58l6 22l67 -18q-47 -205 -174 -205q-51 0 -177 73q-126 72 -178 72t-77 -38t-39 -113l-69 12q18 103 60 157t118 54z" />
    <glyph glyph-name="J.salt" horiz-adv-x="1220" 
d="M1030 375q0 -178 -126 -291t-328 -113q-201 0 -325 111t-124 287v10h98v-10q0 -141 94 -227q93 -86 257 -87q164 0 259 87t95 233v977h-694v82h794v-1059z" />
    <glyph glyph-name="IJ.salt" horiz-adv-x="1738" 
d="M1548 375q0 -178 -126 -291t-328 -113q-201 0 -325 111t-124 287v10h98v-10q1 -141 95 -227t257 -87q163 0 258 87t95 233v977h-694v82h794v-1059zM209 0v1434h100v-1434h-100z" />
    <glyph glyph-name="Jcircumflex.salt" horiz-adv-x="1228" 
d="M1040 375q0 -178 -126 -291t-328 -113q-201 0 -325 111t-124 287v10h99v-10q0 -141 94 -227t257 -87q163 0 258 87t95 233v977h-694v82h794v-1059zM705 1806l233 -243h-100l-181 188l-180 -188h-100l233 243h95z" />
    <glyph glyph-name="ornm01.ornm" horiz-adv-x="2117" 
d="M221 676v82h1135v-82h-1135zM1128 0l715 717l-715 717h113l717 -717l-717 -717h-113z" />
    <glyph glyph-name="ornm02.ornm" horiz-adv-x="2117" 
d="M1896 758v-82h-1134v82h1134zM274 717l715 -717h-112l-717 717l717 717h112z" />
    <glyph glyph-name="ornm03.ornm" horiz-adv-x="1748" 
d="M279 193l-60 59l785 786l61 -61zM1380 1354h-1011l80 80h1017v-1012l-86 -82v1014z" />
    <glyph glyph-name="ornm04.ornm" horiz-adv-x="1748" 
d="M1470 193l-786 784l61 61l785 -786zM283 1434h1017l82 -80h-1013v-1014l-86 82v1012z" />
    <glyph glyph-name="ornm05.ornm" horiz-adv-x="1748" 
d="M1004 395l-785 787l60 59l786 -784zM1380 80v1014l86 -82v-1012h-1017l-80 80h1011z" />
    <glyph glyph-name="ornm06.ornm" horiz-adv-x="1748" 
d="M745 395l-61 62l786 784l60 -59zM283 0v1012l86 82v-1014h1013l-82 -80h-1017z" />
    <glyph glyph-name="ornm07.ornm" horiz-adv-x="1875" 
d="M895 -268v1124h86v-1124h-86zM221 631v114l717 717l717 -717v-114l-717 717z" />
    <glyph glyph-name="ornm08.ornm" horiz-adv-x="1875" 
d="M895 309v1125h86v-1125h-86zM938 -297l-717 717v115l717 -717l717 717v-115z" />
    <glyph glyph-name="ornm09.ornm" horiz-adv-x="1830" 
d="M199 569v82h901v-82h-901zM1016 47l563 563l-563 564h112l566 -564l-566 -563h-112z" />
    <glyph glyph-name="ornm10.ornm" horiz-adv-x="1830" 
d="M731 569v82h901v-82h-901zM702 47l-565 563l565 564h113l-563 -564l563 -563h-113z" />
    <glyph glyph-name="ornm11.ornm" horiz-adv-x="1546" 
d="M254 -41l-55 55l637 635l55 -55zM1202 963h-796l79 77h801v-794l-84 -80v797z" />
    <glyph glyph-name="ornm12.ornm" horiz-adv-x="1546" 
d="M1292 -41l-637 635l56 55l637 -635zM260 1040h801l80 -77h-797v-797l-84 80v794z" />
    <glyph glyph-name="ornm13.ornm" horiz-adv-x="1546" 
d="M836 391l-637 635l55 55l637 -635zM1202 78v796l84 -79v-795h-801l-79 78h796z" />
    <glyph glyph-name="ornm14.ornm" horiz-adv-x="1546" 
d="M711 391l-56 55l637 635l56 -55zM260 0v795l84 79v-796h797l-80 -78h-801z" />
    <glyph glyph-name="ornm15.ornm" horiz-adv-x="1566" 
d="M739 -236v859h88v-859h-88zM219 539v114l565 564l564 -564v-114l-564 565z" />
    <glyph glyph-name="ornm16.ornm" horiz-adv-x="1566" 
d="M739 338v858h88v-858h-88zM784 -256l-565 563v115l565 -565l564 565v-115z" />
    <glyph glyph-name="ornm17.ornm" horiz-adv-x="1630" 
d="M969 418q0 -53 -4 -92q14 -10 94 -63t112 -109q27 24 57 8t38 -43q-10 -49 -4 -119h-986q0 326 13 477q-55 31 -72 84l28 21t25 36q10 39 -10 106q-20 66 -23 90t1 113t-5 130q-2 29 -23 81q-22 52 -24 76t4 75q6 50 5 85q-2 35 -21 60q59 2 181 -3t177 -1q11 14 8 48
t-3 42h43q26 -23 36 -87q9 -63 11 -73q17 -10 81 -24t85 -36q43 29 91 29t95 -20q-10 -17 -7 -21t27 -4q0 -27 13 -47q4 2 15 19t32 10q14 -12 50 -36t50 -40q31 0 66 24t49 27q10 -33 77 -30t89 -21l55 4q14 0 23 -4q-31 -35 -103 -62t-104 -48t-68 -69q-35 -49 -51 -67
q-10 -10 -72 -58t-80 -81q0 -17 6 -63t5 -74q-10 -10 -40 -28q-58 -36 -63 -87q39 -43 41 -53q-20 -29 -20 -82z" />
    <glyph glyph-name="ornm18.ornm" horiz-adv-x="1914" 
d="M389 792q0 36 24 86q36 73 138 121q20 10 65 29q141 47 283 47q47 0 141 -8l123 -8q48 0 63 14q33 31 64 124q6 17 6 20q18 66 84 139q2 4 5 37t10 41q19 5 41 0q22 -4 73 -15q25 0 29 -4t9 -12t12 -12q14 -2 24 -13q3 -6 23 -26t20 -35t43 -42q43 -26 57 -35t25 -15
q35 -16 29 -37q-6 -14 -41 -26t-55 -11q-20 0 -50 6q-82 20 -112 2q-6 -3 -18 -27t-13 -34q-10 -102 -36 -186q-30 -95 -36 -140t-16 -76q-37 -63 -43 -73q-6 -11 -22 -109t-24 -170q-7 -72 -3 -203q0 -16 19 -41t33 -23t34 -7l2 -4q4 -4 3 -18t-7 -17l-9 -4l-40 2l12 -21
l-8 -8h-86q-19 7 -26 36t-12 56t-16 34q-10 7 -10 11l6 76q0 4 -6 10q-12 12 -12 62v90q0 49 -2 69l-10 113q-4 16 2 36t-4 22q-11 3 -29 1t-25 -2q-141 0 -249 122q-30 34 -52 55q-23 20 -61 20t-68 -35q-35 -31 -35 -114q-5 -66 -35 -149t-73 -126t-43 -51
q-13 -18 -21 -60q-2 -111 0 -126l6 -33q7 -5 15 -11t14 -10q25 -6 27 -12q4 -25 -8 -29h-54q-14 4 -28 15l-21 18q-2 2 -8 67q-6 64 -6 66l-2 8l-2 45v29q0 13 1 29t-4 16t-11 -10t-19 -24q-12 -14 -16 -22q-3 -6 -23 -70t-22 -81v-84l16 -16q16 -7 16 -21t-14 -24h-39
q-16 0 -39 29q-6 12 0 104l4 68q0 45 4 77q-57 -41 -118 -47q-12 -3 -16 9t5 18q84 25 135 70l33 30q35 49 49 85q38 102 41 124l-4 119q-6 74 -6 110z" />
    </font>
</defs>
</svg>
