<?xml version="1.0" standalone="no"?>
<!DOCTYPE svg PUBLIC "-//W3C//DTD SVG 1.1//EN" "http://www.w3.org/Graphics/SVG/1.1/DTD/svg11.dtd" >
<svg xmlns="http://www.w3.org/2000/svg">
<metadata>
Created by FontPrep 20130207 at Tue Jun 16 17:15:43 2015
 By Michael Lefebvre
Copyright (c) 2012 by Process Type Foundry, LLC. All rights reserved.
</metadata>
<defs>
<font id="eacadab73975123c4aee337df820bb32" horiz-adv-x='1024' >
  <font-face 
    font-family="Colfax-Medium"
    font-weight="500"
    font-stretch="normal"
    units-per-em="2048"
    panose-1="2 11 3 4 0 0 0 1 0 2"
    ascent="1536"
    descent="-512"
    x-height="1065"
    cap-height="1434"
    bbox="-127 -512 2533.01 1976"
    underline-thickness="147"
    underline-position="-58"
    unicode-range="U+0020-FB02"
  />
<missing-glyph horiz-adv-x="1404" 
d="M184 0v1434h1037v-1434h-1037zM219 33h967v1368h-967v-1368zM526 451l-90 90l178 176l-178 180l88 88l178 -178l183 178l88 -88l-180 -180l180 -176l-90 -90l-181 178z" />
    <glyph glyph-name=".notdef" horiz-adv-x="1404" 
d="M184 0v1434h1037v-1434h-1037zM219 33h967v1368h-967v-1368zM526 451l-90 90l178 176l-178 180l88 88l178 -178l183 178l88 -88l-180 -180l180 -176l-90 -90l-181 178z" />
    <glyph glyph-name=".null" horiz-adv-x="0" 
 />
    <glyph glyph-name="nonmarkingreturn" horiz-adv-x="681" 
 />
    <glyph glyph-name="space" unicode=" " horiz-adv-x="491" 
 />
    <glyph glyph-name="exclam" unicode="!" horiz-adv-x="606" 
d="M143 143q0 72 44 116t116 44t116 -44t44 -116q0 -71 -44 -115t-116 -44t-116 44t-44 115zM158 1434h291v-568l-68 -452h-156l-67 452v568z" />
    <glyph glyph-name="quotedbl" unicode="&#x22;" horiz-adv-x="997" 
d="M147 860v574h242v-574h-242zM608 860v574h242v-574h-242z" />
    <glyph glyph-name="numbersign" unicode="#" horiz-adv-x="1386" 
d="M553 874l-33 -292h332l33 292h-332zM82 393v189h225l33 292h-215v189h235l41 371h213l-41 -371h332l41 371h213l-41 -371h197v-189h-217l-33 -292h207v-189h-228l-43 -393h-213l43 393h-331l-43 -393h-213l43 393h-205z" />
    <glyph glyph-name="dollar" unicode="$" horiz-adv-x="1208" 
d="M477 -225v237q-174 31 -271 140t-97 274v33h266v-33q0 -102 62 -156q61 -54 171 -53q110 0 173 50t63 126t-32 115t-101 63l-273 99q-164 57 -242 137q-78 79 -77 233q0 154 95 252t255 129v238h274v-240q156 -33 246 -133t90 -254v-43h-264v37q0 88 -55 137
q-56 49 -156 49t-156 -42t-57 -109q0 -67 34 -100t99 -58l262 -94q160 -59 245 -145t85 -241t-100 -265t-264 -146v-237h-275z" />
    <glyph glyph-name="percent" unicode="%" horiz-adv-x="1810" 
d="M1532 285v198q0 63 -37 101t-103 39q-66 0 -102 -38q-37 -38 -37 -102v-198q0 -63 37 -101t103 -39q67 1 103 39t36 101zM1729 467v-166q-1 -145 -91 -233t-246 -88t-245 88q-90 88 -90 233v166q0 145 90 233t246 88t246 -88t90 -233zM567 950v199q0 63 -37 101
q-36 38 -102 38t-102 -38t-37 -101v-199q0 -63 37 -101q36 -38 102 -38t102 38t37 101zM764 1133v-166q0 -145 -90 -233t-246 -89q-156 0 -246 88t-90 234v166q0 145 90 233t246 88t246 -88t90 -233zM438 0l738 1434h206l-737 -1434h-207z" />
    <glyph glyph-name="ampersand" unicode="&#x26;" horiz-adv-x="1409" 
d="M686 166q154 0 242 92l-432 432q-147 -102 -148 -260q0 -124 92 -194t246 -70zM102 428q0 268 254 401q-125 137 -125 288t112 248t296 97t293 -96t108 -250v-84h-231v82q0 68 -44 113t-124 45t-126 -41t-46 -114t100 -169l453 -452q2 20 2 59v164h221v-174
q0 -123 -41 -234l174 -172l-164 -168l-143 142q-154 -141 -408 -141q-253 0 -407 123q-154 124 -154 333z" />
    <glyph glyph-name="quotesingle" unicode="'" horiz-adv-x="536" 
d="M147 860v574h242v-574h-242z" />
    <glyph glyph-name="parenleft" unicode="(" horiz-adv-x="681" 
d="M418 664q0 -218 56 -438t177 -500h-268q-250 469 -250 938t250 938h268q-121 -281 -177 -501t-56 -437z" />
    <glyph glyph-name="parenright" unicode=")" horiz-adv-x="681" 
d="M549 664q0 -469 -250 -938h-268q121 280 177 500t56 438t-56 437q-56 220 -177 501h268q250 -469 250 -938z" />
    <glyph glyph-name="asterisk" unicode="*" horiz-adv-x="905" 
d="M395 1434h117v-256l221 129l60 -103l-222 -129l222 -127l-60 -102l-221 127v-254h-117v256l-223 -129l-59 102l221 127l-221 129l59 103l223 -129v256z" />
    <glyph glyph-name="plus" unicode="+" horiz-adv-x="1232" 
d="M487 242v379h-344v233h344v379h258v-379h345v-233h-345v-379h-258z" />
    <glyph glyph-name="comma" unicode="," horiz-adv-x="512" 
d="M31 -264l102 543h297l-184 -543h-215z" />
    <glyph glyph-name="hyphen" unicode="-" horiz-adv-x="837" 
d="M113 530v250h612v-250h-612z" />
    <glyph glyph-name="period" unicode="." horiz-adv-x="524" 
d="M102 143q0 72 44 116t116 44t116 -44t44 -116q0 -71 -44 -115t-116 -44t-116 44t-44 115z" />
    <glyph glyph-name="slash" unicode="/" horiz-adv-x="970" 
d="M61 -215l578 1751h270l-577 -1751h-271z" />
    <glyph glyph-name="zero" unicode="0" horiz-adv-x="1310" 
d="M913 467v500q-1 129 -69 197t-189 67q-121 0 -189 -68t-69 -196v-500q0 -129 69 -197q70 -68 190 -68t189 68q68 68 68 197zM655 -29q-246 -1 -393 139t-147 361v492q0 221 147 360t393 139q245 0 393 -139t148 -360v-492q0 -221 -148 -361t-393 -139z" />
    <glyph glyph-name="one" unicode="1" horiz-adv-x="806" 
d="M356 0v1147l-305 -113v250l355 150h233v-1434h-283z" />
    <glyph glyph-name="two" unicode="2" horiz-adv-x="1232" 
d="M106 0v215l584 573q133 133 133 250q0 88 -58 140q-57 52 -155 53q-98 0 -153 -57t-56 -162v-29h-268v41q0 211 128 325q128 113 350 113t359 -115q136 -116 136 -307q0 -98 -47 -190t-95 -143t-139 -134l-372 -342h645v-231h-992z" />
    <glyph glyph-name="three" unicode="3" horiz-adv-x="1251" 
d="M180 1208v226h901v-228l-366 -366q184 -8 304 -116t120 -302t-155 -322q-155 -129 -374 -129t-366 118t-152 331h262q8 -102 77 -162t181 -59q112 0 180 63q68 64 68 158t-64 149q-65 55 -184 56h-211v227l336 356h-557z" />
    <glyph glyph-name="four" unicode="4" horiz-adv-x="1265" 
d="M748 0v307h-656v209l432 918h256l-413 -910h381v297h260v-297h182v-217h-182v-307h-260z" />
    <glyph glyph-name="five" unicode="5" horiz-adv-x="1277" 
d="M629 -29q-199 1 -343 107t-171 303h268q18 -82 83 -131q66 -49 176 -49q110 1 184 75t73 189q0 115 -72 189t-190 73q-164 0 -238 -125h-260l135 832h768v-226h-544l-60 -344q96 90 285 90t321 -131t132 -346t-154 -361t-393 -145z" />
    <glyph glyph-name="six" unicode="6" horiz-adv-x="1257" 
d="M377 465q1 -119 69 -195t187 -76t191 80q72 78 73 195q0 117 -69 191q-70 74 -188 75t-190 -75t-73 -195zM610 1434h301l-399 -549q68 66 211 65q190 0 320 -131q131 -131 131 -344t-156 -358t-392 -145t-382 140t-146 362t152 439z" />
    <glyph glyph-name="seven" unicode="7" horiz-adv-x="1122" 
d="M102 1202v232h938v-201l-594 -1233h-288l592 1202h-648z" />
    <glyph glyph-name="eight" unicode="8" horiz-adv-x="1298" 
d="M854 1047q0 93 -54 147t-150 55q-96 -1 -152 -55q-54 -54 -54 -147t56 -150t149 -57q92 0 149 57q56 57 56 150zM649 186q119 0 188 56t69 160q0 105 -70 163q-70 57 -187 57t-187 -56q-70 -58 -69 -164t69 -160q68 -56 187 -56zM649 -29q-236 0 -383 119t-147 311
q0 246 237 347q-180 96 -180 317q0 185 133 291t340 106t340 -105t133 -292q0 -221 -180 -317q238 -100 238 -347q0 -193 -148 -311t-383 -119z" />
    <glyph glyph-name="nine" unicode="9" horiz-adv-x="1257" 
d="M881 971q0 117 -70 193q-71 76 -189 75q-118 0 -190 -76q-72 -77 -72 -197t69 -194t189 -74t191 78q72 78 72 195zM84 964q0 218 148 358t389 140t389 -137t149 -359q0 -222 -119 -399l-381 -567h-307l371 541q-57 -57 -188 -58q-190 0 -321 132q-130 131 -130 349z" />
    <glyph glyph-name="colon" unicode=":" horiz-adv-x="524" 
d="M102 143q0 72 44 116t116 44t116 -44t44 -116q0 -71 -44 -115t-116 -44t-116 44t-44 115zM102 782q0 72 44 116t116 44t116 -44t44 -116t-44 -116t-116 -43q-72 -1 -116 43t-44 116z" />
    <glyph glyph-name="semicolon" unicode=";" horiz-adv-x="524" 
d="M92 782q0 72 44 116t116 44t116 -44t44 -116t-44 -116t-116 -43q-72 -1 -116 43t-44 116zM-4 -264l102 543h297l-184 -543h-215z" />
    <glyph glyph-name="less" unicode="&#x3c;" horiz-adv-x="1181" 
d="M102 827l947 426v-254l-615 -262l615 -262v-254l-947 426v180z" />
    <glyph glyph-name="equal" unicode="=" horiz-adv-x="1265" 
d="M164 879v225h938v-225h-938zM164 371v225h938v-225h-938z" />
    <glyph glyph-name="greater" unicode="&#x3e;" horiz-adv-x="1181" 
d="M133 1253l946 -426v-180l-946 -426v254l615 262l-615 262v254z" />
    <glyph glyph-name="question" unicode="?" horiz-adv-x="1032" 
d="M332 143q0 72 44 116t116 44t116 -44t43 -116q0 -71 -44 -115q-43 -44 -115 -44t-116 44t-44 115zM362 430v94q0 221 130 318l94 69q66 47 94 83t29 98q-1 62 -55 104q-54 41 -144 41q-203 0 -203 -178v-47h-256v51q0 199 126 299t337 100t342 -103t131 -281t-160 -296
l-104 -75q-63 -47 -88 -89t-25 -129v-59h-248z" />
    <glyph glyph-name="at" unicode="@" horiz-adv-x="1908" 
d="M748 559q0 -74 38 -119t109 -45q70 0 117 48t63 139l10 57q4 20 5 49q0 72 -40 117t-116 45q-139 0 -170 -176l-10 -60q-6 -43 -6 -55zM1278 500q0 -72 37 -112t107 -40t120 68q88 117 88 329q0 254 -167 408t-457 154q-330 0 -523 -212t-192 -548q0 -281 174 -457
t483 -176q195 0 357 43l-21 -156q-162 -47 -358 -47q-375 0 -597 226t-223 567q0 393 244 654t666 261q362 0 579 -200t217 -506q0 -234 -103 -396t-302 -161q-104 0 -182 45t-99 125q-28 -57 -102 -101t-168 -43q-139 0 -228 91t-89 235q0 39 6 78l12 67q29 154 119 239
t242 85t223 -117l18 109h205l-80 -455q-6 -31 -6 -57z" />
    <glyph glyph-name="A" unicode="A" horiz-adv-x="1413" 
d="M707 1176l-207 -648h411zM852 1434l514 -1434h-285l-96 301h-557l-96 -301h-285l514 1434h291z" />
    <glyph glyph-name="B" unicode="B" horiz-adv-x="1357" 
d="M436 840h301q88 0 137 52q50 52 50 136t-50 132t-139 48h-299v-368zM436 225h361q102 1 157 53q56 52 56 143t-58 143t-157 52h-359v-391zM158 0v1434h643q186 0 298 -100t111 -263q0 -227 -180 -330q117 -25 192 -111t74 -227q0 -179 -135 -291t-350 -112h-653z" />
    <glyph glyph-name="C" unicode="C" horiz-adv-x="1445" 
d="M741 -29q-311 0 -469 177t-157 466v205q0 289 157 466q158 177 469 177q264 0 427 -156t173 -382h-266q-14 131 -98 217t-246 86q-162 -1 -247 -107t-85 -286v-234q0 -180 85 -286t247 -107q162 0 246 86t98 217h266q-10 -227 -173 -383t-427 -156z" />
    <glyph glyph-name="D" unicode="D" horiz-adv-x="1439" 
d="M1042 561v311q0 158 -90 243t-262 85h-248v-967h248q172 0 262 85t90 243zM158 1434h581q281 0 435 -156t153 -408v-307q1 -251 -153 -407t-435 -156h-581v1434z" />
    <glyph glyph-name="E" unicode="E" horiz-adv-x="1265" 
d="M158 0v1434h1003v-238h-717v-350h656v-240h-656v-368h719v-238h-1005z" />
    <glyph glyph-name="F" unicode="F" horiz-adv-x="1210" 
d="M158 0v1434h981v-238h-695v-379h633v-237h-633v-580h-286z" />
    <glyph glyph-name="G" unicode="G" horiz-adv-x="1464" 
d="M732 1227q-159 -1 -246 -105t-87 -288v-226q0 -190 84 -299t249 -109t251 83q86 82 86 204v21h-321v233h602v-186q0 -260 -167 -422t-457 -162q-290 1 -451 181t-160 462v209q0 293 165 466t446 173t442 -144t167 -372h-272q-4 119 -88 200t-243 81z" />
    <glyph glyph-name="H" unicode="H" horiz-adv-x="1476" 
d="M158 0v1434h286v-588h588v588h287v-1434h-287v592h-588v-592h-286z" />
    <glyph glyph-name="I" unicode="I" horiz-adv-x="622" 
d="M168 0v1434h287v-1434h-287z" />
    <glyph glyph-name="J" unicode="J" horiz-adv-x="1245" 
d="M1094 422q0 -201 -142 -326t-374 -125q-231 0 -368 121q-136 121 -136 328v20h272v-18q0 -98 62 -156t172 -57q111 0 169 57t58 156v1012h287v-1012z" />
    <glyph glyph-name="K" unicode="K" horiz-adv-x="1333" 
d="M158 0v1434h286v-689l506 689h334l-539 -711l555 -723h-337l-519 702v-702h-286z" />
    <glyph glyph-name="L" unicode="L" horiz-adv-x="1187" 
d="M158 0v1434h286v-1196h660v-238h-946z" />
    <glyph glyph-name="M" unicode="M" horiz-adv-x="1654" 
d="M1497 1434v-1434h-274v881l-269 -533h-254l-268 533v-881h-274v1434h264l405 -820l406 820h264z" />
    <glyph glyph-name="N" unicode="N" horiz-adv-x="1492" 
d="M158 0v1434h272l625 -955v955h280v-1434h-272l-625 954v-954h-280z" />
    <glyph glyph-name="O" unicode="O" horiz-adv-x="1507" 
d="M754 209q174 0 263 105t89 284v238q0 178 -89 283t-263 105t-264 -104q-90 -106 -89 -284v-238q0 -178 89 -284q90 -105 264 -105zM1393 821v-209q0 -284 -166 -462t-472 -178t-473 178t-167 462v209q0 285 167 463t473 178t472 -178t166 -463z" />
    <glyph glyph-name="P" unicode="P" horiz-adv-x="1335" 
d="M444 698h291q131 0 198 71t67 183t-68 178q-66 68 -197 68h-291v-500zM158 0v1434h596q246 0 389 -132t143 -350t-146 -353q-146 -136 -386 -136h-310v-463h-286z" />
    <glyph glyph-name="Q" unicode="Q" horiz-adv-x="1507" 
d="M754 209q45 0 82 6l-113 174l199 123l114 -172q70 96 70 258v238q0 178 -89 283t-263 105t-264 -104q-90 -106 -89 -284v-238q0 -178 89 -284q90 -105 264 -105zM1393 821v-209q0 -326 -205 -499l106 -160l-200 -131l-117 178q-104 -29 -223 -29q-305 1 -472 179
t-167 462v209q0 285 167 463t473 178t472 -178t166 -463z" />
    <glyph glyph-name="R" unicode="R" horiz-adv-x="1429" 
d="M444 690h326q129 0 198 71q68 71 68 187t-68 185q-69 68 -198 67h-326v-510zM444 459v-459h-286v1434h647q246 0 382 -136t136 -352q0 -152 -75 -268t-208 -174l299 -504h-331l-263 459h-301z" />
    <glyph glyph-name="S" unicode="S" horiz-adv-x="1339" 
d="M1241 424q-1 -203 -161 -328t-411 -125t-404 118t-152 327v37h274v-31q0 -102 78 -166t213 -63q135 0 211 55t76 153q0 127 -136 162l-374 96q-166 43 -243 128t-77 243q1 201 143 317q142 115 381 115t379 -119t142 -309v-35h-265v29q0 96 -63 154t-185 59
q-122 0 -189 -47t-66 -139q0 -121 123 -152l393 -104q313 -82 313 -375z" />
    <glyph glyph-name="T" unicode="T" horiz-adv-x="1204" 
d="M459 0v1196h-406v238h1098v-238h-406v-1196h-286z" />
    <glyph glyph-name="U" unicode="U" horiz-adv-x="1474" 
d="M737 -29q-274 0 -432 150t-158 395v918h285v-930q0 -139 83 -217t222 -78t221 78t82 217v930h287v-918q0 -246 -158 -396t-432 -149z" />
    <glyph glyph-name="V" unicode="V" horiz-adv-x="1363" 
d="M1319 1434l-475 -1434h-324l-475 1434h293l344 -1121l344 1121h293z" />
    <glyph glyph-name="W" unicode="W" horiz-adv-x="1978" 
d="M1128 1434l299 -1037l207 1037h283l-338 -1434h-276l-314 1104l-313 -1104h-277l-338 1434h283l207 -1037l299 1037h278z" />
    <glyph glyph-name="X" unicode="X" horiz-adv-x="1368" 
d="M831 731l476 -731h-301l-322 502l-322 -502h-301l476 731l-455 703h295l307 -478l307 478h295z" />
    <glyph glyph-name="Y" unicode="Y" horiz-adv-x="1302" 
d="M795 0h-287v516l-492 918h312l323 -639l324 639h311l-491 -918v-516z" />
    <glyph glyph-name="Z" unicode="Z" horiz-adv-x="1277" 
d="M113 0v238l718 958h-688v238h1010v-238l-719 -958h737v-238h-1058z" />
    <glyph glyph-name="bracketleft" unicode="[" horiz-adv-x="782" 
d="M154 -274v1876h577v-230h-299v-1417h299v-229h-577z" />
    <glyph glyph-name="backslash" unicode="\" horiz-adv-x="970" 
d="M332 1536l577 -1751h-270l-578 1751h271z" />
    <glyph glyph-name="bracketright" unicode="]" horiz-adv-x="782" 
d="M629 1602v-1876h-578v229h299v1417h-299v230h578z" />
    <glyph glyph-name="asciicircum" unicode="^" horiz-adv-x="1089" 
d="M664 1434l344 -586h-269l-194 358l-195 -358h-268l344 586h238z" />
    <glyph glyph-name="underscore" unicode="_" horiz-adv-x="1060" 
d="M-2 -279v148h1065v-148h-1065z" />
    <glyph glyph-name="grave" unicode="`" horiz-adv-x="808" 
d="M371 1186l-213 315h344l149 -315h-280z" />
    <glyph glyph-name="a" unicode="a" horiz-adv-x="1198" 
d="M568 160q91 0 158 45t67 113q-1 68 -61 109q-60 40 -158 40t-155 -39t-57 -112q0 -72 58 -114t148 -42zM496 -25q-182 -1 -293 89t-111 250t116 246q116 85 296 85t289 -90v145q-1 76 -51 124t-134 48q-133 0 -184 -100h-258q45 154 164 236q118 82 306 82t312 -113
t123 -297v-680h-268v98q-37 -53 -125 -88t-182 -35z" />
    <glyph glyph-name="b" unicode="b" horiz-adv-x="1257" 
d="M658 201q110 -1 170 71t61 185v151q-1 115 -63 186q-62 70 -170 70t-174 -68q-67 -68 -66 -184v-155q0 -113 65 -185q67 -71 177 -71zM719 -25q-111 0 -194 42t-122 110v-127h-266v1495h279v-549q102 144 307 144t325 -134t119 -335v-177q-1 -199 -121 -334t-327 -135z
" />
    <glyph glyph-name="c" unicode="c" horiz-adv-x="1169" 
d="M582 -25q-224 -1 -358 133t-134 349v151q0 215 134 348q134 134 358 134t357 -119q134 -119 140 -303h-254q-10 86 -65 141t-165 55t-168 -66t-58 -180v-172q0 -114 58 -180q57 -66 167 -66t166 56q55 55 65 141h254q-6 -184 -140 -303q-133 -119 -357 -119z" />
    <glyph glyph-name="d" unicode="d" horiz-adv-x="1257" 
d="M369 457q0 -113 60 -185q61 -72 171 -71q110 -1 176 71t66 185v155q0 117 -67 185q-67 67 -175 67t-169 -70q-62 -70 -62 -186v-151zM539 -25q-207 -1 -328 135t-121 334v177q0 201 120 335t324 134t308 -140v545h278v-1495h-266v127q-42 -66 -124 -109t-191 -43z" />
    <glyph glyph-name="e" unicode="e" horiz-adv-x="1146" 
d="M360 643v-10h441v26q1 104 -55 169t-168 65q-112 1 -164 -67q-54 -68 -54 -183zM586 -25q-227 0 -362 126q-134 126 -134 350v145q0 223 129 358q129 136 359 136t355 -132q124 -132 124 -335v-187h-697v-26q0 -102 56 -168t154 -66q100 0 157 38t78 97h244
q-29 -147 -158 -241t-305 -95z" />
    <glyph glyph-name="f" unicode="f" horiz-adv-x="743" 
d="M199 0v840h-136v225h136v98q0 172 82 252t247 80h185v-221h-121q-61 0 -88 -24t-27 -85v-100h215v-225h-215v-840h-278z" />
    <glyph glyph-name="g" unicode="g" horiz-adv-x="1249" 
d="M590 272q106 0 175 62t69 172v123q0 106 -66 172q-66 65 -174 65t-167 -63q-60 -63 -60 -174v-123q0 -104 58 -169q59 -65 165 -65zM1112 23q0 -172 -144 -288t-352 -116q-207 0 -345 85t-169 233h271q53 -106 229 -107q106 0 169 53q62 53 63 144v168q-37 -59 -122 -103
t-184 -43q-206 0 -322 128t-116 315v155q0 187 116 315t324 128q115 0 200 -48t116 -106v129h266v-1042z" />
    <glyph glyph-name="h" unicode="h" horiz-adv-x="1220" 
d="M137 0v1495h279v-557q43 70 122 111t179 41q174 0 275 -110t102 -298v-682h-279v637q0 95 -48 153t-145 58q-98 0 -152 -55t-54 -162v-631h-279z" />
    <glyph glyph-name="i" unicode="i" 
d="M121 1343q0 70 46 116t116 46q69 0 115 -46t46 -116q0 -69 -46 -115t-116 -46t-115 46q-46 46 -46 115zM143 0v1065h279v-1065h-279z" />
    <glyph glyph-name="j" unicode="j" 
d="M121 1343q0 70 46 116t116 46q69 0 115 -46t46 -116q0 -69 -46 -115t-116 -46t-115 46q-46 46 -46 115zM-2 -356v215h63q43 0 63 15q19 15 19 54v1137h279v-1161q0 -260 -277 -260h-147z" />
    <glyph glyph-name="k" unicode="k" horiz-adv-x="1114" 
d="M137 0v1495h279v-926l338 496h317l-366 -520l378 -545h-317l-350 520v-520h-279z" />
    <glyph glyph-name="l" unicode="l" 
d="M143 0v1495h279v-1495h-279z" />
    <glyph glyph-name="m" unicode="m" horiz-adv-x="1878" 
d="M137 0v1065h266v-127q83 152 299 152t316 -152q117 152 352 152q170 0 276 -110t105 -298v-682h-278v637q0 211 -191 211q-94 0 -146 -55t-53 -162v-631h-278v637q0 211 -191 211q-94 0 -146 -55t-52 -162v-631h-279z" />
    <glyph glyph-name="n" unicode="n" horiz-adv-x="1220" 
d="M137 0v1065h266v-127q82 152 314 152q174 0 275 -109t102 -299v-682h-279v637q0 95 -48 153t-145 58q-98 0 -152 -55t-54 -162v-631h-279z" />
    <glyph glyph-name="o" unicode="o" horiz-adv-x="1183" 
d="M823 438v189q0 109 -58 177t-173 66q-115 0 -173 -68t-59 -175v-189q0 -108 58 -176t174 -68q115 0 173 68q58 67 58 176zM592 -25q-234 -1 -368 135t-134 347v151q0 211 134 346q134 136 368 136t367 -136q134 -136 135 -346v-151q0 -211 -134 -347t-368 -135z" />
    <glyph glyph-name="p" unicode="p" horiz-adv-x="1257" 
d="M889 608q-1 112 -61 184t-170 72t-177 -72q-66 -72 -65 -184v-155q0 -117 66 -185t174 -68t170 72q62 70 63 185v151zM719 1090q211 0 330 -136t118 -333v-177q1 -200 -119 -334t-329 -134t-303 139v-471h-279v1421h266v-127q43 66 125 109t191 43z" />
    <glyph glyph-name="q" unicode="q" horiz-adv-x="1257" 
d="M842 608q0 112 -66 184t-176 72t-171 -72q-60 -72 -60 -184v-151q0 -115 62 -186q61 -71 169 -71t175 68t67 185v155zM539 1090q111 0 193 -42t122 -110v127h266v-1421h-278v469q-37 -57 -120 -97t-185 -41q-207 1 -327 135t-120 334v177q0 199 121 334t328 135z" />
    <glyph glyph-name="r" unicode="r" horiz-adv-x="806" 
d="M137 0v1065h264v-207q47 215 320 215h33v-276h-58q-281 0 -280 -305v-492h-279z" />
    <glyph glyph-name="s" unicode="s" horiz-adv-x="1087" 
d="M1012 332q0 -156 -131 -256t-335 -101q-204 0 -329 87t-125 253v19h246v-15q0 -71 58 -109t152 -38t151 35t57 103t-88 87l-316 72q-244 55 -243 281q-1 162 117 250t312 90q194 0 308 -92t115 -248v-17h-244v19q0 139 -174 139t-174 -117q0 -72 82 -90l323 -80
q238 -59 238 -272z" />
    <glyph glyph-name="t" unicode="t" horiz-adv-x="786" 
d="M508 0q-150 0 -226 79t-75 224v537h-152v225h152v291h280v-291h228v-225h-228v-516q0 -53 23 -76t78 -23h112v-225h-192z" />
    <glyph glyph-name="u" unicode="u" horiz-adv-x="1212" 
d="M1075 1065v-1065h-266v127q-37 -68 -122 -110t-187 -42q-176 0 -275 112q-98 112 -98 296v682h279v-643q0 -213 188 -213q96 0 149 57t54 158v641h278z" />
    <glyph glyph-name="v" unicode="v" horiz-adv-x="1060" 
d="M1038 1065l-362 -1065h-291l-362 1065h278l229 -780l230 780h278z" />
    <glyph glyph-name="w" unicode="w" horiz-adv-x="1613" 
d="M1577 1065l-277 -1065h-260l-233 733l-234 -733h-260l-276 1065h270l156 -715l217 715h254l217 -715l156 715h270z" />
    <glyph glyph-name="x" unicode="x" horiz-adv-x="1105" 
d="M694 541l373 -541h-293l-221 332l-221 -332h-293l373 541l-359 524h289l211 -315l211 315h289z" />
    <glyph glyph-name="y" unicode="y" horiz-adv-x="1046" 
d="M559 -356h-274l106 360l-368 1061h278l229 -764l218 764h276z" />
    <glyph glyph-name="z" unicode="z" horiz-adv-x="1034" 
d="M92 0v201l526 649h-501v215h823v-201l-526 -649h538v-215h-860z" />
    <glyph glyph-name="braceleft" unicode="{" horiz-adv-x="864" 
d="M51 776h64q170 0 170 166v291q0 184 92 275t291 91h155v-229h-100q-86 0 -123 -36t-37 -120v-296q0 -225 -209 -256q209 -31 209 -256v-297q0 -84 37 -120t123 -36h100v-229h-155q-199 0 -291 91t-92 275v291q0 166 -170 166h-64v229z" />
    <glyph glyph-name="bar" unicode="|" horiz-adv-x="675" 
d="M219 -307v1945h238v-1945h-238z" />
    <glyph glyph-name="braceright" unicode="}" horiz-adv-x="864" 
d="M750 776h63v-229h-63q-170 0 -170 -166v-291q0 -184 -92 -275t-291 -91h-156v229h100q86 0 123 36t37 120v297q0 225 209 256q-209 31 -209 256v296q0 84 -37 120t-123 36h-100v229h156q199 0 291 -91t92 -275v-291q0 -166 170 -166z" />
    <glyph glyph-name="asciitilde" unicode="~" horiz-adv-x="1314" 
d="M434 944q80 0 238 -73t183 -73q44 1 60 17l18 18q13 14 21 36q8 23 16 45t11 30l238 -82q-41 -152 -111 -242t-199 -90q-71 0 -229 73t-211 73t-78 -38t-45 -122l-244 57q31 183 109 277t223 94z" />
    <glyph glyph-name="uni00A0" unicode="&#xa0;" horiz-adv-x="491" 
 />
    <glyph glyph-name="exclamdown" unicode="&#xa1;" horiz-adv-x="606" 
d="M463 1290q0 -72 -44 -116t-116 -44t-116 44t-44 116t44 116t116 44t116 -44t44 -116zM449 0h-291v567l67 453h156l68 -453v-567z" />
    <glyph glyph-name="cent" unicode="&#xa2;" horiz-adv-x="1187" 
d="M387 776v-119q0 -109 55 -169q56 -60 154 -60t153 47q54 47 62 119h258q-6 -134 -95 -238t-237 -139v-217h-278v217q-160 37 -251 154t-91 286v119q0 170 92 289t250 149v220h278v-220q145 -27 235 -132t97 -242h-258q-8 72 -62 118q-55 46 -153 48q-98 0 -154 -60
t-55 -170z" />
    <glyph glyph-name="sterling" unicode="&#xa3;" horiz-adv-x="1376" 
d="M131 0v225h236v344h-207v226h207v241q0 207 125 317q126 109 336 109t331 -112t121 -301v-41h-258v43q0 82 -47 132t-139 50q-190 0 -191 -193v-245h385v-226h-385v-344h547v-225h-1061z" />
    <glyph glyph-name="currency" unicode="&#xa4;" horiz-adv-x="1273" 
d="M809 647v129q0 72 -45 118t-127 46t-127 -46t-45 -118v-129q0 -72 45 -118t127 -46t127 46t45 118zM1047 762v-100q0 -123 -68 -218l172 -270h-279l-84 137q-150 -47 -303 0l-84 -137h-278l172 270q-68 94 -68 218v100q0 121 68 217l-172 270h278l84 -137q72 23 151 23
t152 -23l84 137h279l-172 -270q68 -96 68 -217z" />
    <glyph glyph-name="yen" unicode="&#xa5;" horiz-adv-x="1245" 
d="M143 670v207h185l-246 557h301l240 -633l239 633h301l-245 -557h184v-207h-277l-63 -146v-39h340v-206h-340v-279h-279v279h-340v206h340v39l-65 146h-275z" />
    <glyph glyph-name="brokenbar" unicode="&#xa6;" horiz-adv-x="675" 
d="M219 844v794h238v-794h-238zM219 -307v794h238v-794h-238z" />
    <glyph glyph-name="section" unicode="&#xa7;" horiz-adv-x="1265" 
d="M899 540q0 84 -115 130l-338 125q-70 -74 -69 -144q-1 -98 110 -139l351 -127q61 71 61 155zM1083 80q1 -154 -125 -256t-332 -103q-206 1 -333 99t-127 270v29h244v-19q0 -80 56 -128t154 -48t153 37q56 37 56 97q1 60 -27 86q-28 28 -87 49l-334 116q-258 90 -258 316
q0 160 141 280q-70 74 -69 199q0 168 121 263q122 95 332 95t329 -98t119 -272v-25h-240v27q0 78 -52 122t-157 44q-199 0 -198 -140q1 -51 27 -79t87 -50l326 -119q135 -50 200 -122t64 -191q0 -154 -131 -289q61 -74 61 -190z" />
    <glyph glyph-name="dieresis" unicode="&#xa8;" horiz-adv-x="1032" 
d="M582 1341q0 63 43 107t106 43q63 0 107 -43q44 -42 43 -106q0 -64 -43 -107q-42 -43 -106 -43t-107 43t-43 106zM152 1341q0 63 43 107t106 43q63 0 107 -43q44 -42 43 -106q0 -64 -43 -107q-42 -43 -106 -43t-107 43t-43 106z" />
    <glyph glyph-name="copyright" unicode="&#xa9;" horiz-adv-x="1691" 
d="M838 346q-142 0 -224 91t-82 227v106q0 135 82 226t224 91q142 1 225 -77q84 -78 92 -193h-147q-23 137 -158 137q-82 0 -122 -51t-40 -133v-106q0 -82 40 -134t122 -51q135 0 158 137h147q-8 -114 -92 -192q-83 -78 -225 -78zM846 -25q-328 0 -536 215
q-208 214 -208 526t208 527t536 215t536 -214t207 -527q1 -313 -207 -527t-536 -215zM846 49q295 0 477 197t182 471t-182 471q-182 196 -477 196t-477 -196q-183 -196 -183 -471q0 -274 182 -471t478 -197z" />
    <glyph glyph-name="ordfeminine" unicode="&#xaa;" horiz-adv-x="876" 
d="M426 872q55 0 93 24t38 67t-36 67t-89 23q-131 0 -131 -90q0 -43 35 -67t90 -24zM160 1237q55 217 304 217q122 0 202 -77t79 -195v-424h-178v61q-25 -31 -82 -55t-143 -23t-156 63t-70 160t71 154q71 58 190 58t180 -62v84q0 43 -29 72t-77 28q-80 0 -111 -61h-180z
M115 469v164h647v-164h-647z" />
    <glyph glyph-name="guillemotleft" unicode="&#xab;" horiz-adv-x="1300" 
d="M926 123l-334 442l334 443h313l-332 -443l332 -442h-313zM354 123l-334 442l334 443h314l-332 -443l332 -442h-314z" />
    <glyph glyph-name="logicalnot" unicode="&#xac;" horiz-adv-x="1191" 
d="M788 242v379h-686v233h947v-612h-261z" />
    <glyph glyph-name="registered" unicode="&#xae;" horiz-adv-x="1093" 
d="M492 1028h71q70 0 70 62t-70 63h-71v-125zM582 1227q141 -1 141 -147q0 -72 -72 -109l78 -137h-104l-64 122h-69v-122h-91v393h181zM547 635q170 -1 276 109q107 110 107 273t-106 271t-277 109q-171 0 -277 -109q-106 -110 -106 -272t106 -272q107 -109 277 -109z
M547 573q-205 0 -330 130q-125 129 -125 313t124 313t331 129t331 -129t124 -312t-125 -314q-125 -130 -330 -130z" />
    <glyph glyph-name="macron" unicode="&#xaf;" horiz-adv-x="1011" 
d="M158 1227v219h696v-219h-696z" />
    <glyph glyph-name="degree" unicode="&#xb0;" horiz-adv-x="827" 
d="M414 815q-145 0 -234 92q-88 91 -88 227t88 228t234 92t233 -92q88 -92 88 -227t-88 -227t-233 -93zM414 942q86 0 133 54t47 138t-47 139q-47 54 -133 54t-133 -54t-47 -138q0 -85 46 -139q48 -54 134 -54z" />
    <glyph glyph-name="plusminus" unicode="&#xb1;" horiz-adv-x="1253" 
d="M154 0v219h344v369h-344v233h344v379h258v-379h344v-233h-344v-369h344v-219h-946z" />
    <glyph glyph-name="twosuperior" unicode="&#xb2;" horiz-adv-x="825" 
d="M113 942v145l338 287q65 56 65 102t-29 70t-75 23q-109 0 -109 -99v-10h-180v17q0 121 79 189t211 67q132 0 216 -69t84 -179q0 -76 -40 -130t-116 -114l-180 -139h330v-160h-594z" />
    <glyph glyph-name="threesuperior" unicode="&#xb3;" horiz-adv-x="825" 
d="M160 1567v147h512v-147l-183 -160q99 -4 161 -62t62 -164t-90 -180q-90 -73 -220 -73t-214 68t-86 186h172q4 -45 38 -76t90 -31t91 29q34 29 33 76q0 92 -125 92h-127v137l162 158h-276z" />
    <glyph glyph-name="acute" unicode="&#xb4;" horiz-adv-x="808" 
d="M158 1186l149 315h344l-217 -315h-276z" />
    <glyph glyph-name="mu" unicode="&#xb5;" horiz-adv-x="1212" 
d="M1075 1065v-1065h-266v127q-98 -152 -307 -152q-63 0 -96 19v-350h-279v1421h279v-643q0 -213 188 -213q96 0 149 57t54 158v641h278z" />
    <glyph glyph-name="paragraph" unicode="&#xb6;" horiz-adv-x="1255" 
d="M895 -356v1622h-215v-936q-258 0 -419 144t-161 406t155 408q155 145 425 146h405v-1790h-190z" />
    <glyph glyph-name="periodcentered" unicode="&#xb7;" horiz-adv-x="524" 
d="M102 586q0 72 44 116t116 43q72 0 116 -44q44 -43 44 -115t-44 -116t-116 -44t-116 44t-44 116z" />
    <glyph glyph-name="cedilla" unicode="&#xb8;" horiz-adv-x="692" 
d="M535 -219q1 -74 -61 -118t-162 -44t-154 12v113q47 -10 96 -10q82 0 82 43t-76 49l-74 6l39 168h133l-14 -74l33 -4q158 -20 158 -141z" />
    <glyph glyph-name="onesuperior" unicode="&#xb9;" horiz-adv-x="636" 
d="M266 942v578l-184 -52v170l217 76h164v-772h-197z" />
    <glyph glyph-name="ordmasculine" unicode="&#xba;" horiz-adv-x="884" 
d="M590 1049v98q0 158 -148 158t-147 -158v-98q-1 -158 147 -158t148 158zM442 1454q154 0 241 -86t87 -225v-90q0 -139 -87 -225t-241 -87q-154 0 -240 86t-87 226v90q1 139 87 225t240 86zM137 469v164h615v-164h-615z" />
    <glyph glyph-name="guillemotright" unicode="&#xbb;" horiz-adv-x="1300" 
d="M709 565l-334 -442h-314l332 442l-332 443h314zM1280 565l-334 -442h-313l332 442l-332 443h313z" />
    <glyph glyph-name="onequarter" unicode="&#xbc;" horiz-adv-x="1705" 
d="M338 0l737 1434h207l-737 -1434h-207zM297 662v577l-184 -51v170l217 76h164v-772h-197zM1311 0v150h-387v141l245 481h185l-234 -473h191v150h182v-150h100v-149h-100v-150h-182z" />
    <glyph glyph-name="onehalf" unicode="&#xbd;" horiz-adv-x="1728" 
d="M338 0l737 1434h207l-737 -1434h-207zM297 662v577l-184 -51v170l217 76h164v-772h-197zM1016 0v145l338 287q66 56 66 102t-30 70q-28 24 -75 23q-109 0 -109 -99v-10h-180v17q0 121 79 189t211 67q132 0 216 -69t84 -179q0 -76 -40 -130t-116 -114l-180 -139h330v-160
h-594z" />
    <glyph glyph-name="threequarters" unicode="&#xbe;" horiz-adv-x="1802" 
d="M434 0l737 1434h207l-737 -1434h-207zM1407 0v150h-387v141l246 481h184l-233 -473h190v150h182v-150h101v-149h-101v-150h-182zM170 1286v148h512v-148l-182 -160q100 -4 162 -62t61 -164q0 -106 -91 -180t-220 -73q-129 0 -213 68t-86 186h172q4 -45 38 -76t90 -31
t90 30q34 28 34 75q0 92 -125 92h-127v137l161 158h-276z" />
    <glyph glyph-name="questiondown" unicode="&#xbf;" horiz-adv-x="1032" 
d="M700 1290q0 -72 -44 -116t-116 -44t-115 44q-44 44 -44 116t44 116t116 44q71 0 115 -44t44 -116zM670 1004v-95q0 -221 -129 -317l-95 -70q-66 -47 -94 -83q-28 -37 -28 -99t54 -102t144 -41q203 0 203 178v47h256v-51q0 -199 -126 -299t-337 -100t-342 102
q-131 104 -131 282t160 295l104 76q63 47 88 89t25 128v60h248z" />
    <glyph glyph-name="Agrave" unicode="&#xc0;" horiz-adv-x="1413" 
d="M555 1542l-201 289h342l142 -289h-283zM707 1176l-207 -648h411zM852 1434l514 -1434h-285l-96 301h-557l-96 -301h-285l514 1434h291z" />
    <glyph glyph-name="Aacute" unicode="&#xc1;" horiz-adv-x="1413" 
d="M586 1542l141 289h342l-201 -289h-282zM707 1176l-207 -648h411zM852 1434l514 -1434h-285l-96 301h-557l-96 -301h-285l514 1434h291z" />
    <glyph glyph-name="Acircumflex" unicode="&#xc2;" horiz-adv-x="1413" 
d="M844 1831l241 -289h-268l-110 137l-111 -137h-268l241 289h275zM707 1176l-207 -648h411zM852 1434l514 -1434h-285l-96 301h-557l-96 -301h-285l514 1434h291z" />
    <glyph glyph-name="Atilde" unicode="&#xc3;" horiz-adv-x="1413" 
d="M518 1841q74 0 214 -43t156 -43t38 6q21 6 32 30q11 23 18 35t7 25l182 -51q-41 -139 -88 -197t-153 -59q-48 0 -190 43t-189 43q-63 0 -88 -96l-185 41q27 139 79 203t167 63zM707 1176l-207 -648h411zM852 1434l514 -1434h-285l-96 301h-557l-96 -301h-285l514 1434
h291z" />
    <glyph glyph-name="Adieresis" unicode="&#xc4;" horiz-adv-x="1413" 
d="M786 1692q0 66 43 108t107 41q64 0 106 -42q43 -41 43 -107t-43 -108t-106 -42t-107 42q-43 42 -43 108zM328 1692q0 66 43 108t106 41q63 0 107 -42q44 -41 43 -107q0 -66 -43 -108q-42 -42 -106 -42t-107 42t-43 108zM707 1176l-207 -648h411zM852 1434l514 -1434h-285
l-96 301h-557l-96 -301h-285l514 1434h291z" />
    <glyph glyph-name="Aring" unicode="&#xc5;" horiz-adv-x="1413" 
d="M707 1434q43 0 69 24t25 64q0 38 -26 62q-27 24 -69 24t-68 -24t-26 -62t26 -64q26 -24 69 -24zM707 1176l-207 -648h411zM708 1710q98 0 156 -54q60 -54 60 -133t-56 -134l498 -1389h-285l-96 301h-557l-96 -301h-285l498 1389q-55 53 -56 133q1 80 61 134t158 54z" />
    <glyph glyph-name="AE" unicode="&#xc6;" horiz-adv-x="2187" 
d="M1079 532v668l-430 -668h430zM1079 0v303h-577l-195 -303h-307l961 1434h1122v-238h-717v-350h655v-240h-655v-368h719v-238h-1006z" />
    <glyph glyph-name="Ccedilla" unicode="&#xc7;" horiz-adv-x="1445" 
d="M967 -219q1 -74 -61 -118t-162 -44t-154 12v113q47 -10 96 -10q82 0 82 43t-76 49l-74 6l33 143q-266 25 -401 199t-135 440v205q0 289 157 466q158 177 469 177q264 0 427 -156t173 -382h-266q-14 131 -98 217t-246 86q-162 -1 -247 -107t-85 -286v-234q0 -180 85 -286
t247 -107q162 0 246 86t98 217h266q-9 -217 -161 -370t-396 -167l-8 -47l33 -4q158 -20 158 -141z" />
    <glyph glyph-name="Egrave" unicode="&#xc8;" horiz-adv-x="1265" 
d="M553 1542l-201 289h342l142 -289h-283zM158 0v1434h1003v-238h-717v-350h656v-240h-656v-368h719v-238h-1005z" />
    <glyph glyph-name="Eacute" unicode="&#xc9;" horiz-adv-x="1265" 
d="M506 1542l141 289h342l-201 -289h-282zM158 0v1434h1003v-238h-717v-350h656v-240h-656v-368h719v-238h-1005z" />
    <glyph glyph-name="Ecircumflex" unicode="&#xca;" horiz-adv-x="1265" 
d="M807 1831l242 -289h-269l-110 137l-111 -137h-268l241 289h275zM158 0v1434h1003v-238h-717v-350h656v-240h-656v-368h719v-238h-1005z" />
    <glyph glyph-name="Edieresis" unicode="&#xcb;" horiz-adv-x="1265" 
d="M754 1692q0 66 43 108t106 41q63 0 107 -42q44 -41 43 -107q0 -66 -43 -108q-42 -42 -106 -42t-107 42t-43 108zM295 1692q0 66 43 108t106 41q62 0 106 -42q44 -41 44 -107t-43 -108t-107 -42t-106 42q-43 42 -43 108zM158 0v1434h1003v-238h-717v-350h656v-240h-656
v-368h719v-238h-1005z" />
    <glyph glyph-name="Igrave" unicode="&#xcc;" horiz-adv-x="622" 
d="M172 1542l-201 289h342l142 -289h-283zM168 0v1434h287v-1434h-287z" />
    <glyph glyph-name="Iacute" unicode="&#xcd;" horiz-adv-x="622" 
d="M184 1542l142 289h342l-201 -289h-283zM168 0v1434h287v-1434h-287z" />
    <glyph glyph-name="Icircumflex" unicode="&#xce;" horiz-adv-x="622" 
d="M449 1831l241 -289h-268l-111 137l-110 -137h-269l242 289h275zM168 0v1434h287v-1434h-287z" />
    <glyph glyph-name="Idieresis" unicode="&#xcf;" horiz-adv-x="622" 
d="M391 1692q0 66 42 108t108 41q65 0 107 -42q42 -41 42 -107t-42 -108t-108 -42t-107 42q-42 42 -42 108zM-68 1692q0 66 42 108t108 41q66 0 108 -42q42 -41 41 -107q0 -66 -42 -108q-41 -42 -107 -42t-108 42t-42 108zM168 0v1434h287v-1434h-287z" />
    <glyph glyph-name="Eth" unicode="&#xd0;" horiz-adv-x="1513" 
d="M1106 561v311q0 158 -90 243t-262 85h-248v-364h311v-238h-311v-365h248q172 0 262 85t90 243zM68 598v238h153v598h582q281 0 435 -156t153 -408v-307q0 -251 -154 -407t-434 -156h-582v598h-153z" />
    <glyph glyph-name="Ntilde" unicode="&#xd1;" horiz-adv-x="1492" 
d="M547 1841q74 0 214 -43q141 -43 157 -43q55 0 74 47q4 12 12 25t8 24l182 -51q-41 -139 -88 -197t-154 -59q-49 0 -190 43t-189 43q-63 0 -88 -96l-184 41q27 139 79 203t167 63zM158 0v1434h272l625 -955v955h280v-1434h-272l-625 954v-954h-280z" />
    <glyph glyph-name="Ograve" unicode="&#xd2;" horiz-adv-x="1507" 
d="M623 1542l-201 289h342l141 -289h-282zM754 209q174 0 263 105t89 284v238q0 178 -89 283t-263 105t-264 -104q-90 -106 -89 -284v-238q0 -178 89 -284q90 -105 264 -105zM1393 821v-209q0 -284 -166 -462t-472 -178t-473 178t-167 462v209q0 285 167 463t473 178
t472 -178t166 -463z" />
    <glyph glyph-name="Oacute" unicode="&#xd3;" horiz-adv-x="1507" 
d="M621 1542l141 289h342l-201 -289h-282zM754 209q174 0 263 105t89 284v238q0 178 -89 283t-263 105t-264 -104q-90 -106 -89 -284v-238q0 -178 89 -284q90 -105 264 -105zM1393 821v-209q0 -284 -166 -462t-472 -178t-473 178t-167 462v209q0 285 167 463t473 178
t472 -178t166 -463z" />
    <glyph glyph-name="Ocircumflex" unicode="&#xd4;" horiz-adv-x="1507" 
d="M891 1831l242 -289h-269l-110 137l-111 -137h-268l241 289h275zM754 209q174 0 263 105t89 284v238q0 178 -89 283t-263 105t-264 -104q-90 -106 -89 -284v-238q0 -178 89 -284q90 -105 264 -105zM1393 821v-209q0 -284 -166 -462t-472 -178t-473 178t-167 462v209
q0 285 167 463t473 178t472 -178t166 -463z" />
    <glyph glyph-name="Otilde" unicode="&#xd5;" horiz-adv-x="1507" 
d="M565 1841q74 0 214 -43q141 -43 157 -43t37 6t32 29q11 24 18 36t7 25l182 -51q-41 -139 -88 -197t-153 -59q-49 0 -191 43t-188 43q-63 0 -88 -96l-185 41q27 139 79 203t167 63zM754 209q174 0 263 105t89 284v238q0 178 -89 283t-263 105t-264 -104q-90 -106 -89 -284
v-238q0 -178 89 -284q90 -105 264 -105zM1393 821v-209q0 -284 -166 -462t-472 -178t-473 178t-167 462v209q0 285 167 463t473 178t472 -178t166 -463z" />
    <glyph glyph-name="Odieresis" unicode="&#xd6;" horiz-adv-x="1507" 
d="M834 1692q0 66 42 108t108 41q66 0 107 -42q42 -41 42 -107t-42 -108t-108 -42q-65 0 -107 42t-42 108zM375 1692q0 66 42 108q41 42 107 41q66 0 108 -42q42 -41 42 -107t-42 -108t-108 -42t-108 42t-41 108zM754 209q174 0 263 105t89 284v238q0 178 -89 283t-263 105
t-264 -104q-90 -106 -89 -284v-238q0 -178 89 -284q90 -105 264 -105zM1393 821v-209q0 -284 -166 -462t-472 -178t-473 178t-167 462v209q0 285 167 463t473 178t472 -178t166 -463z" />
    <glyph glyph-name="multiply" unicode="&#xd7;" horiz-adv-x="1224" 
d="M143 1047l160 159l309 -309l310 309l159 -159l-309 -310l309 -309l-159 -160l-310 310l-309 -310l-160 160l310 309z" />
    <glyph glyph-name="Oslash" unicode="&#xd8;" horiz-adv-x="1507" 
d="M754 209q174 0 263 105t89 284v238q0 129 -41 204l-514 -778q72 -53 203 -53zM401 598q0 -121 39 -207l516 780q-86 53 -202 54q-174 1 -264 -105t-89 -284v-238zM1393 821v-209q0 -284 -166 -462t-473 -179q-197 0 -344 80l-101 -153h-194l166 252q-166 172 -166 462
v209q0 285 167 463t472 178q199 0 342 -80l102 154h195l-166 -252q166 -172 166 -463z" />
    <glyph glyph-name="Ugrave" unicode="&#xd9;" horiz-adv-x="1474" 
d="M627 1542l-201 289h342l141 -289h-282zM737 -29q-274 0 -432 150t-158 395v918h285v-930q0 -139 83 -217t222 -78t221 78t82 217v930h287v-918q0 -246 -158 -396t-432 -149z" />
    <glyph glyph-name="Uacute" unicode="&#xda;" horiz-adv-x="1474" 
d="M580 1542l141 289h342l-201 -289h-282zM737 -29q-274 0 -432 150t-158 395v918h285v-930q0 -139 83 -217t222 -78t221 78t82 217v930h287v-918q0 -246 -158 -396t-432 -149z" />
    <glyph glyph-name="Ucircumflex" unicode="&#xdb;" horiz-adv-x="1474" 
d="M874 1831l242 -289h-268l-111 137l-110 -137h-269l242 289h274zM737 -29q-274 0 -432 150t-158 395v918h285v-930q0 -139 83 -217t222 -78t221 78t82 217v930h287v-918q0 -246 -158 -396t-432 -149z" />
    <glyph glyph-name="Udieresis" unicode="&#xdc;" horiz-adv-x="1474" 
d="M817 1692q0 66 42 108t108 41q65 0 107 -42q42 -41 42 -107t-42 -108t-108 -42t-107 42q-42 42 -42 108zM358 1692q0 66 42 108t108 41q66 0 108 -42q42 -41 41 -107q0 -66 -42 -108q-41 -42 -107 -42t-108 42t-42 108zM737 -29q-274 0 -432 150t-158 395v918h285v-930
q0 -139 83 -217t222 -78t221 78t82 217v930h287v-918q0 -246 -158 -396t-432 -149z" />
    <glyph glyph-name="Yacute" unicode="&#xdd;" horiz-adv-x="1302" 
d="M514 1542l141 289h342l-200 -289h-283zM795 0h-287v516l-492 918h312l323 -639l324 639h311l-491 -918v-516z" />
    <glyph glyph-name="Thorn" unicode="&#xde;" horiz-adv-x="1335" 
d="M444 483h291q131 0 198 71q67 70 67 182t-68 180q-66 68 -197 67h-291v-500zM158 0v1434h286v-215h310q246 -1 389 -133t143 -349t-146 -353t-386 -136h-310v-248h-286z" />
    <glyph glyph-name="germandbls" unicode="&#xdf;" horiz-adv-x="1261" 
d="M137 0v1061q0 217 132 330q131 113 351 113t357 -112t137 -292q0 -115 -50 -204t-142 -136q274 -80 274 -348q0 -196 -136 -304t-364 -108h-69v221h57q109 0 171 54q63 55 63 151t-62 148t-174 53h-57v217q96 6 153 69q58 63 58 157t-56 152t-154 58t-154 -51t-56 -156
v-1073h-279z" />
    <glyph glyph-name="agrave" unicode="&#xe0;" horiz-adv-x="1198" 
d="M498 1186l-213 315h344l149 -315h-280zM568 160q91 0 158 45t67 113q-1 68 -61 109q-60 40 -158 40t-155 -39t-57 -112q0 -72 58 -114t148 -42zM496 -25q-182 -1 -293 89t-111 250t116 246q116 85 296 85t289 -90v145q-1 76 -51 124t-134 48q-133 0 -184 -100h-258
q45 154 164 236q118 82 306 82t312 -113t123 -297v-680h-268v98q-37 -53 -125 -88t-182 -35z" />
    <glyph glyph-name="aacute" unicode="&#xe1;" horiz-adv-x="1198" 
d="M489 1186l150 315h344l-217 -315h-277zM568 160q91 0 158 45t67 113q-1 68 -61 109q-60 40 -158 40t-155 -39t-57 -112q0 -72 58 -114t148 -42zM496 -25q-182 -1 -293 89t-111 250t116 246q116 85 296 85t289 -90v145q-1 76 -51 124t-134 48q-133 0 -184 -100h-258
q45 154 164 236q118 82 306 82t312 -113t123 -297v-680h-268v98q-37 -53 -125 -88t-182 -35z" />
    <glyph glyph-name="acircumflex" unicode="&#xe2;" horiz-adv-x="1198" 
d="M780 1501l230 -315h-254l-111 157l-110 -157h-254l229 315h270zM568 160q91 0 158 45t67 113q-1 68 -61 109q-60 40 -158 40t-155 -39t-57 -112q0 -72 58 -114t148 -42zM496 -25q-182 -1 -293 89t-111 250t116 246q116 85 296 85t289 -90v145q-1 76 -51 124t-134 48
q-133 0 -184 -100h-258q45 154 164 236q118 82 306 82t312 -113t123 -297v-680h-268v98q-37 -53 -125 -88t-182 -35z" />
    <glyph glyph-name="atilde" unicode="&#xe3;" horiz-adv-x="1198" 
d="M457 1489q59 0 179 -44t146 -44t45 17q17 18 23 30t18 49l172 -53q-33 -113 -66 -164q-32 -52 -71 -70t-90 -18t-170 44t-159 44t-56 -22t-31 -76l-174 43q19 127 71 195t163 69zM568 160q91 0 158 45t67 113q-1 68 -61 109q-60 40 -158 40t-155 -39t-57 -112
q0 -72 58 -114t148 -42zM496 -25q-182 -1 -293 89t-111 250t116 246q116 85 296 85t289 -90v145q-1 76 -51 124t-134 48q-133 0 -184 -100h-258q45 154 164 236q118 82 306 82t312 -113t123 -297v-680h-268v98q-37 -53 -125 -88t-182 -35z" />
    <glyph glyph-name="adieresis" unicode="&#xe4;" horiz-adv-x="1198" 
d="M715 1341q0 63 42 107q41 44 107 43q66 0 108 -43q42 -42 42 -106t-42 -107t-108 -43t-108 43t-41 106zM285 1341q0 63 42 107q41 44 107 43q66 0 108 -43q42 -42 42 -106t-42 -107t-108 -43t-108 43t-41 106zM568 160q91 0 158 45t67 113q-1 68 -61 109q-60 40 -158 40
t-155 -39t-57 -112q0 -72 58 -114t148 -42zM496 -25q-182 -1 -293 89t-111 250t116 246q116 85 296 85t289 -90v145q-1 76 -51 124t-134 48q-133 0 -184 -100h-258q45 154 164 236q118 82 306 82t312 -113t123 -297v-680h-268v98q-37 -53 -125 -88t-182 -35z" />
    <glyph glyph-name="aring" unicode="&#xe5;" horiz-adv-x="1198" 
d="M637 1186q-100 0 -159 55q-58 55 -58 135t60 134t158 54t156 -54q60 -54 60 -134t-58 -135t-159 -55zM637 1288q43 0 69 25t26 63t-26 63q-26 23 -69 23t-69 -24t-26 -62q0 -40 26 -64t69 -24zM568 160q91 0 158 45t67 113q-1 68 -61 109q-60 40 -158 40t-155 -39
t-57 -112q0 -72 58 -114t148 -42zM496 -25q-182 -1 -293 89t-111 250t116 246q116 85 296 85t289 -90v145q-1 76 -51 124t-134 48q-133 0 -184 -100h-258q45 154 164 236q118 82 306 82t312 -113t123 -297v-680h-268v98q-37 -53 -125 -88t-182 -35z" />
    <glyph glyph-name="ae" unicode="&#xe6;" horiz-adv-x="1873" 
d="M1071 633h440v26q0 104 -55 169t-165 65q-110 -1 -165 -63t-55 -166v-31zM569 162q92 0 158 44t66 112q1 68 -61 111q-62 42 -160 42t-153 -39q-57 -39 -57 -112q0 -74 58 -116t149 -42zM1296 -25q-252 0 -381 158q-145 -158 -395 -158q-192 -1 -310 95t-118 255t119 241
t302 83q183 0 280 -92v129q-1 80 -49 132t-134 52q-133 0 -186 -98h-258q37 156 155 237t291 81q213 0 328 -132q117 132 348 132q232 0 356 -132t123 -335v-187h-696v-26q0 -102 55 -168q54 -66 154 -66t158 38q57 38 78 97h243q-29 -147 -158 -241t-305 -95z" />
    <glyph glyph-name="ccedilla" unicode="&#xe7;" horiz-adv-x="1169" 
d="M840 -219q0 -74 -62 -118t-160 -44q-100 0 -155 12v113q47 -10 96 -10q82 0 82 43t-76 49l-73 6l32 148q-206 18 -320 148t-114 329v151q0 215 134 348q134 134 358 134t357 -119q134 -119 140 -303h-254q-10 86 -65 141t-165 55t-168 -66t-58 -180v-172q0 -114 58 -180
q57 -66 167 -66t166 56q55 55 65 141h254q-6 -171 -121 -285t-299 -132l-10 -54l33 -4q158 -20 158 -141z" />
    <glyph glyph-name="egrave" unicode="&#xe8;" horiz-adv-x="1146" 
d="M449 1186l-213 315h344l149 -315h-280zM360 643v-10h441v26q1 104 -55 169t-168 65q-112 1 -164 -67q-54 -68 -54 -183zM586 -25q-227 0 -362 126q-134 126 -134 350v145q0 223 129 358q129 136 359 136t355 -132q124 -132 124 -335v-187h-697v-26q0 -102 56 -168
t154 -66q100 0 157 38t78 97h244q-29 -147 -158 -241t-305 -95z" />
    <glyph glyph-name="eacute" unicode="&#xe9;" horiz-adv-x="1146" 
d="M442 1186l150 315h344l-217 -315h-277zM360 643v-10h441v26q1 104 -55 169t-168 65q-112 1 -164 -67q-54 -68 -54 -183zM586 -25q-227 0 -362 126q-134 126 -134 350v145q0 223 129 358q129 136 359 136t355 -132q124 -132 124 -335v-187h-697v-26q0 -102 56 -168
t154 -66q100 0 157 38t78 97h244q-29 -147 -158 -241t-305 -95z" />
    <glyph glyph-name="ecircumflex" unicode="&#xea;" horiz-adv-x="1146" 
d="M721 1501l229 -315h-254l-110 157l-111 -157h-254l230 315h270zM360 643v-10h441v26q1 104 -55 169t-168 65q-112 1 -164 -67q-54 -68 -54 -183zM586 -25q-227 0 -362 126q-134 126 -134 350v145q0 223 129 358q129 136 359 136t355 -132q124 -132 124 -335v-187h-697
v-26q0 -102 56 -168t154 -66q100 0 157 38t78 97h244q-29 -147 -158 -241t-305 -95z" />
    <glyph glyph-name="edieresis" unicode="&#xeb;" horiz-adv-x="1146" 
d="M645 1341q0 63 42 107t108 43q65 0 107 -43q42 -42 42 -106t-42 -107t-108 -43t-107 43q-42 43 -42 106zM215 1341q0 63 42 107t108 43q65 0 107 -43q42 -42 42 -106t-42 -107t-108 -43t-107 43q-42 43 -42 106zM360 643v-10h441v26q1 104 -55 169t-168 65
q-112 1 -164 -67q-54 -68 -54 -183zM586 -25q-227 0 -362 126q-134 126 -134 350v145q0 223 129 358q129 136 359 136t355 -132q124 -132 124 -335v-187h-697v-26q0 -102 56 -168t154 -66q100 0 157 38t78 97h244q-29 -147 -158 -241t-305 -95z" />
    <glyph glyph-name="igrave" unicode="&#xec;" 
d="M139 1186l-213 315h344l150 -315h-281zM143 0v1065h279v-1065h-279z" />
    <glyph glyph-name="iacute" unicode="&#xed;" 
d="M156 1186l149 315h344l-217 -315h-276zM143 0v1065h279v-1065h-279z" />
    <glyph glyph-name="icircumflex" unicode="&#xee;" 
d="M418 1501l229 -315h-254l-110 157l-111 -157h-254l229 315h271zM143 0v1065h279v-1065h-279z" />
    <glyph glyph-name="idieresis" unicode="&#xef;" 
d="M348 1341q0 63 43 107t107 43q64 0 106 -43q43 -42 43 -106t-43 -107t-106 -43t-107 43q-43 43 -43 106zM-82 1341q0 63 43 107t107 43q64 0 106 -43q43 -42 43 -106t-43 -107t-106 -43t-107 43q-43 43 -43 106zM143 0v1065h279v-1065h-279z" />
    <glyph glyph-name="eth" unicode="&#xf0;" horiz-adv-x="1185" 
d="M594 188q108 0 168 65q61 65 61 171v154q0 118 -61 186t-171 68t-169 -68t-60 -191v-155q0 -102 62 -166t170 -64zM1096 616v-159q0 -213 -140 -349t-365 -136q-226 0 -364 132q-137 133 -137 338v129q0 207 117 338t315 131q160 0 252 -88q-78 143 -176 242l-279 -100
l-61 161l191 68q-90 68 -263 172h332q78 -43 148 -94l231 84l59 -160l-143 -53q283 -293 283 -656z" />
    <glyph glyph-name="ntilde" unicode="&#xf1;" horiz-adv-x="1220" 
d="M449 1489q59 0 179 -44t146 -44t45 17q17 18 23 30t18 49l172 -53q-57 -194 -137 -234q-39 -18 -90 -18t-170 44t-159 44t-56 -22t-31 -76l-174 43q19 127 71 195t163 69zM137 0v1065h266v-127q82 152 314 152q174 0 275 -109t102 -299v-682h-279v637q0 95 -48 153
t-145 58q-98 0 -152 -55t-54 -162v-631h-279z" />
    <glyph glyph-name="ograve" unicode="&#xf2;" horiz-adv-x="1183" 
d="M449 1186l-213 315h344l149 -315h-280zM823 438v189q0 109 -58 177t-173 66q-115 0 -173 -68t-59 -175v-189q0 -108 58 -176t174 -68q115 0 173 68q58 67 58 176zM592 -25q-234 -1 -368 135t-134 347v151q0 211 134 346q134 136 368 136t367 -136q134 -136 135 -346v-151
q0 -211 -134 -347t-368 -135z" />
    <glyph glyph-name="oacute" unicode="&#xf3;" horiz-adv-x="1183" 
d="M455 1186l149 315h344l-217 -315h-276zM823 438v189q0 109 -58 177t-173 66q-115 0 -173 -68t-59 -175v-189q0 -108 58 -176t174 -68q115 0 173 68q58 67 58 176zM592 -25q-234 -1 -368 135t-134 347v151q0 211 134 346q134 136 368 136t367 -136q134 -136 135 -346v-151
q0 -211 -134 -347t-368 -135z" />
    <glyph glyph-name="ocircumflex" unicode="&#xf4;" horiz-adv-x="1183" 
d="M727 1501l229 -315h-254l-110 157l-111 -157h-254l230 315h270zM823 438v189q0 109 -58 177t-173 66q-115 0 -173 -68t-59 -175v-189q0 -108 58 -176t174 -68q115 0 173 68q58 67 58 176zM592 -25q-234 -1 -368 135t-134 347v151q0 211 134 346q134 136 368 136t367 -136
q134 -136 135 -346v-151q0 -211 -134 -347t-368 -135z" />
    <glyph glyph-name="otilde" unicode="&#xf5;" horiz-adv-x="1183" 
d="M428 1489q59 0 179 -44t147 -44t45 17q18 18 23 30t18 49l172 -53q-57 -195 -138 -234q-39 -18 -90 -18t-170 44q-118 44 -158 44t-56 -22t-31 -76l-174 43q18 127 70 195t163 69zM823 438v189q0 109 -58 177t-173 66q-115 0 -173 -68t-59 -175v-189q0 -108 58 -176
t174 -68q115 0 173 68q58 67 58 176zM592 -25q-234 -1 -368 135t-134 347v151q0 211 134 346q134 136 368 136t367 -136q134 -136 135 -346v-151q0 -211 -134 -347t-368 -135z" />
    <glyph glyph-name="odieresis" unicode="&#xf6;" horiz-adv-x="1183" 
d="M657 1341q0 63 42 107t108 43q65 0 107 -43q42 -42 42 -106t-42 -107t-108 -43t-107 43q-42 43 -42 106zM227 1341q0 63 42 107t108 43q65 0 107 -43q42 -42 42 -106t-42 -107t-108 -43t-107 43q-42 43 -42 106zM823 438v189q0 109 -58 177t-173 66q-115 0 -173 -68
t-59 -175v-189q0 -108 58 -176t174 -68q115 0 173 68q58 67 58 176zM592 -25q-234 -1 -368 135t-134 347v151q0 211 134 346q134 136 368 136t367 -136q134 -136 135 -346v-151q0 -211 -134 -347t-368 -135z" />
    <glyph glyph-name="divide" unicode="&#xf7;" horiz-adv-x="1224" 
d="M457 1147q0 70 43 113q42 43 112 43t113 -43t43 -113t-43 -113t-113 -43t-112 43t-43 113zM457 328q0 70 43 112q42 42 112 43q70 0 113 -43q43 -42 43 -112t-43 -113t-113 -43t-112 43t-43 113zM143 618v238h938v-238h-938z" />
    <glyph glyph-name="oslash" unicode="&#xf8;" horiz-adv-x="1183" 
d="M823 438v189q0 59 -18 108l-342 -510q49 -31 129 -30q115 0 173 67t58 176zM360 438q0 -61 19 -110l342 510q-55 33 -129 32q-115 0 -173 -68t-59 -175v-189zM592 -25q-150 0 -260 58l-90 -135h-152l139 206q-139 133 -139 353v151q0 211 134 346t368 136q147 0 258 -58
l92 135h152l-140 -209q139 -133 140 -350v-151q0 -211 -134 -347t-368 -135z" />
    <glyph glyph-name="ugrave" unicode="&#xf9;" horiz-adv-x="1212" 
d="M500 1186l-213 315h344l149 -315h-280zM1075 1065v-1065h-266v127q-37 -68 -122 -110t-187 -42q-176 0 -275 112q-98 112 -98 296v682h279v-643q0 -213 188 -213q96 0 149 57t54 158v641h278z" />
    <glyph glyph-name="uacute" unicode="&#xfa;" horiz-adv-x="1212" 
d="M444 1186l150 315h344l-217 -315h-277zM1075 1065v-1065h-266v127q-37 -68 -122 -110t-187 -42q-176 0 -275 112q-98 112 -98 296v682h279v-643q0 -213 188 -213q96 0 149 57t54 158v641h278z" />
    <glyph glyph-name="ucircumflex" unicode="&#xfb;" horiz-adv-x="1212" 
d="M754 1501l229 -315h-254l-111 157l-110 -157h-254l229 315h271zM1075 1065v-1065h-266v127q-37 -68 -122 -110t-187 -42q-176 0 -275 112q-98 112 -98 296v682h279v-643q0 -213 188 -213q96 0 149 57t54 158v641h278z" />
    <glyph glyph-name="udieresis" unicode="&#xfc;" horiz-adv-x="1212" 
d="M688 1341q0 63 43 107t107 43q64 0 106 -43q43 -42 43 -106t-43 -107t-106 -43t-107 43q-43 43 -43 106zM258 1341q0 63 43 107t107 43q64 0 106 -43q43 -42 43 -106t-43 -107t-106 -43t-107 43q-43 43 -43 106zM1075 1065v-1065h-266v127q-37 -68 -122 -110t-187 -42
q-176 0 -275 112q-98 112 -98 296v682h279v-643q0 -213 188 -213q96 0 149 57t54 158v641h278z" />
    <glyph glyph-name="yacute" unicode="&#xfd;" horiz-adv-x="1046" 
d="M391 1186l150 315h344l-217 -315h-277zM559 -356h-274l106 360l-368 1061h278l229 -764l218 764h276z" />
    <glyph glyph-name="thorn" unicode="&#xfe;" horiz-adv-x="1257" 
d="M889 608q-1 112 -61 184t-170 72t-177 -72q-66 -72 -65 -184v-155q0 -117 66 -185t174 -68t170 72q62 70 63 185v151zM723 1090q207 0 326 -136t118 -333v-177q1 -200 -119 -334t-329 -134t-303 139v-471h-279v1851h279v-541q100 136 307 136z" />
    <glyph glyph-name="ydieresis" unicode="&#xff;" horiz-adv-x="1046" 
d="M606 1341q0 63 43 107t107 43q64 0 106 -43q43 -42 43 -106t-43 -107t-106 -43t-107 43q-43 43 -43 106zM176 1341q0 63 43 107t107 43q64 0 106 -43q43 -42 43 -106t-43 -107t-106 -43t-107 43q-43 43 -43 106zM559 -356h-274l106 360l-368 1061h278l229 -764l218 764
h276z" />
    <glyph glyph-name="Amacron" unicode="&#x100;" horiz-adv-x="1413" 
d="M322 1581v223h770v-223h-770zM707 1176l-207 -648h411zM852 1434l514 -1434h-285l-96 301h-557l-96 -301h-285l514 1434h291z" />
    <glyph glyph-name="amacron" unicode="&#x101;" horiz-adv-x="1198" 
d="M281 1227v219h696v-219h-696zM568 160q91 0 158 45t67 113q-1 68 -61 109q-60 40 -158 40t-155 -39t-57 -112q0 -72 58 -114t148 -42zM496 -25q-182 -1 -293 89t-111 250t116 246q116 85 296 85t289 -90v145q-1 76 -51 124t-134 48q-133 0 -184 -100h-258q45 154 164 236
q118 82 306 82t312 -113t123 -297v-680h-268v98q-37 -53 -125 -88t-182 -35z" />
    <glyph glyph-name="Abreve" unicode="&#x102;" horiz-adv-x="1413" 
d="M707 1542q-160 0 -265 77q-104 77 -104 212h217q0 -55 41 -90t111 -35q71 0 111 35t40 90h217q0 -135 -104 -212t-264 -77zM707 1176l-207 -648h411zM852 1434l514 -1434h-285l-96 301h-557l-96 -301h-285l514 1434h291z" />
    <glyph glyph-name="abreve" unicode="&#x103;" horiz-adv-x="1198" 
d="M647 1186q-164 0 -263 84t-99 231h204q0 -69 42 -109t116 -40t116 41t42 108h205q0 -147 -100 -231t-263 -84zM568 160q91 0 158 45t67 113q-1 68 -61 109q-60 40 -158 40t-155 -39t-57 -112q0 -72 58 -114t148 -42zM496 -25q-182 -1 -293 89t-111 250t116 246
q116 85 296 85t289 -90v145q-1 76 -51 124t-134 48q-133 0 -184 -100h-258q45 154 164 236q118 82 306 82t312 -113t123 -297v-680h-268v98q-37 -53 -125 -88t-182 -35z" />
    <glyph glyph-name="Aogonek" unicode="&#x104;" horiz-adv-x="1417" 
d="M707 1176l-207 -648h411zM1189 -381q-89 0 -147 50q-57 51 -57 149t96 182l-96 301h-557l-96 -301h-285l514 1434h291l514 -1434q-40 -25 -64 -44t-46 -51t-21 -67q0 -57 70 -57q31 0 51 6v-147q-78 -21 -167 -21z" />
    <glyph glyph-name="aogonek" unicode="&#x105;" horiz-adv-x="1198" 
d="M568 160q91 0 158 45t67 113q-1 68 -61 109q-60 40 -158 40t-155 -39t-57 -112q0 -72 58 -114t148 -42zM496 -25q-182 -1 -293 89t-111 250t116 246q116 85 296 85t289 -90v145q-1 76 -51 124t-134 48q-133 0 -184 -100h-258q45 154 164 236q118 82 306 82t312 -113
t123 -297v-680q-37 -27 -59 -45t-44 -51t-22 -66q0 -57 70 -57q31 0 51 6v-147q-78 -20 -168 -20t-146 47q-57 48 -57 142t107 191v98q-37 -53 -125 -88t-182 -35z" />
    <glyph glyph-name="Cacute" unicode="&#x106;" horiz-adv-x="1445" 
d="M584 1542l141 289h342l-201 -289h-282zM741 -29q-311 0 -469 177t-157 466v205q0 289 157 466q158 177 469 177q264 0 427 -156t173 -382h-266q-14 131 -98 217t-246 86q-162 -1 -247 -107t-85 -286v-234q0 -180 85 -286t247 -107q162 0 246 86t98 217h266
q-10 -227 -173 -383t-427 -156z" />
    <glyph glyph-name="cacute" unicode="&#x107;" horiz-adv-x="1169" 
d="M459 1186l149 315h344l-217 -315h-276zM582 -25q-224 -1 -358 133t-134 349v151q0 215 134 348q134 134 358 134t357 -119q134 -119 140 -303h-254q-10 86 -65 141t-165 55t-168 -66t-58 -180v-172q0 -114 58 -180q57 -66 167 -66t166 56q55 55 65 141h254
q-6 -184 -140 -303q-133 -119 -357 -119z" />
    <glyph glyph-name="Ccircumflex" unicode="&#x108;" horiz-adv-x="1445" 
d="M891 1831l242 -289h-269l-110 137l-111 -137h-268l241 289h275zM741 -29q-311 0 -469 177t-157 466v205q0 289 157 466q158 177 469 177q264 0 427 -156t173 -382h-266q-14 131 -98 217t-246 86q-162 -1 -247 -107t-85 -286v-234q0 -180 85 -286t247 -107q162 0 246 86
t98 217h266q-10 -227 -173 -383t-427 -156z" />
    <glyph glyph-name="ccircumflex" unicode="&#x109;" horiz-adv-x="1169" 
d="M731 1501l230 -315h-254l-111 157l-111 -157h-254l230 315h270zM582 -25q-224 -1 -358 133t-134 349v151q0 215 134 348q134 134 358 134t357 -119q134 -119 140 -303h-254q-10 86 -65 141t-165 55t-168 -66t-58 -180v-172q0 -114 58 -180q57 -66 167 -66t166 56
q55 55 65 141h254q-6 -184 -140 -303q-133 -119 -357 -119z" />
    <glyph glyph-name="Cdotaccent" unicode="&#x10a;" horiz-adv-x="1445" 
d="M582 1704q0 70 46 116t116 46t115 -46q46 -46 46 -116t-46 -116t-116 -46q-69 0 -115 46t-46 116zM741 -29q-311 0 -469 177t-157 466v205q0 289 157 466q158 177 469 177q264 0 427 -156t173 -382h-266q-14 131 -98 217t-246 86q-162 -1 -247 -107t-85 -286v-234
q0 -180 85 -286t247 -107q162 0 246 86t98 217h266q-10 -227 -173 -383t-427 -156z" />
    <glyph glyph-name="cdotaccent" unicode="&#x10b;" horiz-adv-x="1169" 
d="M434 1348q0 70 46 116t116 45q70 0 116 -46q46 -45 46 -115t-46 -116t-116 -46t-116 46t-46 116zM582 -25q-224 -1 -358 133t-134 349v151q0 215 134 348q134 134 358 134t357 -119q134 -119 140 -303h-254q-10 86 -65 141t-165 55t-168 -66t-58 -180v-172
q0 -114 58 -180q57 -66 167 -66t166 56q55 55 65 141h254q-6 -184 -140 -303q-133 -119 -357 -119z" />
    <glyph glyph-name="Ccaron" unicode="&#x10c;" horiz-adv-x="1445" 
d="M1130 1831l-241 -289h-275l-241 289h268l111 -137l110 137h268zM741 -29q-311 0 -469 177t-157 466v205q0 289 157 466q158 177 469 177q264 0 427 -156t173 -382h-266q-14 131 -98 217t-246 86q-162 -1 -247 -107t-85 -286v-234q0 -180 85 -286t247 -107q162 0 246 86
t98 217h266q-10 -227 -173 -383t-427 -156z" />
    <glyph glyph-name="ccaron" unicode="&#x10d;" horiz-adv-x="1169" 
d="M973 1501l-230 -315h-270l-229 315h254l110 -158l111 158h254zM582 -25q-224 -1 -358 133t-134 349v151q0 215 134 348q134 134 358 134t357 -119q134 -119 140 -303h-254q-10 86 -65 141t-165 55t-168 -66t-58 -180v-172q0 -114 58 -180q57 -66 167 -66t166 56
q55 55 65 141h254q-6 -184 -140 -303q-133 -119 -357 -119z" />
    <glyph glyph-name="Dcaron" unicode="&#x10e;" horiz-adv-x="1439" 
d="M1092 1831l-242 -289h-275l-241 289h268l111 -137l110 137h269zM1042 561v311q0 158 -90 243t-262 85h-248v-967h248q172 0 262 85t90 243zM158 1434h581q281 0 435 -156t153 -408v-307q1 -251 -153 -407t-435 -156h-581v1434z" />
    <glyph glyph-name="dcaron" unicode="&#x10f;" horiz-adv-x="1626" 
d="M369 457q0 -113 60 -185q61 -72 171 -71q110 -1 176 71t66 185v155q0 117 -67 185q-67 67 -175 67t-169 -70q-62 -70 -62 -186v-151zM539 -25q-207 -1 -328 135t-121 334v177q0 201 120 335t324 134t308 -140v545h278v-1495h-266v127q-42 -66 -124 -109t-191 -43z
M1272 1038l82 457h303l-160 -457h-225z" />
    <glyph glyph-name="Dcroat" unicode="&#x110;" horiz-adv-x="1513" 
d="M1106 561v311q0 158 -90 243t-262 85h-248v-364h311v-238h-311v-365h248q172 0 262 85t90 243zM68 598v238h153v598h582q281 0 435 -156t153 -408v-307q0 -251 -154 -407t-434 -156h-582v598h-153z" />
    <glyph glyph-name="dcroat" unicode="&#x111;" horiz-adv-x="1271" 
d="M369 457q0 -113 60 -185q61 -72 171 -71q110 -1 176 71t66 185v155q0 117 -67 185q-67 67 -175 67t-169 -70q-62 -70 -62 -186v-151zM539 -25q-207 -1 -328 135t-121 334v177q0 201 120 335t324 134t308 -140v209h-205v191h205v145h278v-145h121v-191h-121v-1159h-266
v127q-42 -66 -124 -109t-191 -43z" />
    <glyph glyph-name="Emacron" unicode="&#x112;" horiz-adv-x="1265" 
d="M279 1581v223h770v-223h-770zM158 0v1434h1003v-238h-717v-350h656v-240h-656v-368h719v-238h-1005z" />
    <glyph glyph-name="emacron" unicode="&#x113;" horiz-adv-x="1146" 
d="M238 1227v219h696v-219h-696zM360 643v-10h441v26q1 104 -55 169t-168 65q-112 1 -164 -67q-54 -68 -54 -183zM586 -25q-227 0 -362 126q-134 126 -134 350v145q0 223 129 358q129 136 359 136t355 -132q124 -132 124 -335v-187h-697v-26q0 -102 56 -168t154 -66
q100 0 157 38t78 97h244q-29 -147 -158 -241t-305 -95z" />
    <glyph glyph-name="Ebreve" unicode="&#x114;" horiz-adv-x="1265" 
d="M688 1542q-160 0 -264 77t-105 212h218q0 -55 41 -90q40 -35 110 -35t111 35t41 90h217q-1 -135 -105 -212t-264 -77zM158 0v1434h1003v-238h-717v-350h656v-240h-656v-368h719v-238h-1005z" />
    <glyph glyph-name="ebreve" unicode="&#x115;" horiz-adv-x="1146" 
d="M598 1186q-164 0 -263 84t-99 231h204q0 -69 42 -109t116 -40t116 41t42 108h205q1 -147 -99 -231t-264 -84zM360 643v-10h441v26q1 104 -55 169t-168 65q-112 1 -164 -67q-54 -68 -54 -183zM586 -25q-227 0 -362 126q-134 126 -134 350v145q0 223 129 358
q129 136 359 136t355 -132q124 -132 124 -335v-187h-697v-26q0 -102 56 -168t154 -66q100 0 157 38t78 97h244q-29 -147 -158 -241t-305 -95z" />
    <glyph glyph-name="Edotaccent" unicode="&#x116;" horiz-adv-x="1265" 
d="M512 1704q0 70 46 116t116 46t116 -46t46 -116t-46 -116t-116 -46t-116 46t-46 116zM158 0v1434h1003v-238h-717v-350h656v-240h-656v-368h719v-238h-1005z" />
    <glyph glyph-name="edotaccent" unicode="&#x117;" horiz-adv-x="1146" 
d="M414 1348q0 70 46 116t116 45q70 0 115 -46q46 -45 46 -115t-46 -116t-116 -46q-69 0 -115 46t-46 116zM360 643v-10h441v26q1 104 -55 169t-168 65q-112 1 -164 -67q-54 -68 -54 -183zM586 -25q-227 0 -362 126q-134 126 -134 350v145q0 223 129 358q129 136 359 136
t355 -132q124 -132 124 -335v-187h-697v-26q0 -102 56 -168t154 -66q100 0 157 38t78 97h244q-29 -147 -158 -241t-305 -95z" />
    <glyph glyph-name="Eogonek" unicode="&#x118;" horiz-adv-x="1265" 
d="M158 0v1434h1003v-238h-717v-350h656v-240h-656v-368h719v-238q-125 -78 -125 -162q0 -57 70 -57q31 0 51 6v-147q-78 -20 -169 -20t-146 47q-55 48 -56 132q0 123 107 201h-737z" />
    <glyph glyph-name="eogonek" unicode="&#x119;" horiz-adv-x="1146" 
d="M360 643v-10h441v26q1 104 -55 169t-168 65q-112 1 -164 -67q-54 -68 -54 -183zM586 -25q-227 0 -362 126q-134 126 -134 350v145q0 223 129 358q129 136 359 136t355 -132q124 -132 124 -335v-187h-697v-26q0 -102 56 -168t154 -66q100 0 157 38t78 97h244
q-20 -102 -125 -215q-162 -168 -162 -258q0 -57 69 -57q29 0 52 6v-147q-78 -20 -169 -20t-147 44q-55 45 -55 129q0 106 121 184q-12 -2 -47 -2z" />
    <glyph glyph-name="Ecaron" unicode="&#x11a;" horiz-adv-x="1265" 
d="M1069 1831l-242 -289h-274l-242 289h269l110 -137l111 137h268zM158 0v1434h1003v-238h-717v-350h656v-240h-656v-368h719v-238h-1005z" />
    <glyph glyph-name="ecaron" unicode="&#x11b;" horiz-adv-x="1146" 
d="M956 1501l-229 -315h-270l-230 315h254l111 -158l110 158h254zM360 643v-10h441v26q1 104 -55 169t-168 65q-112 1 -164 -67q-54 -68 -54 -183zM586 -25q-227 0 -362 126q-134 126 -134 350v145q0 223 129 358q129 136 359 136t355 -132q124 -132 124 -335v-187h-697v-26
q0 -102 56 -168t154 -66q100 0 157 38t78 97h244q-29 -147 -158 -241t-305 -95z" />
    <glyph glyph-name="Gcircumflex" unicode="&#x11c;" horiz-adv-x="1464" 
d="M883 1831l241 -289h-268l-111 137l-110 -137h-268l241 289h275zM732 1227q-159 -1 -246 -105t-87 -288v-226q0 -190 84 -299t249 -109t251 83q86 82 86 204v21h-321v233h602v-186q0 -260 -167 -422t-457 -162q-290 1 -451 181t-160 462v209q0 293 165 466t446 173
t442 -144t167 -372h-272q-4 119 -88 200t-243 81z" />
    <glyph glyph-name="gcircumflex" unicode="&#x11d;" horiz-adv-x="1249" 
d="M778 1501l230 -315h-254l-111 157l-111 -157h-253l229 315h270zM590 272q106 0 175 62t69 172v123q0 106 -66 172q-66 65 -174 65t-167 -63q-60 -63 -60 -174v-123q0 -104 58 -169q59 -65 165 -65zM1112 23q0 -172 -144 -288t-352 -116q-207 0 -345 85t-169 233h271
q53 -106 229 -107q106 0 169 53q62 53 63 144v168q-37 -59 -122 -103t-184 -43q-206 0 -322 128t-116 315v155q0 187 116 315t324 128q115 0 200 -48t116 -106v129h266v-1042z" />
    <glyph glyph-name="Gbreve" unicode="&#x11e;" horiz-adv-x="1464" 
d="M748 1542q-160 0 -265 77q-104 77 -104 212h217q0 -55 41 -90t111 -35t110 35t41 90h217q0 -135 -104 -212t-264 -77zM732 1227q-159 -1 -246 -105t-87 -288v-226q0 -190 84 -299t249 -109t251 83q86 82 86 204v21h-321v233h602v-186q0 -260 -167 -422t-457 -162
q-290 1 -451 181t-160 462v209q0 293 165 466t446 173t442 -144t167 -372h-272q-4 119 -88 200t-243 81z" />
    <glyph glyph-name="gbreve" unicode="&#x11f;" horiz-adv-x="1249" 
d="M623 1186q-164 0 -264 84q-99 84 -99 231h205q0 -69 42 -109t116 -40q73 0 115 41t42 108h205q0 -147 -99 -231t-263 -84zM590 272q106 0 175 62t69 172v123q0 106 -66 172q-66 65 -174 65t-167 -63q-60 -63 -60 -174v-123q0 -104 58 -169q59 -65 165 -65zM1112 23
q0 -172 -144 -288t-352 -116q-207 0 -345 85t-169 233h271q53 -106 229 -107q106 0 169 53q62 53 63 144v168q-37 -59 -122 -103t-184 -43q-206 0 -322 128t-116 315v155q0 187 116 315t324 128q115 0 200 -48t116 -106v129h266v-1042z" />
    <glyph glyph-name="Gdotaccent" unicode="&#x120;" horiz-adv-x="1464" 
d="M573 1704q1 70 47 116t116 46t115 -46q46 -46 46 -116t-46 -116t-116 -46t-116 46t-46 116zM732 1227q-159 -1 -246 -105t-87 -288v-226q0 -190 84 -299t249 -109t251 83q86 82 86 204v21h-321v233h602v-186q0 -260 -167 -422t-457 -162q-290 1 -451 181t-160 462v209
q0 293 165 466t446 173t442 -144t167 -372h-272q-4 119 -88 200t-243 81z" />
    <glyph glyph-name="gdotaccent" unicode="&#x121;" horiz-adv-x="1249" 
d="M455 1348q0 70 46 116q45 46 115 45q70 0 116 -46q46 -45 46 -115t-46 -116t-116 -46t-116 46t-45 116zM590 272q106 0 175 62t69 172v123q0 106 -66 172q-66 65 -174 65t-167 -63q-60 -63 -60 -174v-123q0 -104 58 -169q59 -65 165 -65zM1112 23q0 -172 -144 -288
t-352 -116q-207 0 -345 85t-169 233h271q53 -106 229 -107q106 0 169 53q62 53 63 144v168q-37 -59 -122 -103t-184 -43q-206 0 -322 128t-116 315v155q0 187 116 315t324 128q115 0 200 -48t116 -106v129h266v-1042z" />
    <glyph glyph-name="Gcommaaccent" unicode="&#x122;" horiz-adv-x="1464" 
d="M530 -512l64 362h315l-143 -362h-236zM732 1227q-159 -1 -246 -105t-87 -288v-226q0 -190 84 -299t249 -109t251 83q86 82 86 204v21h-321v233h602v-186q0 -260 -167 -422t-457 -162q-290 1 -451 181t-160 462v209q0 293 165 466t446 173t442 -144t167 -372h-272
q-4 119 -88 200t-243 81z" />
    <glyph glyph-name="gcommaaccent" unicode="&#x123;" horiz-adv-x="1249" 
d="M459 1186l151 315h275l-82 -315h-344zM590 272q106 0 175 62t69 172v123q0 106 -66 172q-66 65 -174 65t-167 -63q-60 -63 -60 -174v-123q0 -104 58 -169q59 -65 165 -65zM1112 23q0 -172 -144 -288t-352 -116q-207 0 -345 85t-169 233h271q53 -106 229 -107
q106 0 169 53q62 53 63 144v168q-37 -59 -122 -103t-184 -43q-206 0 -322 128t-116 315v155q0 187 116 315t324 128q115 0 200 -48t116 -106v129h266v-1042z" />
    <glyph glyph-name="Hcircumflex" unicode="&#x124;" horiz-adv-x="1476" 
d="M874 1831l242 -289h-268l-111 137l-110 -137h-269l242 289h274zM158 0v1434h286v-588h588v588h287v-1434h-287v592h-588v-592h-286z" />
    <glyph glyph-name="hcircumflex" unicode="&#x125;" horiz-adv-x="1220" 
d="M420 1892l242 -288h-269l-110 137l-111 -137h-268l241 288h275zM137 0v1495h279v-557q43 70 122 111t179 41q174 0 275 -110t102 -298v-682h-279v637q0 95 -48 153t-145 58q-98 0 -152 -55t-54 -162v-631h-279z" />
    <glyph glyph-name="Hbar" unicode="&#x126;" horiz-adv-x="1611" 
d="M512 846h588v190h-588v-190zM70 1036v174h155v224h287v-224h588v224h286v-224h156v-174h-156v-1036h-286v592h-588v-592h-287v1036h-155z" />
    <glyph glyph-name="hbar" unicode="&#x127;" horiz-adv-x="1234" 
d="M31 1159v191h121v145h278v-145h205v-191h-205v-221q43 70 122 111t179 41q173 0 275 -110t102 -298v-682h-279v637q0 95 -48 153t-145 58q-98 0 -152 -55t-54 -162v-631h-278v1159h-121z" />
    <glyph glyph-name="Itilde" unicode="&#x128;" horiz-adv-x="622" 
d="M119 1841q74 0 214 -43q141 -43 157 -43q55 0 74 47q4 12 12 25t8 24l182 -51q-41 -139 -88 -197t-154 -59q-49 0 -190 43t-189 43q-63 0 -88 -96l-184 41q27 139 79 203t167 63zM168 0v1434h287v-1434h-287z" />
    <glyph glyph-name="itilde" unicode="&#x129;" 
d="M106 1489q60 0 180 -44t146 -44t45 17q17 18 23 30t18 49l172 -53q-57 -194 -137 -234q-39 -18 -90 -18t-170 44t-159 44t-56 -22t-31 -76l-174 43q19 127 71 195t162 69zM143 0v1065h279v-1065h-279z" />
    <glyph glyph-name="uni012A" unicode="&#x12a;" horiz-adv-x="622" 
d="M-74 1581v223h770v-223h-770zM168 0v1434h287v-1434h-287z" />
    <glyph glyph-name="imacron" unicode="&#x12b;" 
d="M-66 1227v219h697v-219h-697zM143 0v1065h279v-1065h-279z" />
    <glyph glyph-name="Ibreve" unicode="&#x12c;" horiz-adv-x="622" 
d="M311 1542q-160 0 -264 77t-104 212h217q0 -55 41 -90t111 -35t110 35q41 35 41 90h217q0 -135 -104 -212t-265 -77zM168 0v1434h287v-1434h-287z" />
    <glyph glyph-name="uni012D" unicode="&#x12d;" 
d="M283 1186q-164 0 -264 84q-99 84 -99 231h205q0 -69 42 -109t116 -40q73 0 115 41t42 108h205q0 -147 -99 -231t-263 -84zM143 0v1065h279v-1065h-279z" />
    <glyph glyph-name="Iogonek" unicode="&#x12e;" horiz-adv-x="622" 
d="M308 -381q-88 0 -148 54q-60 55 -60 147t68 180v1434h287v-1434q-105 -88 -105 -154t66 -65q12 0 33 4v-152q-53 -14 -141 -14z" />
    <glyph glyph-name="iogonek" unicode="&#x12f;" 
d="M121 1343q0 70 46 116t116 46q69 0 115 -46t46 -116q0 -69 -46 -115t-116 -46t-115 46q-46 46 -46 115zM273 -381q-84 0 -144 50q-59 50 -59 145t73 186v1065h279v-1065q-102 -92 -102 -156t63 -63q14 0 35 4v-152q-61 -14 -145 -14z" />
    <glyph glyph-name="Idotaccent" unicode="&#x130;" horiz-adv-x="622" 
d="M150 1704q0 70 46 116t116 46t115 -46q46 -46 46 -116t-46 -116t-116 -46q-69 0 -115 46t-46 116zM168 0v1434h287v-1434h-287z" />
    <glyph glyph-name="dotlessi" unicode="&#x131;" 
d="M143 0v1065h279v-1065h-279z" />
    <glyph glyph-name="IJ" unicode="&#x132;" horiz-adv-x="1867" 
d="M1716 422q0 -201 -142 -326t-374 -125q-231 0 -367 121t-137 328v20h273v-18q0 -98 61 -156t172 -57q111 0 169 57t59 156v1012h286v-1012zM168 0v1434h287v-1434h-287z" />
    <glyph glyph-name="ij" unicode="&#x133;" horiz-adv-x="1130" 
d="M686 1343q0 70 46 116t116 46t116 -46t46 -116q0 -69 -46 -115t-116 -46t-116 46t-46 115zM563 -356v215h64q43 0 62 15t20 54v1137h278v-1161q0 -260 -276 -260h-148zM121 1343q0 70 46 116t116 46q69 0 115 -46t46 -116q0 -69 -46 -115t-116 -46t-115 46
q-46 46 -46 115zM143 0v1065h279v-1065h-279z" />
    <glyph glyph-name="Jcircumflex" unicode="&#x134;" horiz-adv-x="1245" 
d="M1083 1831l242 -289h-268l-111 137l-110 -137h-269l242 289h274zM1094 422q0 -201 -142 -326t-374 -125q-231 0 -368 121q-136 121 -136 328v20h272v-18q0 -98 62 -156t172 -57q111 0 169 57t58 156v1012h287v-1012z" />
    <glyph glyph-name="jcircumflex" unicode="&#x135;" 
d="M418 1501l229 -315h-254l-110 157l-111 -157h-254l229 315h271zM-2 -356v215h63q43 0 63 15q19 15 19 54v1137h279v-1161q0 -260 -277 -260h-147z" />
    <glyph glyph-name="Kcommaaccent" unicode="&#x136;" horiz-adv-x="1333" 
d="M473 -512l64 362h315l-143 -362h-236zM158 0v1434h286v-689l506 689h334l-539 -711l555 -723h-337l-519 702v-702h-286z" />
    <glyph glyph-name="kcommaaccent" unicode="&#x137;" horiz-adv-x="1114" 
d="M373 -512l63 362h316l-144 -362h-235zM137 0v1495h279v-926l338 496h317l-366 -520l378 -545h-317l-350 520v-520h-279z" />
    <glyph glyph-name="kgreenlandic" unicode="&#x138;" horiz-adv-x="1114" 
d="M137 0v1065h279v-496l338 496h317l-366 -520l378 -545h-317l-350 520v-520h-279z" />
    <glyph glyph-name="Lacute" unicode="&#x139;" horiz-adv-x="1187" 
d="M174 1542l141 289h342l-200 -289h-283zM158 0v1434h286v-1196h660v-238h-946z" />
    <glyph glyph-name="lacute" unicode="&#x13a;" 
d="M152 1604l141 288h342l-201 -288h-282zM143 0v1495h279v-1495h-279z" />
    <glyph glyph-name="Lcommaaccent" unicode="&#x13b;" horiz-adv-x="1187" 
d="M424 -512l63 362h316l-144 -362h-235zM158 0v1434h286v-1196h660v-238h-946z" />
    <glyph glyph-name="lcommaaccent" unicode="&#x13c;" 
d="M55 -512l64 362h315l-143 -362h-236zM143 0v1495h279v-1495h-279z" />
    <glyph glyph-name="Lcaron" unicode="&#x13d;" horiz-adv-x="1187" 
d="M158 0v1434h286v-1196h660v-238h-946zM668 977l82 457h303l-160 -457h-225z" />
    <glyph glyph-name="lcaron" unicode="&#x13e;" horiz-adv-x="931" 
d="M147 0v1495h279v-1495h-279zM578 1038l81 457h304l-160 -457h-225z" />
    <glyph glyph-name="Ldot" unicode="&#x13f;" horiz-adv-x="1187" 
d="M629 709q0 71 44 115q43 44 115 44t116 -44t44 -116t-44 -115q-44 -44 -116 -44t-116 44t-43 116zM158 0v1434h286v-1196h660v-238h-946z" />
    <glyph glyph-name="ldot" unicode="&#x140;" horiz-adv-x="929" 
d="M559 600q0 72 44 116t116 44t116 -44t44 -116t-44 -116t-116 -44t-116 44t-44 116zM147 0v1495h279v-1495h-279z" />
    <glyph glyph-name="Lslash" unicode="&#x141;" horiz-adv-x="1216" 
d="M186 1434h287v-514l277 165v-254l-277 -165v-428h660v-238h-947v492l-145 -86v253l145 86v689z" />
    <glyph glyph-name="lslash" unicode="&#x142;" horiz-adv-x="600" 
d="M150 1495h278v-510l123 100v-272l-123 -100v-713h-278v485l-101 -82v273l101 82v737z" />
    <glyph glyph-name="Nacute" unicode="&#x143;" horiz-adv-x="1492" 
d="M588 1542l141 289h342l-201 -289h-282zM158 0v1434h272l625 -955v955h280v-1434h-272l-625 954v-954h-280z" />
    <glyph glyph-name="nacute" unicode="&#x144;" horiz-adv-x="1220" 
d="M477 1186l150 315h344l-217 -315h-277zM137 0v1065h266v-127q82 152 314 152q174 0 275 -109t102 -299v-682h-279v637q0 95 -48 153t-145 58q-98 0 -152 -55t-54 -162v-631h-279z" />
    <glyph glyph-name="Ncommaaccent" unicode="&#x145;" horiz-adv-x="1492" 
d="M541 -512l63 362h316l-144 -362h-235zM158 0v1434h272l625 -955v955h280v-1434h-272l-625 954v-954h-280z" />
    <glyph glyph-name="ncommaaccent" unicode="&#x146;" horiz-adv-x="1220" 
d="M406 -512l63 362h315l-143 -362h-235zM137 0v1065h266v-127q82 152 314 152q174 0 275 -109t102 -299v-682h-279v637q0 95 -48 153t-145 58q-98 0 -152 -55t-54 -162v-631h-279z" />
    <glyph glyph-name="Ncaron" unicode="&#x147;" horiz-adv-x="1492" 
d="M1126 1831l-241 -289h-275l-241 289h268l111 -137l110 137h268zM158 0v1434h272l625 -955v955h280v-1434h-272l-625 954v-954h-280z" />
    <glyph glyph-name="ncaron" unicode="&#x148;" horiz-adv-x="1220" 
d="M979 1501l-229 -315h-271l-229 315h254l110 -158l111 158h254zM137 0v1065h266v-127q82 152 314 152q174 0 275 -109t102 -299v-682h-279v637q0 95 -48 153t-145 58q-98 0 -152 -55t-54 -162v-631h-279z" />
    <glyph glyph-name="napostrophe" unicode="&#x149;" horiz-adv-x="1499" 
d="M416 0v1065h266v-127q82 152 313 152q173 0 275 -109t102 -299v-682h-278v637q0 95 -48 153t-146 58t-151 -55q-54 -55 -55 -162v-631h-278zM0 1038l82 457h303l-160 -457h-225z" />
    <glyph glyph-name="Eng" unicode="&#x14a;" horiz-adv-x="1492" 
d="M158 0v1434h272l625 -955v955h280v-1440q0 -178 -89 -264t-298 -86h-117v221h87q74 0 106 29t31 94v24l-617 942v-954h-280z" />
    <glyph glyph-name="eng" unicode="&#x14b;" horiz-adv-x="1220" 
d="M137 0v1065h266v-127q82 152 314 152q174 0 275 -109t102 -299v-707q0 -167 -89 -249t-290 -82h-107v215h76q131 0 131 127v651q0 95 -48 153t-145 58q-98 0 -152 -55t-54 -162v-631h-279z" />
    <glyph glyph-name="Omacron" unicode="&#x14c;" horiz-adv-x="1507" 
d="M369 1581v223h770v-223h-770zM754 209q174 0 263 105t89 284v238q0 178 -89 283t-263 105t-264 -104q-90 -106 -89 -284v-238q0 -178 89 -284q90 -105 264 -105zM1393 821v-209q0 -284 -166 -462t-472 -178t-473 178t-167 462v209q0 285 167 463t473 178t472 -178
t166 -463z" />
    <glyph glyph-name="omacron" unicode="&#x14d;" horiz-adv-x="1183" 
d="M823 438v189q0 109 -58 177t-173 66q-115 0 -173 -68t-59 -175v-189q0 -108 58 -176t174 -68q115 0 173 68q58 67 58 176zM592 -25q-234 -1 -368 135t-134 347v151q0 211 134 346q134 136 368 136t367 -136q134 -136 135 -346v-151q0 -211 -134 -347t-368 -135zM244 1227
v219h696v-219h-696z" />
    <glyph glyph-name="Obreve" unicode="&#x14e;" horiz-adv-x="1507" 
d="M756 1542q-160 0 -264 77t-105 212h217q0 -55 41 -90t111 -35t110 35t41 90h217q0 -135 -104 -212t-264 -77zM754 209q174 0 263 105t89 284v238q0 178 -89 283t-263 105t-264 -104q-90 -106 -89 -284v-238q0 -178 89 -284q90 -105 264 -105zM1393 821v-209
q0 -284 -166 -462t-472 -178t-473 178t-167 462v209q0 285 167 463t473 178t472 -178t166 -463z" />
    <glyph glyph-name="obreve" unicode="&#x14f;" horiz-adv-x="1183" 
d="M592 1186q-164 0 -263 84t-100 231h205q0 -69 42 -109t116 -40t116 41t42 108h204q0 -147 -99 -231t-263 -84zM823 438v189q0 109 -58 177t-173 66q-115 0 -173 -68t-59 -175v-189q0 -108 58 -176t174 -68q115 0 173 68q58 67 58 176zM592 -25q-234 -1 -368 135t-134 347
v151q0 211 134 346q134 136 368 136t367 -136q134 -136 135 -346v-151q0 -211 -134 -347t-368 -135z" />
    <glyph glyph-name="Ohungarumlaut" unicode="&#x150;" horiz-adv-x="1507" 
d="M754 209q174 0 263 105t89 284v238q0 178 -89 283t-263 105t-264 -104q-90 -106 -89 -284v-238q0 -178 89 -284q90 -105 264 -105zM1393 821v-209q0 -284 -166 -462t-472 -178t-473 178t-167 462v209q0 285 167 463t473 178t472 -178t166 -463zM870 1542l88 289h295
l-131 -289h-252zM442 1542l88 289h295l-131 -289h-252z" />
    <glyph glyph-name="ohungarumlaut" unicode="&#x151;" horiz-adv-x="1183" 
d="M823 438v189q0 109 -58 177t-173 66q-115 0 -173 -68t-59 -175v-189q0 -108 58 -176t174 -68q115 0 173 68q58 67 58 176zM592 -25q-234 -1 -368 135t-134 347v151q0 211 134 346q134 136 368 136t367 -136q134 -136 135 -346v-151q0 -211 -134 -347t-368 -135zM690 1186
l103 315h301l-150 -315h-254zM279 1186l102 315h301l-150 -315h-253z" />
    <glyph glyph-name="OE" unicode="&#x152;" horiz-adv-x="2179" 
d="M399 637q-1 -187 95 -293t288 -106h289v958h-289q-194 0 -288 -106t-95 -293v-160zM780 0q-324 0 -494 174t-171 475v135q0 302 171 476t494 174h1295v-238h-717v-350h655v-240h-655v-368h719v-238h-1297z" />
    <glyph glyph-name="oe" unicode="&#x153;" horiz-adv-x="1896" 
d="M1094 643v-10h440v26q0 104 -55 169t-167 65q-112 1 -165 -67t-53 -183zM823 438v189q0 109 -58 177t-173 66q-115 0 -173 -68t-59 -175v-189q0 -108 58 -176t174 -68q115 0 173 68q58 67 58 176zM592 -25q-238 -1 -370 135t-132 347v151q0 211 134 346q134 136 356 136
t374 -140q128 140 358 140t354 -132t124 -335v-187h-696v-26q0 -102 55 -168t155 -66t156 38q57 38 78 97h244q-29 -147 -158 -241t-305 -95q-246 0 -367 138q-53 -57 -151 -97t-209 -41z" />
    <glyph glyph-name="Racute" unicode="&#x154;" horiz-adv-x="1429" 
d="M510 1542l141 289h342l-200 -289h-283zM444 690h326q129 0 198 71q68 71 68 187t-68 185q-69 68 -198 67h-326v-510zM444 459v-459h-286v1434h647q246 0 382 -136t136 -352q0 -152 -75 -268t-208 -174l299 -504h-331l-263 459h-301z" />
    <glyph glyph-name="racute" unicode="&#x155;" horiz-adv-x="806" 
d="M289 1186l149 315h344l-217 -315h-276zM137 0v1065h264v-207q47 215 320 215h33v-276h-58q-281 0 -280 -305v-492h-279z" />
    <glyph glyph-name="Rcommaaccent" unicode="&#x156;" horiz-adv-x="1429" 
d="M500 -512l63 362h316l-144 -362h-235zM444 690h326q129 0 198 71q68 71 68 187t-68 185q-69 68 -198 67h-326v-510zM444 459v-459h-286v1434h647q246 0 382 -136t136 -352q0 -152 -75 -268t-208 -174l299 -504h-331l-263 459h-301z" />
    <glyph glyph-name="rcommaaccent" unicode="&#x157;" horiz-adv-x="806" 
d="M47 -512l64 362h315l-143 -362h-236zM137 0v1065h264v-207q47 215 320 215h33v-276h-58q-281 0 -280 -305v-492h-279z" />
    <glyph glyph-name="Rcaron" unicode="&#x158;" horiz-adv-x="1429" 
d="M1063 1831l-242 -289h-274l-242 289h268l111 -137l111 137h268zM444 690h326q129 0 198 71q68 71 68 187t-68 185q-69 68 -198 67h-326v-510zM444 459v-459h-286v1434h647q246 0 382 -136t136 -352q0 -152 -75 -268t-208 -174l299 -504h-331l-263 459h-301z" />
    <glyph glyph-name="rcaron" unicode="&#x159;" horiz-adv-x="806" 
d="M834 1501l-230 -315h-270l-230 315h254l111 -158l111 158h254zM137 0v1065h264v-207q47 215 320 215h33v-276h-58q-281 0 -280 -305v-492h-279z" />
    <glyph glyph-name="Sacute" unicode="&#x15a;" horiz-adv-x="1339" 
d="M516 1542l141 289h342l-200 -289h-283zM1241 424q-1 -203 -161 -328t-411 -125t-404 118t-152 327v37h274v-31q0 -102 78 -166t213 -63q135 0 211 55t76 153q0 127 -136 162l-374 96q-166 43 -243 128t-77 243q1 201 143 317q142 115 381 115t379 -119t142 -309v-35h-265
v29q0 96 -63 154t-185 59q-122 0 -189 -47t-66 -139q0 -121 123 -152l393 -104q313 -82 313 -375z" />
    <glyph glyph-name="sacute" unicode="&#x15b;" horiz-adv-x="1087" 
d="M401 1186l150 315h344l-217 -315h-277zM1012 332q0 -156 -131 -256t-335 -101q-204 0 -329 87t-125 253v19h246v-15q0 -71 58 -109t152 -38t151 35t57 103t-88 87l-316 72q-244 55 -243 281q-1 162 117 250t312 90q194 0 308 -92t115 -248v-17h-244v19q0 139 -174 139
t-174 -117q0 -72 82 -90l323 -80q238 -59 238 -272z" />
    <glyph glyph-name="Scircumflex" unicode="&#x15c;" horiz-adv-x="1339" 
d="M819 1831l242 -289h-268l-111 137l-111 -137h-268l242 289h274zM1241 424q-1 -203 -161 -328t-411 -125t-404 118t-152 327v37h274v-31q0 -102 78 -166t213 -63q135 0 211 55t76 153q0 127 -136 162l-374 96q-166 43 -243 128t-77 243q1 201 143 317q142 115 381 115
t379 -119t142 -309v-35h-265v29q0 96 -63 154t-185 59q-122 0 -189 -47t-66 -139q0 -121 123 -152l393 -104q313 -82 313 -375z" />
    <glyph glyph-name="scircumflex" unicode="&#x15d;" horiz-adv-x="1087" 
d="M692 1501l230 -315h-254l-111 157l-111 -157h-253l229 315h270zM1012 332q0 -156 -131 -256t-335 -101q-204 0 -329 87t-125 253v19h246v-15q0 -71 58 -109t152 -38t151 35t57 103t-88 87l-316 72q-244 55 -243 281q-1 162 117 250t312 90q194 0 308 -92t115 -248v-17
h-244v19q0 139 -174 139t-174 -117q0 -72 82 -90l323 -80q238 -59 238 -272z" />
    <glyph glyph-name="Scedilla" unicode="&#x15e;" horiz-adv-x="1339" 
d="M690 -381q-100 0 -155 12v113q47 -10 96 -10q82 0 82 43t-76 49l-74 6l33 143q-223 15 -353 133t-130 308v37h274v-31q0 -102 78 -166t213 -63q135 0 211 55t76 153q0 127 -136 162l-374 96q-166 43 -243 128t-77 243q1 201 143 317q142 115 381 115t379 -119t142 -309
v-35h-265v29q0 96 -63 154t-185 59q-122 0 -189 -47t-66 -139q0 -121 123 -152l393 -104q313 -82 313 -375q0 -188 -143 -311t-369 -140l-8 -47l33 -4q158 -20 157 -141q0 -74 -61 -118q-60 -44 -160 -44z" />
    <glyph glyph-name="Scedilla" unicode="&#xf6c1;" horiz-adv-x="1339" 
d="M690 -381q-100 0 -155 12v113q47 -10 96 -10q82 0 82 43t-76 49l-74 6l33 143q-223 15 -353 133t-130 308v37h274v-31q0 -102 78 -166t213 -63q135 0 211 55t76 153q0 127 -136 162l-374 96q-166 43 -243 128t-77 243q1 201 143 317q142 115 381 115t379 -119t142 -309
v-35h-265v29q0 96 -63 154t-185 59q-122 0 -189 -47t-66 -139q0 -121 123 -152l393 -104q313 -82 313 -375q0 -188 -143 -311t-369 -140l-8 -47l33 -4q158 -20 157 -141q0 -74 -61 -118q-60 -44 -160 -44z" />
    <glyph glyph-name="scedilla" unicode="&#x15f;" horiz-adv-x="1087" 
d="M793 -219q1 -74 -61 -118t-162 -44t-154 12v113q47 -10 96 -10q82 0 82 43t-76 49l-74 6l33 148q-178 14 -281 99t-104 236v19h246v-15q0 -71 58 -109t152 -38t151 35t57 103t-88 87l-316 72q-244 55 -243 281q-1 162 117 250t312 90q194 0 308 -92t115 -248v-17h-244v19
q0 139 -174 139t-174 -117q0 -72 82 -90l323 -80q238 -59 238 -272q0 -142 -112 -240t-288 -115l-10 -51l33 -4q158 -20 158 -141z" />
    <glyph glyph-name="scedilla" unicode="&#xf6c2;" horiz-adv-x="1087" 
d="M793 -219q1 -74 -61 -118t-162 -44t-154 12v113q47 -10 96 -10q82 0 82 43t-76 49l-74 6l33 148q-178 14 -281 99t-104 236v19h246v-15q0 -71 58 -109t152 -38t151 35t57 103t-88 87l-316 72q-244 55 -243 281q-1 162 117 250t312 90q194 0 308 -92t115 -248v-17h-244v19
q0 139 -174 139t-174 -117q0 -72 82 -90l323 -80q238 -59 238 -272q0 -142 -112 -240t-288 -115l-10 -51l33 -4q158 -20 158 -141z" />
    <glyph glyph-name="Scaron" unicode="&#x160;" horiz-adv-x="1339" 
d="M1055 1831l-242 -289h-274l-242 289h268l111 -137l110 137h269zM1241 424q-1 -203 -161 -328t-411 -125t-404 118t-152 327v37h274v-31q0 -102 78 -166t213 -63q135 0 211 55t76 153q0 127 -136 162l-374 96q-166 43 -243 128t-77 243q1 201 143 317q142 115 381 115
t379 -119t142 -309v-35h-265v29q0 96 -63 154t-185 59q-122 0 -189 -47t-66 -139q0 -121 123 -152l393 -104q313 -82 313 -375z" />
    <glyph glyph-name="scaron" unicode="&#x161;" horiz-adv-x="1087" 
d="M907 1501l-229 -315h-270l-230 315h254l111 -158l110 158h254zM1012 332q0 -156 -131 -256t-335 -101q-204 0 -329 87t-125 253v19h246v-15q0 -71 58 -109t152 -38t151 35t57 103t-88 87l-316 72q-244 55 -243 281q-1 162 117 250t312 90q194 0 308 -92t115 -248v-17
h-244v19q0 139 -174 139t-174 -117q0 -72 82 -90l323 -80q238 -59 238 -272z" />
    <glyph glyph-name="Tcommaaccent" unicode="&#x162;" horiz-adv-x="1204" 
d="M377 -512l63 362h316l-144 -362h-235zM459 0v1196h-406v238h1098v-238h-406v-1196h-286z" />
    <glyph glyph-name="Tcommaaccent" unicode="&#x21a;" horiz-adv-x="1204" 
d="M377 -512l63 362h316l-144 -362h-235zM459 0v1196h-406v238h1098v-238h-406v-1196h-286z" />
    <glyph glyph-name="tcommaaccent" unicode="&#x163;" horiz-adv-x="786" 
d="M250 -512l63 362h316l-144 -362h-235zM508 0q-150 0 -226 79t-75 224v537h-152v225h152v291h280v-291h228v-225h-228v-516q0 -53 23 -76t78 -23h112v-225h-192z" />
    <glyph glyph-name="tcommaaccent" unicode="&#x21b;" horiz-adv-x="786" 
d="M250 -512l63 362h316l-144 -362h-235zM508 0q-150 0 -226 79t-75 224v537h-152v225h152v291h280v-291h228v-225h-228v-516q0 -53 23 -76t78 -23h112v-225h-192z" />
    <glyph glyph-name="Tcaron" unicode="&#x164;" horiz-adv-x="1204" 
d="M981 1831l-242 -289h-274l-242 289h269l110 -137l111 137h268zM459 0v1196h-406v238h1098v-238h-406v-1196h-286z" />
    <glyph glyph-name="tcaron" unicode="&#x165;" horiz-adv-x="888" 
d="M508 0q-150 0 -226 79t-75 224v537h-152v225h152v291h280v-291h228v-225h-228v-516q0 -53 23 -76t78 -23h112v-225h-192zM586 1182l37 313h297l-115 -313h-219z" />
    <glyph glyph-name="Tbar" unicode="&#x166;" horiz-adv-x="1204" 
d="M197 555v229h262v412h-406v238h1098v-238h-406v-412h263v-229h-263v-555h-286v555h-262z" />
    <glyph glyph-name="tbar" unicode="&#x167;" horiz-adv-x="786" 
d="M57 438v211h150v191h-152v225h152v291h280v-291h228v-225h-228v-191h195v-211h-195v-114q0 -53 23 -76t78 -23h112v-225h-192q-150 0 -226 79t-75 224v135h-150z" />
    <glyph glyph-name="Utilde" unicode="&#x168;" horiz-adv-x="1474" 
d="M543 1841q74 0 214 -43q141 -43 157 -43q55 0 74 47q5 12 7 16t7 17q5 14 6 16l182 -51q-41 -139 -88 -197t-154 -59q-49 0 -190 43t-189 43q-63 0 -88 -96l-184 41q27 139 79 203t167 63zM737 -29q-274 0 -432 150t-158 395v918h285v-930q0 -139 83 -217t222 -78t221 78
t82 217v930h287v-918q0 -246 -158 -396t-432 -149z" />
    <glyph glyph-name="utilde" unicode="&#x169;" horiz-adv-x="1212" 
d="M451 1489q59 0 179 -44t146 -44t45 17q17 18 23 30t18 49l172 -53q-58 -195 -137 -234q-39 -18 -90 -18t-170 44t-159 44t-56 -22t-31 -76l-174 43q19 127 71 195t163 69zM1075 1065v-1065h-266v127q-37 -68 -122 -110t-187 -42q-176 0 -275 112q-98 112 -98 296v682h279
v-643q0 -213 188 -213q96 0 149 57t54 158v641h278z" />
    <glyph glyph-name="Umacron" unicode="&#x16a;" horiz-adv-x="1474" 
d="M352 1581v223h770v-223h-770zM737 -29q-274 0 -432 150t-158 395v918h285v-930q0 -139 83 -217t222 -78t221 78t82 217v930h287v-918q0 -246 -158 -396t-432 -149z" />
    <glyph glyph-name="umacron" unicode="&#x16b;" horiz-adv-x="1212" 
d="M274 1227v219h697v-219h-697zM1075 1065v-1065h-266v127q-37 -68 -122 -110t-187 -42q-176 0 -275 112q-98 112 -98 296v682h279v-643q0 -213 188 -213q96 0 149 57t54 158v641h278z" />
    <glyph glyph-name="Ubreve" unicode="&#x16c;" horiz-adv-x="1474" 
d="M737 1542q-160 0 -264 77t-104 212h217q0 -55 41 -90t111 -35t110 35q41 35 41 90h217q0 -135 -104 -212t-265 -77zM737 -29q-274 0 -432 150t-158 395v918h285v-930q0 -139 83 -217t222 -78t221 78t82 217v930h287v-918q0 -246 -158 -396t-432 -149z" />
    <glyph glyph-name="ubreve" unicode="&#x16d;" horiz-adv-x="1212" 
d="M639 1186q-164 0 -263 84t-100 231h205q0 -69 42 -109t116 -40t116 41t42 108h204q0 -147 -99 -231t-263 -84zM1075 1065v-1065h-266v127q-37 -68 -122 -110t-187 -42q-176 0 -275 112q-98 112 -98 296v682h279v-643q0 -213 188 -213q96 0 149 57t54 158v641h278z" />
    <glyph glyph-name="Uring" unicode="&#x16e;" horiz-adv-x="1474" 
d="M737 1542q-100 0 -158 55q-59 55 -59 135t60 135q60 54 158 54q96 0 156 -54t60 -134t-58 -136q-59 -55 -159 -55zM737 1645q43 1 69 25t25 63q1 39 -25 63t-69 23q-43 0 -69 -24q-26 -25 -25 -63q-1 -38 25 -62t69 -25zM737 -29q-274 0 -432 150t-158 395v918h285v-930
q0 -139 83 -217t222 -78t221 78t82 217v930h287v-918q0 -246 -158 -396t-432 -149z" />
    <glyph glyph-name="uring" unicode="&#x16f;" horiz-adv-x="1212" 
d="M614 1186q-100 0 -158 55t-59 135q1 80 61 134t157 54t157 -54t59 -134t-59 -135t-158 -55zM614 1288q43 0 69 25t26 63t-26 63q-26 23 -69 23q-42 0 -68 -24t-26 -62q0 -40 26 -64t68 -24zM1075 1065v-1065h-266v127q-37 -68 -122 -110t-187 -42q-176 0 -275 112
q-98 112 -98 296v682h279v-643q0 -213 188 -213q96 0 149 57t54 158v641h278z" />
    <glyph glyph-name="Uhungarumlaut" unicode="&#x170;" horiz-adv-x="1474" 
d="M831 1542l89 289h294l-131 -289h-252zM403 1542l89 289h294l-131 -289h-252zM737 -29q-274 0 -432 150t-158 395v918h285v-930q0 -139 83 -217t222 -78t221 78t82 217v930h287v-918q0 -246 -158 -396t-432 -149z" />
    <glyph glyph-name="uhungarumlaut" unicode="&#x171;" horiz-adv-x="1212" 
d="M690 1186l103 315h301l-150 -315h-254zM279 1186l102 315h301l-150 -315h-253zM1075 1065v-1065h-266v127q-37 -68 -122 -110t-187 -42q-176 0 -275 112q-98 112 -98 296v682h279v-643q0 -213 188 -213q96 0 149 57t54 158v641h278z" />
    <glyph glyph-name="Uogonek" unicode="&#x172;" horiz-adv-x="1474" 
d="M818 -381q-91 0 -146 48q-56 48 -56 142t107 162q-268 5 -422 153t-154 392v918h285v-930q0 -139 83 -217t222 -78t221 78t82 217v930h287v-918q0 -315 -272 -477q-188 -111 -189 -201q0 -57 70 -57q29 0 51 6v-147q-78 -21 -169 -21z" />
    <glyph glyph-name="uogonek" unicode="&#x173;" horiz-adv-x="1212" 
d="M1075 1065v-1065q-125 -88 -125 -162q0 -57 70 -57q29 0 51 6v-147q-214 -55 -312 28q-59 48 -59 148t109 184v127q-37 -68 -122 -110t-187 -42q-176 0 -275 112q-98 112 -98 296v682h279v-643q0 -213 188 -213q96 0 149 57t54 158v641h278z" />
    <glyph glyph-name="Wcircumflex" unicode="&#x174;" horiz-adv-x="1978" 
d="M1126 1831l242 -289h-268l-111 137l-110 -137h-269l242 289h274zM1128 1434l299 -1037l207 1037h283l-338 -1434h-276l-314 1104l-313 -1104h-277l-338 1434h283l207 -1037l299 1037h278z" />
    <glyph glyph-name="wcircumflex" unicode="&#x175;" horiz-adv-x="1613" 
d="M942 1501l229 -315h-253l-111 157l-111 -157h-254l230 315h270zM1577 1065l-277 -1065h-260l-233 733l-234 -733h-260l-276 1065h270l156 -715l217 715h254l217 -715l156 715h270z" />
    <glyph glyph-name="Ycircumflex" unicode="&#x176;" horiz-adv-x="1302" 
d="M788 1831l242 -289h-268l-111 137l-110 -137h-269l242 289h274zM795 0h-287v516l-492 918h312l323 -639l324 639h311l-491 -918v-516z" />
    <glyph glyph-name="ycircumflex" unicode="&#x177;" horiz-adv-x="1046" 
d="M678 1501l229 -315h-254l-110 157l-111 -157h-254l230 315h270zM559 -356h-274l106 360l-368 1061h278l229 -764l218 764h276z" />
    <glyph glyph-name="Ydieresis" unicode="&#x178;" horiz-adv-x="1302" 
d="M731 1692q0 66 42 108t108 41q65 0 107 -42q42 -41 42 -107t-42 -108t-108 -42t-107 42q-42 42 -42 108zM272 1692q0 66 42 108t108 41q66 0 108 -42q42 -41 41 -107q0 -66 -42 -108q-41 -42 -107 -42t-108 42t-42 108zM795 0h-287v516l-492 918h312l323 -639l324 639
h311l-491 -918v-516z" />
    <glyph glyph-name="Zacute" unicode="&#x179;" horiz-adv-x="1277" 
d="M498 1542l141 289h342l-201 -289h-282zM113 0v238l718 958h-688v238h1010v-238l-719 -958h737v-238h-1058z" />
    <glyph glyph-name="zacute" unicode="&#x17a;" horiz-adv-x="1034" 
d="M379 1186l149 315h344l-217 -315h-276zM92 0v201l526 649h-501v215h823v-201l-526 -649h538v-215h-860z" />
    <glyph glyph-name="Zdotaccent" unicode="&#x17b;" horiz-adv-x="1277" 
d="M498 1704q0 70 46 116t116 46t115 -46q46 -46 46 -116t-46 -116t-116 -46q-69 0 -115 46t-46 116zM113 0v238l718 958h-688v238h1010v-238l-719 -958h737v-238h-1058z" />
    <glyph glyph-name="zdotaccent" unicode="&#x17c;" horiz-adv-x="1034" 
d="M379 1348q0 70 46 116t116 45q69 0 115 -46q46 -45 46 -115t-46 -116t-116 -46t-115 46q-46 46 -46 116zM92 0v201l526 649h-501v215h823v-201l-526 -649h538v-215h-860z" />
    <glyph glyph-name="Zcaron" unicode="&#x17d;" horiz-adv-x="1277" 
d="M1059 1831l-242 -289h-274l-242 289h268l111 -137l111 137h268zM113 0v238l718 958h-688v238h1010v-238l-719 -958h737v-238h-1058z" />
    <glyph glyph-name="zcaron" unicode="&#x17e;" horiz-adv-x="1034" 
d="M918 1501l-230 -315h-270l-230 315h254l111 -158l111 158h254zM92 0v201l526 649h-501v215h823v-201l-526 -649h538v-215h-860z" />
    <glyph glyph-name="florin" unicode="&#x192;" horiz-adv-x="950" 
d="M51 -356v227h103q54 0 80 24t30 76l60 697h-154v227h174l21 231q27 307 309 308h205v-228h-131q-53 0 -77 -24t-28 -80l-18 -207h190v-227h-211l-63 -727q-14 -158 -91 -228t-231 -69h-168z" />
    <glyph glyph-name="Aringacute" unicode="&#x1fa;" horiz-adv-x="1413" 
d="M706 1434q44 0 70 22t27 61q0 39 -26 61q-27 22 -71 22t-70 -24q-26 -22 -26 -60t26 -60t70 -22zM590 1751l96 225h340l-154 -225h-282zM707 1176l-207 -648h411zM706 1698q100 0 158 -51t58 -127t-56 -127l500 -1393h-285l-96 301h-557l-96 -301h-285l498 1391
q-53 49 -53 127t57 129t157 51z" />
    <glyph glyph-name="aringacute" unicode="&#x1fb;" horiz-adv-x="1198" 
d="M568 160q91 0 158 45t67 113q-1 68 -61 109q-60 40 -158 40t-155 -39t-57 -112q0 -72 58 -114t148 -42zM496 -25q-182 -1 -293 89t-111 250t116 246q116 85 296 85t289 -90v145q-1 76 -51 124t-134 48q-133 0 -184 -100h-258q45 154 164 236q118 82 306 82t312 -113
t123 -297v-680h-268v98q-37 -53 -125 -88t-182 -35zM537 1591l96 226h340l-154 -226h-282zM651 1165q-102 0 -158 50q-57 51 -57 131t58 131t157 51t157 -51t58 -131t-56 -131q-57 -50 -159 -50zM651 1260q47 0 74 24t27 63t-27 63t-74 24t-73 -25t-27 -63q1 -38 27 -62
t73 -24z" />
    <glyph glyph-name="AEacute" unicode="&#x1fc;" horiz-adv-x="2187" 
d="M1079 532v668l-430 -668h430zM1079 0v303h-577l-195 -303h-307l961 1434h1122v-238h-717v-350h655v-240h-655v-368h719v-238h-1006zM1051 1542l141 289h342l-201 -289h-282z" />
    <glyph glyph-name="aeacute" unicode="&#x1fd;" horiz-adv-x="1873" 
d="M1071 633h440v26q0 104 -55 169t-165 65q-110 -1 -165 -63t-55 -166v-31zM569 162q92 0 158 44t66 112q1 68 -61 111q-62 42 -160 42t-153 -39q-57 -39 -57 -112q0 -74 58 -116t149 -42zM1296 -25q-252 0 -381 158q-145 -158 -395 -158q-192 -1 -310 95t-118 255t119 241
t302 83q183 0 280 -92v129q-1 80 -49 132t-134 52q-133 0 -186 -98h-258q37 156 155 237t291 81q213 0 328 -132q117 132 348 132q232 0 356 -132t123 -335v-187h-696v-26q0 -102 55 -168q54 -66 154 -66t158 38q57 38 78 97h243q-29 -147 -158 -241t-305 -95zM811 1186
l150 315h344l-218 -315h-276z" />
    <glyph glyph-name="Oslashacute" unicode="&#x1fe;" horiz-adv-x="1507" 
d="M754 209q174 0 263 105t89 284v238q0 129 -41 204l-514 -778q72 -53 203 -53zM401 598q0 -121 39 -207l516 780q-86 53 -202 54q-174 1 -264 -105t-89 -284v-238zM1393 821v-209q0 -284 -166 -462t-473 -179q-197 0 -344 80l-101 -153h-194l166 252q-166 172 -166 462
v209q0 285 167 463t472 178q199 0 342 -80l102 154h195l-166 -252q166 -172 166 -463zM612 1542l142 289h342l-201 -289h-283z" />
    <glyph glyph-name="oslashacute" unicode="&#x1ff;" horiz-adv-x="1183" 
d="M823 438v189q0 59 -18 108l-342 -510q49 -31 129 -30q115 0 173 67t58 176zM360 438q0 -61 19 -110l342 510q-55 33 -129 32q-115 0 -173 -68t-59 -175v-189zM592 -25q-150 0 -260 58l-90 -135h-152l139 206q-139 133 -139 353v151q0 211 134 346t368 136q147 0 258 -58
l92 135h152l-140 -209q139 -133 140 -350v-151q0 -211 -134 -347t-368 -135zM442 1186l150 315h344l-217 -315h-277z" />
    <glyph glyph-name="Scommaaccent" unicode="&#x218;" horiz-adv-x="1339" 
d="M461 -512l63 362h316l-144 -362h-235zM1241 424q-1 -203 -161 -328t-411 -125t-404 118t-152 327v37h274v-31q0 -102 78 -166t213 -63q135 0 211 55t76 153q0 127 -136 162l-374 96q-166 43 -243 128t-77 243q1 201 143 317q142 115 381 115t379 -119t142 -309v-35h-265
v29q0 96 -63 154t-185 59q-122 0 -189 -47t-66 -139q0 -121 123 -152l393 -104q313 -82 313 -375z" />
    <glyph glyph-name="scommaaccent" unicode="&#x219;" horiz-adv-x="1087" 
d="M342 -512l64 362h315l-143 -362h-236zM1012 332q0 -156 -131 -256t-335 -101q-204 0 -329 87t-125 253v19h246v-15q0 -71 58 -109t152 -38t151 35t57 103t-88 87l-316 72q-244 55 -243 281q-1 162 117 250t312 90q194 0 308 -92t115 -248v-17h-244v19q0 139 -174 139
t-174 -117q0 -72 82 -90l323 -80q238 -59 238 -272z" />
    <glyph glyph-name="circumflex" unicode="&#x2c6;" horiz-adv-x="1044" 
d="M657 1501l230 -315h-254l-111 157l-110 -157h-254l229 315h270z" />
    <glyph glyph-name="caron" unicode="&#x2c7;" horiz-adv-x="1044" 
d="M887 1501l-230 -315h-270l-229 315h254l110 -158l111 158h254z" />
    <glyph glyph-name="breve" unicode="&#x2d8;" horiz-adv-x="1040" 
d="M520 1186q-164 0 -263 84t-99 231h204q0 -69 42 -109t116 -40t116 41t42 108h205q1 -147 -99 -231t-264 -84z" />
    <glyph glyph-name="dotaccent" unicode="&#x2d9;" horiz-adv-x="638" 
d="M158 1348q0 70 46 116t116 45q70 0 115 -46q46 -45 46 -115t-46 -116t-116 -46q-69 0 -115 46t-46 116z" />
    <glyph glyph-name="ring" unicode="&#x2da;" horiz-adv-x="749" 
d="M375 1186q-100 0 -159 55q-58 55 -58 135t60 134t158 54t156 -54q60 -54 60 -134t-58 -135t-159 -55zM375 1288q43 0 69 25t25 63q0 38 -26 63q-27 23 -69 23t-68 -24t-26 -62q0 -40 26 -64t69 -24z" />
    <glyph glyph-name="ogonek" unicode="&#x2db;" horiz-adv-x="690" 
d="M360 -381q-91 0 -147 48q-55 48 -55 132q0 123 106 201h268q-125 -78 -124 -162q0 -57 69 -57q31 0 51 6v-147q-77 -21 -168 -21z" />
    <glyph glyph-name="tilde" unicode="&#x2dc;" horiz-adv-x="1132" 
d="M391 1489q59 0 179 -44t147 -44t45 17q18 18 23 30t18 49l172 -53q-57 -194 -137 -234q-38 -18 -90 -18t-170 44t-159 44q-39 0 -55 -22t-32 -76l-174 43q18 127 70 195t163 69z" />
    <glyph glyph-name="hungarumlaut" unicode="&#x2dd;" horiz-adv-x="1130" 
d="M569 1186l103 315h301l-150 -315h-254zM158 1186l102 315h301l-149 -315h-254z" />
    <glyph glyph-name="uni0312" unicode="&#x312;" horiz-adv-x="743" 
d="M158 1186l151 315h275l-82 -315h-344z" />
    <glyph glyph-name="uni0315" unicode="&#x315;" horiz-adv-x="700" 
d="M158 1038l82 457h303l-160 -457h-225z" />
    <glyph glyph-name="uni0326" unicode="&#x326;" horiz-adv-x="696" 
d="M158 -512l63 362h316l-144 -362h-235z" />
    <glyph glyph-name="Omega" unicode="&#x3a9;" horiz-adv-x="1519" 
d="M1386 227v-227h-466v227q84 93 139 227t55 273v72q0 201 -87 313t-267 113q-180 0 -267 -113t-87 -313v-72q0 -139 55 -273t139 -227v-227h-467v227h180q-190 231 -190 510v78q0 289 166 468t471 179t471 -179t166 -468v-78q0 -279 -191 -510h180z" />
    <glyph glyph-name="pi" unicode="&#x3c0;" horiz-adv-x="1490" 
d="M291 0v844h-205v221h1319v-221h-246v-506q0 -57 27 -84t88 -27h119v-227h-193q-160 0 -240 83t-79 234v527h-312v-844h-278z" />
    <glyph glyph-name="Wgrave" unicode="&#x1e80;" horiz-adv-x="1978" 
d="M840 1542l-201 289h342l141 -289h-282zM1128 1434l299 -1037l207 1037h283l-338 -1434h-276l-314 1104l-313 -1104h-277l-338 1434h283l207 -1037l299 1037h278z" />
    <glyph glyph-name="wgrave" unicode="&#x1e81;" horiz-adv-x="1613" 
d="M653 1186l-213 315h344l150 -315h-281zM1577 1065l-277 -1065h-260l-233 733l-234 -733h-260l-276 1065h270l156 -715l217 715h254l217 -715l156 715h270z" />
    <glyph glyph-name="Wacute" unicode="&#x1e82;" horiz-adv-x="1978" 
d="M864 1542l142 289h342l-201 -289h-283zM1128 1434l299 -1037l207 1037h283l-338 -1434h-276l-314 1104l-313 -1104h-277l-338 1434h283l207 -1037l299 1037h278z" />
    <glyph glyph-name="wacute" unicode="&#x1e83;" horiz-adv-x="1613" 
d="M690 1186l150 315h344l-217 -315h-277zM1577 1065l-277 -1065h-260l-233 733l-234 -733h-260l-276 1065h270l156 -715l217 715h254l217 -715l156 715h270z" />
    <glyph glyph-name="Wdieresis" unicode="&#x1e84;" horiz-adv-x="1978" 
d="M1069 1692q0 66 43 108q42 42 106 41q64 0 107 -42q43 -41 43 -107t-43 -108t-106 -42t-107 42q-43 42 -43 108zM610 1692q0 66 43 108t107 41q64 0 106 -42q43 -41 43 -107t-43 -108t-106 -42t-107 42q-43 42 -43 108zM1128 1434l299 -1037l207 1037h283l-338 -1434
h-276l-314 1104l-313 -1104h-277l-338 1434h283l207 -1037l299 1037h278z" />
    <glyph glyph-name="wdieresis" unicode="&#x1e85;" horiz-adv-x="1613" 
d="M872 1341q0 63 43 107t107 43q64 0 106 -43q43 -42 43 -106t-43 -107t-106 -43t-107 43q-43 43 -43 106zM442 1341q0 63 43 107t107 43q64 0 106 -43q43 -42 43 -106t-43 -107t-106 -43t-107 43q-43 43 -43 106zM1577 1065l-277 -1065h-260l-233 733l-234 -733h-260
l-276 1065h270l156 -715l217 715h254l217 -715l156 715h270z" />
    <glyph glyph-name="Ygrave" unicode="&#x1ef2;" horiz-adv-x="1302" 
d="M516 1542l-201 289h342l142 -289h-283zM795 0h-287v516l-492 918h312l323 -639l324 639h311l-491 -918v-516z" />
    <glyph glyph-name="ygrave" unicode="&#x1ef3;" horiz-adv-x="1046" 
d="M399 1186l-213 315h344l150 -315h-281zM559 -356h-274l106 360l-368 1061h278l229 -764l218 764h276z" />
    <glyph glyph-name="endash" unicode="&#x2013;" horiz-adv-x="1257" 
d="M113 530v250h1032v-250h-1032z" />
    <glyph glyph-name="emdash" unicode="&#x2014;" horiz-adv-x="1869" 
d="M113 530v250h1644v-250h-1644z" />
    <glyph glyph-name="quoteleft" unicode="&#x2018;" horiz-adv-x="485" 
d="M432 1434l-104 -543h-308l185 543h227z" />
    <glyph glyph-name="quoteright" unicode="&#x2019;" horiz-adv-x="485" 
d="M53 891l105 543h307l-184 -543h-228z" />
    <glyph glyph-name="quotesinglbase" unicode="&#x201a;" horiz-adv-x="524" 
d="M31 -264l104 543h307l-184 -543h-227z" />
    <glyph glyph-name="quotedblleft" unicode="&#x201c;" horiz-adv-x="956" 
d="M432 1434l-104 -543h-308l185 543h227zM903 1434l-104 -543h-307l184 543h227z" />
    <glyph glyph-name="quotedblright" unicode="&#x201d;" horiz-adv-x="956" 
d="M524 891l105 543h307l-184 -543h-228zM53 891l105 543h307l-184 -543h-228z" />
    <glyph glyph-name="quotedblbase" unicode="&#x201e;" horiz-adv-x="995" 
d="M502 -264l104 543h307l-184 -543h-227zM31 -264l104 543h307l-184 -543h-227z" />
    <glyph glyph-name="dagger" unicode="&#x2020;" horiz-adv-x="991" 
d="M383 -205v1106h-268v191h268v342h225v-342h269v-191h-269v-1106h-225z" />
    <glyph glyph-name="daggerdbl" unicode="&#x2021;" horiz-adv-x="1011" 
d="M393 328v573h-268v191h268v342h225v-342h269v-191h-269v-573h269v-191h-269v-342h-225v342h-268v191h268z" />
    <glyph glyph-name="bullet" unicode="&#x2022;" horiz-adv-x="847" 
d="M424 455q-127 -1 -204 77t-77 197t77 197t204 78t204 -78t77 -197t-77 -197t-204 -77z" />
    <glyph glyph-name="ellipsis" unicode="&#x2026;" horiz-adv-x="1572" 
d="M1151 143q0 72 44 116t116 44q71 0 115 -44t44 -116q0 -71 -44 -115t-116 -44t-115 44q-44 44 -44 115zM627 143q0 72 44 116q43 44 115 44t116 -44t44 -116q0 -71 -44 -115t-116 -44t-116 44t-43 115zM102 143q0 72 44 116t116 44t116 -44t44 -116q0 -71 -44 -115
t-116 -44t-116 44t-44 115z" />
    <glyph glyph-name="perthousand" unicode="&#x2030;" horiz-adv-x="2615" 
d="M2337 285v198q0 63 -37 101q-36 38 -102 39q-66 0 -103 -38t-37 -102v-198q0 -63 37 -101t103 -39q66 1 102 39t37 101zM2533 467v-166q0 -145 -90 -233q-89 -88 -245 -88t-246 88t-90 233v166q0 145 90 233t246 88t246 -88t89 -233zM1532 285v198q0 63 -37 101t-103 39
q-66 0 -102 -38q-37 -38 -37 -102v-198q0 -63 37 -101t103 -39q67 1 103 39t36 101zM1729 467v-166q-1 -145 -91 -233t-246 -88t-245 88q-90 88 -90 233v166q0 145 90 233t246 88t246 -88t90 -233zM567 950v199q0 63 -37 101q-36 38 -102 38t-102 -38t-37 -101v-199
q0 -63 37 -101q36 -38 102 -38t102 38t37 101zM764 1133v-166q0 -145 -90 -233t-246 -89q-156 0 -246 88t-90 234v166q0 145 90 233t246 88t246 -88t90 -233zM438 0l738 1434h206l-737 -1434h-207z" />
    <glyph glyph-name="guilsinglleft" unicode="&#x2039;" horiz-adv-x="729" 
d="M354 123l-334 442l334 443h314l-332 -443l332 -442h-314z" />
    <glyph glyph-name="guilsinglright" unicode="&#x203a;" horiz-adv-x="729" 
d="M709 565l-334 -442h-314l332 442l-332 443h314z" />
    <glyph glyph-name="fraction" unicode="&#x2044;" horiz-adv-x="821" 
d="M-61 0l737 1434h207l-738 -1434h-206z" />
    <glyph glyph-name="Euro" unicode="&#x20ac;" horiz-adv-x="1374" 
d="M92 795v190h150q4 207 143 342t371 135t371 -134q138 -134 145 -331h-252q-4 109 -71 175t-185 67q-118 0 -182 -68q-63 -68 -64 -180v-6h307v-190h-307v-156h307v-190h-307v-7q0 -112 64 -180t182 -68q120 0 186 68q66 66 70 174h252q-6 -197 -144 -331t-372 -134
q-232 0 -371 135t-143 343h-150v190h150v156h-150z" />
    <glyph glyph-name="published" unicode="&#x2117;" horiz-adv-x="1691" 
d="M760 707h133q63 1 98 35t35 87t-35 85t-98 32h-133v-239zM604 352v725h307q123 -1 197 -69t74 -180t-75 -182t-196 -71h-151v-223h-156zM846 -25q-328 0 -536 215q-208 214 -208 526t208 527t536 215t536 -214t207 -527q1 -313 -207 -527t-536 -215zM846 49
q295 0 477 197t182 471t-182 471q-182 196 -477 196t-477 -196q-183 -196 -183 -471q0 -274 182 -471t478 -197z" />
    <glyph glyph-name="trademark" unicode="&#x2122;" horiz-adv-x="1339" 
d="M1233 1434v-607h-123v357l-106 -217h-123l-107 217v-357h-123v607h117l174 -357l174 357h117zM242 827v496h-181v111h488v-111h-180v-496h-127z" />
    <glyph glyph-name="partialdiff" unicode="&#x2202;" horiz-adv-x="1220" 
d="M602 195q110 1 176 67t66 170v82q0 111 -67 174q-67 64 -177 64t-171 -66q-62 -66 -62 -174v-78q0 -109 63 -174t172 -65zM598 -29q-231 0 -369 133q-137 133 -137 338v66q0 209 121 333t319 124q98 0 180 -33t124 -86q-102 356 -570 356h-41v232h56q409 0 623 -224
t214 -628v-90q0 -225 -144 -373t-376 -148z" />
    <glyph glyph-name="Delta" unicode="&#x2206;" horiz-adv-x="1409" 
d="M387 238h633l-315 899zM102 0v221l476 1213h253l476 -1213v-221h-1205z" />
    <glyph glyph-name="product" unicode="&#x220f;" horiz-adv-x="1693" 
d="M352 -356v1562h-266v228h1522v-228h-267v-1562h-274v1562h-440v-1562h-275z" />
    <glyph glyph-name="summation" unicode="&#x2211;" horiz-adv-x="1239" 
d="M127 -356v227l434 668l-434 667v228h1006v-228h-697l424 -667l-424 -668h697v-227h-1006z" />
    <glyph glyph-name="minus" unicode="&#x2212;" horiz-adv-x="1206" 
d="M133 621v233h940v-233h-940z" />
    <glyph glyph-name="radical" unicode="&#x221a;" horiz-adv-x="1509" 
d="M113 487v240h436l229 -670l357 1479h262l-451 -1741h-319l-252 692h-262z" />
    <glyph glyph-name="infinity" unicode="&#x221e;" horiz-adv-x="1863" 
d="M1315 920q-162 0 -266 -183q104 -182 266 -182q86 0 138 49t52 133q0 83 -52 133t-138 50zM549 920q-86 0 -138 -50q-53 -50 -53 -133q0 -84 52 -133t139 -49q162 0 266 182q-104 183 -266 183zM1354 338q-137 0 -250 60t-172 149q-59 -89 -172 -149t-250 -60
q-178 0 -288 108t-109 291q0 184 109 292q110 108 288 108q137 -1 250 -61t172 -148q59 88 172 148q112 60 270 60t268 -107q110 -108 109 -292q1 -183 -109 -291t-288 -108z" />
    <glyph glyph-name="integral" unicode="&#x222b;" horiz-adv-x="890" 
d="M86 -356v229h86q66 0 94 26t27 89v1114q0 332 334 332h157v-230h-94q-66 0 -94 -26t-27 -88v-1115q0 -332 -331 -331h-152z" />
    <glyph glyph-name="approxequal" unicode="&#x2248;" horiz-adv-x="1314" 
d="M901 782q-97 0 -304 98q-94 42 -135 43q-42 1 -80 -19t-55 -38q-17 -16 -53 -53l-151 137q66 96 143 145q78 48 179 48q101 -1 156 -25t106 -49t62 -31q69 -37 128 -37q92 0 170 82l135 -149q-125 -152 -301 -152zM901 336q-96 0 -356 120q-44 20 -85 21q-40 0 -78 -20
q-38 -21 -55 -37t-53 -53l-151 137q66 96 143 144q78 48 182 48t181 -37q36 -16 91 -43t94 -44t83 -17q92 0 170 82l135 -150q-125 -151 -301 -151z" />
    <glyph glyph-name="notequal" unicode="&#x2260;" horiz-adv-x="1286" 
d="M174 879v225h520l103 217h245l-102 -217h172v-225h-278l-134 -283h412v-225h-518l-102 -217h-246l102 217h-174v225h281l133 283h-414z" />
    <glyph glyph-name="lessequal" unicode="&#x2264;" horiz-adv-x="1222" 
d="M123 903l946 330v-246l-604 -196l604 -197v-246l-946 330v225zM123 0v236h946v-236h-946z" />
    <glyph glyph-name="greaterequal" unicode="&#x2265;" horiz-adv-x="1222" 
d="M154 1233l946 -330v-225l-946 -330v246l604 197l-604 196v246zM1100 236v-236h-946v236h946z" />
    <glyph glyph-name="lozenge" unicode="&#x25ca;" horiz-adv-x="1314" 
d="M657 242l289 475l-289 475l-288 -475zM1243 717l-459 -717h-254l-458 717l458 717h254z" />
    <glyph glyph-name="apple" unicode="&#xf8ff;" horiz-adv-x="1679" 
d="M543 -25q-152 -1 -255 103t-104 256v741q0 152 104 255t255 104h717q152 0 254 -102t104 -255q0 -152 -104 -254t-254 -102h-359v-387q0 -152 -103 -256t-255 -103z" />
    <glyph glyph-name="fi" unicode="&#xfb01;" horiz-adv-x="1308" 
d="M864 1343q0 70 46 116t116 46t116 -46t46 -116q0 -69 -46 -115t-116 -46t-116 46t-46 115zM887 0v1065h278v-1065h-278zM199 0v840h-136v225h136v98q0 172 82 252t247 80h185v-221h-121q-61 0 -88 -24t-27 -85v-100h215v-225h-215v-840h-278z" />
    <glyph glyph-name="fl" unicode="&#xfb02;" horiz-adv-x="1308" 
d="M887 0v1495h278v-1495h-278zM199 0v840h-136v225h136v98q0 172 82 252t247 80h185v-221h-121q-61 0 -88 -24t-27 -85v-100h215v-225h-215v-840h-278z" />
    <glyph glyph-name="grave.case" horiz-adv-x="798" 
d="M358 1542l-200 289h342l141 -289h-283z" />
    <glyph glyph-name="tilde.case" horiz-adv-x="1208" 
d="M403 1841q74 0 214 -43q141 -43 157 -43t32 5t24 13q7 9 11 13q3 4 8 16t12 24t7 25l183 -51q-41 -139 -88 -197t-154 -59q-49 0 -191 43t-188 43q-63 0 -88 -96l-184 41q27 139 79 203t166 63z" />
    <glyph glyph-name="dieresis.case" horiz-adv-x="1073" 
d="M616 1692q0 66 42 108t108 41q66 0 108 -42q42 -41 41 -107q0 -66 -42 -108q-41 -42 -107 -42t-108 42t-42 108zM158 1692q0 66 42 108t108 41q66 0 107 -42q42 -41 42 -107t-42 -108t-108 -42q-65 0 -107 42t-42 108z" />
    <glyph glyph-name="acute.case" horiz-adv-x="798" 
d="M158 1542l141 289h342l-201 -289h-282z" />
    <glyph glyph-name="circumflex.case" horiz-adv-x="1073" 
d="M674 1831l241 -289h-268l-110 137l-111 -137h-268l241 289h275z" />
    <glyph glyph-name="macron.case" horiz-adv-x="1085" 
d="M158 1581v223h770v-223h-770z" />
    <glyph glyph-name="breve.case" horiz-adv-x="1052" 
d="M526 1542q-160 0 -264 77t-104 212h217q0 -55 41 -90q40 -35 110 -35t111 35t41 90h217q-1 -135 -105 -212t-264 -77z" />
    <glyph glyph-name="dotaccent.case" horiz-adv-x="638" 
d="M158 1704q0 70 46 116t116 46t115 -46q46 -46 46 -116t-46 -116t-116 -46q-69 0 -115 46t-46 116z" />
    <glyph glyph-name="caron.case" horiz-adv-x="1073" 
d="M915 1831l-241 -289h-275l-241 289h268l111 -137l110 137h268z" />
    <glyph glyph-name="hungarumlaut.case" horiz-adv-x="1142" 
d="M594 1542l88 289h295l-131 -289h-252zM166 1542l88 289h295l-131 -289h-252z" />
    <glyph glyph-name="ring.case" horiz-adv-x="749" 
d="M375 1542q-100 0 -159 55q-58 55 -58 135t60 135q60 54 158 54t156 -54q60 -54 60 -134t-58 -136q-59 -55 -159 -55zM375 1645q43 1 69 25t25 63q0 39 -26 63q-27 24 -69 23q-42 0 -68 -24q-26 -25 -26 -63t26 -63q26 -24 69 -24z" />
    <glyph glyph-name="J.salt" horiz-adv-x="1253" 
d="M1102 422q0 -201 -142 -326t-374 -125q-231 0 -368 121q-136 121 -136 328v20h272v-18q0 -98 62 -156t172 -57q111 0 169 57t58 156v774h-608v238h895v-1012z" />
    <glyph glyph-name="IJ.salt" horiz-adv-x="1875" 
d="M1724 422q0 -201 -142 -326t-374 -125q-231 0 -367 121t-136 328v20h272v-18q0 -98 61 -156t172 -57q111 0 169 57t59 156v774h-609v238h895v-1012zM168 0v1434h287v-1434h-287z" />
    <glyph glyph-name="Jcircumflex.salt" horiz-adv-x="1253" 
d="M1102 422q0 -201 -142 -326t-374 -125q-231 0 -368 121q-136 121 -136 328v20h272v-18q0 -98 62 -156t172 -57q111 0 169 57t58 156v774h-608v238h895v-1012zM823 1831l242 -289h-268l-111 137l-111 -137h-268l242 289h274z" />
    <glyph glyph-name="ornm01.ornm" horiz-adv-x="2199" 
d="M178 600v234h1147v-234h-1147zM1030 0l717 717l-717 717h336l717 -717l-717 -717h-336z" />
    <glyph glyph-name="ornm02.ornm" horiz-adv-x="2199" 
d="M874 600v234h1147v-234h-1147zM834 0l-717 717l717 717h335l-716 -717l716 -717h-335z" />
    <glyph glyph-name="ornm03.ornm" horiz-adv-x="1816" 
d="M358 51l-180 180l752 754l180 -182zM1323 1196h-1014l238 238h1030v-1014l-254 -238v1014z" />
    <glyph glyph-name="ornm04.ornm" horiz-adv-x="1816" 
d="M1458 51l-751 752l180 182l751 -754zM240 1434h1030l237 -238h-1013v-1014l-254 238v1014z" />
    <glyph glyph-name="ornm05.ornm" horiz-adv-x="1816" 
d="M930 449l-752 753l180 180l752 -751zM1323 238v1013l254 -237v-1014h-1030l-238 238h1014z" />
    <glyph glyph-name="ornm06.ornm" horiz-adv-x="1816" 
d="M887 449l-180 182l751 751l180 -180zM240 0v1014l254 237v-1013h1013l-237 -238h-1030z" />
    <glyph glyph-name="ornm07.ornm" horiz-adv-x="1792" 
d="M766 -334v1032h258v-1032h-258zM178 410v335l717 717l717 -717v-335l-717 716z" />
    <glyph glyph-name="ornm08.ornm" horiz-adv-x="1792" 
d="M766 406v1028h258v-1028h-258zM895 -358l-717 716v336l717 -717l717 717v-336z" />
    <glyph glyph-name="ornm09.ornm" horiz-adv-x="1974" 
d="M158 494v233h946v-233h-946zM965 33l577 577l-577 578h335l576 -578l-576 -577h-335z" />
    <glyph glyph-name="ornm10.ornm" horiz-adv-x="1974" 
d="M870 494v233h945v-233h-945zM674 33l-578 577l578 578h336l-578 -578l578 -577h-336z" />
    <glyph glyph-name="ornm11.ornm" horiz-adv-x="1679" 
d="M324 -225l-166 164l667 667l166 -164zM1219 838h-818l238 227h821v-805l-241 -237v815z" />
    <glyph glyph-name="ornm12.ornm" horiz-adv-x="1679" 
d="M1358 -225l-668 667l164 164l668 -667zM219 1065h821l238 -227h-815v-815l-244 237v805z" />
    <glyph glyph-name="ornm13.ornm" horiz-adv-x="1679" 
d="M825 459l-667 667l166 164l667 -667zM1219 225v817l241 -237v-805h-821l-238 225h818z" />
    <glyph glyph-name="ornm14.ornm" horiz-adv-x="1679" 
d="M854 459l-164 164l668 667l164 -164zM219 0v805l244 237v-817h815l-238 -225h-821z" />
    <glyph glyph-name="ornm15.ornm" horiz-adv-x="1509" 
d="M631 -324v791h248v-791h-248zM178 328v336l578 577l575 -577v-336l-575 577z" />
    <glyph glyph-name="ornm16.ornm" horiz-adv-x="1509" 
d="M631 428v793h248v-793h-248zM756 -344l-578 575v336l578 -575l575 575v-336z" />
    <glyph glyph-name="ornm17.ornm" horiz-adv-x="1527" 
d="M928 418q0 -53 -4 -92q14 -10 94 -63t112 -109q27 24 57 8t38 -43q-10 -49 -4 -119h-985q0 326 12 477q-55 31 -72 84l28 21t25 36q10 39 -10 106q-20 66 -23 90t1 113t-1 124t-27 87t-24 76t8 103q10 78 -20 117q59 2 181 -3t178 -1q10 13 7 48q-3 34 -3 42h43
q26 -23 36 -87q9 -63 11 -73q18 -10 82 -24t84 -36q43 29 91 29t95 -20q-10 -17 -7 -21t27 -4q0 -27 13 -47q4 2 15 19t32 10q14 -12 50 -36t50 -40q31 0 66 24t49 27q10 -33 77 -30t89 -21l55 4q14 0 23 -4q-31 -35 -103 -62t-104 -48t-68 -69q-35 -49 -51 -67
q-9 -10 -71 -58t-81 -81q1 -17 7 -63t4 -74q-10 -10 -40 -28q-58 -36 -63 -87q39 -43 41 -53q-20 -29 -20 -82z" />
    <glyph glyph-name="ornm18.ornm" horiz-adv-x="1832" 
d="M375 303q0 13 1 29t-4 16q-6 0 -12 -10t-18 -24t-16 -22q-4 -6 -24 -70t-21 -81v-84l16 -16q16 -7 16 -21t-14 -24h-39q-16 0 -39 29q-6 12 0 104l4 68q0 45 4 77q-57 -41 -118 -47q-13 -3 -17 9t6 18q84 25 136 70l32 30q34 49 48 85q38 102 42 124l-4 119q-6 74 -6 110
t24 86q36 73 138 121q20 10 65 29q141 47 283 47q47 0 141 -8l123 -8q48 0 63 14q33 31 64 124q6 17 6 20q18 66 84 139q2 4 6 37q3 33 9 41q19 5 41 0q22 -4 73 -15q25 0 29 -4t9 -12t12 -12q14 -2 24 -13q2 -6 22 -26t21 -35q0 -15 43 -42q44 -26 58 -35t24 -15
q35 -16 29 -37q-6 -14 -41 -26q-34 -12 -54 -11q-20 0 -51 6q-82 20 -112 2q-5 -3 -17 -27t-14 -34q-10 -102 -36 -186q-30 -95 -36 -140t-16 -76q-37 -63 -43 -73q-7 -11 -23 -109t-23 -170t-3 -203q0 -16 19 -41t33 -23t34 -7l2 -4q4 -4 3 -18t-7 -17l-8 -4l-41 2l12 -21
l-8 -8h-86q-19 7 -26 36t-12 56t-16 34q-10 7 -10 11l6 76q0 4 -6 10q-12 12 -12 62v90q0 49 -2 69l-10 113q-4 16 2 36t-4 22q-11 3 -29 1t-25 -2q-141 0 -249 122q-30 34 -52 55q-22 20 -60 20t-69 -35q-35 -31 -35 -114q-5 -66 -35 -149t-73 -126t-43 -51
q-13 -18 -21 -60q-3 -140 7 -159q6 -5 14 -11t14 -10q25 -6 27 -12q4 -25 -8 -29h-54q-14 4 -28 15l-21 18q-2 2 -8 67q-6 64 -6 66l-2 8l-2 45v29z" />
    </font>
</defs>
</svg>
