<?xml version="1.0" standalone="no"?>
<!DOCTYPE svg PUBLIC "-//W3C//DTD SVG 1.1//EN" "http://www.w3.org/Graphics/SVG/1.1/DTD/svg11.dtd" >
<svg xmlns="http://www.w3.org/2000/svg">
<metadata>
Created by FontPrep 20130207 at Tue Jun 16 17:15:48 2015
 By Michael Lefebvre
&#60; info@fontfont.de &#62; Copyright Martin Majoor, 1998. Published by FontShop International.  FontFont Release 22
</metadata>
<defs>
<font id="ab33b937275e084cd888873999a0bec5" horiz-adv-x='1024' >
  <font-face 
    font-family="Scala-BoldItalic"
    font-weight="700"
    font-style="italic"
    font-stretch="normal"
    units-per-em="2048"
    panose-1="0 0 0 0 0 0 0 0 0 0"
    ascent="1638"
    descent="-410"
    x-height="948"
    cap-height="1352"
    bbox="-385 -524.009 2456 1827"
    underline-thickness="102"
    underline-position="-153"
    slope="-12"
    unicode-range="U+0020-FB02"
  />
<missing-glyph 
 />
    <glyph glyph-name=".notdef" 
 />
    <glyph glyph-name=".null" horiz-adv-x="0" 
 />
    <glyph glyph-name="nonmarkingreturn" horiz-adv-x="681" 
 />
    <glyph glyph-name="space" unicode=" " horiz-adv-x="512" 
 />
    <glyph glyph-name="exclam" unicode="!" horiz-adv-x="577" 
d="M459 116q0 -48 -49 -93q-101 -93 -185 -1q-41 44 -41 92t48 93t96 45t90 -44q41 -44 41 -92zM676 1509l-246 -1116h-164l105 1032z" />
    <glyph glyph-name="quotedbl" unicode="&#x22;" horiz-adv-x="837" 
d="M528 1348l-73 -463h-172l73 463h172zM856 1348l-74 -463h-170l74 463h170z" />
    <glyph glyph-name="numbersign" unicode="#" horiz-adv-x="1331" 
d="M944 805h-260l-80 -234h256zM1370 954l-53 -149h-213l-80 -234h215l-53 -151h-217l-148 -420h-162l148 420h-260l-148 -420h-159l149 420h-219l53 151h221l82 234h-221l53 149h224l139 394h156l-138 -394h258l138 394h161l-137 -394h211z" />
    <glyph glyph-name="dollar" unicode="$" horiz-adv-x="1112" 
d="M753 175q52 50 63 121t-17 122q-29 51 -107 100l-63 -405q72 12 124 62zM717 1255q-74 -12 -120 -57q-46 -44 -56 -110q-11 -66 13 -105t103 -100zM1198 1290l-168 -194q-49 80 -72 104t-90 64h-57l-70 -439q166 -117 217 -172q117 -127 101 -290t-137 -268t-314 -115
l-18 -119h-94l16 112q-180 13 -254 33t-166 86l164 209q53 -82 83 -112t110 -85l83 -2l74 467q-16 12 -70 52q-204 152 -237 277q-16 62 -4 136q23 150 137 241q115 91 303 105l19 119h94l-19 -117q170 0 257 -39q30 -12 112 -53z" />
    <glyph glyph-name="percent" unicode="%" horiz-adv-x="1740" 
d="M629 1014q-1 84 -59 142t-142 58t-142 -58t-58 -142t58 -142t142 -59q84 1 142 59t59 142zM1513 332q0 82 -58 141t-142 59q-85 0 -143 -58t-58 -142t58 -142t142 -59t143 59q58 60 58 142zM786 1014q0 -150 -104 -254t-252 -104t-254 104t-106 254t105 255t254 105
t253 -105t104 -255zM1548 1407l-1179 -1501h-195l1180 1501h194zM1671 334q0 -148 -105 -254t-254 -106t-253 104q-105 106 -105 255t104 253t254 104q148 0 254 -104t105 -252z" />
    <glyph glyph-name="ampersand" unicode="&#x26;" horiz-adv-x="1206" 
d="M629 755q-1 49 -19 73t-60 24t-116 -23q-76 -123 -106 -212t-31 -201q0 -295 90 -295q37 0 69 17t119 83l-196 326q125 33 187 95t63 113zM61 257q0 148 59 302q58 154 178 274t265 119q111 0 193 -44t82 -122v-69l-226 -178l131 -183q119 133 182 339q62 206 62 405
h-215l35 86h510l-33 -86h-170q-8 -268 -74 -478t-225 -376l174 -254q21 -31 39 -51l36 -40t48 -18t33 2q47 0 112 90l84 -63q-14 -16 -49 -58q-50 -60 -103 -102q-53 -41 -158 -41q-104 0 -208 148l-182 258q-104 -82 -189 -108q-141 -43 -309 -15q-82 115 -82 263z" />
    <glyph glyph-name="quotesingle" unicode="'" horiz-adv-x="512" 
d="M553 1348l-74 -463h-170l74 463h170z" />
    <glyph glyph-name="parenleft" unicode="(" horiz-adv-x="837" 
d="M879 1352q-123 -182 -223 -442t-138 -496t-20 -497t82 -441h-158q-68 121 -111 278q-174 662 209 1319q59 103 96 153t105 126h158z" />
    <glyph glyph-name="parenright" unicode=")" horiz-adv-x="837" 
d="M657 1073q182 -661 -208 -1319q-63 -106 -99 -156t-100 -122h-158q121 180 221 441t138 497q37 236 21 496t-81 442h158q61 -109 108 -279z" />
    <glyph glyph-name="asterisk" unicode="*" 
d="M543 844l-158 -338l-180 131l272 256zM489 1012l-24 -76l-371 47l68 209zM922 639l-179 -131l-159 338l65 49zM676 1403l-70 -367h-82l-69 367h221zM1032 981l-370 -47l-25 78l328 178z" />
    <glyph glyph-name="plus" unicode="+" horiz-adv-x="1126" 
d="M1049 401h-402v-401h-168v401h-401v168h401v402h168v-402h402v-168z" />
    <glyph glyph-name="comma" unicode="," horiz-adv-x="512" 
d="M297 213q57 -1 88 -39t21 -104q-25 -168 -277 -357l-72 80q150 105 163 189t-89 114q37 66 73 92t93 25z" />
    <glyph glyph-name="hyphen" unicode="-" horiz-adv-x="563" 
d="M592 584l-37 -230h-426l37 230h426z" />
    <glyph glyph-name="period" unicode="." horiz-adv-x="512" 
d="M403 115q0 -57 -39 -98q-40 -40 -98 -40t-97 40q-40 39 -40 97t40 98t97 40t97 -40t40 -97z" />
    <glyph glyph-name="slash" unicode="/" horiz-adv-x="837" 
d="M963 1352l-809 -1850h-156l811 1850h154z" />
    <glyph glyph-name="zero" unicode="0" horiz-adv-x="1081" 
d="M559 129q143 -1 233 113t89 268t-59 229q-58 74 -165 74q-153 0 -237 -118t-84 -265t64 -224t159 -77zM1081 549q0 -244 -147 -410t-387 -166q-168 0 -290 122q-122 123 -122 323t154 376t381 177q166 0 288 -122t123 -300z" />
    <glyph glyph-name="one" unicode="1" horiz-adv-x="747" 
d="M696 86l-12 -86h-582l13 86h176l104 682l-213 -92l-39 92l424 176h97l-138 -858h170z" />
    <glyph glyph-name="two" unicode="2" horiz-adv-x="878" 
d="M512 846q-60 0 -110 -36t-146 -134l-88 82q117 119 201 161t204 42q121 0 203 -65t82 -167q0 -195 -225 -360l-289 -213h522l-78 -156h-770l11 72l340 258q151 114 199 192t54 165t-23 123q-27 36 -87 36z" />
    <glyph glyph-name="three" unicode="3" horiz-adv-x="825" 
d="M766 752q0 -195 -291 -355q113 -2 189 -80t76 -221t-80 -286q-79 -144 -227 -238t-329 -94q-121 0 -235 76l82 129q121 -80 223 -80t214 131t112 307q0 109 -50 172t-145 63h-80l21 78q145 78 206 162q60 84 68 203q2 51 -33 86t-67 35q-102 0 -201 -92l-51 71
q137 143 342 144q112 -1 184 -57t72 -154z" />
    <glyph glyph-name="four" unicode="4" horiz-adv-x="968" 
d="M647 645l-418 -506h326zM997 139l-84 -139h-163l-72 -498h-201l72 498h-582l4 37l799 934h127l-131 -832h231z" />
    <glyph glyph-name="five" unicode="5" horiz-adv-x="854" 
d="M770 127q0 -252 -180 -452t-397 -199q-127 0 -211 84l88 131q82 -82 194 -82t188 125t76 293q0 169 -64 247t-224 103l82 567h583l-121 -182h-350l-43 -254q183 -25 281 -121t98 -260z" />
    <glyph glyph-name="six" unicode="6" horiz-adv-x="1128" 
d="M590 84q137 0 207 121q69 121 69 263t-48 206t-167 63h-90l27 99q84 20 139 20q163 0 275 -99t112 -255q0 -215 -160 -372t-389 -157q-169 1 -283 139t-114 337q0 381 199 692q238 375 581 375q143 0 256 -80l-131 -179q-90 133 -170 133t-169 -79q-89 -80 -165 -213
q-152 -266 -151 -645q0 -169 50 -269t122 -100z" />
    <glyph glyph-name="seven" unicode="7" horiz-adv-x="1001" 
d="M1038 944l-10 -78l-418 -843q-115 -231 -248 -402q-45 -59 -116 -145l-144 118q90 72 138 122q46 50 122 160t127 218l316 662h-453l-37 -189h-118l55 377h786z" />
    <glyph glyph-name="eight" unicode="8" horiz-adv-x="1044" 
d="M510 72q108 0 186 76t78 204q0 127 -80 215l-119 133l-90 -77q-145 -125 -145 -342q0 -85 55 -147t115 -62zM838 1235q0 82 -35 131t-95 49t-113 -63q-54 -62 -54 -166t57 -176l72 -92l75 65q31 27 62 99t31 153zM1049 1243q-1 -72 -57 -162t-142 -159l-102 -84l149 -156
q119 -125 119 -240q0 -200 -152 -334t-368 -135q-170 0 -272 83q-101 83 -101 233q0 96 63 198t174 191l138 108l-115 136q-88 104 -88 221q0 160 129 265q128 105 292 105t249 -75q84 -76 84 -195z" />
    <glyph glyph-name="nine" unicode="9" horiz-adv-x="1128" 
d="M1092 496q0 -367 -189 -662q-225 -354 -592 -354q-143 0 -256 80l131 178q90 -133 172 -133t176 72q93 73 166 200q141 248 142 615q0 168 -50 268t-122 100q-137 0 -207 -121t-70 -263t48 -206t167 -63h90l-26 -98q-84 -20 -140 -21q-164 0 -276 99t-111 255
q0 215 160 372t389 157q168 0 283 -138t115 -337z" />
    <glyph glyph-name="colon" unicode=":" horiz-adv-x="512" 
d="M248 -23q-57 0 -91 40q-34 39 -25 97t56 98q46 40 104 40t92 -40t26 -97t-56 -97t-106 -41zM358 678q-58 0 -91 40q-34 40 -23 97q8 57 55 97t104 40t91 -40t25 -97t-56 -97t-105 -40z" />
    <glyph glyph-name="semicolon" unicode=";" horiz-adv-x="512" 
d="M290 213q58 -1 88 -39t21 -104q-29 -172 -278 -357l-72 80q147 109 162 191q12 82 -86 112q33 63 70 90t95 27zM369 678q-57 0 -91 40t-26 97t55 97t105 40t90 -40q34 -40 24 -97t-55 -97t-102 -40z" />
    <glyph glyph-name="less" unicode="&#x3c;" horiz-adv-x="1126" 
d="M1047 0l-967 430v111l967 430v-164l-728 -322l728 -321v-164z" />
    <glyph glyph-name="equal" unicode="=" horiz-adv-x="1126" 
d="M1075 223h-1024v168h1024v-168zM1075 557h-1024v168h1024v-168z" />
    <glyph glyph-name="greater" unicode="&#x3e;" horiz-adv-x="1126" 
d="M1047 430l-967 -430v164l727 321l-727 322v164l967 -430v-111z" />
    <glyph glyph-name="question" unicode="?" horiz-adv-x="980" 
d="M344 104q0 50 43 90t92 40t85 -40q36 -38 36 -86t-43 -90t-92 -41q-49 0 -85 39t-36 88zM821 1131q0 204 -163 204q-86 0 -120 -18t-108 -84q43 -51 125 -109l-166 -125q-77 70 -101 104t-24 68q0 63 96 156q176 162 359 162q135 0 229 -79t94 -214t-102 -262t-375 -320
q35 -45 52 -67t71 -66l-190 -149q-98 113 -187 280q18 12 100 64t155 103q73 50 109 86t73 80q73 87 73 186z" />
    <glyph glyph-name="at" unicode="@" horiz-adv-x="2048" 
d="M791 471q-6 -281 82 -281q30 0 65 40t106 149q103 160 150 422q-41 51 -60 63t-65 13q-79 0 -145 -73t-99 -164t-34 -169zM1849 549q0 -248 -137 -408q-137 -159 -360 -159t-224 196q0 51 15 113l22 88q-59 -128 -149 -239q-53 -64 -128 -104q-74 -40 -146 -40t-125 94
q-52 94 -52 289q0 240 154 421t360 181q88 0 170 -51l62 51h110l-116 -727q-23 -152 94 -152q151 0 237 142t86 313q0 246 -199 434q-200 188 -446 189q-338 0 -546 -212t-207 -505q0 -160 62 -296t162 -223t218 -135q120 -49 232 -49t183 16t156 56l41 -121
q-170 -80 -366 -80q-334 0 -577 241t-242 574q0 379 246 621q247 242 628 242q307 1 545 -227t237 -533z" />
    <glyph glyph-name="A" unicode="A" horiz-adv-x="1376" 
d="M944 543l-115 528l-297 -528h412zM1382 86l-14 -86h-479l14 86h144l-76 332h-508l-184 -332h163l-14 -86h-424l14 86h127l736 1309h114l301 -1309h86z" />
    <glyph glyph-name="B" unicode="B" horiz-adv-x="1300" 
d="M791 645h-150l-86 -534h141q154 0 233 60t90 192t-47 207t-181 75zM877 1239h-142l-78 -481h146q92 0 166 68t83 170q9 103 -36 173t-139 70zM774 0h-635l13 86h155l189 1180h-156l12 86h596q197 0 282 -93t77 -233q-9 -140 -111 -226q-102 -85 -270 -87q190 -7 272 -105
t71 -258t-145 -255t-350 -95z" />
    <glyph glyph-name="C" unicode="C" horiz-adv-x="1366" 
d="M877 94q139 0 286 82l25 156h115l-43 -273q-250 -86 -453 -86q-291 0 -463 202t-144 505t252 500t537 196q162 0 311 -69l15 86h112l-57 -367h-113l21 131q-121 104 -254 105q-213 0 -372 -163q-160 -163 -184 -413t96 -421t313 -171z" />
    <glyph glyph-name="D" unicode="D" horiz-adv-x="1515" 
d="M887 1237h-174l-178 -1124h165q225 0 364 145q138 146 177 401t-56 417t-298 161zM735 0h-616l12 86h156l188 1180h-156l13 86h618q288 0 446 -194t115 -480q-47 -324 -260 -501t-516 -177z" />
    <glyph glyph-name="E" unicode="E" horiz-adv-x="1189" 
d="M1270 1409l-51 -326h-109l25 148h-426l-78 -483h327l23 139l111 2l-64 -404l-110 -2l22 144h-328l-80 -506h465l25 151h111l-43 -272h-975l12 86h156l186 1180h-156l15 86h823l8 57h111z" />
    <glyph glyph-name="F" unicode="F" horiz-adv-x="1169" 
d="M1249 1409l-51 -326h-108l24 148h-426l-78 -483h328l23 139l110 2l-63 -404l-111 -2l23 144h-328l-86 -541h137l-12 -86h-537l12 86h156l187 1180h-156l14 86h823l9 57h110z" />
    <glyph glyph-name="G" unicode="G" horiz-adv-x="1525" 
d="M840 -27q-332 0 -500 195t-131 510q20 178 99 316t195 220q232 164 533 164q90 0 148 -12t155 -49l13 76h112l-57 -365h-113l25 156q-78 45 -133 61t-142 17q-214 0 -374 -156t-192 -413t92 -427t337 -170q66 0 162 29l53 340h-176l15 86h573l-14 -86h-154l-66 -414
q-295 -78 -460 -78z" />
    <glyph glyph-name="H" unicode="H" horiz-adv-x="1710" 
d="M1796 1352l-12 -86h-156l-188 -1180h155l-12 -86h-553l12 86h154l86 539h-666l-86 -539h154l-12 -86h-553l12 86h156l188 1180h-156l13 86h553l-13 -86h-153l-84 -521h665l84 521h-153l12 86h553z" />
    <glyph glyph-name="I" unicode="I" horiz-adv-x="794" 
d="M877 1352l-13 -86h-153l-189 -1180h154l-12 -86h-553l12 86h156l188 1180h-156l13 86h553z" />
    <glyph glyph-name="J" unicode="J" horiz-adv-x="782" 
d="M25 -524q-176 0 -318 112l135 187q121 -127 254 -181q53 47 90 128q36 80 50 138t28 148l4 27q39 254 195 1231h-154l15 86h553l-15 -86h-155q-172 -1098 -187 -1182q-109 -608 -495 -608z" />
    <glyph glyph-name="K" unicode="K" horiz-adv-x="1337" 
d="M885 1352l-13 -86h-153l-189 -1180h154l-12 -86h-553l12 86h156l186 1178l-154 2l13 86h553zM1507 1352l-12 -86h-158l-467 -506l398 -674h98l-12 -86h-326l-387 668l541 598h-178l12 86h491z" />
    <glyph glyph-name="L" unicode="L" horiz-adv-x="1087" 
d="M1077 272l-43 -272h-946l12 86h156l188 1180h-155l12 86h553l-12 -86h-154l-182 -1145h436l25 151h110z" />
    <glyph glyph-name="M" unicode="M" horiz-adv-x="1845" 
d="M1950 1352l-15 -86h-172l-186 -1180h172l-12 -86h-588l12 86h172l142 885l-609 -991l-340 972l-137 -866h172l-12 -86h-473l12 86h172l186 1180h-172l15 86h342l334 -973l600 973h385z" />
    <glyph glyph-name="N" unicode="N" horiz-adv-x="1509" 
d="M1651 1352l-15 -86h-172l-202 -1289h-123l-572 1033l-145 -924h162l-13 -86h-462l12 86h170l170 1075l-49 105h-148l15 86h387l530 -969l139 883h-161l14 86h463z" />
    <glyph glyph-name="O" unicode="O" horiz-adv-x="1540" 
d="M772 86q176 0 307 157t170 411t-50 432t-252 178t-301 -165t-168 -413t56 -424t238 -176zM468 1183q218 193 503 193t439 -202t110 -512q-45 -312 -260 -500t-500 -188q-286 0 -438 201q-152 202 -112 508t258 500z" />
    <glyph glyph-name="P" unicode="P" horiz-adv-x="1228" 
d="M811 555q-47 0 -109 12l15 101q27 -6 55 -6q86 0 154 68t92 201q24 132 -26 219q-48 87 -156 87h-123l-183 -1151h175l-13 -86h-573l12 86h156l188 1180h-156l13 86h579q191 0 283 -112t75 -286q-17 -175 -147 -287t-311 -112z" />
    <glyph glyph-name="Q" unicode="Q" horiz-adv-x="1540" 
d="M772 86q174 0 306 158t171 408t-49 431q-88 180 -235 181q-177 0 -315 -158t-169 -412t55 -431t236 -177zM1434 -524q-203 0 -311 22q-200 40 -616 237q-101 48 -177 83q163 49 329 131l58 28q-82 -2 -150 23q-201 74 -293 248t-63 426q35 313 256 508q221 194 505 194
t438 -202q155 -202 112 -498q-76 -504 -512 -662q-152 -104 -295 -172q459 -213 712 -213q201 0 246 178h101q-16 -159 -124 -245t-216 -86z" />
    <glyph glyph-name="R" unicode="R" horiz-adv-x="1339" 
d="M842 1237h-129l-84 -532h121q106 1 185 77t95 194t-33 190t-155 71zM1112 0q-90 0 -121 19t-71 102l-232 481h-76l-82 -516h154l-12 -86h-553l12 86h156l188 1180h-156l13 86h583q189 0 291 -100t81 -252t-115 -250t-230 -125l221 -447q43 -90 119 -90h84l-14 -88h-240z
" />
    <glyph glyph-name="S" unicode="S" horiz-adv-x="1150" 
d="M788 1260q-92 0 -154 -43t-70 -118t29 -141q36 -66 94 -110q160 -120 235 -189q150 -139 131 -328q-21 -189 -149 -273t-307 -85q-179 0 -304 80l-10 -71h-113l57 368h113l-23 -151q109 -100 246 -101q221 0 248 183q12 85 -38 161t-130 134t-159 121t-129 151t-36 194
q19 158 151 246t325 88q86 0 213 -45l10 62h110l-55 -351h-110l22 142q-105 76 -197 76z" />
    <glyph glyph-name="T" unicode="T" horiz-adv-x="1228" 
d="M1405 1409l-53 -348h-113l27 170h-353l-182 -1145h197l-13 -86h-639l13 86h198l183 1145h-355l-26 -170h-113l53 348h113l-8 -57h950l8 57h113z" />
    <glyph glyph-name="U" unicode="U" horiz-adv-x="1597" 
d="M1739 1352l-13 -86h-172l-122 -770q-84 -522 -633 -523q-225 0 -356 128q-130 128 -97 337l131 828h-155l12 86h553l-13 -86h-153l-121 -764q-66 -395 248 -396q204 0 312 100t140 296l119 762h-170l15 88h475z" />
    <glyph glyph-name="V" unicode="V" horiz-adv-x="1353" 
d="M1583 1352l-14 -86h-119l-715 -1301h-100l-311 1301h-121l14 86h537l-15 -86h-174l217 -940l518 940h-147l14 86h416z" />
    <glyph glyph-name="W" unicode="W" horiz-adv-x="1929" 
d="M1280 1266h-162l47 -205zM2159 1352l-15 -86h-102l-715 -1301h-131l-137 588l-324 -588h-110l-301 1301h-121l14 86h477l-14 -86h-115l217 -940l234 417l-123 523h-115l15 86h770l-15 -86h-145l-199 -365l148 -614l538 979h-147l14 86h402z" />
    <glyph glyph-name="X" unicode="X" horiz-adv-x="1275" 
d="M1518 1352l-13 -86h-162l-479 -531l310 -649h161l-12 -86h-571l12 86h133l-209 446l-412 -446h189l-12 -86h-514l12 86h155l521 569l-289 611h-158l13 86h569l-12 -86h-136l191 -406l366 406h-180l13 86h514z" />
    <glyph glyph-name="Y" unicode="Y" horiz-adv-x="1253" 
d="M1481 1352l-13 -86h-147l-432 -561l-98 -619h155l-12 -86h-553l12 86h154l90 565l-307 615h-129l12 86h553l-12 -86h-152l219 -449l344 449h-174l13 86h477z" />
    <glyph glyph-name="Z" unicode="Z" horiz-adv-x="1368" 
d="M1421 1352l-10 -64l-950 -1167h696l33 211h110l-51 -332h-1126l8 61l959 1170h-662l-27 -164h-110l53 342h111l-9 -57h975z" />
    <glyph glyph-name="bracketleft" unicode="[" horiz-adv-x="512" 
d="M690 1352l-20 -127h-174l-254 -1596h174l-21 -127h-364l295 1850h364z" />
    <glyph glyph-name="backslash" unicode="\" horiz-adv-x="837" 
d="M668 -498h-154l-221 1850h156z" />
    <glyph glyph-name="bracketright" unicode="]" horiz-adv-x="512" 
d="M625 1352l-295 -1850h-365l19 111h174l258 1628h-174l18 111h365z" />
    <glyph glyph-name="asciicircum" unicode="^" 
d="M1014 549h-164l-293 616h-12l-295 -616h-156l426 854h68z" />
    <glyph glyph-name="underscore" unicode="_" 
d="M1036 0l-24 -168h-1024l24 168h1024z" />
    <glyph glyph-name="grave" unicode="`" horiz-adv-x="528" 
d="M805 1022h-111l-219 330h191z" />
    <glyph glyph-name="a" unicode="a" 
d="M570 854q-110 0 -190 -154t-81 -391q-2 -74 17 -123q18 -49 56 -49t97 66q95 111 143 227t111 348q-43 76 -153 76zM68 268q0 144 55 300t177 270q122 115 286 114q106 0 170 -49l16 35h178l-100 -576q-16 -102 -14 -143q20 20 118 156l68 -51q-190 -297 -348 -342
q-61 89 -43 262l8 57q-68 -133 -173 -230t-237 -98q-73 0 -117 75q-44 76 -44 220z" />
    <glyph glyph-name="b" unicode="b" horiz-adv-x="954" 
d="M717 616q0 142 -51 142t-107 -70q-168 -211 -256 -541q49 -86 154 -86t183 164t77 391zM948 674q0 -129 -45 -265t-117 -243q-133 -193 -346 -193q-106 0 -170 50l-34 -23h-154l217 1364h-190v51l333 94h99l-154 -913q195 356 416 356q145 1 145 -278z" />
    <glyph glyph-name="c" unicode="c" horiz-adv-x="772" 
d="M393 129q51 0 141 62q89 62 173 176l65 -54q-86 -109 -136 -159q-109 -107 -263 -148q-82 -23 -203 -22q-53 72 -75 133t-21 151q0 281 145 484t352 202q148 0 248 -94l-174 -145q-8 12 -25 54t-42 59t-72 18q-20 0 -96 -39q-41 -76 -73 -198t-34 -214q-8 -266 90 -266z
" />
    <glyph glyph-name="d" unicode="d" horiz-adv-x="999" 
d="M575 852q-117 0 -195 -158t-81 -385q-2 -74 18 -123t50 -49q51 1 106 63t93 121q64 99 151 478q-47 53 -142 53zM68 272q0 142 56 298t179 270q123 113 283 112q84 0 145 -32l70 444h-191v49l344 96h84q-190 -1163 -194 -1183l-8 -107q50 58 74 96q25 38 44 60l70 -51
q-90 -129 -126 -173q-110 -134 -226 -167q-41 57 -45 128t-2 85l20 110q-77 -153 -185 -243t-231 -91q-73 0 -117 78q-44 79 -44 221z" />
    <glyph glyph-name="e" unicode="e" horiz-adv-x="778" 
d="M571 782q0 36 -16 56q-31 39 -98 5q-7 -3 -21 -10l-24 -12q-27 -43 -56 -137t-41 -164l256 150v112zM291 -14q-78 0 -135 14q-92 125 -93 266q1 270 149 478t329 208q125 0 188 -57t64 -156v-53l-492 -268l-6 -103q-12 -203 74 -194q170 14 342 252l67 -60
q-108 -151 -240 -239t-247 -88z" />
    <glyph glyph-name="f" unicode="f" horiz-adv-x="524" 
d="M736 1513q158 0 284 -96l-146 -184q-70 86 -131 119l-77 41q-80 -25 -109 -73t-51 -187l-35 -205h209l-18 -123h-213l-140 -916q-27 -178 -153 -296t-283 -117q-117 0 -258 90l137 170q80 -94 219 -139q82 33 135 364l132 844h-170l4 67l188 62l39 223q29 162 154 259
t283 97z" />
    <glyph glyph-name="g" unicode="g" horiz-adv-x="858" 
d="M170 -268v-27q0 -57 64 -93t141 -36q123 0 216 83t93 169q0 61 -78 61h-370q-30 -40 -37 -54q-9 -15 -17 -31q-12 -23 -12 -72zM594 612q0 252 -129 252q-74 0 -122 -85t-48 -212q0 -250 139 -250q72 0 116 82t44 213zM799 629q0 -164 -121 -286t-285 -122q-47 0 -106 27
q-51 -80 -51 -105q0 -47 71 -47h330q99 0 153 -58t54 -151q0 -159 -142 -285t-340 -126q-158 0 -264 42t-172 158q82 125 215 240q-100 16 -151 82q74 147 213 278q-123 119 -123 250q0 170 119 299t280 129q98 0 240 -26h160l122 26l-63 -157h-168q29 -96 29 -168z" />
    <glyph glyph-name="h" unicode="h" horiz-adv-x="1064" 
d="M688 772q-30 0 -106 -82q-74 -82 -157 -217t-103 -309l-21 -164h-221l217 1364h-191v49l330 96h105l-160 -929q139 200 243 284t216 84q44 0 68 -33t24 -80t-17 -149l-81 -502q84 78 159 191l68 -51q-96 -134 -141 -186q-110 -129 -224 -154q-74 66 -73 166q0 37 8 79
l71 441q16 102 -14 102z" />
    <glyph glyph-name="i" unicode="i" horiz-adv-x="575" 
d="M72 803v49l303 96h94l-125 -762q74 70 114 122t50 67l63 -51q-141 -203 -247 -285q-55 -45 -125 -55q-63 72 -63 133t7 114l88 572h-159zM406 1159q-57 0 -88 42q-30 43 -24 105t46 104q39 42 96 42t87 -42t24 -104t-45 -104t-96 -43z" />
    <glyph glyph-name="j" unicode="j" horiz-adv-x="501" 
d="M-116 -514q-151 0 -251 70l115 174q111 -104 205 -129q67 33 93 105t39 162q13 91 15 101l129 834h-159v47l311 98h94l-168 -1052q-27 -174 -149 -292t-274 -118zM406 1159q-57 0 -88 42q-30 43 -24 105t46 104q39 42 96 42t87 -42t24 -104t-45 -104t-96 -43z" />
    <glyph glyph-name="k" unicode="k" horiz-adv-x="944" 
d="M612 -16q-86 0 -233 499l-78 -483h-221l215 1364h-189v47l330 98h105l-150 -938q80 29 203 103t123 119q1 20 -15 37t-47 18h-69l26 80h353q-31 -88 -105 -168t-137 -123t-166 -102q113 -350 160 -351q25 0 170 191l67 -51q-94 -136 -192 -238t-150 -102z" />
    <glyph glyph-name="l" unicode="l" horiz-adv-x="497" 
d="M84 117q0 61 8 114l178 1133h-190v49l334 96h94l-215 -1323q73 70 113 122t51 67l63 -51q-141 -203 -248 -285q-55 -45 -125 -55q-63 72 -63 133z" />
    <glyph glyph-name="m" unicode="m" horiz-adv-x="1630" 
d="M1238 772q-32 0 -106 -81t-156 -215q-83 -134 -104 -312l-18 -164h-223l106 670q15 102 -15 102t-105 -82t-157 -217t-104 -309l-20 -164h-221l127 803h-160v49l299 96h104l-69 -368q139 200 242 284t216 84q90 0 91 -123q0 -68 -13 -139l-20 -108q135 198 239 284
t215 86q43 0 70 -33t27 -80t-17 -149l-82 -502q90 84 160 191l68 -51q-96 -134 -142 -186q-112 -130 -225 -154q-72 63 -71 166q0 37 8 79l71 441q17 102 -15 102z" />
    <glyph glyph-name="n" unicode="n" horiz-adv-x="1105" 
d="M657 150q0 37 9 79l71 441q15 102 -15 102t-105 -82t-157 -217t-104 -309l-20 -164h-221l127 803h-160v49l299 96h104l-69 -368q139 200 242 284t216 84q43 0 68 -33t25 -80t-17 -149l-82 -502q84 78 160 191l68 -51q-96 -134 -142 -186q-112 -129 -223 -154
q-74 66 -74 166z" />
    <glyph glyph-name="o" unicode="o" horiz-adv-x="913" 
d="M518 850q-100 0 -170 -135t-75 -299t27 -250t95 -86q104 0 172 135t73 299t-28 250t-94 86zM346 -25q-133 1 -222 97t-83 280q8 252 163 426t357 174q141 0 229 -99t82 -300q-8 -250 -164 -414t-362 -164z" />
    <glyph glyph-name="p" unicode="p" horiz-adv-x="991" 
d="M758 616q0 141 -53 142q-29 0 -75 -39q-65 -55 -143 -194t-143 -378q49 -86 154 -86q104 0 182 164t78 391zM989 674q0 -129 -45 -265t-117 -243q-133 -193 -346 -193q-88 0 -145 33l-70 -426h176l-12 -78h-536l12 78h139l197 1223h-160v51l305 94h98l-59 -350
q78 158 192 256q115 98 226 98q145 1 145 -278z" />
    <glyph glyph-name="q" unicode="q" horiz-adv-x="923" 
d="M565 854q-113 0 -189 -159t-77 -386q0 -76 17 -124t46 -48q12 0 54 28q120 81 192 259q52 125 113 354q-43 76 -156 76zM213 -27q-61 0 -103 79t-42 196q0 240 126 461q60 106 160 175q100 68 214 68t177 -49l56 35h145l-217 -1358h115l-13 -78h-536l12 78h205l113 694
q-87 -160 -183 -230t-229 -71z" />
    <glyph glyph-name="r" unicode="r" horiz-adv-x="722" 
d="M82 803v49l309 96h88l-51 -276q61 110 136 192q76 82 146 82t115 -72l-149 -223q-40 37 -104 24t-103 -93q-84 -166 -109 -357l-30 -225h-221l129 803h-156z" />
    <glyph glyph-name="s" unicode="s" horiz-adv-x="671" 
d="M289 -12q-62 0 -107 12h-139l41 252h98q-2 -8 -10 -74q0 -47 38 -77q38 -29 100 -29t98 44t36 99q1 92 -113 177q-48 36 -95 75q-117 97 -114 212q3 117 98 193t218 76q45 0 83 -6t40 -6h129l-39 -252h-94q12 53 12 92t-29 65q-30 25 -82 25t-88 -41t-37 -90t32 -89
t81 -76t94 -76q118 -98 115 -224t-113 -204t-253 -78z" />
    <glyph glyph-name="t" unicode="t" horiz-adv-x="598" 
d="M117 129q0 35 10 100l88 576h-168l4 67l187 54l53 276h207l-45 -274h213l-23 -123h-211l-96 -617q113 86 213 189l65 -60q-166 -178 -317 -282q-51 -35 -121 -51q-59 53 -59 145z" />
    <glyph glyph-name="u" unicode="u" horiz-adv-x="1116" 
d="M100 803v49l301 96h103l-111 -690q-16 -104 15 -104q32 0 96 68t125 164q61 94 86 158t33 102t20 116l27 166h219l-117 -744q74 72 107 117l53 76l67 -51q-88 -126 -136 -182t-108 -103t-161 -57q-37 72 -40 134t11 138l15 76q-236 -354 -429 -355q-123 0 -122 144
q0 16 18 135l86 547h-158z" />
    <glyph glyph-name="v" unicode="v" horiz-adv-x="860" 
d="M889 743q0 -53 -30 -113t-97 -163q-207 -307 -481 -483h-93v819h-165v49l270 96h102v-745q101 90 199 220t98 259q0 94 -127 158l215 114q109 -94 109 -211z" />
    <glyph glyph-name="w" unicode="w" horiz-adv-x="1335" 
d="M1384 756q0 -104 -127 -289q-238 -340 -481 -483h-92v397q-190 -272 -403 -397h-93v819h-165v49l270 96h102v-745q78 70 159 170t130 188v242h-145v49l249 96h103v-745q101 90 199 220t98 259q0 94 -127 158l215 114q108 -94 108 -198z" />
    <glyph glyph-name="x" unicode="x" horiz-adv-x="1052" 
d="M918 778q-35 0 -58 -26q-24 -26 -111 -136q-87 -112 -90 -112l113 -271q25 -63 48 -63t46 30l40 50t36 49t33 43l69 -53l-98 -133q-62 -86 -126 -129t-102 -43t-56 12t-33 47l-125 291l-37 -51q-37 -53 -74 -107l-39 -53q-41 -55 -88 -94t-73 -39q-68 0 -150 100l113 168
q6 -8 25 -38t40 -32q66 0 129 84l121 158l-131 303q-17 43 -31 46q-4 1 -17 1t-63 -56q-51 -56 -69 -83l-64 49l74 92q66 82 132 126t118 44q51 0 80 -63l125 -285l174 219q43 53 89 90t75 37q61 0 141 -94l-111 -149q-54 71 -75 71z" />
    <glyph glyph-name="y" unicode="y" horiz-adv-x="870" 
d="M899 741q0 -80 -32 -147q-32 -66 -49 -100t-54 -88q-37 -55 -51 -77q-15 -22 -57 -79t-46 -64q-63 -88 -102 -270l-70 -334h156l-16 -80h-521l15 78h149l92 465q21 95 -18 258l-115 500h-164v65l351 82l157 -708l82 116q82 119 107 171t25 135t-120 184l189 106
q92 -86 92 -213z" />
    <glyph glyph-name="z" unicode="z" horiz-adv-x="999" 
d="M344 209q172 0 406 -82l147 166l68 -47q-103 -160 -161 -211t-154 -51t-158 16l-261 74l-127 -90h-88q16 63 42 98t128 137l506 508h-33q-166 0 -321 78l-150 -164l-65 37q139 270 301 270q27 0 115 -18l264 -53l100 71h96q-37 -104 -145 -213l-530 -526h20z" />
    <glyph glyph-name="braceleft" unicode="{" horiz-adv-x="837" 
d="M899 1440q-72 0 -120 -51t-62 -148l-74 -467q-23 -137 -71 -192t-160 -70q110 -16 140 -70t9 -192l-76 -475q-16 -97 15 -149t102 -52h80l-14 -98h-168q-266 0 -224 274l78 486q33 239 -121 239h-75l12 74h76q76 0 126 62t68 177l74 463q43 272 309 273h168l-12 -84h-80z
" />
    <glyph glyph-name="bar" unicode="|" horiz-adv-x="512" 
d="M578 1524l-324 -2048h-156l324 2048h156z" />
    <glyph glyph-name="braceright" unicode="}" horiz-adv-x="837" 
d="M752 453q-76 -1 -126 -63t-69 -177l-74 -463q-43 -272 -309 -272h-168l12 84h80q72 0 120 51t63 147l73 467q20 137 70 191t162 71q-109 17 -141 71t-11 190l76 477q31 199 -115 198h-82l15 99h170q266 0 223 -273l-76 -485q-17 -115 13 -177t106 -63h76l-13 -73h-75z
" />
    <glyph glyph-name="asciitilde" unicode="~" horiz-adv-x="1114" 
d="M762 297q-62 0 -116 15q-54 14 -146 58t-150 44q-125 0 -256 -99l-86 140q172 137 326 137q63 0 166 -43l102 -43q88 -37 146 -37q127 0 264 98l92 -145q-168 -125 -342 -125z" />
    <glyph glyph-name="exclamdown" unicode="&#xa1;" horiz-adv-x="577" 
d="M481 623l-104 -1033l-305 -84l245 1117h164zM563 902q0 -48 -48 -93t-96 -45t-89 44t-41 92t49 93t96 45t88 -44t41 -92z" />
    <glyph glyph-name="cent" unicode="&#xa2;" horiz-adv-x="907" 
d="M662 844q-117 -20 -202 -116t-110 -261q-16 -105 10 -201t60 -114zM536 -27q-60 0 -83 4l-54 -153h-94l64 170q-135 16 -214 150t-57 298q35 246 203 378t401 132l52 154h94l-55 -160q66 -10 103 -26t105 -58l-147 -147q-27 45 -45 63t-59 43l-248 -702q61 -12 102 -13
q84 0 230 72l34 -90q-204 -115 -332 -115z" />
    <glyph glyph-name="sterling" unicode="&#xa3;" horiz-adv-x="1179" 
d="M1262 1223q-82 0 -98 88t-48 88q-39 0 -101 -86t-97 -191l-275 -796h391l-49 -138h-383l-110 -299q-33 -82 -93 -157h11q114 0 240 -66t198 -65q72 0 78 57q2 49 -72 133l193 119q82 -121 73 -199q-6 -105 -105 -169t-247 -64t-231 55l-88 57q-49 31 -121 41
q-162 -156 -316 -155q-31 0 -48 17t-13 44q2 57 69 108q68 50 179 76q49 90 100 240l78 227h-250l39 97l252 41l295 843q53 154 170 242t248 88t201 -44t67 -111q-4 -67 -76 -105q-33 -16 -61 -16z" />
    <glyph glyph-name="currency" unicode="&#xa4;" 
d="M608 928q-20 0 -96 -39q-43 -84 -68 -184h365l-21 -103h-368q-8 -49 -14 -170h350l-21 -102h-327q14 -201 88 -201q112 0 180 11t155 57l41 -84q-102 -70 -227 -100t-373 -29q-96 127 -96 346h-162l17 78l153 24q20 143 27 170h-143l16 78l170 22q68 154 178 244t250 90
t240 -94l-91 -151q-106 137 -223 137z" />
    <glyph glyph-name="yen" unicode="&#xa5;" horiz-adv-x="1259" 
d="M1481 1352l-13 -86h-147l-432 -561h307l-14 -103h-308l-28 -170h307l-16 -102h-308l-38 -244h155l-12 -86h-553l12 86h154l39 244h-303l16 102h303l29 170h-303l14 103h268l-280 561h-129l12 86h553l-12 -86h-152l219 -449l344 449h-174l13 86h477z" />
    <glyph glyph-name="brokenbar" unicode="&#xa6;" horiz-adv-x="512" 
d="M578 1524l-148 -916h-156l148 916h156zM401 391l-147 -915h-156l148 915h155z" />
    <glyph glyph-name="section" unicode="&#xa7;" horiz-adv-x="706" 
d="M143 -416q92 0 180 77t130 234q30 129 32 237q2 109 2 135v212q0 442 69 620q36 93 95 167l62 -13q-33 -67 -47 -181t-14 -202t7 -219q6 -131 7 -164q4 -258 -45 -480t-136 -337q-145 -195 -379 -194q-193 0 -276 127l160 137q14 -52 60 -104t93 -52zM711 1391
q-203 0 -293 -238q-74 -186 -53 -643q-3 -43 -3 -159q-2 -356 -75 -498q-37 -72 -97 -132l-59 13q35 70 50 184t16 197l-11 383q-4 258 44 477t137 342q141 195 387 194q78 1 152 -31t116 -98l-160 -135q-12 51 -58 97t-93 47z" />
    <glyph glyph-name="dieresis" unicode="&#xa8;" horiz-adv-x="831" 
d="M237 1292q51 0 85 -35t34 -85t-34 -85t-85 -35q-50 0 -85 36q-35 34 -35 84t35 85t85 35zM715 1172q0 -50 -35 -85t-85 -35t-85 36q-35 34 -35 84t35 85t85 35t85 -35t35 -85z" />
    <glyph glyph-name="copyright" unicode="&#xa9;" horiz-adv-x="2048" 
d="M1100 86h46q19 0 24 2q6 2 16 4t28 9t30 14q11 8 24 16v145h123v-219q-193 -84 -326 -84q-227 -1 -379 145t-152 362t148 364q147 148 375 149q102 0 209 -55v57h120v-295h-122v131q-62 35 -98 45t-89 9q-113 0 -189 -119q-76 -120 -77 -288q0 -168 81 -280t208 -112z
M1733 497q0 293 -208 501t-501 208t-501 -208t-208 -502t208 -501q208 -208 501 -208t501 208t208 502zM1864 498q0 -348 -246 -595t-594 -247t-594 247t-246 595t246 594t594 246t594 -246t246 -594z" />
    <glyph glyph-name="ordfeminine" unicode="&#xaa;" horiz-adv-x="880" 
d="M560 1298q-64 0 -118 -97q-53 -97 -54 -225t28 -128t79 56t83 130q33 76 75 228q-29 36 -93 36zM573 1395q70 0 113 -27l8 16h154l-74 -401q-2 -10 -8 -53q7 8 61 84l72 -51q-80 -119 -140 -175t-130 -75q-47 69 -41 161q-117 -166 -264 -165q-59 0 -95 56
q-35 55 -35 155t40 208t130 187q90 80 209 80z" />
    <glyph glyph-name="guillemotleft" unicode="&#xab;" 
d="M668 852l-13 -84l-293 -309l195 -309l-12 -87l-500 396zM1108 852l-12 -84l-293 -309l194 -309l-12 -87l-500 396z" />
    <glyph glyph-name="logicalnot" unicode="&#xac;" horiz-adv-x="512" 
 />
    <glyph glyph-name="registered" unicode="&#xae;" horiz-adv-x="2048" 
d="M1180 686q0 86 -44 125t-139 39h-71v-344h94q160 0 160 180zM1499 0h-299l-239 422h-35v-326h110v-96h-458v96h133v762h-133v96h466q178 0 266 -59t87 -183q0 -124 -67 -194q-67 -72 -156 -76l190 -305q12 -16 44 -28t54 -13h37v-96zM1733 470q0 294 -208 502t-501 208
t-501 -208t-208 -502t208 -502t501 -208t501 208t208 502zM1864 469q0 -348 -246 -594t-594 -246t-594 246t-246 594t246 595t594 247t594 -247t246 -595z" />
    <glyph glyph-name="macron" unicode="&#xaf;" horiz-adv-x="831" 
d="M893 1231l-21 -127h-557l21 127h557z" />
    <glyph glyph-name="degree" unicode="&#xb0;" horiz-adv-x="681" 
d="M483 1121q0 59 -43 103t-103 44q-59 0 -103 -43t-44 -103t43 -104q43 -43 103 -43t104 43q43 43 43 103zM586 1120q0 -102 -73 -175t-176 -73t-176 73t-73 175t73 176t176 74t176 -74t73 -176z" />
    <glyph glyph-name="plusminus" unicode="&#xb1;" horiz-adv-x="1126" 
d="M1049 0h-971v168h971v-168zM1049 532h-402v-319h-168v319h-401v168h401v320h168v-320h402v-168z" />
    <glyph glyph-name="twosuperior" unicode="&#xb2;" horiz-adv-x="747" 
d="M498 1286q-43 0 -77 -22t-108 -97l-86 74q93 90 155 121t152 31t152 -47q63 -47 64 -123q0 -136 -189 -272q-25 -17 -77 -53t-64 -44h344l-70 -133h-567l12 70l242 176q102 76 135 125q33 50 38 122t-56 72z" />
    <glyph glyph-name="threesuperior" unicode="&#xb3;" horiz-adv-x="673" 
d="M629 799q0 -171 -131 -309t-330 -138q-88 0 -186 64l73 112q94 -59 160 -59q67 0 141 84t74 199q0 68 -32 106t-89 39h-76l21 78q102 53 144 107t46 130q2 28 -18 48t-37 20q-66 0 -143 -72l-53 74q111 111 260 111q82 0 138 -42t56 -116q0 -129 -172 -231
q68 -16 111 -70t43 -135z" />
    <glyph glyph-name="acute" unicode="&#xb4;" horiz-adv-x="681" 
d="M594 1413l-326 -330h-143l244 330h225z" />
    <glyph glyph-name="mu" unicode="&#xb5;" horiz-adv-x="512" 
 />
    <glyph glyph-name="paragraph" unicode="&#xb6;" horiz-adv-x="1318" 
d="M1137 1401h-148l-291 -1763q170 84 215 364zM500 -524q-242 0 -330 127l180 178q8 -12 42 -66t73 -82t115 -18l135 860h-103q-172 0 -300 128t-128 323q0 254 188 419t437 164h340l31 189h127l-39 -189h108q74 0 158 -49l-70 -131q-40 40 -49 44q-8 3 -19 8t-32 8
l-109 10l-221 -1438q-74 -485 -534 -485z" />
    <glyph glyph-name="periodcentered" unicode="&#xb7;" horiz-adv-x="681" 
d="M551 492q0 -58 -40 -98t-97 -40t-98 40q-40 40 -40 98t40 97q40 40 98 40t97 -40q40 -40 40 -97z" />
    <glyph glyph-name="cedilla" unicode="&#xb8;" horiz-adv-x="729" 
d="M209 -481q-66 0 -160 26l78 113q35 -61 98 -61q39 1 73 33t42 82t-43 77t-113 27l172 161h111l-109 -108q72 -2 113 -43t33 -102q-16 -90 -97 -148t-198 -57z" />
    <glyph glyph-name="onesuperior" unicode="&#xb9;" horiz-adv-x="643" 
d="M612 711h-438l12 88h123l68 418l-137 -58l-39 88l313 125h88l-96 -573h119z" />
    <glyph glyph-name="ordmasculine" unicode="&#xba;" horiz-adv-x="776" 
d="M500 1294q-74 0 -116 -101t-42 -197q0 -188 73 -187q73 0 115 99t41 218q-3 168 -71 168zM379 709q-115 1 -173 75t-54 189q4 158 109 289t269 131q116 0 176 -76t58 -191q-2 -158 -108 -288t-277 -129z" />
    <glyph glyph-name="guillemotright" unicode="&#xbb;" 
d="M653 459l-622 -396l12 87l291 309l-193 309l13 84zM1094 459l-623 -396l12 87l293 309l-194 309l12 84z" />
    <glyph glyph-name="onequarter" unicode="&#xbc;" horiz-adv-x="1740" 
d="M612 711h-438l12 88h123l68 418l-137 -58l-39 88l313 125h88l-96 -573h119zM1049 127h182l51 274zM1503 2h-110l-50 -338h-172l52 338h-408l6 47l565 643h115l-92 -565h172zM1548 1407l-1179 -1501h-195l1180 1501h194z" />
    <glyph glyph-name="onehalf" unicode="&#xbd;" horiz-adv-x="1740" 
d="M1396 672q90 0 152 -47q63 -47 64 -123q0 -136 -189 -272q-25 -17 -77 -53t-64 -44h344l-70 -133h-565l10 72l242 176q102 74 135 124t37 122q6 72 -55 71q-43 1 -78 -23t-106 -96l-84 76q92 88 153 119t151 31zM612 711h-438l12 88h123l68 418l-137 -58l-39 88l313 125
h88l-96 -573h119zM1548 1407l-1179 -1501h-195l1180 1501h194z" />
    <glyph glyph-name="threequarters" unicode="&#xbe;" horiz-adv-x="1740" 
d="M629 799q0 -171 -131 -309t-330 -138q-88 0 -186 64l73 112q94 -59 160 -59q67 0 141 84t74 199q0 68 -32 106t-89 39h-76l21 78q102 53 144 107t46 130q2 28 -18 48t-37 20q-66 0 -143 -72l-53 74q111 111 260 111q82 0 138 -42t56 -116q0 -129 -172 -231
q68 -16 111 -70t43 -135zM1049 127h182l51 274zM1503 2h-110l-50 -338h-172l52 338h-408l6 47l565 643h115l-92 -565h172zM1610 1407l-1180 -1501h-194l1179 1501h195z" />
    <glyph glyph-name="questiondown" unicode="&#xbf;" horiz-adv-x="980" 
d="M287 -150q0 -204 163 -204q86 0 120 18t108 84q-43 51 -125 109l166 125q77 -70 101 -104t24 -68q0 -63 -96 -156q-176 -162 -359 -162q-135 0 -229 79t-94 214t102 262t375 320q-66 88 -123 133l190 149q98 -113 187 -280q-18 -12 -100 -64t-155 -103q-73 -50 -109 -86
t-73 -80q-73 -86 -73 -186zM764 877q0 -49 -43 -89t-92 -40t-85 38t-36 87q0 47 43 89t92 42t85 -39t36 -88z" />
    <glyph glyph-name="Agrave" unicode="&#xc0;" horiz-adv-x="1376" 
d="M944 543l-115 528l-297 -528h412zM1382 86l-14 -86h-479l14 86h144l-76 332h-508l-184 -332h163l-14 -86h-424l14 86h127l736 1309h114l301 -1309h86zM1059 1436h-146l-270 329h225z" />
    <glyph glyph-name="Aacute" unicode="&#xc1;" horiz-adv-x="1376" 
d="M944 543l-115 528l-297 -528h412zM1382 86l-14 -86h-479l14 86h144l-76 332h-508l-184 -332h163l-14 -86h-424l14 86h127l736 1309h114l301 -1309h86zM1219 1739l-377 -330h-144l297 330h224z" />
    <glyph glyph-name="Acircumflex" unicode="&#xc2;" horiz-adv-x="1376" 
d="M944 543l-115 528l-297 -528h412zM1382 86l-14 -86h-479l14 86h144l-76 332h-508l-184 -332h163l-14 -86h-424l14 86h127l736 1309h114l301 -1309h86zM1210 1436h-106l-148 180l-202 -180h-117l283 338h122z" />
    <glyph glyph-name="Atilde" unicode="&#xc3;" horiz-adv-x="1376" 
d="M944 543l-115 528l-297 -528h412zM1382 86l-14 -86h-479l14 86h144l-76 332h-508l-184 -332h163l-14 -86h-424l14 86h127l736 1309h114l301 -1309h86zM1016 1493q-84 0 -140 42t-72 49q-15 7 -46 7q-80 0 -168 -78l-49 66q160 160 282 160q66 0 95 -19l69 -49
q49 -35 109 -35t89 14q28 14 87 64l49 -63q-88 -88 -154 -123q-67 -35 -151 -35z" />
    <glyph glyph-name="Adieresis" unicode="&#xc4;" horiz-adv-x="1376" 
d="M944 543l-115 528l-297 -528h412zM1382 86l-14 -86h-479l14 86h144l-76 332h-508l-184 -332h163l-14 -86h-424l14 86h127l736 1309h114l301 -1309h86zM755 1659q51 0 85 -36t34 -86t-34 -85t-85 -35q-50 0 -85 35t-35 85t35 86t85 36zM1233 1537q0 -50 -35 -85t-85 -35
t-85 35t-35 85t35 86t85 36t85 -36t35 -86z" />
    <glyph glyph-name="Aring" unicode="&#xc5;" horiz-adv-x="1376" 
d="M944 543l-115 528l-297 -528h412zM856 1642q0 -38 28 -66t66 -28t66 28t28 67q0 40 -27 68q-28 28 -67 28q-38 0 -66 -29t-28 -68zM1382 86l-14 -86h-479l14 86h144l-76 332h-508l-184 -332h163l-14 -86h-424l14 86h127l736 1309h114l301 -1309h86zM1130 1643
q0 -75 -52 -127t-127 -54q-75 0 -128 54t-53 128t53 126t128 52t127 -52t52 -127z" />
    <glyph glyph-name="AE" unicode="&#xc6;" horiz-adv-x="1783" 
d="M1071 1255l-493 -716h378zM1868 1411l-51 -328h-113l25 148h-418l-78 -488h323l23 142h111l-64 -404h-110l22 142h-324l-79 -502h458l27 147h109l-43 -268h-967l12 86h154l53 326h-446l-226 -326h158l-12 -86h-410l12 86h121l811 1176h-164l15 90h950l8 59h113z" />
    <glyph glyph-name="Ccedilla" unicode="&#xc7;" horiz-adv-x="1366" 
d="M877 94q139 0 286 82l25 156h115l-43 -273q-221 -76 -381 -84l-109 -122q70 -7 104 -49t23 -116q-12 -74 -97 -132q-152 -106 -356 -21l84 105q84 -102 167 -27q34 31 43 87q17 107 -144 105l156 170q-268 21 -423 219t-127 494t252 492q224 197 537 196q162 0 311 -69
l15 86h112l-57 -367h-113l21 131q-121 104 -254 105q-213 0 -372 -163q-160 -163 -184 -413t96 -421t313 -171z" />
    <glyph glyph-name="Egrave" unicode="&#xc8;" horiz-adv-x="1189" 
d="M1270 1409l-51 -326h-109l25 148h-426l-78 -483h327l23 139l111 2l-64 -404l-110 -2l22 144h-328l-80 -506h465l25 151h111l-43 -272h-975l12 86h156l186 1180h-156l15 86h823l8 57h111zM932 1397h-146l-270 329h225z" />
    <glyph glyph-name="Eacute" unicode="&#xc9;" horiz-adv-x="1189" 
d="M1270 1409l-51 -326h-109l25 148h-426l-78 -483h327l23 139l111 2l-64 -404l-110 -2l22 144h-328l-80 -506h465l25 151h111l-43 -272h-975l12 86h156l186 1180h-156l15 86h823l8 57h111zM1126 1735l-378 -330h-144l297 330h225z" />
    <glyph glyph-name="Ecircumflex" unicode="&#xca;" horiz-adv-x="1189" 
d="M1270 1409l-51 -326h-109l25 148h-426l-78 -483h327l23 139l111 2l-64 -404l-110 -2l22 144h-328l-80 -506h465l25 151h111l-43 -272h-975l12 86h156l186 1180h-156l15 86h823l8 57h111zM1106 1485h-107l-145 180l-205 -180h-117l285 338h123z" />
    <glyph glyph-name="Edieresis" unicode="&#xcb;" horiz-adv-x="1189" 
d="M1270 1409l-51 -326h-109l25 148h-426l-78 -483h327l23 139l111 2l-64 -404l-110 -2l22 144h-328l-80 -506h465l25 151h111l-43 -272h-975l12 86h156l186 1180h-156l15 86h823l8 57h111zM762 1590q0 -50 -36 -85t-85 -35t-85 35t-36 85t36 85t85 35t85 -35t36 -85z
M1137 1590q0 -50 -35 -85t-85 -35t-86 35t-36 85t36 85t86 35t85 -35t35 -85z" />
    <glyph glyph-name="Igrave" unicode="&#xcc;" horiz-adv-x="794" 
d="M877 1352l-13 -86h-153l-189 -1180h154l-12 -86h-553l12 86h156l188 1180h-156l13 86h553zM735 1405h-145l-271 330h226z" />
    <glyph glyph-name="Iacute" unicode="&#xcd;" horiz-adv-x="794" 
d="M877 1352l-13 -86h-153l-189 -1180h154l-12 -86h-553l12 86h156l188 1180h-156l13 86h553zM1012 1735l-379 -330h-144l297 330h226z" />
    <glyph glyph-name="Icircumflex" unicode="&#xce;" horiz-adv-x="794" 
d="M877 1352l-13 -86h-153l-189 -1180h154l-12 -86h-553l12 86h156l188 1180h-156l13 86h553zM901 1466h-106l-148 181l-203 -181h-116l282 338h125z" />
    <glyph glyph-name="Idieresis" unicode="&#xcf;" horiz-adv-x="794" 
d="M877 1352l-13 -86h-153l-189 -1180h154l-12 -86h-553l12 86h156l188 1180h-156l13 86h553zM454 1667q50 0 84 -36t35 -86q-1 -50 -35 -85t-84 -35t-85 35t-35 85t35 86t85 36zM934 1545q0 -50 -36 -85t-86 -35t-85 35t-35 85t35 86t85 36t86 -36t36 -86z" />
    <glyph glyph-name="Eth" unicode="&#xd0;" horiz-adv-x="1515" 
d="M887 1237h-174l-72 -463h297l-16 -102h-297l-90 -559h165q225 0 364 145q138 146 177 401t-56 417t-298 161zM735 0h-616l12 86h156l94 586h-299l16 102h299l78 492h-156l13 86h618q288 0 446 -194t115 -480q-47 -324 -260 -501t-516 -177z" />
    <glyph glyph-name="Ntilde" unicode="&#xd1;" horiz-adv-x="1509" 
d="M1651 1352l-15 -86h-172l-202 -1289h-123l-572 1033l-145 -924h162l-13 -86h-462l12 86h170l170 1075l-49 105h-148l15 86h387l530 -969l139 883h-161l14 86h463zM809 1536q-74 0 -168 -78l-49 64q160 162 287 161q63 0 92 -18l69 -49q48 -35 110 -35t88 12t85 64l51 -64
q-88 -88 -154 -122q-66 -33 -150 -33q-85 0 -140 41q-54 41 -72 49t-49 8z" />
    <glyph glyph-name="Ograve" unicode="&#xd2;" horiz-adv-x="1540" 
d="M772 86q176 0 307 157t170 411t-50 432t-252 178t-301 -165t-168 -413t56 -424t238 -176zM468 1183q218 193 503 193t439 -202t110 -512q-45 -312 -260 -500t-500 -188q-286 0 -438 201q-152 202 -112 508t258 500zM999 1403h-143l-272 330h225z" />
    <glyph glyph-name="Oacute" unicode="&#xd3;" horiz-adv-x="1540" 
d="M772 86q176 0 307 157t170 411t-50 432t-252 178t-301 -165t-168 -413t56 -424t238 -176zM468 1183q218 193 503 193t439 -202t110 -512q-45 -312 -260 -500t-500 -188q-286 0 -438 201q-152 202 -112 508t258 500zM1290 1737l-379 -330h-143l297 330h225z" />
    <glyph glyph-name="Ocircumflex" unicode="&#xd4;" horiz-adv-x="1540" 
d="M772 86q176 0 307 157t170 411t-50 432t-252 178t-301 -165t-168 -413t56 -424t238 -176zM468 1183q218 193 503 193t439 -202t110 -512q-45 -312 -260 -500t-500 -188q-286 0 -438 201q-152 202 -112 508t258 500zM1264 1468h-107l-145 181l-205 -181h-117l285 338h123z
" />
    <glyph glyph-name="Otilde" unicode="&#xd5;" horiz-adv-x="1540" 
d="M772 86q176 0 307 157t170 411t-50 432t-252 178t-301 -165t-168 -413t56 -424t238 -176zM468 1183q218 193 503 193t439 -202t110 -512q-45 -312 -260 -500t-500 -188q-286 0 -438 201q-152 202 -112 508t258 500zM1064 1456q-84 0 -140 41t-73 49t-46 8q-76 0 -168 -77
l-51 63q160 162 286 162q63 0 93 -19l69 -49q48 -35 110 -35q62 1 89 13t86 63l49 -63q-88 -88 -154 -122t-150 -34z" />
    <glyph glyph-name="Odieresis" unicode="&#xd6;" horiz-adv-x="1540" 
d="M772 86q176 0 307 157t170 411t-50 432t-252 178t-301 -165t-168 -413t56 -424t238 -176zM468 1183q218 193 503 193t439 -202t110 -512q-45 -312 -260 -500t-500 -188q-286 0 -438 201q-152 202 -112 508t258 500zM708 1661q50 0 84 -35t35 -85q-1 -50 -35 -85t-84 -35
t-86 35t-36 85t36 85t86 35zM1407 1541q0 -50 -35 -85t-85 -35t-85 35t-35 85t35 85t85 35t85 -35t35 -85z" />
    <glyph glyph-name="multiply" unicode="&#xd7;" horiz-adv-x="1126" 
d="M1063 82l-119 -119l-381 381l-381 -381l-119 119l381 381l-381 381l119 119l381 -381l381 381l119 -119l-381 -381z" />
    <glyph glyph-name="Oslash" unicode="&#xd8;" horiz-adv-x="1533" 
d="M779 86q169 0 300 157t174 433q25 166 -14 307l-717 -696q88 -201 257 -201zM1204 1079q-90 185 -255 185t-303 -165t-169 -423q-18 -152 15 -291zM1661 1393l-240 -234q143 -199 101 -483q-47 -326 -262 -514t-506 -189q-240 0 -394 158l-251 -246l-64 66l258 252
q-131 197 -94 473q41 313 259 507t507 193q233 0 385 -145l235 229z" />
    <glyph glyph-name="Ugrave" unicode="&#xd9;" horiz-adv-x="1597" 
d="M1739 1352l-13 -86h-172l-122 -770q-84 -522 -633 -523q-225 0 -356 128q-130 128 -97 337l131 828h-155l12 86h553l-13 -86h-153l-121 -764q-66 -395 248 -396q204 0 312 100t140 296l119 762h-170l15 88h475zM1108 1397h-143l-271 329h226z" />
    <glyph glyph-name="Uacute" unicode="&#xda;" horiz-adv-x="1597" 
d="M1739 1352l-13 -86h-172l-122 -770q-84 -522 -633 -523q-225 0 -356 128q-130 128 -97 337l131 828h-155l12 86h553l-13 -86h-153l-121 -764q-66 -395 248 -396q204 0 312 100t140 296l119 762h-170l15 88h475zM1405 1722l-379 -329h-143l297 329h225z" />
    <glyph glyph-name="Ucircumflex" unicode="&#xdb;" horiz-adv-x="1597" 
d="M1739 1352l-13 -86h-172l-122 -770q-84 -522 -633 -523q-225 0 -356 128q-130 128 -97 337l131 828h-155l12 86h553l-13 -86h-153l-121 -764q-66 -395 248 -396q204 0 312 100t140 296l119 762h-170l15 88h475zM1370 1489h-106l-146 180l-205 -180h-116l284 338h123z" />
    <glyph glyph-name="Udieresis" unicode="&#xdc;" horiz-adv-x="1597" 
d="M1739 1352l-13 -86h-172l-122 -770q-84 -522 -633 -523q-225 0 -356 128q-130 128 -97 337l131 828h-155l12 86h553l-13 -86h-153l-121 -764q-66 -395 248 -396q204 0 312 100t140 296l119 762h-170l15 88h475zM932 1543q0 -50 -36 -85t-85 -35t-85 35t-36 85t36 85
t85 35t85 -35t36 -85zM1347 1663q51 0 85 -35t34 -85t-34 -85t-85 -35q-50 0 -85 35t-35 85t35 85t85 35z" />
    <glyph glyph-name="Yacute" unicode="&#xdd;" horiz-adv-x="1253" 
d="M1319 1735l-379 -330h-143l297 330h225zM1481 1352l-13 -86h-147l-432 -561l-98 -619h155l-12 -86h-553l12 86h154l90 565l-307 615h-129l12 86h553l-12 -86h-152l219 -449l344 449h-174l13 86h477z" />
    <glyph glyph-name="Thorn" unicode="&#xde;" horiz-adv-x="1228" 
d="M768 297q-47 0 -109 12l17 101q25 -6 53 -7q88 0 156 69q67 69 91 201t-24 219t-157 87h-123l-142 -893h175l-13 -86h-573l12 86h156l184 1180h-156l13 86h401l-37 -258h178q190 0 282 -112t76 -285q-18 -174 -148 -287t-312 -113z" />
    <glyph glyph-name="germandbls" unicode="&#xdf;" horiz-adv-x="1126" 
d="M720 84q54 0 94 33q38 33 38 95t-52 120t-114 96q-62 37 -114 97t-52 130q0 129 113 237q47 44 93 87q112 105 112 200t-43 152t-122 57t-111 -52t-58 -216l-201 -1233q-31 -184 -155 -298t-289 -113q-127 0 -240 94l135 164q22 -27 62 -59q40 -31 71 -44q31 -12 57 -21
t36 -13q49 55 70 114q22 59 52 250l199 1206q25 154 139 252q115 99 252 99q138 0 232 -82t94 -201t-96 -221q-184 -201 -185 -320q0 -75 113 -157q47 -35 95 -73q114 -90 114 -206q0 -115 -110 -195q-109 -79 -263 -79t-295 94l117 153q96 -109 127 -128t85 -19z" />
    <glyph glyph-name="agrave" unicode="&#xe0;" 
d="M570 854q-110 0 -190 -154t-81 -391q-2 -74 17 -123q18 -49 56 -49t97 66q95 111 143 227t111 348q-43 76 -153 76zM68 268q0 144 55 300t177 270q122 115 286 114q106 0 170 -49l16 35h178l-100 -576q-16 -102 -14 -143q20 20 118 156l68 -51q-190 -297 -348 -342
q-61 89 -43 262l8 57q-68 -133 -173 -230t-237 -98q-73 0 -117 75q-44 76 -44 220zM801 1083h-144l-270 330h223z" />
    <glyph glyph-name="aacute" unicode="&#xe1;" 
d="M570 854q-110 0 -190 -154t-81 -391q-2 -74 17 -123q18 -49 56 -49t97 66q95 111 143 227t111 348q-43 76 -153 76zM68 268q0 144 55 300t177 270q122 115 286 114q106 0 170 -49l16 35h178l-100 -576q-16 -102 -14 -143q20 20 118 156l68 -51q-190 -297 -348 -342
q-61 89 -43 262l8 57q-68 -133 -173 -230t-237 -98q-73 0 -117 75q-44 76 -44 220zM1044 1413l-376 -330h-144l297 330h223z" />
    <glyph glyph-name="acircumflex" unicode="&#xe2;" 
d="M570 854q-110 0 -190 -154t-81 -391q-2 -74 17 -123q18 -49 56 -49t97 66q95 111 143 227t111 348q-43 76 -153 76zM68 268q0 144 55 300t177 270q122 115 286 114q106 0 170 -49l16 35h178l-100 -576q-16 -102 -14 -143q20 20 118 156l68 -51q-190 -297 -348 -342
q-61 89 -43 262l8 57q-68 -133 -173 -230t-237 -98q-73 0 -117 75q-44 76 -44 220zM954 1083h-106l-148 181l-202 -181h-117l283 338h122z" />
    <glyph glyph-name="atilde" unicode="&#xe3;" 
d="M570 854q-110 0 -190 -154t-81 -391q-2 -74 17 -123q18 -49 56 -49t97 66q95 111 143 227t111 348q-43 76 -153 76zM68 268q0 144 55 300t177 270q122 115 286 114q106 0 170 -49l16 35h178l-100 -576q-16 -102 -14 -143q20 20 118 156l68 -51q-190 -297 -348 -342
q-61 89 -43 262l8 57q-68 -133 -173 -230t-237 -98q-73 0 -117 75q-44 76 -44 220zM762 1057q-86 0 -142 42t-72 49q-15 7 -46 7q-76 0 -168 -78l-51 64q160 162 286 162q63 0 93 -19l69 -49q49 -35 109 -35t89 12q28 12 87 64l49 -64q-88 -88 -153 -122q-64 -34 -150 -33z
" />
    <glyph glyph-name="adieresis" unicode="&#xe4;" 
d="M570 854q-110 0 -190 -154t-81 -391q-2 -74 17 -123q18 -49 56 -49t97 66q95 111 143 227t111 348q-43 76 -153 76zM68 268q0 144 55 300t177 270q122 115 286 114q106 0 170 -49l16 35h178l-100 -576q-16 -102 -14 -143q20 20 118 156l68 -51q-190 -297 -348 -342
q-61 89 -43 262l8 57q-68 -133 -173 -230t-237 -98q-73 0 -117 75q-44 76 -44 220zM643 1175q0 -50 -35 -86t-85 -36t-86 36t-36 86t36 85q36 34 86 34t85 -34t35 -85zM1001 1175q-1 -50 -35 -86t-84 -36t-86 36t-36 86t36 85q36 34 86 34t85 -34q34 -35 34 -85z" />
    <glyph glyph-name="aring" unicode="&#xe5;" 
d="M570 854q-110 0 -190 -154t-81 -391q-2 -74 17 -123q18 -49 56 -49t97 66q95 111 143 227t111 348q-43 76 -153 76zM788 1202q0 39 -27 67q-28 27 -68 27q-39 0 -67 -28t-28 -66t28 -66t66 -28t68 28q28 28 28 66zM68 268q0 144 55 300t177 270q122 115 286 114
q106 0 170 -49l16 35h178l-100 -576q-16 -102 -14 -143q20 20 118 156l68 -51q-190 -297 -348 -342q-61 89 -43 262l8 57q-68 -133 -173 -230t-237 -98q-73 0 -117 75q-44 76 -44 220zM872 1203q0 -75 -52 -128t-127 -53t-128 53t-53 128t53 127t128 52t127 -52t52 -127z
" />
    <glyph glyph-name="ae" unicode="&#xe6;" horiz-adv-x="1345" 
d="M844 92q-10 -10 -25 -20q-2 -8 8 0q19 18 17 20zM570 854q-110 0 -190 -154t-81 -391q-2 -74 17 -123q18 -49 56 -49t97 66q95 111 143 227t111 348q-43 76 -153 76zM1122 782q0 36 -16 56q-31 39 -98 5l-20 -10t-25 -12q-27 -43 -56 -137t-41 -164l256 150v112zM850 -14
q-106 0 -164 14q-72 98 -72 256q-68 -119 -167 -201t-218 -82q-73 0 -117 75q-44 76 -44 220t55 300t177 270q122 115 286 114q106 0 170 -49l16 45h168l-8 -43q78 47 182 47t166 -57q63 -57 63 -156v-53l-491 -268l-6 -103q-12 -203 74 -194q170 14 342 252l67 -60
q-109 -151 -241 -239t-238 -88z" />
    <glyph glyph-name="ccedilla" unicode="&#xe7;" horiz-adv-x="772" 
d="M393 129q51 0 141 62q89 62 173 176l65 -54q-86 -109 -150 -172t-155 -102l-127 -170q72 -2 114 -43t31 -102q-16 -90 -97 -148t-198 -57q-66 0 -159 26l75 113q37 -61 101 -61q39 1 73 33t42 82t-43 77t-113 27l182 184q-74 -16 -178 -16q-53 72 -75 133t-21 151
q0 281 145 484t352 202q148 0 248 -94l-174 -145q-8 12 -25 54t-42 59t-72 18q-20 0 -96 -39q-41 -76 -73 -198t-34 -214q-8 -266 90 -266z" />
    <glyph glyph-name="egrave" unicode="&#xe8;" horiz-adv-x="778" 
d="M571 782q0 36 -16 56q-31 39 -98 5q-7 -3 -21 -10l-24 -12q-27 -43 -56 -137t-41 -164l256 150v112zM291 -14q-78 0 -135 14q-92 125 -93 266q1 270 149 478t329 208q125 0 188 -57t64 -156v-53l-492 -268l-6 -103q-12 -203 74 -194q170 14 342 252l67 -60
q-108 -151 -240 -239t-247 -88zM649 1083h-143l-273 330h226z" />
    <glyph glyph-name="eacute" unicode="&#xe9;" horiz-adv-x="778" 
d="M571 782q0 36 -16 56q-31 39 -98 5q-7 -3 -21 -10l-24 -12q-27 -43 -56 -137t-41 -164l256 150v112zM291 -14q-78 0 -135 14q-92 125 -93 266q1 270 149 478t329 208q125 0 188 -57t64 -156v-53l-492 -268l-6 -103q-12 -203 74 -194q170 14 342 252l67 -60
q-108 -151 -240 -239t-247 -88zM983 1413l-377 -330h-143l297 330h223z" />
    <glyph glyph-name="ecircumflex" unicode="&#xea;" horiz-adv-x="778" 
d="M571 782q0 36 -16 56q-31 39 -98 5q-7 -3 -21 -10l-24 -12q-27 -43 -56 -137t-41 -164l256 150v112zM291 -14q-78 0 -135 14q-92 125 -93 266q1 270 149 478t329 208q125 0 188 -57t64 -156v-53l-492 -268l-6 -103q-12 -203 74 -194q170 14 342 252l67 -60
q-108 -151 -240 -239t-247 -88zM858 1083h-106l-148 181l-203 -181h-116l282 338h125z" />
    <glyph glyph-name="edieresis" unicode="&#xeb;" horiz-adv-x="778" 
d="M571 782q0 36 -16 56q-31 39 -98 5q-7 -3 -21 -10l-24 -12q-27 -43 -56 -137t-41 -164l256 150v112zM291 -14q-78 0 -135 14q-92 125 -93 266q1 270 149 478t329 208q125 0 188 -57t64 -156v-53l-492 -268l-6 -103q-12 -203 74 -194q170 14 342 252l67 -60
q-108 -151 -240 -239t-247 -88zM537 1172q0 -50 -35 -85t-85 -35t-86 36q-36 34 -36 84t36 85t86 35t85 -35t35 -85zM895 1172q0 -50 -35 -85t-85 -35t-86 36q-36 34 -36 84t36 85t86 35t85 -35t35 -85z" />
    <glyph glyph-name="igrave" unicode="&#xec;" horiz-adv-x="575" 
d="M72 803v49l303 96h94l-125 -762q74 70 114 122t50 67l63 -51q-141 -203 -247 -285q-55 -45 -125 -55q-63 72 -63 133t7 114l88 572h-159zM516 1083h-145l-271 330h226z" />
    <glyph glyph-name="iacute" unicode="&#xed;" horiz-adv-x="575" 
d="M72 803v49l303 96h94l-125 -762q74 70 114 122t50 67l63 -51q-141 -203 -247 -285q-55 -45 -125 -55q-63 72 -63 133t7 114l88 572h-159zM784 1413l-376 -330h-144l297 330h223z" />
    <glyph glyph-name="icircumflex" unicode="&#xee;" horiz-adv-x="575" 
d="M72 803v49l303 96h94l-125 -762q74 70 114 122t50 67l63 -51q-141 -203 -247 -285q-55 -45 -125 -55q-63 72 -63 133t7 114l88 572h-159zM655 1083h-106l-148 181l-202 -181h-117l283 338h122z" />
    <glyph glyph-name="idieresis" unicode="&#xef;" horiz-adv-x="575" 
d="M72 803v49l303 96h94l-125 -762q74 70 114 122t50 67l63 -51q-141 -203 -247 -285q-55 -45 -125 -55q-63 72 -63 133t7 114l88 572h-159zM346 1172q0 -50 -36 -85t-86 -35t-85 36q-35 34 -35 84t35 85t85 35t86 -35t36 -85zM540 1292q50 0 84 -35t35 -85q-1 -50 -35 -85
t-84 -35t-85 36q-35 34 -35 84t35 85t85 35z" />
    <glyph glyph-name="eth" unicode="&#xf0;" 
d="M981 606q0 -282 -158 -458t-401 -175q-178 0 -274 112q-95 111 -95 309t127 332t297 134q47 0 129 -26l-2 -93h-88q-86 0 -146 -85q-60 -84 -66 -230t42 -240q49 -94 113 -94q94 0 181 134t87 364t-24 319q-24 90 -95 199l-258 -135l-37 90l228 121q-88 72 -242 84
l20 102q215 0 365 -110l250 133l39 -90l-211 -113q111 -119 139 -168q80 -134 80 -416z" />
    <glyph glyph-name="ntilde" unicode="&#xf1;" horiz-adv-x="1105" 
d="M657 150q0 37 9 79l71 441q15 102 -15 102t-105 -82t-157 -217t-104 -309l-20 -164h-221l127 803h-160v49l299 96h104l-69 -368q139 200 242 284t216 84q43 0 68 -33t25 -80t-17 -149l-82 -502q84 78 160 191l68 -51q-96 -134 -142 -186q-112 -129 -223 -154
q-74 66 -74 166zM732 1057q-85 0 -140 41q-54 41 -72 49t-47 8q-76 0 -168 -78l-51 64q162 162 287 162q63 0 92 -19l69 -49q48 -35 110 -35t89 12t86 64l49 -64q-88 -88 -154 -122t-150 -33z" />
    <glyph glyph-name="ograve" unicode="&#xf2;" horiz-adv-x="913" 
d="M518 850q-100 0 -170 -135t-75 -299t27 -250t95 -86q104 0 172 135t73 299t-28 250t-94 86zM346 -25q-133 1 -222 97t-83 280q8 252 163 426t357 174q141 0 229 -99t82 -300q-8 -250 -164 -414t-362 -164zM700 1083h-143l-272 330h225z" />
    <glyph glyph-name="oacute" unicode="&#xf3;" horiz-adv-x="913" 
d="M518 850q-100 0 -170 -135t-75 -299t27 -250t95 -86q104 0 172 135t73 299t-28 250t-94 86zM346 -25q-133 1 -222 97t-83 280q8 252 163 426t357 174q141 0 229 -99t82 -300q-8 -250 -164 -414t-362 -164zM918 1413l-379 -330h-144l297 330h226z" />
    <glyph glyph-name="ocircumflex" unicode="&#xf4;" horiz-adv-x="913" 
d="M518 850q-100 0 -170 -135t-75 -299t27 -250t95 -86q104 0 172 135t73 299t-28 250t-94 86zM346 -25q-133 1 -222 97t-83 280q8 252 163 426t357 174q141 0 229 -99t82 -300q-8 -250 -164 -414t-362 -164zM881 1083h-107l-145 181l-205 -181h-117l285 338h123z" />
    <glyph glyph-name="otilde" unicode="&#xf5;" horiz-adv-x="913" 
d="M518 850q-100 0 -170 -135t-75 -299t27 -250t95 -86q104 0 172 135t73 299t-28 250t-94 86zM346 -25q-133 1 -222 97t-83 280q8 252 163 426t357 174q141 0 229 -99t82 -300q-8 -250 -164 -414t-362 -164zM706 1057q-84 0 -140 41t-73 49t-47 8q-76 0 -167 -78l-52 64
q160 162 287 162q63 0 92 -19l70 -49q48 -35 110 -35t88 12t87 64l49 -64q-88 -88 -154 -122t-150 -33z" />
    <glyph glyph-name="odieresis" unicode="&#xf6;" horiz-adv-x="913" 
d="M518 850q-100 0 -170 -135t-75 -299t27 -250t95 -86q104 0 172 135t73 299t-28 250t-94 86zM346 -25q-133 1 -222 97t-83 280q8 252 163 426t357 174q141 0 229 -99t82 -300q-8 -250 -164 -414t-362 -164zM516 1170q0 -50 -35 -85t-85 -35t-85 36q-35 34 -35 84t35 85
t85 35t85 -35t35 -85zM755 1290q51 0 85 -35t34 -85t-34 -85t-85 -35q-50 0 -85 36q-35 34 -35 84t35 85t85 35z" />
    <glyph glyph-name="divide" unicode="&#xf7;" horiz-adv-x="1126" 
d="M686 97q0 -50 -35 -85t-85 -35t-85 35t-35 85t35 85t85 35t85 -35t35 -85zM1075 426h-1024v117h1024v-117zM446 876q0 50 35 84q35 36 85 36t85 -36q35 -35 35 -85q0 -51 -35 -85t-85 -34t-85 35t-35 85z" />
    <glyph glyph-name="oslash" unicode="&#xf8;" horiz-adv-x="907" 
d="M395 80q104 0 172 135t74 328q4 43 0 84l-344 -455q33 -92 98 -92zM518 850q-100 0 -170 -135q-87 -168 -76 -412l344 453q-35 94 -98 94zM346 -25q-94 0 -164 45l-116 -153l-74 65l119 156q-76 98 -70 264q8 252 163 426t357 174q98 0 170 -45l121 160l74 -63l-125 -164
q78 -102 71 -287q-8 -250 -164 -414t-362 -164z" />
    <glyph glyph-name="ugrave" unicode="&#xf9;" horiz-adv-x="1116" 
d="M100 803v49l301 96h103l-111 -690q-16 -104 15 -104q32 0 96 68t125 164q61 94 86 158t33 102t20 116l27 166h219l-117 -744q74 72 107 117l53 76l67 -51q-88 -126 -136 -182t-108 -103t-161 -57q-37 72 -40 134t11 138l15 76q-236 -354 -429 -355q-123 0 -122 144
q0 16 18 135l86 547h-158zM772 1083h-143l-273 330h226z" />
    <glyph glyph-name="uacute" unicode="&#xfa;" horiz-adv-x="1116" 
d="M100 803v49l301 96h103l-111 -690q-16 -104 15 -104q32 0 96 68t125 164q61 94 86 158t33 102t20 116l27 166h219l-117 -744q74 72 107 117l53 76l67 -51q-88 -126 -136 -182t-108 -103t-161 -57q-37 72 -40 134t11 138l15 76q-236 -354 -429 -355q-123 0 -122 144
q0 16 18 135l86 547h-158zM1090 1413l-377 -330h-144l295 330h226z" />
    <glyph glyph-name="ucircumflex" unicode="&#xfb;" horiz-adv-x="1116" 
d="M100 803v49l301 96h103l-111 -690q-16 -104 15 -104q32 0 96 68t125 164q61 94 86 158t33 102t20 116l27 166h219l-117 -744q74 72 107 117l53 76l67 -51q-88 -126 -136 -182t-108 -103t-161 -57q-37 72 -40 134t11 138l15 76q-236 -354 -429 -355q-123 0 -122 144
q0 16 18 135l86 547h-158zM944 1083h-106l-148 181l-203 -181h-116l282 338h125z" />
    <glyph glyph-name="udieresis" unicode="&#xfc;" horiz-adv-x="1116" 
d="M100 803v49l301 96h103l-111 -690q-16 -104 15 -104q32 0 96 68t125 164q61 94 86 158t33 102t20 116l27 166h219l-117 -744q74 72 107 117l53 76l67 -51q-88 -126 -136 -182t-108 -103t-161 -57q-37 72 -40 134t11 138l15 76q-236 -354 -429 -355q-123 0 -122 144
q0 16 18 135l86 547h-158zM594 1175q0 -50 -36 -85t-85 -35t-85 35t-36 85t36 85q36 34 85 34t85 -34t36 -85zM880 1292q50 0 84 -35t35 -85q-1 -50 -35 -85t-84 -35t-86 36q-36 34 -36 84t36 85t86 35z" />
    <glyph glyph-name="yacute" unicode="&#xfd;" horiz-adv-x="870" 
d="M913 1413l-376 -330h-144l297 330h223zM899 741q0 -80 -32 -147q-32 -66 -49 -100t-54 -88q-37 -55 -51 -77q-15 -22 -57 -79t-46 -64q-63 -88 -102 -270l-70 -334h156l-16 -80h-521l15 78h149l92 465q21 95 -18 258l-115 500h-164v65l351 82l157 -708l82 116
q82 119 107 171t25 135t-120 184l189 106q92 -86 92 -213z" />
    <glyph glyph-name="thorn" unicode="&#xfe;" horiz-adv-x="991" 
d="M758 616q0 141 -53 142q-29 0 -75 -39q-65 -55 -143 -194t-143 -378q49 -86 154 -86q104 0 182 164t78 391zM989 674q0 -129 -45 -265t-117 -243q-133 -193 -346 -193q-88 0 -145 33l-70 -426h176l-12 -78h-536l12 78h139l279 1784h-160v51l305 94h98l-141 -911
q78 158 192 256q115 98 226 98q145 1 145 -278z" />
    <glyph glyph-name="ydieresis" unicode="&#xff;" horiz-adv-x="870" 
d="M899 741q0 -80 -32 -147q-32 -66 -49 -100t-54 -88q-37 -55 -51 -77q-15 -22 -57 -79t-46 -64q-63 -88 -102 -270l-70 -334h156l-16 -80h-521l15 78h149l92 465q21 95 -18 258l-115 500h-164v65l351 82l157 -708l82 116q82 119 107 171t25 135t-120 184l189 106
q92 -86 92 -213zM473 1172q0 -50 -35 -85t-85 -35t-85 36q-35 34 -35 84t35 85t85 35t85 -35t35 -85zM860 1172q0 -50 -35 -85t-85 -35t-85 36q-35 34 -35 84t35 85t85 35t85 -35t35 -85z" />
    <glyph glyph-name="dotlessi" unicode="&#x131;" horiz-adv-x="575" 
d="M72 803v49l303 96h94l-125 -762q74 70 114 122t50 67l63 -51q-141 -203 -247 -285q-55 -45 -125 -55q-63 72 -63 133t7 114l88 572h-159z" />
    <glyph glyph-name="Lslash" unicode="&#x141;" horiz-adv-x="1087" 
d="M1077 272l-43 -272h-946l12 86h156l78 492l-225 -119l-37 88l282 149l90 570h-155l12 86h553l-12 -86h-154l-70 -428l248 129l37 -88l-303 -160l-94 -598h436l25 151h110z" />
    <glyph glyph-name="lslash" unicode="&#x142;" horiz-adv-x="497" 
d="M84 117q0 61 8 114l55 357l-243 -129l-37 88l299 160l104 657h-190v49l334 96h94l-111 -682l265 140l36 -88l-321 -170l-84 -523q73 70 113 122t51 67l63 -51q-141 -203 -248 -285q-55 -45 -125 -55q-63 72 -63 133z" />
    <glyph glyph-name="OE" unicode="&#x152;" horiz-adv-x="1896" 
d="M766 90q129 0 184 37t72 133l135 852q10 70 -36 107t-145 37t-173 -38q-74 -36 -152 -122q-159 -182 -197 -424t53 -412t259 -170zM1063 0q-97 0 -201 -13t-141 -14q-276 0 -440 206t-118 494q46 289 278 495t509 206l326 -22h610l8 53h111l-51 -328h-111l23 148h-428
l-74 -477h330l20 139h117l-64 -406h-116l22 146h-330l-79 -506h448l25 155h114l-43 -276h-745z" />
    <glyph glyph-name="oe" unicode="&#x153;" horiz-adv-x="1363" 
d="M518 850q-100 0 -170 -135t-75 -299t27 -250t95 -86q104 0 172 135t73 299t-28 250t-94 86zM1126 782q0 36 -16 56t-45 19t-44 -9t-29 -15t-25 -12q-27 -43 -56 -137t-41 -164l256 150v112zM846 -14q-78 0 -135 14q-35 47 -45 121q-54 -61 -146 -103t-174 -43
q-133 1 -222 97t-83 280q8 252 163 426t357 174q82 0 154 -46t94 -115q55 69 135 115t152 46q125 0 188 -57t64 -156v-53l-492 -268l-6 -103q-12 -203 74 -194q170 14 342 252l67 -60q-109 -151 -241 -239t-246 -88z" />
    <glyph glyph-name="Scaron" unicode="&#x160;" horiz-adv-x="1150" 
d="M567 1765h107l145 -180l205 180h117l-285 -338h-123zM788 1260q-92 0 -154 -43t-70 -118t29 -141q36 -66 94 -110q160 -120 235 -189q150 -139 131 -328q-21 -189 -149 -273t-307 -85q-179 0 -304 80l-10 -71h-113l57 368h113l-23 -151q109 -100 246 -101q221 0 248 183
q12 85 -38 161t-130 134t-159 121t-129 151t-36 194q19 158 151 246t325 88q86 0 213 -45l10 62h110l-55 -351h-110l22 142q-105 76 -197 76z" />
    <glyph glyph-name="scaron" unicode="&#x161;" horiz-adv-x="671" 
d="M797 1352l-273 -338h-90l-176 338h100l146 -181l205 181h88zM289 -12q-62 0 -107 12h-139l41 252h98q-2 -8 -10 -74q0 -47 38 -77q38 -29 100 -29t98 44t36 99q1 92 -113 177q-48 36 -95 75q-117 97 -114 212q3 117 98 193t218 76q45 0 83 -6t40 -6h129l-39 -252h-94
q12 53 12 92t-29 65q-30 25 -82 25t-88 -41t-37 -90t32 -89t81 -76t94 -76q118 -98 115 -224t-113 -204t-253 -78z" />
    <glyph glyph-name="Ydieresis" unicode="&#x178;" horiz-adv-x="1253" 
d="M1481 1352l-13 -86h-147l-432 -561l-98 -619h155l-12 -86h-553l12 86h154l90 565l-307 615h-129l12 86h553l-12 -86h-152l219 -449l344 449h-174l13 86h477zM776 1539q0 -50 -35 -85t-85 -35t-85 35t-35 85t35 85t85 35t85 -35t35 -85zM1241 1543q0 -50 -35 -85t-85 -35
t-85 35t-35 85t35 85t85 35t85 -35t35 -85z" />
    <glyph glyph-name="Zcaron" unicode="&#x17d;" horiz-adv-x="1368" 
d="M690 1765h107l145 -180l205 180h117l-285 -338h-123zM1421 1352l-10 -64l-950 -1167h696l33 211h110l-51 -332h-1126l8 61l959 1170h-662l-27 -164h-110l53 342h111l-9 -57h975z" />
    <glyph glyph-name="zcaron" unicode="&#x17e;" horiz-adv-x="999" 
d="M915 1352l-272 -338h-90l-176 338h100l146 -181l204 181h88zM344 209q172 0 406 -82l147 166l68 -47q-103 -160 -161 -211t-154 -51t-158 16l-261 74l-127 -90h-88q16 63 42 98t128 137l506 508h-33q-166 0 -321 78l-150 -164l-65 37q139 270 301 270q27 0 115 -18
l264 -53l100 71h96q-37 -104 -145 -213l-530 -526h20z" />
    <glyph glyph-name="florin" unicode="&#x192;" horiz-adv-x="1179" 
d="M1348 1364q0 -62 -40 -101q-40 -40 -94 -40q-86 0 -100 84l-8 47q-8 51 -57 51q-137 0 -213 -272l-62 -226h287l-37 -123h-289l-231 -895q-106 -414 -422 -413q-108 0 -174 47t-66 115t33 103q33 36 82 36q80 0 109 -109q12 -43 27 -60t42 -18q47 0 87 83t93 290l213 821
h-233l39 123h231l74 271q43 160 166 258q99 76 241 76t222 -44q80 -42 80 -104z" />
    <glyph glyph-name="circumflex" unicode="&#x2c6;" horiz-adv-x="692" 
d="M778 1014h-90l-145 178l-205 -178h-98l282 338h90z" />
    <glyph glyph-name="caron" unicode="&#x2c7;" horiz-adv-x="692" 
d="M838 1352l-273 -338h-90l-176 338h100l146 -181l205 181h88z" />
    <glyph glyph-name="breve" unicode="&#x2d8;" horiz-adv-x="720" 
d="M903 1352q-35 -96 -63 -144t-76 -94q-111 -111 -244 -110q-254 0 -276 348h90q39 -188 210 -188t271 188h88z" />
    <glyph glyph-name="dotaccent" unicode="&#x2d9;" horiz-adv-x="479" 
d="M530 1174q0 -43 -34 -74t-75 -31q-42 0 -69 30q-26 31 -26 73t32 73q33 31 76 31q44 0 70 -30t26 -72z" />
    <glyph glyph-name="ring" unicode="&#x2da;" horiz-adv-x="497" 
d="M530 1178q0 40 -26 66t-64 26q-40 0 -70 -28t-30 -66t25 -67q25 -28 63 -28t71 29q31 29 31 68zM272 1176q0 68 52 116t120 47t111 -47t43 -114t-53 -117t-121 -49t-110 48t-42 116z" />
    <glyph glyph-name="ogonek" unicode="&#x2db;" horiz-adv-x="778" 
d="M584 -281l-174 -92q-168 -27 -198 46t30 147t141 117l154 81l4 -6q-221 -137 -172 -258q27 -66 215 -35z" />
    <glyph glyph-name="tilde" unicode="&#x2dc;" horiz-adv-x="929" 
d="M720 1073q-86 0 -142 42t-72 49t-49 7q-76 0 -168 -77l-43 34q145 158 276 158q63 0 90 -20l70 -47q50 -37 110 -37t88 13t87 65l45 -33q-88 -90 -148 -122t-144 -32z" />
    <glyph glyph-name="hungarumlaut" unicode="&#x2dd;" horiz-adv-x="784" 
d="M682 1352l-375 -330h-110l295 330h190zM963 1352l-377 -330h-109l295 330h191z" />
    <glyph glyph-name="endash" unicode="&#x2013;" horiz-adv-x="1126" 
d="M1159 559l-24 -166h-1024l24 166h1024z" />
    <glyph glyph-name="emdash" unicode="&#x2014;" horiz-adv-x="2048" 
d="M2132 559l-25 -168h-2048l25 168h2048z" />
    <glyph glyph-name="quoteleft" unicode="&#x2018;" horiz-adv-x="512" 
d="M590 1298q-147 -111 -160 -190q-8 -45 12 -71t74 -44q-35 -63 -72 -90t-94 -27t-88 40q-31 38 -20 106q25 168 276 354z" />
    <glyph glyph-name="quoteright" unicode="&#x2019;" horiz-adv-x="512" 
d="M584 1233q-25 -168 -277 -356l-71 79q147 106 160 190t-87 114q35 63 71 90q36 26 94 26t89 -38t21 -105z" />
    <glyph glyph-name="quotesinglbase" unicode="&#x201a;" horiz-adv-x="512" 
d="M307 213q57 -1 88 -39t21 -104q-25 -168 -277 -357l-71 80q150 105 162 189t-89 114q37 66 73 92t93 25z" />
    <glyph glyph-name="quotedblleft" unicode="&#x201c;" horiz-adv-x="837" 
d="M369 874q-57 0 -88 39t-21 105q25 168 277 356l69 -80q-147 -109 -162 -190q-6 -43 14 -69t77 -44q-37 -65 -73 -91t-93 -26zM694 874q-57 0 -88 39t-20 105q25 168 276 356l70 -80q-147 -109 -162 -190q-6 -43 14 -69t76 -44q-37 -65 -73 -91t-93 -26z" />
    <glyph glyph-name="quotedblright" unicode="&#x201d;" horiz-adv-x="837" 
d="M586 1233q-25 -168 -277 -356l-71 79q147 106 160 190t-87 114q35 63 71 90q36 26 94 26t89 -38t21 -105zM911 1233q-25 -168 -276 -356l-72 79q147 106 161 190t-87 114q35 63 71 90q36 26 94 26t88 -38t21 -105z" />
    <glyph glyph-name="quotedblbase" unicode="&#x201e;" horiz-adv-x="837" 
d="M300 213q58 -1 89 -39t21 -104q-25 -168 -277 -357l-72 80q147 109 162 191q12 82 -88 112q35 63 71 90t94 27zM626 213q58 -1 88 -39t21 -104q-25 -168 -276 -357l-72 80q147 109 162 191q12 82 -88 112q35 63 70 90q37 27 95 27z" />
    <glyph glyph-name="dagger" unicode="&#x2020;" horiz-adv-x="1173" 
d="M762 424l-217 -932h-88l78 932l122 373h99zM637 936l-16 -94l-385 -80l40 252zM1208 1014l-41 -252l-360 80l16 94zM920 1352l-136 -373h-98l-14 373h248z" />
    <glyph glyph-name="daggerdbl" unicode="&#x2021;" horiz-adv-x="1173" 
d="M625 -508h-232l117 371h98zM489 2l-16 -94l-385 -78l41 252zM1061 82l-41 -252l-361 78l17 94zM762 422l-125 -375h-98l12 375l106 375h99zM637 936l-16 -94l-385 -80l40 252zM1208 1014l-41 -252l-360 80l16 94zM920 1352l-136 -373h-98l2 373h232z" />
    <glyph glyph-name="bullet" unicode="&#x2022;" horiz-adv-x="720" 
d="M686 473q0 -135 -95 -230t-231 -95t-230 94q-95 96 -95 231t95 230t230 95q134 0 230 -94q96 -96 96 -231z" />
    <glyph glyph-name="ellipsis" unicode="&#x2026;" horiz-adv-x="1536" 
d="M393 115q0 -57 -40 -97t-97 -41q-57 0 -97 40q-40 39 -40 97t40 98t97 40t97 -40t40 -97zM924 115q0 -57 -41 -97t-99 -41q-58 0 -97 40q-40 39 -40 97t40 98t97 40q56 0 98 -40t42 -97zM1434 115q0 -57 -40 -97t-98 -41q-58 0 -97 40q-40 39 -40 97t40 98t97 40
q58 0 98 -40t40 -97z" />
    <glyph glyph-name="perthousand" unicode="&#x2030;" horiz-adv-x="2527" 
d="M629 1014q-1 84 -59 142t-142 58t-142 -58t-58 -142t58 -142t142 -59q84 1 142 59t59 142zM1513 332q0 82 -58 141t-142 59q-85 0 -143 -58t-58 -142t58 -142t142 -59t143 59q58 60 58 142zM2298 332q0 82 -60 141t-141 59q-82 0 -141 -59q-60 -59 -60 -141t60 -142
t141 -59q81 -1 141 59t60 142zM786 1014q0 -150 -104 -254t-252 -104t-254 104t-106 254t105 255t254 105t253 -105t104 -255zM1548 1407l-1179 -1501h-195l1180 1501h194zM1671 334q0 -148 -105 -254t-254 -106t-253 104q-105 106 -105 255t104 253t254 104q148 0 254 -104
t105 -252zM2097 690q151 0 255 -104t104 -252t-104 -254t-255 -106q-150 0 -254 104q-104 106 -104 255t104 253t254 104z" />
    <glyph glyph-name="guilsinglleft" unicode="&#x2039;" horiz-adv-x="681" 
d="M729 852l-12 -84l-293 -309l194 -309l-12 -87l-500 396z" />
    <glyph glyph-name="guilsinglright" unicode="&#x203a;" horiz-adv-x="681" 
d="M678 459l-623 -396l13 87l290 309l-192 309l12 84z" />
    <glyph glyph-name="fraction" unicode="&#x2044;" horiz-adv-x="1110" 
d="M1237 1407l-1180 -1501h-194l1179 1501h195z" />
    <glyph glyph-name="trademark" unicode="&#x2122;" horiz-adv-x="2048" 
d="M838 1135h-78v127h-191v-494h140v-78h-476v78h138v494h-199v-127h-78v245h78v-28h588v28h78v-245zM1917 1272h-129v-504h119v-78h-416v78h108v424l-231 -502l-231 508v-430h102v-78h-309v78h119v504h-129v80h331l164 -357l170 357h332v-80z" />
    <glyph glyph-name="minus" unicode="&#x2212;" horiz-adv-x="1126" 
d="M1075 389h-1024v168h1024v-168z" />
    <glyph glyph-name="fi" unicode="&#xfb01;" horiz-adv-x="1073" 
d="M633 117q0 61 8 114l88 574h-280l-140 -916q-27 -178 -153 -296t-283 -117q-117 0 -258 90l137 170q80 -94 219 -139q82 33 135 364l132 844h-170l4 67l188 62l39 223q29 162 154 259t299 97t299 -96l-146 -184q-47 59 -162 119l-77 41q-80 -25 -109 -73t-51 -187
l-35 -205h272l129 20h95l-125 -762q74 70 114 122t50 67l63 -51q-141 -203 -248 -285q-55 -45 -125 -55q-63 72 -63 133z" />
    <glyph glyph-name="fl" unicode="&#xfb02;" horiz-adv-x="1048" 
d="M629 117q0 61 8 114l170 1076q-33 29 -64 45l-77 41q-80 -25 -109 -73t-51 -187l-35 -205h209l-18 -123h-213l-140 -916q-27 -178 -153 -296t-283 -117q-117 0 -258 90l137 170q80 -94 219 -139q82 33 135 364l132 844h-170l4 67l188 62l39 223q29 162 154 259t278 97
q76 0 154 -24l73 20h95l-215 -1323q86 82 163 189l64 -51q-141 -203 -248 -285q-55 -45 -125 -55q-63 72 -63 133z" />
  </font>
</defs>
</svg>
